v 0 0.0182626 -0.003175
v -0.000275139 0.0182626 -0.00317798
l 1 2
v -0.000550148 0.0182626 -0.00318692
v -0.000824899 0.0182626 -0.00320182
l 3 4
v -0.00109926 0.0182626 -0.00322266
v -0.00137311 0.0182626 -0.00324945
l 5 6
v -0.00164631 0.0182626 -0.00328216
v -0.00191875 0.0182626 -0.00332078
l 7 8
v -0.00219028 0.0182626 -0.0033653
v -0.00246078 0.0182626 -0.00341568
l 9 10
v -0.00273013 0.0182626 -0.00347192
v -0.00299819 0.0182626 -0.00353398
l 11 12
v -0.00326485 0.0182626 -0.00360183
v -0.00352997 0.0182626 -0.00367544
l 13 14
v -0.00379344 0.0182626 -0.00375478
v -0.00405513 0.0182626 -0.00383981
l 15 16
v -0.00431491 0.0182626 -0.00393048
v -0.00457267 0.0182626 -0.00402677
l 17 18
v -0.00482828 0.0182626 -0.00412861
v -0.00508163 0.0182626 -0.00423597
l 19 20
v -0.00533259 0.0182626 -0.00434879
v -0.00558105 0.0182626 -0.00446702
l 21 22
v -0.00582689 0.0182626 -0.00459061
v -0.00606999 0.0182626 -0.0047195
l 23 24
v -0.00631024 0.0182626 -0.00485362
v -0.00654753 0.0182626 -0.00499291
l 25 26
v -0.00678175 0.0182626 -0.00513732
v -0.00701279 0.0182626 -0.00528676
l 27 28
v -0.00724053 0.0182626 -0.00544117
v -0.00746487 0.0182626 -0.00560048
l 29 30
v -0.00768571 0.0182626 -0.00576462
v -0.00790295 0.0182626 -0.0059335
l 31 32
v -0.00811647 0.0182626 -0.00610704
v -0.00832618 0.0182626 -0.00628518
l 33 34
v -0.00853198 0.0182626 -0.00646781
v -0.00873378 0.0182626 -0.00665486
l 35 36
v -0.00893148 0.0182626 -0.00684623
v -0.00912499 0.0182626 -0.00704185
l 37 38
v -0.00931421 0.0182626 -0.00724161
v -0.00949906 0.0182626 -0.00744542
l 39 40
v -0.00967946 0.0182626 -0.00765319
v -0.00985531 0.0182626 -0.00786482
l 41 42
v -0.0100265 0.0182626 -0.00808021
v -0.010193 0.0182626 -0.00829926
l 43 44
v -0.0103548 0.0182626 -0.00852187
v -0.0105116 0.0182626 -0.00874792
l 45 46
v -0.0106636 0.0182626 -0.00897733
v -0.0108105 0.0182626 -0.00920997
l 47 48
v -0.0109524 0.0182626 -0.00944573
v -0.0110891 0.0182626 -0.00968452
l 49 50
v -0.0112206 0.0182626 -0.00992621
v -0.0113468 0.0182626 -0.0101707
l 51 52
v -0.0114678 0.0182626 -0.0104179
v -0.0115833 0.0182626 -0.0106676
l 53 54
v -0.0116934 0.0182626 -0.0109197
v -0.011798 0.0182626 -0.0111743
l 55 56
v -0.0118971 0.0182626 -0.0114309
v -0.0119906 0.0182626 -0.0116897
l 57 58
v -0.0120784 0.0182626 -0.0119505
v -0.0121606 0.0182626 -0.0122131
l 59 60
v -0.0122371 0.0182626 -0.0124774
v -0.0123078 0.0182626 -0.0127433
l 61 62
v -0.0123728 0.0182626 -0.0130107
v -0.0124319 0.0182626 -0.0132794
l 63 64
v -0.0124852 0.0182626 -0.0135493
v -0.0125327 0.0182626 -0.0138204
l 65 66
v -0.0125743 0.0182626 -0.0140924
v -0.0126099 0.0182626 -0.0143652
l 67 68
v -0.0126397 0.0182626 -0.0146387
v -0.0126635 0.0182626 -0.0149129
l 69 70
v -0.0126814 0.0182626 -0.0151874
v -0.0126933 0.0182626 -0.0154623
l 71 72
v -0.0126993 0.0182626 -0.0157374
v -0.0126993 0.0182626 -0.0160126
l 73 74
v -0.0126933 0.0182626 -0.0162877
v -0.0126814 0.0182626 -0.0165626
l 75 76
v -0.0126635 0.0182626 -0.0168371
v -0.0126397 0.0182626 -0.0171113
l 77 78
v -0.0126099 0.0182626 -0.0173848
v -0.0125743 0.0182626 -0.0176576
l 79 80
v -0.0125327 0.0182626 -0.0179296
v -0.0124852 0.0182626 -0.0182007
l 81 82
v -0.0124319 0.0182626 -0.0184706
v -0.0123728 0.0182626 -0.0187393
l 83 84
v -0.0123078 0.0182626 -0.0190067
v -0.0122371 0.0182626 -0.0192726
l 85 86
v -0.0121606 0.0182626 -0.0195369
v -0.0120784 0.0182626 -0.0197995
l 87 88
v -0.0119906 0.0182626 -0.0200603
v -0.0118971 0.0182626 -0.0203191
l 89 90
v -0.011798 0.0182626 -0.0205758
v -0.0116934 0.0182626 -0.0208302
l 91 92
v -0.0115833 0.0182626 -0.0210824
v -0.0114678 0.0182626 -0.0213321
l 93 94
v -0.0113468 0.0182626 -0.0215793
v -0.0112206 0.0182626 -0.0218238
l 95 96
v -0.0110891 0.0182626 -0.0220655
v -0.0109524 0.0182626 -0.0223043
l 97 98
v -0.0108105 0.0182626 -0.02254
v -0.0106636 0.0182626 -0.0227727
l 99 100
v -0.0105116 0.0182626 -0.0230021
v -0.0103548 0.0182626 -0.0232281
l 101 102
v -0.010193 0.0182626 -0.0234507
v -0.0100265 0.0182626 -0.0236698
l 103 104
v -0.00985531 0.0182626 -0.0238852
v -0.00967946 0.0182626 -0.0240968
l 105 106
v -0.00949906 0.0182626 -0.0243046
v -0.00931421 0.0182626 -0.0245084
l 107 108
v -0.00912499 0.0182626 -0.0247081
v -0.00893148 0.0182626 -0.0249038
l 109 110
v -0.00873378 0.0182626 -0.0250951
v -0.00853198 0.0182626 -0.0252822
l 111 112
v -0.00832618 0.0182626 -0.0254648
v -0.00811647 0.0182626 -0.025643
l 113 114
v -0.00790295 0.0182626 -0.0258165
v -0.00768571 0.0182626 -0.0259854
l 115 116
v -0.00746487 0.0182626 -0.0261495
v -0.00724053 0.0182626 -0.0263088
l 117 118
v -0.00701279 0.0182626 -0.0264632
v -0.00678175 0.0182626 -0.0266127
l 119 120
v -0.00654753 0.0182626 -0.0267571
v -0.00631024 0.0182626 -0.0268964
l 121 122
v -0.00606999 0.0182626 -0.0270305
v -0.00582689 0.0182626 -0.0271594
l 123 124
v -0.00558105 0.0182626 -0.027283
v -0.00533259 0.0182626 -0.0274012
l 125 126
v -0.00508163 0.0182626 -0.027514
v -0.00482828 0.0182626 -0.0276214
l 127 128
v -0.00457267 0.0182626 -0.0277232
v -0.00431491 0.0182626 -0.0278195
l 129 130
v -0.00405513 0.0182626 -0.0279102
v -0.00379344 0.0182626 -0.0279952
l 131 132
v -0.00352997 0.0182626 -0.0280746
v -0.00326485 0.0182626 -0.0281482
l 133 134
v -0.00299819 0.0182626 -0.028216
v -0.00273013 0.0182626 -0.0282781
l 135 136
v -0.00246078 0.0182626 -0.0283343
v -0.00219028 0.0182626 -0.0283847
l 137 138
v -0.00191875 0.0182626 -0.0284292
v -0.00164631 0.0182626 -0.0284678
l 139 140
v -0.00137311 0.0182626 -0.0285005
v -0.00109926 0.0182626 -0.0285273
l 141 142
v -0.000824899 0.0182626 -0.0285482
v -0.000550148 0.0182626 -0.0285631
l 143 144
v -0.000275139 0.0182626 -0.028572
v 1.25634e-16 0.0182626 -0.028575
l 145 146
v 0.000275139 0.0182626 -0.028572
v 0.000550148 0.0182626 -0.0285631
l 147 148
v 0.000824899 0.0182626 -0.0285482
v 0.00109926 0.0182626 -0.0285273
l 149 150
v 0.00137311 0.0182626 -0.0285005
v 0.00164631 0.0182626 -0.0284678
l 151 152
v 0.00191875 0.0182626 -0.0284292
v 0.00219028 0.0182626 -0.0283847
l 153 154
v 0.00246078 0.0182626 -0.0283343
v 0.00273013 0.0182626 -0.0282781
l 155 156
v 0.00299819 0.0182626 -0.028216
v 0.00326485 0.0182626 -0.0281482
l 157 158
v 0.00352997 0.0182626 -0.0280746
v 0.00379344 0.0182626 -0.0279952
l 159 160
v 0.00405513 0.0182626 -0.0279102
v 0.00431491 0.0182626 -0.0278195
l 161 162
v 0.00457267 0.0182626 -0.0277232
v 0.00482828 0.0182626 -0.0276214
l 163 164
v 0.00508163 0.0182626 -0.027514
v 0.00533259 0.0182626 -0.0274012
l 165 166
v 0.00558105 0.0182626 -0.027283
v 0.00582689 0.0182626 -0.0271594
l 167 168
v 0.00606999 0.0182626 -0.0270305
v 0.00631024 0.0182626 -0.0268964
l 169 170
v 0.00654753 0.0182626 -0.0267571
v 0.00678175 0.0182626 -0.0266127
l 171 172
v 0.00701279 0.0182626 -0.0264632
v 0.00724053 0.0182626 -0.0263088
l 173 174
v 0.00746487 0.0182626 -0.0261495
v 0.00768571 0.0182626 -0.0259854
l 175 176
v 0.00790295 0.0182626 -0.0258165
v 0.00811647 0.0182626 -0.025643
l 177 178
v 0.00832618 0.0182626 -0.0254648
v 0.00853198 0.0182626 -0.0252822
l 179 180
v 0.00873378 0.0182626 -0.0250951
v 0.00893148 0.0182626 -0.0249038
l 181 182
v 0.00912499 0.0182626 -0.0247081
v 0.00931421 0.0182626 -0.0245084
l 183 184
v 0.00949906 0.0182626 -0.0243046
v 0.00967946 0.0182626 -0.0240968
l 185 186
v 0.00985531 0.0182626 -0.0238852
v 0.0100265 0.0182626 -0.0236698
l 187 188
v 0.010193 0.0182626 -0.0234507
v 0.0103548 0.0182626 -0.0232281
l 189 190
v 0.0105116 0.0182626 -0.0230021
v 0.0106636 0.0182626 -0.0227727
l 191 192
v 0.0108105 0.0182626 -0.02254
v 0.0109524 0.0182626 -0.0223043
l 193 194
v 0.0110891 0.0182626 -0.0220655
v 0.0112206 0.0182626 -0.0218238
l 195 196
v 0.0113468 0.0182626 -0.0215793
v 0.0114678 0.0182626 -0.0213321
l 197 198
v 0.0115833 0.0182626 -0.0210824
v 0.0116934 0.0182626 -0.0208302
l 199 200
v 0.011798 0.0182626 -0.0205758
v 0.0118971 0.0182626 -0.0203191
l 201 202
v 0.0119906 0.0182626 -0.0200603
v 0.0120784 0.0182626 -0.0197995
l 203 204
v 0.0121606 0.0182626 -0.0195369
v 0.0122371 0.0182626 -0.0192726
l 205 206
v 0.0123078 0.0182626 -0.0190067
v 0.0123728 0.0182626 -0.0187393
l 207 208
v 0.0124319 0.0182626 -0.0184706
v 0.0124852 0.0182626 -0.0182007
l 209 210
v 0.0125327 0.0182626 -0.0179296
v 0.0125743 0.0182626 -0.0176576
l 211 212
v 0.0126099 0.0182626 -0.0173848
v 0.0126397 0.0182626 -0.0171113
l 213 214
v 0.0126635 0.0182626 -0.0168371
v 0.0126814 0.0182626 -0.0165626
l 215 216
v 0.0126933 0.0182626 -0.0162877
v 0.0126993 0.0182626 -0.0160126
l 217 218
v 0.0126993 0.0182626 -0.0157374
v 0.0126933 0.0182626 -0.0154623
l 219 220
v 0.0126814 0.0182626 -0.0151874
v 0.0126635 0.0182626 -0.0149129
l 221 222
v 0.0126397 0.0182626 -0.0146387
v 0.0126099 0.0182626 -0.0143652
l 223 224
v 0.0125743 0.0182626 -0.0140924
v 0.0125327 0.0182626 -0.0138204
l 225 226
v 0.0124852 0.0182626 -0.0135493
v 0.0124319 0.0182626 -0.0132794
l 227 228
v 0.0123728 0.0182626 -0.0130107
v 0.0123078 0.0182626 -0.0127433
l 229 230
v 0.0122371 0.0182626 -0.0124774
v 0.0121606 0.0182626 -0.0122131
l 231 232
v 0.0120784 0.0182626 -0.0119505
v 0.0119906 0.0182626 -0.0116897
l 233 234
v 0.0118971 0.0182626 -0.0114309
v 0.011798 0.0182626 -0.0111743
l 235 236
v 0.0116934 0.0182626 -0.0109197
v 0.0115833 0.0182626 -0.0106676
l 237 238
v 0.0114678 0.0182626 -0.0104179
v 0.0113468 0.0182626 -0.0101707
l 239 240
v 0.0112206 0.0182626 -0.00992621
v 0.0110891 0.0182626 -0.00968452
l 241 242
v 0.0109524 0.0182626 -0.00944573
v 0.0108105 0.0182626 -0.00920997
l 243 244
v 0.0106636 0.0182626 -0.00897733
v 0.0105116 0.0182626 -0.00874792
l 245 246
v 0.0103548 0.0182626 -0.00852187
v 0.010193 0.0182626 -0.00829926
l 247 248
v 0.0100265 0.0182626 -0.00808021
v 0.00985531 0.0182626 -0.00786482
l 249 250
v 0.00967946 0.0182626 -0.00765319
v 0.00949906 0.0182626 -0.00744542
l 251 252
v 0.00931421 0.0182626 -0.00724161
v 0.00912499 0.0182626 -0.00704185
l 253 254
v 0.00893148 0.0182626 -0.00684623
v 0.00873378 0.0182626 -0.00665486
l 255 256
v 0.00853198 0.0182626 -0.00646781
v 0.00832618 0.0182626 -0.00628518
l 257 258
v 0.00811647 0.0182626 -0.00610704
v 0.00790295 0.0182626 -0.0059335
l 259 260
v 0.00768571 0.0182626 -0.00576462
v 0.00746487 0.0182626 -0.00560048
l 261 262
v 0.00724053 0.0182626 -0.00544117
v 0.00701279 0.0182626 -0.00528676
l 263 264
v 0.00678175 0.0182626 -0.00513732
v 0.00654753 0.0182626 -0.00499291
l 265 266
v 0.00631024 0.0182626 -0.00485362
v 0.00606999 0.0182626 -0.0047195
l 267 268
v 0.00582689 0.0182626 -0.00459061
v 0.00558105 0.0182626 -0.00446702
l 269 270
v 0.00533259 0.0182626 -0.00434879
v 0.00508163 0.0182626 -0.00423597
l 271 272
v 0.00482828 0.0182626 -0.00412861
v 0.00457267 0.0182626 -0.00402677
l 273 274
v 0.00431491 0.0182626 -0.00393048
v 0.00405513 0.0182626 -0.00383981
l 275 276
v 0.00379344 0.0182626 -0.00375478
v 0.00352997 0.0182626 -0.00367544
l 277 278
v 0.00326485 0.0182626 -0.00360183
v 0.00299819 0.0182626 -0.00353398
l 279 280
v 0.00273013 0.0182626 -0.00347192
v 0.00246078 0.0182626 -0.00341568
l 281 282
v 0.00219028 0.0182626 -0.0033653
v 0.00191875 0.0182626 -0.00332078
l 283 284
v 0.00164631 0.0182626 -0.00328216
v 0.00137311 0.0182626 -0.00324945
l 285 286
v 0.00109926 0.0182626 -0.00322266
v 0.000824899 0.0182626 -0.00320182
l 287 288
v 0.000550148 0.0182626 -0.00318692
v 0.000275139 0.0182626 -0.00317798
l 289 290
v 0.000275139 0.0182626 -0.00317798
v 0 0.0182626 -0.003175
l 291 292
v -0.000275139 0.0182626 -0.00317798
v -0.000550148 0.0182626 -0.00318692
l 293 294
v -0.000824899 0.0182626 -0.00320182
v -0.00109926 0.0182626 -0.00322266
l 295 296
v -0.00137311 0.0182626 -0.00324945
v -0.00164631 0.0182626 -0.00328216
l 297 298
v -0.00191875 0.0182626 -0.00332078
v -0.00219028 0.0182626 -0.0033653
l 299 300
v -0.00246078 0.0182626 -0.00341568
v -0.00273013 0.0182626 -0.00347192
l 301 302
v -0.00299819 0.0182626 -0.00353398
v -0.00326485 0.0182626 -0.00360183
l 303 304
v -0.00352997 0.0182626 -0.00367544
v -0.00379344 0.0182626 -0.00375478
l 305 306
v -0.00405513 0.0182626 -0.00383981
v -0.00431491 0.0182626 -0.00393048
l 307 308
v -0.00457267 0.0182626 -0.00402677
v -0.00482828 0.0182626 -0.00412861
l 309 310
v -0.00508163 0.0182626 -0.00423597
v -0.00533259 0.0182626 -0.00434879
l 311 312
v -0.00558105 0.0182626 -0.00446702
v -0.00582689 0.0182626 -0.00459061
l 313 314
v -0.00606999 0.0182626 -0.0047195
v -0.00631024 0.0182626 -0.00485362
l 315 316
v -0.00654753 0.0182626 -0.00499291
v -0.00678175 0.0182626 -0.00513732
l 317 318
v -0.00701279 0.0182626 -0.00528676
v -0.00724053 0.0182626 -0.00544117
l 319 320
v -0.00746487 0.0182626 -0.00560048
v -0.00768571 0.0182626 -0.00576462
l 321 322
v -0.00790295 0.0182626 -0.0059335
v -0.00811647 0.0182626 -0.00610704
l 323 324
v -0.00832618 0.0182626 -0.00628518
v -0.00853198 0.0182626 -0.00646781
l 325 326
v -0.00873378 0.0182626 -0.00665486
v -0.00893148 0.0182626 -0.00684623
l 327 328
v -0.00912499 0.0182626 -0.00704185
v -0.00931421 0.0182626 -0.00724161
l 329 330
v -0.00949906 0.0182626 -0.00744542
v -0.00967946 0.0182626 -0.00765319
l 331 332
v -0.00985531 0.0182626 -0.00786482
v -0.0100265 0.0182626 -0.00808021
l 333 334
v -0.010193 0.0182626 -0.00829926
v -0.0103548 0.0182626 -0.00852187
l 335 336
v -0.0105116 0.0182626 -0.00874792
v -0.0106636 0.0182626 -0.00897733
l 337 338
v -0.0108105 0.0182626 -0.00920997
v -0.0109524 0.0182626 -0.00944573
l 339 340
v -0.0110891 0.0182626 -0.00968452
v -0.0112206 0.0182626 -0.00992621
l 341 342
v -0.0113468 0.0182626 -0.0101707
v -0.0114678 0.0182626 -0.0104179
l 343 344
v -0.0115833 0.0182626 -0.0106676
v -0.0116934 0.0182626 -0.0109197
l 345 346
v -0.011798 0.0182626 -0.0111743
v -0.0118971 0.0182626 -0.0114309
l 347 348
v -0.0119906 0.0182626 -0.0116897
v -0.0120784 0.0182626 -0.0119505
l 349 350
v -0.0121606 0.0182626 -0.0122131
v -0.0122371 0.0182626 -0.0124774
l 351 352
v -0.0123078 0.0182626 -0.0127433
v -0.0123728 0.0182626 -0.0130107
l 353 354
v -0.0124319 0.0182626 -0.0132794
v -0.0124852 0.0182626 -0.0135493
l 355 356
v -0.0125327 0.0182626 -0.0138204
v -0.0125743 0.0182626 -0.0140924
l 357 358
v -0.0126099 0.0182626 -0.0143652
v -0.0126397 0.0182626 -0.0146387
l 359 360
v -0.0126635 0.0182626 -0.0149129
v -0.0126814 0.0182626 -0.0151874
l 361 362
v -0.0126933 0.0182626 -0.0154623
v -0.0126993 0.0182626 -0.0157374
l 363 364
v -0.0126993 0.0182626 -0.0160126
v -0.0126933 0.0182626 -0.0162877
l 365 366
v -0.0126814 0.0182626 -0.0165626
v -0.0126635 0.0182626 -0.0168371
l 367 368
v -0.0126397 0.0182626 -0.0171113
v -0.0126099 0.0182626 -0.0173848
l 369 370
v -0.0125743 0.0182626 -0.0176576
v -0.0125327 0.0182626 -0.0179296
l 371 372
v -0.0124852 0.0182626 -0.0182007
v -0.0124319 0.0182626 -0.0184706
l 373 374
v -0.0123728 0.0182626 -0.0187393
v -0.0123078 0.0182626 -0.0190067
l 375 376
v -0.0122371 0.0182626 -0.0192726
v -0.0121606 0.0182626 -0.0195369
l 377 378
v -0.0120784 0.0182626 -0.0197995
v -0.0119906 0.0182626 -0.0200603
l 379 380
v -0.0118971 0.0182626 -0.0203191
v -0.011798 0.0182626 -0.0205758
l 381 382
v -0.0116934 0.0182626 -0.0208302
v -0.0115833 0.0182626 -0.0210824
l 383 384
v -0.0114678 0.0182626 -0.0213321
v -0.0113468 0.0182626 -0.0215793
l 385 386
v -0.0112206 0.0182626 -0.0218238
v -0.0110891 0.0182626 -0.0220655
l 387 388
v -0.0109524 0.0182626 -0.0223043
v -0.0108105 0.0182626 -0.02254
l 389 390
v -0.0106636 0.0182626 -0.0227727
v -0.0105116 0.0182626 -0.0230021
l 391 392
v -0.0103548 0.0182626 -0.0232281
v -0.010193 0.0182626 -0.0234507
l 393 394
v -0.0100265 0.0182626 -0.0236698
v -0.00985531 0.0182626 -0.0238852
l 395 396
v -0.00967946 0.0182626 -0.0240968
v -0.00949906 0.0182626 -0.0243046
l 397 398
v -0.00931421 0.0182626 -0.0245084
v -0.00912499 0.0182626 -0.0247081
l 399 400
v -0.00893148 0.0182626 -0.0249038
v -0.00873378 0.0182626 -0.0250951
l 401 402
v -0.00853198 0.0182626 -0.0252822
v -0.00832618 0.0182626 -0.0254648
l 403 404
v -0.00811647 0.0182626 -0.025643
v -0.00790295 0.0182626 -0.0258165
l 405 406
v -0.00768571 0.0182626 -0.0259854
v -0.00746487 0.0182626 -0.0261495
l 407 408
v -0.00724053 0.0182626 -0.0263088
v -0.00701279 0.0182626 -0.0264632
l 409 410
v -0.00678175 0.0182626 -0.0266127
v -0.00654753 0.0182626 -0.0267571
l 411 412
v -0.00631024 0.0182626 -0.0268964
v -0.00606999 0.0182626 -0.0270305
l 413 414
v -0.00582689 0.0182626 -0.0271594
v -0.00558105 0.0182626 -0.027283
l 415 416
v -0.00533259 0.0182626 -0.0274012
v -0.00508163 0.0182626 -0.027514
l 417 418
v -0.00482828 0.0182626 -0.0276214
v -0.00457267 0.0182626 -0.0277232
l 419 420
v -0.00431491 0.0182626 -0.0278195
v -0.00405513 0.0182626 -0.0279102
l 421 422
v -0.00379344 0.0182626 -0.0279952
v -0.00352997 0.0182626 -0.0280746
l 423 424
v -0.00326485 0.0182626 -0.0281482
v -0.00299819 0.0182626 -0.028216
l 425 426
v -0.00273013 0.0182626 -0.0282781
v -0.00246078 0.0182626 -0.0283343
l 427 428
v -0.00219028 0.0182626 -0.0283847
v -0.00191875 0.0182626 -0.0284292
l 429 430
v -0.00164631 0.0182626 -0.0284678
v -0.00137311 0.0182626 -0.0285005
l 431 432
v -0.00109926 0.0182626 -0.0285273
v -0.000824899 0.0182626 -0.0285482
l 433 434
v -0.000550148 0.0182626 -0.0285631
v -0.000275139 0.0182626 -0.028572
l 435 436
v 1.25634e-16 0.0182626 -0.028575
v 0.000275139 0.0182626 -0.028572
l 437 438
v 0.000550148 0.0182626 -0.0285631
v 0.000824899 0.0182626 -0.0285482
l 439 440
v 0.00109926 0.0182626 -0.0285273
v 0.00137311 0.0182626 -0.0285005
l 441 442
v 0.00164631 0.0182626 -0.0284678
v 0.00191875 0.0182626 -0.0284292
l 443 444
v 0.00219028 0.0182626 -0.0283847
v 0.00246078 0.0182626 -0.0283343
l 445 446
v 0.00273013 0.0182626 -0.0282781
v 0.00299819 0.0182626 -0.028216
l 447 448
v 0.00326485 0.0182626 -0.0281482
v 0.00352997 0.0182626 -0.0280746
l 449 450
v 0.00379344 0.0182626 -0.0279952
v 0.00405513 0.0182626 -0.0279102
l 451 452
v 0.00431491 0.0182626 -0.0278195
v 0.00457267 0.0182626 -0.0277232
l 453 454
v 0.00482828 0.0182626 -0.0276214
v 0.00508163 0.0182626 -0.027514
l 455 456
v 0.00533259 0.0182626 -0.0274012
v 0.00558105 0.0182626 -0.027283
l 457 458
v 0.00582689 0.0182626 -0.0271594
v 0.00606999 0.0182626 -0.0270305
l 459 460
v 0.00631024 0.0182626 -0.0268964
v 0.00654753 0.0182626 -0.0267571
l 461 462
v 0.00678175 0.0182626 -0.0266127
v 0.00701279 0.0182626 -0.0264632
l 463 464
v 0.00724053 0.0182626 -0.0263088
v 0.00746487 0.0182626 -0.0261495
l 465 466
v 0.00768571 0.0182626 -0.0259854
v 0.00790295 0.0182626 -0.0258165
l 467 468
v 0.00811647 0.0182626 -0.025643
v 0.00832618 0.0182626 -0.0254648
l 469 470
v 0.00853198 0.0182626 -0.0252822
v 0.00873378 0.0182626 -0.0250951
l 471 472
v 0.00893148 0.0182626 -0.0249038
v 0.00912499 0.0182626 -0.0247081
l 473 474
v 0.00931421 0.0182626 -0.0245084
v 0.00949906 0.0182626 -0.0243046
l 475 476
v 0.00967946 0.0182626 -0.0240968
v 0.00985531 0.0182626 -0.0238852
l 477 478
v 0.0100265 0.0182626 -0.0236698
v 0.010193 0.0182626 -0.0234507
l 479 480
v 0.0103548 0.0182626 -0.0232281
v 0.0105116 0.0182626 -0.0230021
l 481 482
v 0.0106636 0.0182626 -0.0227727
v 0.0108105 0.0182626 -0.02254
l 483 484
v 0.0109524 0.0182626 -0.0223043
v 0.0110891 0.0182626 -0.0220655
l 485 486
v 0.0112206 0.0182626 -0.0218238
v 0.0113468 0.0182626 -0.0215793
l 487 488
v 0.0114678 0.0182626 -0.0213321
v 0.0115833 0.0182626 -0.0210824
l 489 490
v 0.0116934 0.0182626 -0.0208302
v 0.011798 0.0182626 -0.0205758
l 491 492
v 0.0118971 0.0182626 -0.0203191
v 0.0119906 0.0182626 -0.0200603
l 493 494
v 0.0120784 0.0182626 -0.0197995
v 0.0121606 0.0182626 -0.0195369
l 495 496
v 0.0122371 0.0182626 -0.0192726
v 0.0123078 0.0182626 -0.0190067
l 497 498
v 0.0123728 0.0182626 -0.0187393
v 0.0124319 0.0182626 -0.0184706
l 499 500
v 0.0124852 0.0182626 -0.0182007
v 0.0125327 0.0182626 -0.0179296
l 501 502
v 0.0125743 0.0182626 -0.0176576
v 0.0126099 0.0182626 -0.0173848
l 503 504
v 0.0126397 0.0182626 -0.0171113
v 0.0126635 0.0182626 -0.0168371
l 505 506
v 0.0126814 0.0182626 -0.0165626
v 0.0126933 0.0182626 -0.0162877
l 507 508
v 0.0126993 0.0182626 -0.0160126
v 0.0126993 0.0182626 -0.0157374
l 509 510
v 0.0126933 0.0182626 -0.0154623
v 0.0126814 0.0182626 -0.0151874
l 511 512
v 0.0126635 0.0182626 -0.0149129
v 0.0126397 0.0182626 -0.0146387
l 513 514
v 0.0126099 0.0182626 -0.0143652
v 0.0125743 0.0182626 -0.0140924
l 515 516
v 0.0125327 0.0182626 -0.0138204
v 0.0124852 0.0182626 -0.0135493
l 517 518
v 0.0124319 0.0182626 -0.0132794
v 0.0123728 0.0182626 -0.0130107
l 519 520
v 0.0123078 0.0182626 -0.0127433
v 0.0122371 0.0182626 -0.0124774
l 521 522
v 0.0121606 0.0182626 -0.0122131
v 0.0120784 0.0182626 -0.0119505
l 523 524
v 0.0119906 0.0182626 -0.0116897
v 0.0118971 0.0182626 -0.0114309
l 525 526
v 0.011798 0.0182626 -0.0111743
v 0.0116934 0.0182626 -0.0109197
l 527 528
v 0.0115833 0.0182626 -0.0106676
v 0.0114678 0.0182626 -0.0104179
l 529 530
v 0.0113468 0.0182626 -0.0101707
v 0.0112206 0.0182626 -0.00992621
l 531 532
v 0.0110891 0.0182626 -0.00968452
v 0.0109524 0.0182626 -0.00944573
l 533 534
v 0.0108105 0.0182626 -0.00920997
v 0.0106636 0.0182626 -0.00897733
l 535 536
v 0.0105116 0.0182626 -0.00874792
v 0.0103548 0.0182626 -0.00852187
l 537 538
v 0.010193 0.0182626 -0.00829926
v 0.0100265 0.0182626 -0.00808021
l 539 540
v 0.00985531 0.0182626 -0.00786482
v 0.00967946 0.0182626 -0.00765319
l 541 542
v 0.00949906 0.0182626 -0.00744542
v 0.00931421 0.0182626 -0.00724161
l 543 544
v 0.00912499 0.0182626 -0.00704185
v 0.00893148 0.0182626 -0.00684623
l 545 546
v 0.00873378 0.0182626 -0.00665486
v 0.00853198 0.0182626 -0.00646781
l 547 548
v 0.00832618 0.0182626 -0.00628518
v 0.00811647 0.0182626 -0.00610704
l 549 550
v 0.00790295 0.0182626 -0.0059335
v 0.00768571 0.0182626 -0.00576462
l 551 552
v 0.00746487 0.0182626 -0.00560048
v 0.00724053 0.0182626 -0.00544117
l 553 554
v 0.00701279 0.0182626 -0.00528676
v 0.00678175 0.0182626 -0.00513732
l 555 556
v 0.00654753 0.0182626 -0.00499291
v 0.00631024 0.0182626 -0.00485362
l 557 558
v 0.00606999 0.0182626 -0.0047195
v 0.00582689 0.0182626 -0.00459061
l 559 560
v 0.00558105 0.0182626 -0.00446702
v 0.00533259 0.0182626 -0.00434879
l 561 562
v 0.00508163 0.0182626 -0.00423597
v 0.00482828 0.0182626 -0.00412861
l 563 564
v 0.00457267 0.0182626 -0.00402677
v 0.00431491 0.0182626 -0.00393048
l 565 566
v 0.00405513 0.0182626 -0.00383981
v 0.00379344 0.0182626 -0.00375478
l 567 568
v 0.00352997 0.0182626 -0.00367544
v 0.00326485 0.0182626 -0.00360183
l 569 570
v 0.00299819 0.0182626 -0.00353398
v 0.00273013 0.0182626 -0.00347192
l 571 572
v 0.00246078 0.0182626 -0.00341568
v 0.00219028 0.0182626 -0.0033653
l 573 574
v 0.00191875 0.0182626 -0.00332078
v 0.00164631 0.0182626 -0.00328216
l 575 576
v 0.00137311 0.0182626 -0.00324945
v 0.00109926 0.0182626 -0.00322266
l 577 578
v 0.000824899 0.0182626 -0.00320182
v 0.000550148 0.0182626 -0.00318692
l 579 580
v 0.00073213 0.0248824 -0.0852482
v 0.00118559 0.0247023 -0.0853385
l 581 582
v 0.000246708 0.0249743 -0.0852022
v 0.00073213 0.0248824 -0.0852482
l 583 584
v -0.000249484 0.0249741 -0.0852023
v 0.000246708 0.0249743 -0.0852022
l 585 586
v -0.000734785 0.0248816 -0.0852486
v -0.000249484 0.0249741 -0.0852023
l 587 588
v -0.00118801 0.0247011 -0.0853391
v -0.000734785 0.0248816 -0.0852486
l 589 590
v 0.00118931 0.0210243 -0.0871804
v 0.000735638 0.0208433 -0.087271
l 591 592
v 0.000249782 0.0207506 -0.0873174
v -0.000247005 0.0207503 -0.0873175
l 593 594
v -0.000732984 0.0208425 -0.0872714
v -0.00118689 0.021023 -0.087181
l 595 596
v 0.000735638 0.0208433 -0.087271
v 0.000249782 0.0207506 -0.0873174
l 597 598
v -0.000247005 0.0207503 -0.0873175
v -0.000732984 0.0208425 -0.0872714
l 599 600
v -0.000335763 -0.00020558 -0.0209186
v -0.000312982 0.000238834 -0.0211201
l 601 602
v -0.000312982 0.000238834 -0.0211201
v -0.0003937 0 -0.0211201
l 603 604
v -9.78192e-05 0.000381354 -0.0211201
v -0.000312982 0.000238834 -0.0211201
l 605 606
v 0.000237628 0.000313899 -0.0211201
v -9.78192e-05 0.000381354 -0.0211201
l 607 608
v -0.000216142 -0.000329063 -0.0211201
v 0.000189115 -0.000345304 -0.0211201
l 609 610
v 0.000189115 -0.000345304 -0.0211201
v 0.0003937 0 -0.0211201
l 611 612
v 0.0003937 0 -0.0211201
v 0.000237628 0.000313899 -0.0211201
l 613 614
v -0.0003937 0 -0.0211201
v -0.000216142 -0.000329063 -0.0211201
l 615 616
v 0.0011684 0.00206761 -0.0211201
v 0.000819344 0.00222909 -0.0211201
l 617 618
v 0.000416109 0.00233816 -0.0211201
v 0 0.0023749 -0.0211201
l 619 620
v -0.000424354 0.00233668 -0.0211201
v -0.00083505 0.00222325 -0.0211201
l 621 622
v -0.00083505 0.00222325 -0.0211201
v -0.0011684 0.00206761 -0.0211201
l 623 624
v 0.000819344 0.00222909 -0.0211201
v 0.000416109 0.00233816 -0.0211201
l 625 626
v 0 0.0023749 -0.0211201
v -0.000424354 0.00233668 -0.0211201
l 627 628
v 0.0011684 0.00206761 -0.0219075
v 0.0011684 0.00206761 -0.0215259
l 629 630
v 0.0011684 0.00206761 -0.0215259
v 0.0011684 0.00206761 -0.0211201
l 631 632
v 0 0.0023749 -0.0219075
v -0.000424354 0.00233668 -0.0219075
l 633 634
v -0.000424354 0.00233668 -0.0219075
v -0.00083505 0.00222325 -0.0219075
l 635 636
v -0.0011684 0.00206761 -0.0219075
v -0.0011684 0.00206761 -0.0215259
l 637 638
v 0 0.0023749 -0.0198374
v -0.000439256 0.00233393 -0.0198374
l 639 640
v -0.000439256 0.00233393 -0.0198374
v -0.000863355 0.00221241 -0.0198374
l 641 642
v -0.00125766 0.00201456 -0.0198374
v -0.00160857 0.00174718 -0.0198374
l 643 644
v -0.00190397 0.00141952 -0.0198374
v -0.00213367 0.00104287 -0.0198374
l 645 646
v -0.00228975 0.000630242 -0.0198374
v -0.00236681 0.000195861 -0.0198374
l 647 648
v -0.00236681 0.000195861 -0.0198374
v -0.0023622 -0.000245278 -0.0198374
l 649 650
v 0.0023622 -0.000245278 -0.0198374
v 0.00236681 0.000195861 -0.0198374
l 651 652
v 0.00236681 0.000195861 -0.0198374
v 0.00228975 0.000630242 -0.0198374
l 653 654
v 0.00213367 0.00104287 -0.0198374
v 0.00190397 0.00141952 -0.0198374
l 655 656
v 0.00160857 0.00174718 -0.0198374
v 0.00125766 0.00201456 -0.0198374
l 657 658
v 0.000863355 0.00221241 -0.0198374
v 0.000439256 0.00233393 -0.0198374
l 659 660
v 0.000439256 0.00233393 -0.0198374
v 0 0.0023749 -0.0198374
l 661 662
v 0.0011684 0.00206761 -0.0219075
v 0.000819344 0.00222909 -0.0219075
l 663 664
v 0.000416109 0.00233816 -0.0219075
v 0 0.0023749 -0.0219075
l 665 666
v -0.00083505 0.00222325 -0.0219075
v -0.0011684 0.00206761 -0.0219075
l 667 668
v -0.0011684 0.00206761 -0.0215259
v -0.0011684 0.00206761 -0.0211201
l 669 670
v 0.000819344 0.00222909 -0.0219075
v 0.000416109 0.00233816 -0.0219075
l 671 672
v -0.000863355 0.00221241 -0.0198374
v -0.00125766 0.00201456 -0.0198374
l 673 674
v -0.00160857 0.00174718 -0.0198374
v -0.00190397 0.00141952 -0.0198374
l 675 676
v -0.00213367 0.00104287 -0.0198374
v -0.00228975 0.000630242 -0.0198374
l 677 678
v 0.00228975 0.000630242 -0.0198374
v 0.00213367 0.00104287 -0.0198374
l 679 680
v 0.00190397 0.00141952 -0.0198374
v 0.00160857 0.00174718 -0.0198374
l 681 682
v 0.00125766 0.00201456 -0.0198374
v 0.000863355 0.00221241 -0.0198374
l 683 684
v -0.0023622 -0.00181492 -0.0227571
v -0.0023622 -0.00218683 -0.0225506
l 685 686
v -0.0023622 -0.00218683 -0.0225506
v -0.0023622 -0.00257985 -0.0222719
l 687 688
v -0.0023622 -0.00293771 -0.0219493
v -0.0023622 -0.00325555 -0.0215873
l 689 690
v -0.0023622 -0.00352903 -0.0211906
v -0.0023622 -0.00375443 -0.0207648
l 691 692
v -0.0023622 -0.00392867 -0.0203156
v -0.0023622 -0.00404939 -0.0198492
l 693 694
v -0.0023622 -0.00411493 -0.0193719
v -0.0023622 -0.0041244 -0.0188902
l 695 696
v -0.0023622 -0.00407768 -0.0184107
v -0.0023622 -0.0039754 -0.0179399
l 697 698
v -0.0023622 -0.00381896 -0.0174842
v -0.0023622 -0.00361048 -0.0170498
l 699 700
v -0.0023622 -0.00335281 -0.0166427
v -0.0023622 -0.00304945 -0.0162684
l 701 702
v -0.0023622 -0.00270455 -0.015932
v -0.0023622 -0.0023228 -0.0156381
l 703 704
v -0.0023622 -0.00194451 -0.0154092
v -0.0023622 -0.00152847 -0.0152159
l 705 706
v 0.0023622 -0.00145519 -0.0151875
v 0.0023622 -0.00185796 -0.0153643
l 707 708
v 0.0023622 -0.00185796 -0.0153643
v 0.0023622 -0.00222763 -0.0155752
l 709 710
v 0.0023622 -0.00261767 -0.0158588
v 0.0023622 -0.00297199 -0.0161858
l 711 712
v 0.0023622 -0.00328574 -0.016552
v 0.0023622 -0.00355465 -0.0169522
l 713 714
v 0.0023622 -0.00377505 -0.0173811
v 0.0023622 -0.00394392 -0.0178327
l 715 716
v 0.0023622 -0.00405897 -0.018301
v 0.0023622 -0.00411863 -0.0187795
l 717 718
v 0.0023622 -0.00412207 -0.0192617
v 0.0023622 -0.00406926 -0.019741
l 719 720
v 0.0023622 -0.0039609 -0.0202108
v 0.0023622 -0.0037985 -0.0206648
l 721 722
v 0.0023622 -0.00358424 -0.0210968
v 0.0023622 -0.00332108 -0.0215009
l 723 724
v 0.0023622 -0.00301259 -0.0218714
v 0.0023622 -0.00266298 -0.0222035
l 725 726
v 0.0023622 -0.00227703 -0.0224926
v 0.0023622 -0.00189552 -0.0227165
l 727 728
v 0.0023622 -0.00189552 -0.0227165
v 0.0023622 -0.00147588 -0.0229046
l 729 730
v -0.0023622 -0.000797617 -0.0230997
v -0.0023622 -0.00107543 -0.0230349
l 731 732
v -0.0023622 -0.00141259 -0.0229282
v -0.0023622 -0.00181492 -0.0227571
l 733 734
v -0.0023622 -0.00257985 -0.0222719
v -0.0023622 -0.00293771 -0.0219493
l 735 736
v -0.0023622 -0.00325555 -0.0215873
v -0.0023622 -0.00352903 -0.0211906
l 737 738
v -0.0023622 -0.00375443 -0.0207648
v -0.0023622 -0.00392867 -0.0203156
l 739 740
v -0.0023622 -0.00404939 -0.0198492
v -0.0023622 -0.00411493 -0.0193719
l 741 742
v -0.0023622 -0.0041244 -0.0188902
v -0.0023622 -0.00407768 -0.0184107
l 743 744
v -0.0023622 -0.0039754 -0.0179399
v -0.0023622 -0.00381896 -0.0174842
l 745 746
v -0.0023622 -0.00361048 -0.0170498
v -0.0023622 -0.00335281 -0.0166427
l 747 748
v -0.0023622 -0.00304945 -0.0162684
v -0.0023622 -0.00270455 -0.015932
l 749 750
v -0.0023622 -0.0023228 -0.0156381
v -0.0023622 -0.00194451 -0.0154092
l 751 752
v -0.0023622 -0.00152847 -0.0152159
v -0.0023622 -0.00111615 -0.0150763
l 753 754
v -0.0023622 -0.00111615 -0.0150763
v -0.0023622 -0.000786285 -0.0149981
l 755 756
v 0.0023622 -0.000850733 -0.0150111
v 0.0023622 -0.00112191 -0.0150779
l 757 758
v 0.0023622 -0.00112191 -0.0150779
v 0.0023622 -0.00145519 -0.0151875
l 759 760
v 0.0023622 -0.00222763 -0.0155752
v 0.0023622 -0.00261767 -0.0158588
l 761 762
v 0.0023622 -0.00297199 -0.0161858
v 0.0023622 -0.00328574 -0.016552
l 763 764
v 0.0023622 -0.00355465 -0.0169522
v 0.0023622 -0.00377505 -0.0173811
l 765 766
v 0.0023622 -0.00394392 -0.0178327
v 0.0023622 -0.00405897 -0.018301
l 767 768
v 0.0023622 -0.00411863 -0.0187795
v 0.0023622 -0.00412207 -0.0192617
l 769 770
v 0.0023622 -0.00406926 -0.019741
v 0.0023622 -0.0039609 -0.0202108
l 771 772
v 0.0023622 -0.0037985 -0.0206648
v 0.0023622 -0.00358424 -0.0210968
l 773 774
v 0.0023622 -0.00332108 -0.0215009
v 0.0023622 -0.00301259 -0.0218714
l 775 776
v 0.0023622 -0.00266298 -0.0222035
v 0.0023622 -0.00227703 -0.0224926
l 777 778
v 0.0023622 -0.00147588 -0.0229046
v 0.0023622 -0.00106339 -0.0230382
l 779 780
v 0.0023622 -0.00106339 -0.0230382
v 0.0023622 -0.00075201 -0.0231084
l 781 782
v -0.0023622 -0.00107543 -0.0230349
v -0.0023622 -0.00141259 -0.0229282
l 783 784
v -0.0023622 -0.000786285 -0.0149981
v -0.0023622 -0.000524562 -0.014956
l 785 786
v 0.0023622 -0.00075201 -0.0231084
v 0.0023622 -0.000508457 -0.0231461
l 787 788
v 0.0023622 -0.00060077 -0.0149665
v 0.0023622 -0.000850733 -0.0150111
l 789 790
v -0.0023622 -0.000535729 -0.0231426
v -0.0023622 -0.000797617 -0.0230997
l 791 792
v 0.0023622 -0.000245278 -0.0149298
v 0.0023622 -0.00060077 -0.0149665
l 793 794
v -0.0023622 -0.000245278 -0.0231702
v -0.0023622 -0.000535729 -0.0231426
l 795 796
v -0.0023622 -0.000524562 -0.014956
v -0.0023622 -0.000245278 -0.0149298
l 797 798
v 0.0023622 -0.000508457 -0.0231461
v 0.0023622 -0.000245278 -0.0231702
l 799 800
v 0.0023622 -0.000245278 -0.0186563
v 0.0023622 -0.000245278 -0.01905
l 801 802
v 0.0023622 -0.000245278 -0.0194437
v 0.0023622 -0.000245278 -0.0198374
l 803 804
v 0.0023622 -0.000245278 -0.0182626
v 0.0023622 -0.000245278 -0.0186563
l 805 806
v 0.0023622 -0.000245278 -0.01905
v 0.0023622 -0.000245278 -0.0194437
l 807 808
v -0.0023622 -0.000245278 -0.0198374
v -0.0023622 -0.000245278 -0.0194437
l 809 810
v -0.0023622 -0.000245278 -0.01905
v -0.0023622 -0.000245278 -0.0186563
l 811 812
v -0.0023622 -0.000245278 -0.0194437
v -0.0023622 -0.000245278 -0.01905
l 813 814
v -0.0023622 -0.000245278 -0.0186563
v -0.0023622 -0.000245278 -0.0182626
l 815 816
v -0.0023622 -0.000245278 -0.0182626
v -0.00236681 0.000195861 -0.0182626
l 817 818
v -0.00236681 0.000195861 -0.0182626
v -0.00228975 0.000630242 -0.0182626
l 819 820
v -0.00213367 0.00104287 -0.0182626
v -0.00190397 0.00141952 -0.0182626
l 821 822
v -0.00160857 0.00174718 -0.0182626
v -0.00125766 0.00201456 -0.0182626
l 823 824
v -0.000863355 0.00221241 -0.0182626
v -0.000439256 0.00233393 -0.0182626
l 825 826
v -0.000439256 0.00233393 -0.0182626
v 0 0.0023749 -0.0182626
l 827 828
v 0 0.0023749 -0.0182626
v 0.000439256 0.00233393 -0.0182626
l 829 830
v 0.000439256 0.00233393 -0.0182626
v 0.000863355 0.00221241 -0.0182626
l 831 832
v 0.00125766 0.00201456 -0.0182626
v 0.00160857 0.00174718 -0.0182626
l 833 834
v 0.00190397 0.00141952 -0.0182626
v 0.00213367 0.00104287 -0.0182626
l 835 836
v 0.00228975 0.000630242 -0.0182626
v 0.00236681 0.000195861 -0.0182626
l 837 838
v 0.00236681 0.000195861 -0.0182626
v 0.0023622 -0.000245278 -0.0182626
l 839 840
v -0.00228975 0.000630242 -0.0182626
v -0.00213367 0.00104287 -0.0182626
l 841 842
v -0.00190397 0.00141952 -0.0182626
v -0.00160857 0.00174718 -0.0182626
l 843 844
v -0.00125766 0.00201456 -0.0182626
v -0.000863355 0.00221241 -0.0182626
l 845 846
v 0.000863355 0.00221241 -0.0182626
v 0.00125766 0.00201456 -0.0182626
l 847 848
v 0.00160857 0.00174718 -0.0182626
v 0.00190397 0.00141952 -0.0182626
l 849 850
v 0.00213367 0.00104287 -0.0182626
v 0.00228975 0.000630242 -0.0182626
l 851 852
v 0.00289102 0.0247223 -0.0899797
v 0.00295114 0.024939 -0.090413
l 853 854
v 0.00295114 0.024939 -0.090413
v 0.00301127 0.0251557 -0.0908464
l 855 856
v 0.00301127 0.0251557 -0.0908464
v 0.00307139 0.0253724 -0.0912797
l 857 858
v 0.00307139 0.0253724 -0.0912797
v 0.00313151 0.025589 -0.091713
l 859 860
v 0.00313151 0.025589 -0.091713
v 0.00319164 0.0258057 -0.0921464
l 861 862
v 0.00319164 0.0258057 -0.0921464
v 0.00325176 0.0260224 -0.0925797
l 863 864
v 0.00325176 0.0260224 -0.0925797
v 0.00331188 0.0262391 -0.093013
l 865 866
v 0.00331188 0.0262391 -0.093013
v 0.00337201 0.0264557 -0.0934463
l 867 868
v 0.00337201 0.0264557 -0.0934463
v 0.00343213 0.0266724 -0.0938797
l 869 870
v 0.00343213 0.0266724 -0.0938797
v 0.00349225 0.0268891 -0.094313
l 871 872
v 0.00349225 0.0268891 -0.094313
v 0.00355238 0.0271058 -0.0947463
l 873 874
v 0.00355238 0.0271058 -0.0947463
v 0.0036125 0.0273224 -0.0951796
l 875 876
v 0.0036125 0.0273224 -0.0951796
v 0.00367262 0.0275391 -0.095613
l 877 878
v 0.00367262 0.0275391 -0.095613
v 0.00373275 0.0277558 -0.0960463
l 879 880
v 0.00373275 0.0277558 -0.0960463
v 0.00379287 0.0279725 -0.0964796
l 881 882
v 0.00379287 0.0279725 -0.0964796
v 0.0038523 0.0281866 -0.096908
l 883 884
v 0.0038523 0.0281866 -0.096908
v 0.00390358 0.0283714 -0.0972775
l 885 886
v 0.00390358 0.0283714 -0.0972775
v 0.00393582 0.0285014 -0.0975137
l 887 888
v -0.00393582 0.0285014 -0.0975137
v -0.00390353 0.0283711 -0.0972773
l 889 890
v -0.00390353 0.0283711 -0.0972773
v -0.00385222 0.028186 -0.0969075
l 891 892
v -0.00385222 0.028186 -0.0969075
v -0.00379541 0.0279811 -0.0964981
l 893 894
v -0.00379541 0.0279811 -0.0964981
v -0.00373569 0.0277657 -0.0960679
l 895 896
v -0.00373569 0.0277657 -0.0960679
v -0.00367905 0.0275614 -0.0956597
l 897 898
v -0.00367905 0.0275614 -0.0956597
v -0.0036199 0.027348 -0.0952335
l 899 900
v -0.0036199 0.027348 -0.0952335
v -0.00356112 0.027136 -0.0948099
l 901 902
v -0.00356112 0.027136 -0.0948099
v -0.00350407 0.0269303 -0.0943989
l 903 904
v -0.00350407 0.0269303 -0.0943989
v -0.00344627 0.0267218 -0.0939824
l 905 906
v -0.00344627 0.0267218 -0.0939824
v -0.00338826 0.0265126 -0.0935644
l 907 908
v -0.00338826 0.0265126 -0.0935644
v -0.00333135 0.0263072 -0.0931543
l 909 910
v -0.00333135 0.0263072 -0.0931543
v -0.0032723 0.0260943 -0.0927288
l 911 912
v -0.0032723 0.0260943 -0.0927288
v -0.00321225 0.0258777 -0.0922961
l 913 914
v -0.00321225 0.0258777 -0.0922961
v -0.00315232 0.0256615 -0.0918643
l 915 916
v -0.00315232 0.0256615 -0.0918643
v -0.00309288 0.0254471 -0.091436
l 917 918
v -0.00309288 0.0254471 -0.091436
v -0.00303509 0.0252386 -0.0910195
l 919 920
v -0.00303509 0.0252386 -0.0910195
v -0.00297654 0.0250275 -0.0905977
l 921 922
v -0.00297654 0.0250275 -0.0905977
v -0.00291941 0.0248214 -0.090186
l 923 924
v -0.00291941 0.0248214 -0.090186
v -0.00286179 0.0246136 -0.0897708
l 925 926
v -0.00286179 0.0246136 -0.0897708
v -0.00280354 0.0244035 -0.0893511
l 927 928
v -0.00237097 0.00314467 -0.00339829
v -0.00237377 0.00289316 -0.0033987
l 929 930
v -0.00235352 0.00260277 -0.00339472
v -0.00231483 0.00235273 -0.0033876
l 931 932
v -0.00225685 0.00210978 -0.00337714
v -0.00214297 0.00178281 -0.00335702
l 933 934
v -0.00200899 0.00150662 -0.00333481
v -0.00187529 0.00129193 -0.00331419
l 935 936
v -0.00172248 0.00109352 -0.00329235
v -0.00153964 0.000901948 -0.00326867
l 937 938
v -0.00132811 0.000725509 -0.00324458
v -0.00109706 0.000575302 -0.00322237
l 939 940
v -0.000835742 0.000448752 -0.00320251
v -0.000415908 0.00032453 -0.00318193
l 941 942
v -0.000415908 0.00032453 -0.00318193
v 0 0.000284913 -0.003175
l 943 944
v -0.00231483 0.00235273 -0.0033876
v -0.00225685 0.00210978 -0.00337714
l 945 946
v -0.00237377 0.00289316 -0.0033987
v -0.00235352 0.00260277 -0.00339472
l 947 948
v -0.00214297 0.00178281 -0.00335702
v -0.00200899 0.00150662 -0.00333481
l 949 950
v -0.00187529 0.00129193 -0.00331419
v -0.00172248 0.00109352 -0.00329235
l 951 952
v -0.00153964 0.000901948 -0.00326867
v -0.00132811 0.000725509 -0.00324458
l 953 954
v -0.00109706 0.000575302 -0.00322237
v -0.000835742 0.000448752 -0.00320251
l 955 956
v 1.5875e-11 0.00310015 -0.0106356
v 2.52951e-11 0.00291475 -0.010501
l 957 958
v 2.52951e-11 0.00291475 -0.010501
v 2.56357e-11 0.00268892 -0.0104961
l 959 960
v 2.56357e-11 0.00268892 -0.0104961
v 1.69656e-11 0.00250003 -0.01062
l 961 962
v 0.0111771 0.003175 -0.0186874
v 0.0107321 0.003175 -0.0185538
l 963 964
v 0.0107321 0.003175 -0.0185538
v 0.0102774 0.003175 -0.0184234
l 965 966
v 0.00982114 0.003175 -0.0182986
v 0.00936337 0.003175 -0.0181795
l 967 968
v 0.00890415 0.003175 -0.0180661
v 0.00844356 0.003175 -0.0179585
l 969 970
v 0.00798167 0.003175 -0.0178565
v 0.00751855 0.003175 -0.0177603
l 971 972
v 0.00705427 0.003175 -0.0176698
v 0.0065889 0.003175 -0.0175851
l 973 974
v 0.00612252 0.003175 -0.0175062
v 0.00565519 0.003175 -0.0174331
l 975 976
v 0.00518699 0.003175 -0.0173658
v 0.004718 0.003175 -0.0173043
l 977 978
v 0.00424827 0.003175 -0.0172487
v 0.00377789 0.003175 -0.0171988
l 979 980
v 0.00330693 0.003175 -0.0171549
v 0.00283546 0.003175 -0.0171167
l 981 982
v 0.00236355 0.003175 -0.0170844
v 0.00189128 0.003175 -0.017058
l 983 984
v 0.00141871 0.003175 -0.0170375
v 0.00094593 0.003175 -0.0170228
l 985 986
v 0.000473002 0.003175 -0.017014
v 0 0.003175 -0.0170111
l 987 988
v -0.000491334 0.003175 -0.0170142
v -0.000982587 0.003175 -0.0170237
l 989 990
v -0.00147368 0.003175 -0.0170396
v -0.00196452 0.003175 -0.0170617
l 991 992
v -0.00245504 0.003175 -0.0170902
v -0.00294515 0.003175 -0.0171251
l 993 994
v -0.00343476 0.003175 -0.0171662
v -0.00392381 0.003175 -0.0172137
l 995 996
v -0.00441221 0.003175 -0.0172674
v -0.00489987 0.003175 -0.0173275
l 997 998
v -0.00538672 0.003175 -0.0173938
v -0.00587267 0.003175 -0.0174664
l 999 1000
v -0.00635764 0.003175 -0.0175452
v -0.00684156 0.003175 -0.0176304
l 1001 1002
v -0.00732434 0.003175 -0.0177217
v -0.0078059 0.003175 -0.0178193
l 1003 1004
v -0.00828616 0.003175 -0.017923
v -0.00876504 0.003175 -0.018033
l 1005 1006
v -0.00924247 0.003175 -0.0181491
v -0.00971836 0.003175 -0.0182714
l 1007 1008
v -0.0101926 0.003175 -0.0183998
v -0.0106652 0.003175 -0.0185343
l 1009 1010
v -0.0106652 0.003175 -0.0185343
v -0.011136 0.003175 -0.0186748
l 1011 1012
v -0.011136 0.003175 -0.0186748
v -0.0115472 0.003175 -0.018803
l 1013 1014
v 0.0115472 0.003175 -0.018803
v 0.0111771 0.003175 -0.0186874
l 1015 1016
v 0.0102774 0.003175 -0.0184234
v 0.00982114 0.003175 -0.0182986
l 1017 1018
v 0.00936337 0.003175 -0.0181795
v 0.00890415 0.003175 -0.0180661
l 1019 1020
v 0.00844356 0.003175 -0.0179585
v 0.00798167 0.003175 -0.0178565
l 1021 1022
v 0.00751855 0.003175 -0.0177603
v 0.00705427 0.003175 -0.0176698
l 1023 1024
v 0.0065889 0.003175 -0.0175851
v 0.00612252 0.003175 -0.0175062
l 1025 1026
v 0.00565519 0.003175 -0.0174331
v 0.00518699 0.003175 -0.0173658
l 1027 1028
v 0.004718 0.003175 -0.0173043
v 0.00424827 0.003175 -0.0172487
l 1029 1030
v 0.00377789 0.003175 -0.0171988
v 0.00330693 0.003175 -0.0171549
l 1031 1032
v 0.00283546 0.003175 -0.0171167
v 0.00236355 0.003175 -0.0170844
l 1033 1034
v 0.00189128 0.003175 -0.017058
v 0.00141871 0.003175 -0.0170375
l 1035 1036
v 0.00094593 0.003175 -0.0170228
v 0.000473002 0.003175 -0.017014
l 1037 1038
v 0 0.003175 -0.0170111
v -0.000491334 0.003175 -0.0170142
l 1039 1040
v -0.000982587 0.003175 -0.0170237
v -0.00147368 0.003175 -0.0170396
l 1041 1042
v -0.00196452 0.003175 -0.0170617
v -0.00245504 0.003175 -0.0170902
l 1043 1044
v -0.00294515 0.003175 -0.0171251
v -0.00343476 0.003175 -0.0171662
l 1045 1046
v -0.00392381 0.003175 -0.0172137
v -0.00441221 0.003175 -0.0172674
l 1047 1048
v -0.00489987 0.003175 -0.0173275
v -0.00538672 0.003175 -0.0173938
l 1049 1050
v -0.00587267 0.003175 -0.0174664
v -0.00635764 0.003175 -0.0175452
l 1051 1052
v -0.00684156 0.003175 -0.0176304
v -0.00732434 0.003175 -0.0177217
l 1053 1054
v -0.0078059 0.003175 -0.0178193
v -0.00828616 0.003175 -0.017923
l 1055 1056
v -0.00876504 0.003175 -0.018033
v -0.00924247 0.003175 -0.0181491
l 1057 1058
v -0.00971836 0.003175 -0.0182714
v -0.0101926 0.003175 -0.0183998
l 1059 1060
v -0.00237097 0.00314467 -0.00339829
v -0.00240111 0.0034284 -0.00340403
l 1061 1062
v -0.00240111 0.0034284 -0.00340403
v -0.00249121 0.00369886 -0.00342173
l 1063 1064
v -0.0122967 0.00443317 -0.01905
v -0.0122967 0.00490394 -0.01905
l 1065 1066
v -0.0122967 0.00537472 -0.01905
v -0.0122967 0.00584549 -0.01905
l 1067 1068
v -0.0122967 0.00631626 -0.01905
v -0.0122967 0.00678703 -0.01905
l 1069 1070
v -0.0122967 0.0072578 -0.01905
v -0.0122967 0.00772857 -0.01905
l 1071 1072
v -0.0122967 0.00819935 -0.01905
v -0.0122967 0.00867012 -0.01905
l 1073 1074
v -0.0122967 0.00914089 -0.01905
v -0.0122967 0.00961166 -0.01905
l 1075 1076
v -0.0122967 0.0100824 -0.01905
v -0.0122967 0.0105532 -0.01905
l 1077 1078
v -0.0122967 0.011024 -0.01905
v -0.0122967 0.0114948 -0.01905
l 1079 1080
v -0.0122967 0.0119655 -0.01905
v -0.0122967 0.0124363 -0.01905
l 1081 1082
v -0.0122967 0.0129071 -0.01905
v -0.0122967 0.0133778 -0.01905
l 1083 1084
v -0.0122967 0.0138486 -0.01905
v -0.0122967 0.0143002 -0.01905
l 1085 1086
v -0.0122872 0.0147248 -0.019087
v -0.0122536 0.015175 -0.0192127
l 1087 1088
v -0.0122536 0.015175 -0.0192127
v -0.0121951 0.0155912 -0.0194205
l 1089 1090
v -0.0121951 0.0155912 -0.0194205
v -0.0121096 0.0159561 -0.0197021
l 1091 1092
v -0.0121096 0.0159561 -0.0197021
v -0.0119963 0.0162566 -0.0200438
l 1093 1094
v -0.0119963 0.0162566 -0.0200438
v -0.0118545 0.0164792 -0.0204313
l 1095 1096
v -0.0118545 0.0164792 -0.0204313
v -0.0116864 0.0166167 -0.0208468
l 1097 1098
v -0.0116864 0.0166167 -0.0208468
v -0.0114959 0.0166624 -0.0212727
l 1099 1100
v -0.0114959 0.0166624 -0.0212727
v -0.0112813 0.0166624 -0.0217078
l 1101 1102
v -0.0111348 0.0166624 -0.0219828
v -0.0110008 0.0166624 -0.022221
l 1103 1104
v -0.0108617 0.0166624 -0.0224562
v -0.010699 0.0166624 -0.0227176
l 1105 1106
v -0.0104349 0.0166624 -0.023114
v -0.0101448 0.0166624 -0.0235152
l 1107 1108
v -0.0101448 0.0166624 -0.0235152
v -0.0099171 0.0166624 -0.0238086
l 1109 1110
v -0.00974408 0.0166624 -0.0240201
v -0.00956654 0.0166624 -0.0242279
l 1111 1112
v -0.00938458 0.0166624 -0.0244319
v -0.00912851 0.0166624 -0.0247045
l 1113 1114
v -0.00878068 0.0166624 -0.0250505
v -0.00846251 0.0166624 -0.0253447
l 1115 1116
v -0.00824672 0.0166624 -0.0255332
v -0.00803697 0.0166624 -0.0257085
l 1117 1118
v -0.0078235 0.0166624 -0.0258791
v -0.00754919 0.0166624 -0.0260877
l 1119 1120
v -0.00715816 0.0166624 -0.0263655
v -0.00678384 0.0166624 -0.0266114
l 1121 1122
v -0.00653832 0.0166624 -0.0267626
v -0.00630252 0.0166624 -0.0269008
l 1123 1124
v -0.00606379 0.0166624 -0.0270339
v -0.00576666 0.0166624 -0.0271903
l 1125 1126
v -0.00535372 0.0166624 -0.0273914
v -0.00489911 0.0166624 -0.027592
l 1127 1128
v -0.00460512 0.0166624 -0.0277107
v -0.00434936 0.0166624 -0.027807
l 1129 1130
v -0.00409159 0.0166624 -0.0278978
v -0.00379993 0.0166624 -0.0279932
l 1131 1132
v -0.00335092 0.0166624 -0.028125
v -0.00286916 0.0166624 -0.0282467
l 1133 1134
v -0.00286916 0.0166624 -0.0282467
v -0.00243904 0.0166624 -0.0283386
l 1135 1136
v -0.00216184 0.0166624 -0.0283896
v -0.00189204 0.0166624 -0.0284333
l 1137 1138
v -0.0015149 0.0166624 -0.0284843
v -0.00102941 0.0166624 -0.0285332
l 1139 1140
v -0.00102941 0.0166624 -0.0285332
v -0.000593987 0.0166624 -0.0285611
l 1141 1142
v -0.000260905 0.0166624 -0.0285723
v 1.23914e-05 0.0166624 -0.028575
l 1143 1144
v 0.000285682 0.0166624 -0.0285718
v 0.000604257 0.0166624 -0.0285606
l 1145 1146
v 0.00103074 0.0166624 -0.0285331
v 0.0015225 0.0166624 -0.0284834
l 1147 1148
v 0.00191553 0.0166624 -0.0284297
v 0.00218626 0.0166624 -0.0283854
l 1149 1150
v 0.00245496 0.0166624 -0.0283355
v 0.00286929 0.0166624 -0.0282466
l 1151 1152
v 0.00286929 0.0166624 -0.0282466
v 0.00335092 0.0166624 -0.028125
l 1153 1154
v 0.00335092 0.0166624 -0.028125
v 0.00380974 0.0166624 -0.0279901
l 1155 1156
v 0.00411504 0.0166624 -0.0278898
v 0.00437264 0.0166624 -0.0277985
l 1157 1158
v 0.00462821 0.0166624 -0.0277016
v 0.00490551 0.0166624 -0.0275893
l 1159 1160
v 0.00535372 0.0166624 -0.0273914
v 0.00577581 0.0166624 -0.0271856
l 1161 1162
v 0.00608556 0.0166624 -0.027022
v 0.00632402 0.0166624 -0.0268885
l 1163 1164
v 0.00655956 0.0166624 -0.0267498
v 0.00679441 0.0166624 -0.0266047
l 1165 1166
v 0.00715816 0.0166624 -0.0263655
v 0.00755731 0.0166624 -0.0260817
l 1167 1168
v 0.00755731 0.0166624 -0.0260817
v 0.00784301 0.0166624 -0.0258639
l 1169 1170
v 0.00805615 0.0166624 -0.0256928
v 0.00826555 0.0166624 -0.0255171
l 1171 1172
v 0.00847487 0.0166624 -0.0253337
v 0.00878087 0.0166624 -0.0250503
l 1173 1174
v 0.00913103 0.0166624 -0.0247019
v 0.00940126 0.0166624 -0.0244135
l 1175 1176
v 0.00958283 0.0166624 -0.0242092
v 0.00975995 0.0166624 -0.0240011
l 1177 1178
v 0.00993256 0.0166624 -0.0237892
v 0.0101491 0.0166624 -0.0235096
l 1179 1180
v 0.0104349 0.0166624 -0.023114
v 0.0107045 0.0166624 -0.022709
l 1181 1182
v 0.0108745 0.0166624 -0.0224351
v 0.0110132 0.0166624 -0.0221995
l 1183 1184
v 0.0111467 0.0166624 -0.0219611
v 0.011286 0.0166624 -0.0216987
l 1185 1186
v 0.0114959 0.0166624 -0.0212727
v 0.0116667 0.0166261 -0.0208927
l 1187 1188
v 0.0118203 0.0165165 -0.0205195
v 0.0119534 0.0163378 -0.0201654
l 1189 1190
v 0.0119534 0.0163378 -0.0201654
v 0.0120641 0.0160949 -0.0198435
l 1191 1192
v 0.0121523 0.015796 -0.0195645
v 0.0122186 0.0154503 -0.0193387
l 1193 1194
v 0.012264 0.0150683 -0.0191743
v 0.0122896 0.0146679 -0.0190777
l 1195 1196
v 0.0122896 0.0146679 -0.0190777
v 0.0122967 0.0143002 -0.01905
l 1197 1198
v 0.0122967 0.0138413 -0.01905
v 0.0122967 0.0133634 -0.01905
l 1199 1200
v 0.0122967 0.0128854 -0.01905
v 0.0122967 0.0124075 -0.01905
l 1201 1202
v 0.0122967 0.0119296 -0.01905
v 0.0122967 0.0114517 -0.01905
l 1203 1204
v 0.0122967 0.0109738 -0.01905
v 0.0122967 0.0104959 -0.01905
l 1205 1206
v 0.0122967 0.010018 -0.01905
v 0.0122967 0.00954005 -0.01905
l 1207 1208
v 0.0122967 0.00906213 -0.01905
v 0.0122967 0.00858422 -0.01905
l 1209 1210
v 0.0122967 0.0081063 -0.01905
v 0.0122967 0.00762839 -0.01905
l 1211 1212
v 0.0122967 0.00715048 -0.01905
v 0.0122967 0.00667256 -0.01905
l 1213 1214
v 0.0122967 0.00619465 -0.01905
v 0.0122967 0.00571673 -0.01905
l 1215 1216
v 0.0122967 0.00523882 -0.01905
v 0.0122967 0.00476091 -0.01905
l 1217 1218
v 0.0024011 0.00342841 -0.00340405
v 0.00237097 0.00314467 -0.00339829
l 1219 1220
v 0.00237097 0.00314467 -0.00339829
v 0.00236542 0.00272384 -0.00339716
l 1221 1222
v 0.00236542 0.00272384 -0.00339716
v 0.00230589 0.00230807 -0.00338606
l 1223 1224
v 0.00223049 0.00202167 -0.0033724
v 0.0021429 0.00178173 -0.00335709
l 1225 1226
v 0.00202811 0.00154063 -0.00333798
v 0.00188369 0.00130393 -0.00331547
l 1227 1228
v 0.00172684 0.00109845 -0.00329295
v 0.00155298 0.000913611 -0.00327031
l 1229 1230
v 0.00135828 0.000747181 -0.00324784
v 0.00109913 0.000576279 -0.00322265
l 1231 1232
v 0.000871434 0.00046333 -0.00320493
v 0.000628582 0.000375327 -0.00319056
l 1233 1234
v 0.000361253 0.000313963 -0.00318014
v 0 0.000284913 -0.003175
l 1235 1236
v -0.0122967 0.0039624 -0.01905
v -0.0122967 0.00443317 -0.01905
l 1237 1238
v -0.0122967 0.00490394 -0.01905
v -0.0122967 0.00537472 -0.01905
l 1239 1240
v -0.0122967 0.00584549 -0.01905
v -0.0122967 0.00631626 -0.01905
l 1241 1242
v -0.0122967 0.00678703 -0.01905
v -0.0122967 0.0072578 -0.01905
l 1243 1244
v -0.0122967 0.00772857 -0.01905
v -0.0122967 0.00819935 -0.01905
l 1245 1246
v -0.0122967 0.00867012 -0.01905
v -0.0122967 0.00914089 -0.01905
l 1247 1248
v -0.0122967 0.00961166 -0.01905
v -0.0122967 0.0100824 -0.01905
l 1249 1250
v -0.0122967 0.0105532 -0.01905
v -0.0122967 0.011024 -0.01905
l 1251 1252
v -0.0122967 0.0114948 -0.01905
v -0.0122967 0.0119655 -0.01905
l 1253 1254
v -0.0122967 0.0124363 -0.01905
v -0.0122967 0.0129071 -0.01905
l 1255 1256
v -0.0122967 0.0133778 -0.01905
v -0.0122967 0.0138486 -0.01905
l 1257 1258
v -0.0122967 0.0143002 -0.01905
v -0.0122872 0.0147248 -0.019087
l 1259 1260
v -0.0112813 0.0166624 -0.0217078
v -0.0111348 0.0166624 -0.0219828
l 1261 1262
v -0.0110008 0.0166624 -0.022221
v -0.0108617 0.0166624 -0.0224562
l 1263 1264
v -0.010699 0.0166624 -0.0227176
v -0.0104349 0.0166624 -0.023114
l 1265 1266
v -0.0099171 0.0166624 -0.0238086
v -0.00974408 0.0166624 -0.0240201
l 1267 1268
v -0.00956654 0.0166624 -0.0242279
v -0.00938458 0.0166624 -0.0244319
l 1269 1270
v -0.00912851 0.0166624 -0.0247045
v -0.00878068 0.0166624 -0.0250505
l 1271 1272
v -0.00846251 0.0166624 -0.0253447
v -0.00824672 0.0166624 -0.0255332
l 1273 1274
v -0.00803697 0.0166624 -0.0257085
v -0.0078235 0.0166624 -0.0258791
l 1275 1276
v -0.00754919 0.0166624 -0.0260877
v -0.00715816 0.0166624 -0.0263655
l 1277 1278
v -0.00678384 0.0166624 -0.0266114
v -0.00653832 0.0166624 -0.0267626
l 1279 1280
v -0.00630252 0.0166624 -0.0269008
v -0.00606379 0.0166624 -0.0270339
l 1281 1282
v -0.00576666 0.0166624 -0.0271903
v -0.00535372 0.0166624 -0.0273914
l 1283 1284
v -0.00489911 0.0166624 -0.027592
v -0.00460512 0.0166624 -0.0277107
l 1285 1286
v -0.00434936 0.0166624 -0.027807
v -0.00409159 0.0166624 -0.0278978
l 1287 1288
v -0.00379993 0.0166624 -0.0279932
v -0.00335092 0.0166624 -0.028125
l 1289 1290
v -0.00243904 0.0166624 -0.0283386
v -0.00216184 0.0166624 -0.0283896
l 1291 1292
v -0.00189204 0.0166624 -0.0284333
v -0.0015149 0.0166624 -0.0284843
l 1293 1294
v -0.000593987 0.0166624 -0.0285611
v -0.000260905 0.0166624 -0.0285723
l 1295 1296
v 1.23914e-05 0.0166624 -0.028575
v 0.000285682 0.0166624 -0.0285718
l 1297 1298
v 0.000604257 0.0166624 -0.0285606
v 0.00103074 0.0166624 -0.0285331
l 1299 1300
v 0.0015225 0.0166624 -0.0284834
v 0.00191553 0.0166624 -0.0284297
l 1301 1302
v 0.00218626 0.0166624 -0.0283854
v 0.00245496 0.0166624 -0.0283355
l 1303 1304
v 0.00380974 0.0166624 -0.0279901
v 0.00411504 0.0166624 -0.0278898
l 1305 1306
v 0.00437264 0.0166624 -0.0277985
v 0.00462821 0.0166624 -0.0277016
l 1307 1308
v 0.00490551 0.0166624 -0.0275893
v 0.00535372 0.0166624 -0.0273914
l 1309 1310
v 0.00577581 0.0166624 -0.0271856
v 0.00608556 0.0166624 -0.027022
l 1311 1312
v 0.00632402 0.0166624 -0.0268885
v 0.00655956 0.0166624 -0.0267498
l 1313 1314
v 0.00679441 0.0166624 -0.0266047
v 0.00715816 0.0166624 -0.0263655
l 1315 1316
v 0.00784301 0.0166624 -0.0258639
v 0.00805615 0.0166624 -0.0256928
l 1317 1318
v 0.00826555 0.0166624 -0.0255171
v 0.00847487 0.0166624 -0.0253337
l 1319 1320
v 0.00878087 0.0166624 -0.0250503
v 0.00913103 0.0166624 -0.0247019
l 1321 1322
v 0.00940126 0.0166624 -0.0244135
v 0.00958283 0.0166624 -0.0242092
l 1323 1324
v 0.00975995 0.0166624 -0.0240011
v 0.00993256 0.0166624 -0.0237892
l 1325 1326
v 0.0101491 0.0166624 -0.0235096
v 0.0104349 0.0166624 -0.023114
l 1327 1328
v 0.0107045 0.0166624 -0.022709
v 0.0108745 0.0166624 -0.0224351
l 1329 1330
v 0.0110132 0.0166624 -0.0221995
v 0.0111467 0.0166624 -0.0219611
l 1331 1332
v 0.011286 0.0166624 -0.0216987
v 0.0114959 0.0166624 -0.0212727
l 1333 1334
v 0.0116667 0.0166261 -0.0208927
v 0.0118203 0.0165165 -0.0205195
l 1335 1336
v 0.0120641 0.0160949 -0.0198435
v 0.0121523 0.015796 -0.0195645
l 1337 1338
v 0.0122186 0.0154503 -0.0193387
v 0.012264 0.0150683 -0.0191743
l 1339 1340
v 0.0122967 0.0143002 -0.01905
v 0.0122967 0.0138413 -0.01905
l 1341 1342
v 0.0122967 0.0133634 -0.01905
v 0.0122967 0.0128854 -0.01905
l 1343 1344
v 0.0122967 0.0124075 -0.01905
v 0.0122967 0.0119296 -0.01905
l 1345 1346
v 0.0122967 0.0114517 -0.01905
v 0.0122967 0.0109738 -0.01905
l 1347 1348
v 0.0122967 0.0104959 -0.01905
v 0.0122967 0.010018 -0.01905
l 1349 1350
v 0.0122967 0.00954005 -0.01905
v 0.0122967 0.00906213 -0.01905
l 1351 1352
v 0.0122967 0.00858422 -0.01905
v 0.0122967 0.0081063 -0.01905
l 1353 1354
v 0.0122967 0.00762839 -0.01905
v 0.0122967 0.00715048 -0.01905
l 1355 1356
v 0.0122967 0.00667256 -0.01905
v 0.0122967 0.00619465 -0.01905
l 1357 1358
v 0.0122967 0.00571673 -0.01905
v 0.0122967 0.00523882 -0.01905
l 1359 1360
v 0.0122967 0.00431336 -0.01905
v 0.0122967 0.0039624 -0.01905
l 1361 1362
v 0.0122967 0.00476091 -0.01905
v 0.0122967 0.00431336 -0.01905
l 1363 1364
v 0.00230589 0.00230807 -0.00338606
v 0.00223049 0.00202167 -0.0033724
l 1365 1366
v 0.0021429 0.00178173 -0.00335709
v 0.00202811 0.00154063 -0.00333798
l 1367 1368
v 0.00188369 0.00130393 -0.00331547
v 0.00172684 0.00109845 -0.00329295
l 1369 1370
v 0.00155298 0.000913611 -0.00327031
v 0.00135828 0.000747181 -0.00324784
l 1371 1372
v 0.00109913 0.000576279 -0.00322265
v 0.000871434 0.00046333 -0.00320493
l 1373 1374
v 0.000628582 0.000375327 -0.00319056
v 0.000361253 0.000313963 -0.00318014
l 1375 1376
v 0.00268335 0.00349681 -0.00361768
v 0.0024011 0.00342841 -0.00340405
l 1377 1378
v -0.0122967 0.0039624 -0.01905
v -0.0121897 0.00355636 -0.0190137
l 1379 1380
v -0.011899 0.00326676 -0.0189168
v -0.0115472 0.003175 -0.018803
l 1381 1382
v -0.0121897 0.00355636 -0.0190137
v -0.011899 0.00326676 -0.0189168
l 1383 1384
v 0.0122967 0.0039624 -0.01905
v 0.0122406 0.00366303 -0.0190308
l 1385 1386
v 0.0122406 0.00366303 -0.0190308
v 0.0120815 0.00340975 -0.0189773
l 1387 1388
v 0.0120815 0.00340975 -0.0189773
v 0.0118837 0.00325848 -0.0189113
l 1389 1390
v 0.0118837 0.00325848 -0.0189113
v 0.0115472 0.003175 -0.018803
l 1391 1392
