v 0.00232231 0.0233068 -0.0860373
v 0.00237489 0.0228656 -0.0862583
l 1 2
v 0.00216834 0.0237285 -0.0858261
v 0.00232231 0.0233068 -0.0860373
l 3 4
v 0.00191972 0.0241125 -0.0856338
v 0.00216834 0.0237285 -0.0858261
l 5 6
v 0.0015873 0.0244419 -0.0854689
v 0.00191972 0.0241125 -0.0856338
l 7 8
v -0.00158938 0.0244402 -0.0854697
v -0.00118801 0.0247011 -0.0853391
l 9 10
v -0.00192136 0.0241105 -0.0856348
v -0.00158938 0.0244402 -0.0854697
l 11 12
v -0.00216948 0.0237262 -0.0858272
v -0.00192136 0.0241105 -0.0856348
l 13 14
v -0.00232289 0.0233043 -0.0860386
v -0.00216948 0.0237262 -0.0858272
l 15 16
v -0.00237489 0.0228631 -0.0862595
v -0.00232289 0.0233043 -0.0860386
l 17 18
v 0.00237489 0.0228656 -0.0862583
v 0.00232369 0.0224238 -0.0864795
l 19 20
v 0.00232369 0.0224238 -0.0864795
v 0.00217081 0.0220011 -0.0866912
l 21 22
v 0.00192295 0.0216162 -0.086884
v 0.00159093 0.0212857 -0.0870494
l 23 24
v -0.00158886 0.0212841 -0.0870503
v -0.0019213 0.0216141 -0.086885
l 25 26
v -0.00216968 0.0219988 -0.0866923
v -0.00232312 0.0224213 -0.0864808
l 27 28
v -0.00232312 0.0224213 -0.0864808
v -0.00237489 0.0228631 -0.0862595
l 29 30
v 0.00231536 0.00677051 -0.0553073
v 0.0023749 0.00724304 -0.0550706
l 31 32
v 0.00213971 0.00632168 -0.055532
v 0.00231536 0.00677051 -0.0553073
l 33 34
v 0.00185677 0.00591906 -0.0557337
v 0.00213971 0.00632168 -0.055532
l 35 36
v 0.00148073 0.00558282 -0.0559021
v 0.00185677 0.00591906 -0.0557337
l 37 38
v 0.00103043 0.00532983 -0.0560287
v 0.00148073 0.00558282 -0.0559021
l 39 40
v 0.000528465 0.00517278 -0.0561074
v 0.00103043 0.00532983 -0.0560287
l 41 42
v 0 0.00511954 -0.0561341
v 0.000528465 0.00517278 -0.0561074
l 43 44
v -0.000504821 0.00516806 -0.0561098
v 0 0.00511954 -0.0561341
l 45 46
v -0.000986569 0.00531143 -0.056038
v -0.000504821 0.00516806 -0.0561098
l 47 48
v -0.00142323 0.00554309 -0.0559219
v -0.000986569 0.00531143 -0.056038
l 49 50
v -0.00179483 0.00585244 -0.055767
v -0.00142323 0.00554309 -0.0559219
l 51 52
v -0.0020844 0.00622535 -0.0555803
v -0.00179483 0.00585244 -0.055767
l 53 54
v -0.0022787 0.00664478 -0.0553702
v -0.0020844 0.00622535 -0.0555803
l 55 56
v -0.00236885 0.00709155 -0.0551465
v -0.0022787 0.00664478 -0.0553702
l 57 58
v -0.00235073 0.00754524 -0.0549193
v -0.00236885 0.00709155 -0.0551465
l 59 60
v -0.00222516 0.00798513 -0.054699
v -0.00235073 0.00754524 -0.0549193
l 61 62
v -0.00199789 0.00839109 -0.0544957
v -0.00222516 0.00798513 -0.054699
l 63 64
v -0.00167931 0.00874458 -0.0543187
v -0.00199789 0.00839109 -0.0544957
l 65 66
v -0.00128397 0.00902944 -0.054176
v -0.00167931 0.00874458 -0.0543187
l 67 68
v -0.000829943 0.00923265 -0.0540743
v -0.00128397 0.00902944 -0.054176
l 69 70
v -0.000337984 0.00934493 -0.054018
v -0.000829943 0.00923265 -0.0540743
l 71 72
v 0.000169423 0.00936113 -0.0540099
v -0.000337984 0.00934493 -0.054018
l 73 74
v 0.000669087 0.00928052 -0.0540503
v 0.000169423 0.00936113 -0.0540099
l 75 76
v 0.00113817 0.00910679 -0.0541373
v 0.000669087 0.00928052 -0.0540503
l 77 78
v 0.00155523 0.00884787 -0.0542669
v 0.00113817 0.00910679 -0.0541373
l 79 80
v 0.00190121 0.0085156 -0.0544333
v 0.00155523 0.00884787 -0.0542669
l 81 82
v 0.00216028 0.00812517 -0.0546289
v 0.00190121 0.0085156 -0.0544333
l 83 84
v 0.00232063 0.00769442 -0.0548446
v 0.00216028 0.00812517 -0.0546289
l 85 86
v 0.0023749 0.00724304 -0.0550706
v 0.00232063 0.00769442 -0.0548446
l 87 88
v 0.00217081 0.0220011 -0.0866912
v 0.00192295 0.0216162 -0.086884
l 89 90
v 0.00159093 0.0212857 -0.0870494
v 0.00118931 0.0210243 -0.0871804
l 91 92
v -0.00118689 0.021023 -0.087181
v -0.00158886 0.0212841 -0.0870503
l 93 94
v -0.0019213 0.0216141 -0.086885
v -0.00216968 0.0219988 -0.0866923
l 95 96
v -0.0003937 0 -0.0207391
v -0.000216142 -0.000329063 -0.0207391
l 97 98
v -0.000216142 -0.000329063 -0.0207391
v 0.000189115 -0.000345304 -0.0207391
l 99 100
v 0.0003937 0 -0.0207391
v 0.000237628 0.000313899 -0.0207391
l 101 102
v 0.000237628 0.000313899 -0.0207391
v -9.78192e-05 0.000381354 -0.0207391
l 103 104
v -9.78192e-05 0.000381354 -0.0207391
v -0.000312982 0.000238834 -0.0207391
l 105 106
v -0.000312982 0.000238834 -0.0207391
v -0.0003937 0 -0.0207391
l 107 108
v 0.000189115 -0.000345304 -0.0207391
v 0.0003937 0 -0.0207391
l 109 110
v -0.0003937 0 -0.0207391
v -0.000335763 -0.00020558 -0.0209186
l 111 112
v -0.000335763 -0.00020558 -0.0209186
v -0.000216142 -0.000329063 -0.0207391
l 113 114
v -0.000312982 0.000238834 -0.0207391
v -0.000312982 0.000238834 -0.0211201
l 115 116
v -9.78192e-05 0.000381354 -0.0211201
v -9.78192e-05 0.000381354 -0.0207391
l 117 118
v -0.0003937 0 -0.0211201
v -0.000335763 -0.00020558 -0.0209186
l 119 120
v 0.0003937 0 -0.0211201
v 0.0003937 0 -0.0207391
l 121 122
v 0.000189115 -0.000345304 -0.0207391
v 0.000308749 -0.000244281 -0.0209298
l 123 124
v -0.000216142 -0.000329063 -0.0207391
v -2.33268e-05 -0.000393008 -0.0209306
l 125 126
v -2.33268e-05 -0.000393008 -0.0209306
v 0.000189115 -0.000345304 -0.0207391
l 127 128
v 0.000237628 0.000313899 -0.0207391
v 0.000237628 0.000313899 -0.0211201
l 129 130
v 0.000189115 -0.000345304 -0.0211201
v -2.33268e-05 -0.000393008 -0.0209306
l 131 132
v -2.33268e-05 -0.000393008 -0.0209306
v -0.000216142 -0.000329063 -0.0211201
l 133 134
v 0.000308749 -0.000244281 -0.0209298
v 0.000189115 -0.000345304 -0.0211201
l 135 136
v -0.000216142 -0.000329063 -0.0211201
v -0.000335763 -0.00020558 -0.0209186
l 137 138
v 0.0011684 0 -0.0211201
v 0.0011684 0.000387255 -0.0211201
l 139 140
v 0.0011684 0.000848617 -0.0211201
v 0.0011684 0.00132099 -0.0211201
l 141 142
v 0.0011684 0.00173912 -0.0211201
v 0.0011684 0.00206761 -0.0211201
l 143 144
v -0.0011684 0.00206761 -0.0211201
v -0.0011684 0.00175231 -0.0211201
l 145 146
v -0.0011684 0.00135935 -0.0211201
v -0.0011684 0.000906346 -0.0211201
l 147 148
v -0.0011684 0.000453173 -0.0211201
v -0.0011684 0 -0.0211201
l 149 150
v -0.00107481 -0.000458204 -0.0211201
v -0.000809018 -0.000842999 -0.0211201
l 151 152
v -0.000413618 -0.00109274 -0.0211201
v 4.80467e-05 -0.00116741 -0.0211201
l 153 154
v 0.000502014 -0.00105505 -0.0211201
v 0.000845584 -0.000806317 -0.0211201
l 155 156
v 0.001039 -0.000534458 -0.0211201
v 0.00113216 -0.00028875 -0.0211201
l 157 158
v 0.00113216 -0.00028875 -0.0211201
v 0.0011684 0 -0.0211201
l 159 160
v 0.0011684 0.000387255 -0.0211201
v 0.0011684 0.000848617 -0.0211201
l 161 162
v 0.0011684 0.00132099 -0.0211201
v 0.0011684 0.00173912 -0.0211201
l 163 164
v -0.0011684 0.00175231 -0.0211201
v -0.0011684 0.00135935 -0.0211201
l 165 166
v -0.0011684 0.000906346 -0.0211201
v -0.0011684 0.000453173 -0.0211201
l 167 168
v -0.0011684 0 -0.0211201
v -0.00107481 -0.000458204 -0.0211201
l 169 170
v -0.000809018 -0.000842999 -0.0211201
v -0.000413618 -0.00109274 -0.0211201
l 171 172
v 4.80467e-05 -0.00116741 -0.0211201
v 0.000502014 -0.00105505 -0.0211201
l 173 174
v 0.000845584 -0.000806317 -0.0211201
v 0.001039 -0.000534458 -0.0211201
l 175 176
v 0.0011684 0 -0.0219075
v 0.0011684 0.000386582 -0.0219075
l 177 178
v 0.0011684 0.000386582 -0.0219075
v 0.0011684 0.000847699 -0.0219075
l 179 180
v 0.0011684 0.00132005 -0.0219075
v 0.0011684 0.00173675 -0.0219075
l 181 182
v 0.0011684 0.00173675 -0.0219075
v 0.0011684 0.00206761 -0.0219075
l 183 184
v 0.0011684 0.000847699 -0.0219075
v 0.0011684 0.00132005 -0.0219075
l 185 186
v -0.0023622 -0.000245278 -0.0231702
v -0.00230615 -0.00056695 -0.0231381
l 187 188
v -0.00222025 -0.000842866 -0.0230903
v -0.00210591 -0.00109787 -0.0230288
l 189 190
v -0.00198731 -0.00130029 -0.0229673
v -0.00185041 -0.00148867 -0.0228997
l 191 192
v -0.00169431 -0.00166419 -0.022827
v -0.00150365 -0.00183843 -0.0227456
l 193 194
v -0.00126393 -0.00201064 -0.0226547
v -0.00106056 -0.00212494 -0.0225885
l 195 196
v -0.000846001 -0.00221911 -0.0225302
v -0.000618965 -0.00229282 -0.0224824
l 197 198
v -0.000384368 -0.00234359 -0.0224481
v 0 -0.0023749 -0.0224258
l 199 200
v 0.000434605 -0.00233472 -0.0224542
v 0.000765323 -0.0022482 -0.0225116
l 201 202
v 0.00098988 -0.00215877 -0.022568
v 0.00120223 -0.00204812 -0.0226335
l 203 204
v 0.00140094 -0.00191768 -0.0227051
v 0.00158533 -0.0017683 -0.0227795
l 205 206
v 0.00175905 -0.00159559 -0.0228565
v 0.00191139 -0.00140951 -0.0229293
l 207 208
v 0.00204344 -0.00121017 -0.0229961
v 0.0021556 -0.000996773 -0.0230553
l 209 210
v 0.00224627 -0.000770975 -0.0231046
v 0.00231513 -0.000529423 -0.0231432
l 211 212
v -0.00230615 -0.00056695 -0.0231381
v -0.00222025 -0.000842866 -0.0230903
l 213 214
v -0.00210591 -0.00109787 -0.0230288
v -0.00198731 -0.00130029 -0.0229673
l 215 216
v -0.00185041 -0.00148867 -0.0228997
v -0.00169431 -0.00166419 -0.022827
l 217 218
v -0.00150365 -0.00183843 -0.0227456
v -0.00126393 -0.00201064 -0.0226547
l 219 220
v -0.00106056 -0.00212494 -0.0225885
v -0.000846001 -0.00221911 -0.0225302
l 221 222
v -0.000618965 -0.00229282 -0.0224824
v -0.000384368 -0.00234359 -0.0224481
l 223 224
v 0 -0.0023749 -0.0224258
v 0.000434605 -0.00233472 -0.0224542
l 225 226
v 0.000765323 -0.0022482 -0.0225116
v 0.00098988 -0.00215877 -0.022568
l 227 228
v 0.00120223 -0.00204812 -0.0226335
v 0.00140094 -0.00191768 -0.0227051
l 229 230
v 0.00158533 -0.0017683 -0.0227795
v 0.00175905 -0.00159559 -0.0228565
l 231 232
v 0.00191139 -0.00140951 -0.0229293
v 0.00204344 -0.00121017 -0.0229961
l 233 234
v 0.0021556 -0.000996773 -0.0230553
v 0.00224627 -0.000770975 -0.0231046
l 235 236
v 0.00231513 -0.000529423 -0.0231432
v 0.0023622 -0.000245278 -0.0231702
l 237 238
v -0.0011684 0.00206761 -0.0219075
v -0.0011684 0.00175017 -0.0219075
l 239 240
v -0.0011684 0.00175017 -0.0219075
v -0.0011684 0.00135881 -0.0219075
l 241 242
v -0.0011684 0.000905902 -0.0219075
v -0.0011684 0.000452951 -0.0219075
l 243 244
v -0.0011684 0.000452951 -0.0219075
v -0.0011684 0 -0.0219075
l 245 246
v -0.0011684 0.00135881 -0.0219075
v -0.0011684 0.000905902 -0.0219075
l 247 248
v -0.0011684 0 -0.0219075
v -0.00107481 -0.000458204 -0.0219075
l 249 250
v -0.00107481 -0.000458204 -0.0219075
v -0.000809018 -0.000842999 -0.0219075
l 251 252
v -0.000413618 -0.00109274 -0.0219075
v 4.80467e-05 -0.00116741 -0.0219075
l 253 254
v 4.80467e-05 -0.00116741 -0.0219075
v 0.000502014 -0.00105505 -0.0219075
l 255 256
v 0.000502014 -0.00105505 -0.0219075
v 0.000845584 -0.000806317 -0.0219075
l 257 258
v 0.001039 -0.000534458 -0.0219075
v 0.00113216 -0.00028875 -0.0219075
l 259 260
v 0.00113216 -0.00028875 -0.0219075
v 0.0011684 0 -0.0219075
l 261 262
v -0.000809018 -0.000842999 -0.0219075
v -0.000413618 -0.00109274 -0.0219075
l 263 264
v 0.000845584 -0.000806317 -0.0219075
v 0.001039 -0.000534458 -0.0219075
l 265 266
v -0.00202272 -0.00124481 -0.0151147
v -0.00188747 -0.00144202 -0.0151826
l 267 268
v -0.00188747 -0.00144202 -0.0151826
v -0.00169354 -0.00166511 -0.0152733
l 269 270
v -0.00151453 -0.00182939 -0.0153501
v -0.00132459 -0.00197164 -0.0154239
l 271 272
v -0.00112002 -0.00209456 -0.0154934
v -0.000852428 -0.00221664 -0.0155682
l 273 274
v -0.000620222 -0.00229264 -0.0156178
v -0.00037973 -0.00234455 -0.015653
l 275 276
v -0.00037973 -0.00234455 -0.015653
v 0 -0.0023749 -0.0156742
l 277 278
v 0 -0.0023749 -0.0156742
v 0.000448148 -0.0023326 -0.0156445
l 279 280
v 0.000448148 -0.0023326 -0.0156445
v 0.00083297 -0.00222404 -0.0155729
l 281 282
v 0.00083297 -0.00222404 -0.0155729
v 0.00104896 -0.00213092 -0.0155151
l 283 284
v 0.00125293 -0.00201797 -0.0154494
v 0.00148349 -0.00185471 -0.0153627
l 285 286
v 0.00148349 -0.00185471 -0.0153627
v 0.00167342 -0.00168529 -0.0152822
l 287 288
v 0.00182969 -0.00151463 -0.0152104
v 0.00197855 -0.00131406 -0.0151373
l 289 290
v -0.00213875 -0.00103246 -0.0150537
v -0.00202272 -0.00124481 -0.0151147
l 291 292
v -0.00169354 -0.00166511 -0.0152733
v -0.00151453 -0.00182939 -0.0153501
l 293 294
v -0.00132459 -0.00197164 -0.0154239
v -0.00112002 -0.00209456 -0.0154934
l 295 296
v -0.000852428 -0.00221664 -0.0155682
v -0.000620222 -0.00229264 -0.0156178
l 297 298
v 0.00104896 -0.00213092 -0.0155151
v 0.00125293 -0.00201797 -0.0154494
l 299 300
v 0.00167342 -0.00168529 -0.0152822
v 0.00182969 -0.00151463 -0.0152104
l 301 302
v 0.00197855 -0.00131406 -0.0151373
v 0.0021241 -0.00106224 -0.0150615
l 303 304
v 0.0021241 -0.00106224 -0.0150615
v 0.0022195 -0.000845485 -0.01501
l 305 306
v 0.0022195 -0.000845485 -0.01501
v 0.00229391 -0.000615877 -0.0149687
l 307 308
v -0.00224015 -0.00078922 -0.0149987
v -0.00213875 -0.00103246 -0.0150537
l 309 310
v 0.00229391 -0.000615877 -0.0149687
v 0.0023622 -0.000245278 -0.0149298
l 311 312
v -0.00231526 -0.000529733 -0.0149566
v -0.00224015 -0.00078922 -0.0149987
l 313 314
v -0.0023622 -0.000245278 -0.0149298
v -0.00231526 -0.000529733 -0.0149566
l 315 316
v 0.0023622 -0.000245278 -0.0198374
v 0.00226945 -0.000699807 -0.0198374
l 317 318
v 0.00209012 -0.00112764 -0.0198374
v 0.00183103 -0.00151244 -0.0198374
l 319 320
v 0.00150209 -0.00183954 -0.0198374
v 0.00111583 -0.00209645 -0.0198374
l 321 322
v 0.000686993 -0.00227337 -0.0198374
v 0.000231948 -0.00236355 -0.0198374
l 323 324
v -0.000231948 -0.00236355 -0.0198374
v -0.000686993 -0.00227337 -0.0198374
l 325 326
v -0.00111583 -0.00209645 -0.0198374
v -0.00150209 -0.00183954 -0.0198374
l 327 328
v -0.00183103 -0.00151244 -0.0198374
v -0.00209012 -0.00112764 -0.0198374
l 329 330
v -0.00226945 -0.000699807 -0.0198374
v -0.0023622 -0.000245278 -0.0198374
l 331 332
v -0.0007874 0 -0.0198374
v -0.000681908 -0.0003937 -0.0198374
l 333 334
v -0.000681908 -0.0003937 -0.0198374
v -0.0003937 -0.000681908 -0.0198374
l 335 336
v -0.0003937 -0.000681908 -0.0198374
v -2.23052e-19 -0.0007874 -0.0198374
l 337 338
v -2.23052e-19 -0.0007874 -0.0198374
v 0.0003937 -0.000681908 -0.0198374
l 339 340
v 0.0003937 -0.000681908 -0.0198374
v 0.000681908 -0.0003937 -0.0198374
l 341 342
v 0.000681908 -0.0003937 -0.0198374
v 0.0007874 0 -0.0198374
l 343 344
v 0.0007874 0 -0.0198374
v 0.000681908 0.0003937 -0.0198374
l 345 346
v 0.000681908 0.0003937 -0.0198374
v 0.0003937 0.000681908 -0.0198374
l 347 348
v 0.0003937 0.000681908 -0.0198374
v 1.44643e-19 0.0007874 -0.0198374
l 349 350
v 1.44643e-19 0.0007874 -0.0198374
v -0.0003937 0.000681908 -0.0198374
l 351 352
v -0.0003937 0.000681908 -0.0198374
v -0.000681908 0.0003937 -0.0198374
l 353 354
v -0.000681908 0.0003937 -0.0198374
v -0.0007874 0 -0.0198374
l 355 356
v 0.00226945 -0.000699807 -0.0198374
v 0.00209012 -0.00112764 -0.0198374
l 357 358
v 0.00183103 -0.00151244 -0.0198374
v 0.00150209 -0.00183954 -0.0198374
l 359 360
v 0.00111583 -0.00209645 -0.0198374
v 0.000686993 -0.00227337 -0.0198374
l 361 362
v 0.000231948 -0.00236355 -0.0198374
v -0.000231948 -0.00236355 -0.0198374
l 363 364
v -0.000686993 -0.00227337 -0.0198374
v -0.00111583 -0.00209645 -0.0198374
l 365 366
v -0.00150209 -0.00183954 -0.0198374
v -0.00183103 -0.00151244 -0.0198374
l 367 368
v -0.00209012 -0.00112764 -0.0198374
v -0.00226945 -0.000699807 -0.0198374
l 369 370
v -0.00226945 -0.000699807 -0.0182626
v -0.0023622 -0.000245278 -0.0182626
l 371 372
v 0.0023622 -0.000245278 -0.0182626
v 0.00226945 -0.000699807 -0.0182626
l 373 374
v 0.00226945 -0.000699807 -0.0182626
v 0.00209012 -0.00112764 -0.0182626
l 375 376
v 0.00183103 -0.00151244 -0.0182626
v 0.00150209 -0.00183954 -0.0182626
l 377 378
v 0.00111583 -0.00209645 -0.0182626
v 0.000686993 -0.00227337 -0.0182626
l 379 380
v 0.000231948 -0.00236355 -0.0182626
v -0.000231948 -0.00236355 -0.0182626
l 381 382
v -0.000686993 -0.00227337 -0.0182626
v -0.00111583 -0.00209645 -0.0182626
l 383 384
v -0.00150209 -0.00183954 -0.0182626
v -0.00183103 -0.00151244 -0.0182626
l 385 386
v -0.00209012 -0.00112764 -0.0182626
v -0.00226945 -0.000699807 -0.0182626
l 387 388
v 0.00209012 -0.00112764 -0.0182626
v 0.00183103 -0.00151244 -0.0182626
l 389 390
v 0.00150209 -0.00183954 -0.0182626
v 0.00111583 -0.00209645 -0.0182626
l 391 392
v 0.000686993 -0.00227337 -0.0182626
v 0.000231948 -0.00236355 -0.0182626
l 393 394
v -0.000231948 -0.00236355 -0.0182626
v -0.000686993 -0.00227337 -0.0182626
l 395 396
v -0.00111583 -0.00209645 -0.0182626
v -0.00150209 -0.00183954 -0.0182626
l 397 398
v -0.00183103 -0.00151244 -0.0182626
v -0.00209012 -0.00112764 -0.0182626
l 399 400
v -0.0007874 0 -0.0182626
v -0.000681908 -0.0003937 -0.0182626
l 401 402
v -0.000681908 -0.0003937 -0.0182626
v -0.0003937 -0.000681908 -0.0182626
l 403 404
v -0.0003937 -0.000681908 -0.0182626
v -2.23052e-19 -0.0007874 -0.0182626
l 405 406
v -2.23052e-19 -0.0007874 -0.0182626
v 0.0003937 -0.000681908 -0.0182626
l 407 408
v 0.0003937 -0.000681908 -0.0182626
v 0.000681908 -0.0003937 -0.0182626
l 409 410
v 0.000681908 -0.0003937 -0.0182626
v 0.0007874 0 -0.0182626
l 411 412
v 0.0007874 0 -0.0182626
v 0.000681908 0.0003937 -0.0182626
l 413 414
v 0.0003937 0.000681908 -0.0182626
v 1.44643e-19 0.0007874 -0.0182626
l 415 416
v 1.44643e-19 0.0007874 -0.0182626
v -0.0003937 0.000681908 -0.0182626
l 417 418
v -0.0003937 0.000681908 -0.0182626
v -0.000681908 0.0003937 -0.0182626
l 419 420
v -0.000681908 0.0003937 -0.0182626
v -0.0007874 0 -0.0182626
l 421 422
v 0.000681908 0.0003937 -0.0182626
v 0.0003937 0.000681908 -0.0182626
l 423 424
v -0.000327665 0.00269961 -0.0100318
v -0.000250417 0.00257347 -0.0102552
l 425 426
v -0.00242384 0.00311597 -0.00517679
v -0.00238837 0.00311502 -0.00535935
l 427 428
v -0.00222398 0.00299737 -0.00557467
v -0.00228522 0.0029568 -0.00515237
l 429 430
v -0.00201757 0.00286932 -0.00618243
v -0.00210412 0.00290033 -0.00588979
l 431 432
v -0.00193216 0.00285962 -0.00646446
v -0.00201757 0.00286932 -0.00618243
l 433 434
v -0.00183614 0.00284639 -0.00675614
v -0.00193216 0.00285962 -0.00646446
l 435 436
v -0.00164981 0.00281778 -0.00727075
v -0.00174486 0.00283955 -0.00701756
l 437 438
v -0.00137783 0.00275796 -0.00794751
v -0.0014756 0.00271602 -0.00773147
l 439 440
v -0.00126657 0.00276477 -0.00820022
v -0.00137783 0.00275796 -0.00794751
l 441 442
v -0.000830053 0.00263207 -0.00918755
v -0.000937348 0.00265996 -0.00895052
l 443 444
v -0.000944796 0.00308206 -0.00917336
v -0.000819714 0.00309344 -0.00944205
l 445 446
v -0.000678218 0.00309455 -0.00970351
v -0.000553911 0.0031083 -0.00995646
l 447 448
v -0.000819714 0.00309344 -0.00944205
v -0.000678218 0.00309455 -0.00970351
l 449 450
v -0.00102732 0.00301895 -0.00887978
v -0.000944796 0.00308206 -0.00917336
l 451 452
v -0.00116916 0.00303495 -0.00861459
v -0.00102732 0.00301895 -0.00887978
l 453 454
v -0.00130511 0.00304966 -0.0083517
v -0.00116916 0.00303495 -0.00861459
l 455 456
v -0.00142245 0.00304542 -0.00807878
v -0.00130511 0.00304966 -0.0083517
l 457 458
v -0.00152207 0.00300983 -0.00777338
v -0.00142245 0.00304542 -0.00807878
l 459 460
v -0.00168695 0.00306552 -0.007489
v -0.00152207 0.00300983 -0.00777338
l 461 462
v -0.00179547 0.00307054 -0.00721853
v -0.00168695 0.00306552 -0.007489
l 463 464
v -0.00199811 0.003087 -0.00669238
v -0.00189388 0.00307593 -0.00696178
l 465 466
v -0.0020928 0.00309216 -0.00641108
v -0.00199811 0.003087 -0.00669238
l 467 468
v -0.00218038 0.00309658 -0.00612696
v -0.0020928 0.00309216 -0.00641108
l 469 470
v -0.00174486 0.00283955 -0.00701756
v -0.00183614 0.00284639 -0.00675614
l 471 472
v -0.00155449 0.00279008 -0.00751505
v -0.00164981 0.00281778 -0.00727075
l 473 474
v -0.00115137 0.00275156 -0.00845593
v -0.00126657 0.00276477 -0.00820022
l 475 476
v -0.000937348 0.00265996 -0.00895052
v -0.0010371 0.00272841 -0.00870498
l 477 478
v -0.000705881 0.00262863 -0.00942652
v -0.000830053 0.00263207 -0.00918755
l 479 480
v -0.000485203 0.00256981 -0.00989059
v -0.000584493 0.00260927 -0.00966808
l 481 482
v -0.00189388 0.00307593 -0.00696178
v -0.00179547 0.00307054 -0.00721853
l 483 484
v -0.00226641 0.0031084 -0.00586209
v -0.00218038 0.00309658 -0.00612696
l 485 486
v -0.00210412 0.00290033 -0.00588979
v -0.00222398 0.00299737 -0.00557467
l 487 488
v -0.0014756 0.00271602 -0.00773147
v -0.00155449 0.00279008 -0.00751505
l 489 490
v -0.0010371 0.00272841 -0.00870498
v -0.00115137 0.00275156 -0.00845593
l 491 492
v -0.000584493 0.00260927 -0.00966808
v -0.000705881 0.00262863 -0.00942652
l 493 494
v -0.0007469 0.00287309 -0.00928673
v -0.000856357 0.00285696 -0.00906866
l 495 496
v -0.000612364 0.00287477 -0.00953754
v -0.0007469 0.00287309 -0.00928673
l 497 498
v -0.000327665 0.00269961 -0.0100318
v -0.000485203 0.00256981 -0.00989059
l 499 500
v -0.000348327 0.00296791 -0.0100555
v -0.000459928 0.00285965 -0.00980091
l 501 502
v -0.000459928 0.00285965 -0.00980091
v -0.000612364 0.00287477 -0.00953754
l 503 504
v -0.000462871 0.00313062 -0.0101746
v -0.000553911 0.0031083 -0.00995646
l 505 506
v -0.00226641 0.0031084 -0.00586209
v -0.00222398 0.00299737 -0.00557467
l 507 508
v 0.000393138 0.00303557 -0.0100676
v 0.000311425 0.00309275 -0.0102975
l 509 510
v 0.000376255 0.00280163 -0.0099306
v 0.000200878 0.00287984 -0.0102205
l 511 512
v 0.000241691 0.00258948 -0.0102489
v 0.000451161 0.00254396 -0.00998729
l 513 514
v 0.00222106 0.00292585 -0.00541923
v 0.0021427 0.00289594 -0.0057279
l 515 516
v 0.00233634 0.00303807 -0.00516137
v 0.00222106 0.00292585 -0.00541923
l 517 518
v 0.000915464 0.00262286 -0.00903029
v 0.000800307 0.00263198 -0.00924489
l 519 520
v 0.000800307 0.00263198 -0.00924489
v 0.000684112 0.00261685 -0.00947929
l 521 522
v 0.00163492 0.00281346 -0.00730937
v 0.00151139 0.00280618 -0.00762308
l 523 524
v 0.0017465 0.00282727 -0.00700916
v 0.00163492 0.00281346 -0.00730937
l 525 526
v 0.00204833 0.00287088 -0.0060729
v 0.00194739 0.00285551 -0.00641241
l 527 528
v 0.0021427 0.00289594 -0.0057279
v 0.00204833 0.00287088 -0.0060729
l 529 530
v 0.00191256 0.0030763 -0.00690911
v 0.00202299 0.00308504 -0.0066074
l 531 532
v 0.00202299 0.00308504 -0.0066074
v 0.00212189 0.00308545 -0.00628348
l 533 534
v 0.00212189 0.00308545 -0.00628348
v 0.00222613 0.00309366 -0.00593972
l 535 536
v 0.00168794 0.00307017 -0.00749967
v 0.0018111 0.00307658 -0.00719501
l 537 538
v 0.00158301 0.00308716 -0.0078108
v 0.00168794 0.00307017 -0.00749967
l 539 540
v 0.00140321 0.00304485 -0.00812157
v 0.00158301 0.00308716 -0.0078108
l 541 542
v 0.00127315 0.0030512 -0.00842495
v 0.00140321 0.00304485 -0.00812157
l 543 544
v 0.00114668 0.00306124 -0.00871654
v 0.00127315 0.0030512 -0.00842495
l 545 546
v 0.0010275 0.00307801 -0.00899982
v 0.00114668 0.00306124 -0.00871654
l 547 548
v 0.000887394 0.00309126 -0.00930822
v 0.0010275 0.00307801 -0.00899982
l 549 550
v 0.000724954 0.00308467 -0.00959434
v 0.000887394 0.00309126 -0.00930822
l 551 552
v 0.000549089 0.00306665 -0.00986472
v 0.000724954 0.00308467 -0.00959434
l 553 554
v 0.000684112 0.00261685 -0.00947929
v 0.000559337 0.00258939 -0.00973647
l 555 556
v 0.00111029 0.00276642 -0.0085405
v 0.000979132 0.00277276 -0.00881253
l 557 558
v 0.00133485 0.00272609 -0.00805795
v 0.00122653 0.00277119 -0.00828813
l 559 560
v 0.00184538 0.0028421 -0.0067266
v 0.0017465 0.00282727 -0.00700916
l 561 562
v 0.0018111 0.00307658 -0.00719501
v 0.00191256 0.0030763 -0.00690911
l 563 564
v 0.000393138 0.00303557 -0.0100676
v 0.000549089 0.00306665 -0.00986472
l 565 566
v 0.000559337 0.00258939 -0.00973647
v 0.000451161 0.00254396 -0.00998729
l 567 568
v 0.00143141 0.00268665 -0.00785656
v 0.00133485 0.00272609 -0.00805795
l 569 570
v 0.00122653 0.00277119 -0.00828813
v 0.00111029 0.00276642 -0.0085405
l 571 572
v 0.00194739 0.00285551 -0.00641241
v 0.00184538 0.0028421 -0.0067266
l 573 574
v 0.00222613 0.00309366 -0.00593972
v 0.00230664 0.00309893 -0.00563473
l 575 576
v 0.000979132 0.00277276 -0.00881253
v 0.000843035 0.00286195 -0.00909668
l 577 578
v 0.00230664 0.00309893 -0.00563473
v 0.00238814 0.00311812 -0.00538598
l 579 580
v 0.000553262 0.00285217 -0.00963525
v 0.000376255 0.00280163 -0.0099306
l 581 582
v 0.00141883 0.00289691 -0.00788306
v 0.00151139 0.00280618 -0.00762308
l 583 584
v 0.000843035 0.00286195 -0.00909668
v 0.000702832 0.00287379 -0.00937015
l 585 586
v 0.000702832 0.00287379 -0.00937015
v 0.000553262 0.00285217 -0.00963525
l 587 588
v 0.000167926 0.0030747 -0.0104856
v 1.5875e-11 0.00310015 -0.0106356
l 589 590
v 0.000200878 0.00287984 -0.0102205
v 2.52951e-11 0.00291475 -0.010501
l 591 592
v 1.69656e-11 0.00250003 -0.01062
v 0.000241691 0.00258948 -0.0102489
l 593 594
v 0.000311425 0.00309275 -0.0102975
v 0.000167926 0.0030747 -0.0104856
l 595 596
v -0.000189393 0.00309281 -0.0104871
v -0.000297298 0.00307839 -0.0102879
l 597 598
v 2.52951e-11 0.00291475 -0.010501
v -0.000194723 0.00283685 -0.0102164
l 599 600
v 1.69656e-11 0.00250003 -0.01062
v -0.000182845 0.00249795 -0.0104826
l 601 602
v 1.5875e-11 0.00310015 -0.0106356
v -0.000189393 0.00309281 -0.0104871
l 603 604
v -0.00250308 0.00311811 -0.00464558
v -0.00244855 0.00304312 -0.00426188
l 605 606
v 0.0024011 0.00342841 -0.00340405
v 0.00245821 0.00327396 -0.00364482
l 607 608
v 0.00244855 0.00304312 -0.00426188
v 0.00245494 0.00311134 -0.00389792
l 609 610
v 0.00245494 0.00311134 -0.00389792
v 0.00245821 0.00327396 -0.00364482
l 611 612
v 0.00237682 0.00295369 -0.00444271
v 0.00240833 0.0030432 -0.00470055
l 613 614
v 0.00240833 0.0030432 -0.00470055
v 0.00233634 0.00303807 -0.00516137
l 615 616
v 0.00252061 0.00311657 -0.00444183
v 0.00240833 0.0030432 -0.00470055
l 617 618
v -0.00244855 0.00304312 -0.00426188
v -0.00246545 0.00309519 -0.00398056
l 619 620
v -0.00243319 0.00313866 -0.00377412
v -0.00246333 0.00331236 -0.00361287
l 621 622
v -0.00246545 0.00309519 -0.00398056
v -0.00243319 0.00313866 -0.00377412
l 623 624
