v 0 0.0182626 -0.003175
v -0.000275139 0.0182626 -0.00317798
l 1 2
v -0.000550148 0.0182626 -0.00318692
v -0.000824899 0.0182626 -0.00320182
l 3 4
v -0.00109926 0.0182626 -0.00322266
v -0.00137311 0.0182626 -0.00324945
l 5 6
v -0.00164631 0.0182626 -0.00328216
v -0.00191875 0.0182626 -0.00332078
l 7 8
v -0.00219028 0.0182626 -0.0033653
v -0.00246078 0.0182626 -0.00341568
l 9 10
v -0.00273013 0.0182626 -0.00347192
v -0.00299819 0.0182626 -0.00353398
l 11 12
v -0.00326485 0.0182626 -0.00360183
v -0.00352997 0.0182626 -0.00367544
l 13 14
v -0.00379344 0.0182626 -0.00375478
v -0.00405513 0.0182626 -0.00383981
l 15 16
v -0.00431491 0.0182626 -0.00393048
v -0.00457267 0.0182626 -0.00402677
l 17 18
v -0.00482828 0.0182626 -0.00412861
v -0.00508163 0.0182626 -0.00423597
l 19 20
v -0.00533259 0.0182626 -0.00434879
v -0.00558105 0.0182626 -0.00446702
l 21 22
v -0.00582689 0.0182626 -0.00459061
v -0.00606999 0.0182626 -0.0047195
l 23 24
v -0.00631024 0.0182626 -0.00485362
v -0.00654753 0.0182626 -0.00499291
l 25 26
v -0.00678175 0.0182626 -0.00513732
v -0.00701279 0.0182626 -0.00528676
l 27 28
v -0.00724053 0.0182626 -0.00544117
v -0.00746487 0.0182626 -0.00560048
l 29 30
v -0.00768571 0.0182626 -0.00576462
v -0.00790295 0.0182626 -0.0059335
l 31 32
v -0.00811647 0.0182626 -0.00610704
v -0.00832618 0.0182626 -0.00628518
l 33 34
v -0.00853198 0.0182626 -0.00646781
v -0.00873378 0.0182626 -0.00665486
l 35 36
v -0.00893148 0.0182626 -0.00684623
v -0.00912499 0.0182626 -0.00704185
l 37 38
v -0.00931421 0.0182626 -0.00724161
v -0.00949906 0.0182626 -0.00744542
l 39 40
v -0.00967946 0.0182626 -0.00765319
v -0.00985531 0.0182626 -0.00786482
l 41 42
v -0.0100265 0.0182626 -0.00808021
v -0.010193 0.0182626 -0.00829926
l 43 44
v -0.0103548 0.0182626 -0.00852187
v -0.0105116 0.0182626 -0.00874792
l 45 46
v -0.0106636 0.0182626 -0.00897733
v -0.0108105 0.0182626 -0.00920997
l 47 48
v -0.0109524 0.0182626 -0.00944573
v -0.0110891 0.0182626 -0.00968452
l 49 50
v -0.0112206 0.0182626 -0.00992621
v -0.0113468 0.0182626 -0.0101707
l 51 52
v -0.0114678 0.0182626 -0.0104179
v -0.0115833 0.0182626 -0.0106676
l 53 54
v -0.0116934 0.0182626 -0.0109197
v -0.011798 0.0182626 -0.0111743
l 55 56
v -0.0118971 0.0182626 -0.0114309
v -0.0119906 0.0182626 -0.0116897
l 57 58
v -0.0120784 0.0182626 -0.0119505
v -0.0121606 0.0182626 -0.0122131
l 59 60
v -0.0122371 0.0182626 -0.0124774
v -0.0123078 0.0182626 -0.0127433
l 61 62
v -0.0123728 0.0182626 -0.0130107
v -0.0124319 0.0182626 -0.0132794
l 63 64
v -0.0124852 0.0182626 -0.0135493
v -0.0125327 0.0182626 -0.0138204
l 65 66
v -0.0125743 0.0182626 -0.0140924
v -0.0126099 0.0182626 -0.0143652
l 67 68
v -0.0126397 0.0182626 -0.0146387
v -0.0126635 0.0182626 -0.0149129
l 69 70
v -0.0126814 0.0182626 -0.0151874
v -0.0126933 0.0182626 -0.0154623
l 71 72
v -0.0126993 0.0182626 -0.0157374
v -0.0126993 0.0182626 -0.0160126
l 73 74
v -0.0126933 0.0182626 -0.0162877
v -0.0126814 0.0182626 -0.0165626
l 75 76
v -0.0126635 0.0182626 -0.0168371
v -0.0126397 0.0182626 -0.0171113
l 77 78
v -0.0126099 0.0182626 -0.0173848
v -0.0125743 0.0182626 -0.0176576
l 79 80
v -0.0125327 0.0182626 -0.0179296
v -0.0124852 0.0182626 -0.0182007
l 81 82
v -0.0124319 0.0182626 -0.0184706
v -0.0123728 0.0182626 -0.0187393
l 83 84
v -0.0123078 0.0182626 -0.0190067
v -0.0122371 0.0182626 -0.0192726
l 85 86
v -0.0121606 0.0182626 -0.0195369
v -0.0120784 0.0182626 -0.0197995
l 87 88
v -0.0119906 0.0182626 -0.0200603
v -0.0118971 0.0182626 -0.0203191
l 89 90
v -0.011798 0.0182626 -0.0205758
v -0.0116934 0.0182626 -0.0208302
l 91 92
v -0.0115833 0.0182626 -0.0210824
v -0.0114678 0.0182626 -0.0213321
l 93 94
v -0.0113468 0.0182626 -0.0215793
v -0.0112206 0.0182626 -0.0218238
l 95 96
v -0.0110891 0.0182626 -0.0220655
v -0.0109524 0.0182626 -0.0223043
l 97 98
v -0.0108105 0.0182626 -0.02254
v -0.0106636 0.0182626 -0.0227727
l 99 100
v -0.0105116 0.0182626 -0.0230021
v -0.0103548 0.0182626 -0.0232281
l 101 102
v -0.010193 0.0182626 -0.0234507
v -0.0100265 0.0182626 -0.0236698
l 103 104
v -0.00985531 0.0182626 -0.0238852
v -0.00967946 0.0182626 -0.0240968
l 105 106
v -0.00949906 0.0182626 -0.0243046
v -0.00931421 0.0182626 -0.0245084
l 107 108
v -0.00912499 0.0182626 -0.0247081
v -0.00893148 0.0182626 -0.0249038
l 109 110
v -0.00873378 0.0182626 -0.0250951
v -0.00853198 0.0182626 -0.0252822
l 111 112
v -0.00832618 0.0182626 -0.0254648
v -0.00811647 0.0182626 -0.025643
l 113 114
v -0.00790295 0.0182626 -0.0258165
v -0.00768571 0.0182626 -0.0259854
l 115 116
v -0.00746487 0.0182626 -0.0261495
v -0.00724053 0.0182626 -0.0263088
l 117 118
v -0.00701279 0.0182626 -0.0264632
v -0.00678175 0.0182626 -0.0266127
l 119 120
v -0.00654753 0.0182626 -0.0267571
v -0.00631024 0.0182626 -0.0268964
l 121 122
v -0.00606999 0.0182626 -0.0270305
v -0.00582689 0.0182626 -0.0271594
l 123 124
v -0.00558105 0.0182626 -0.027283
v -0.00533259 0.0182626 -0.0274012
l 125 126
v -0.00508163 0.0182626 -0.027514
v -0.00482828 0.0182626 -0.0276214
l 127 128
v -0.00457267 0.0182626 -0.0277232
v -0.00431491 0.0182626 -0.0278195
l 129 130
v -0.00405513 0.0182626 -0.0279102
v -0.00379344 0.0182626 -0.0279952
l 131 132
v -0.00352997 0.0182626 -0.0280746
v -0.00326485 0.0182626 -0.0281482
l 133 134
v -0.00299819 0.0182626 -0.028216
v -0.00273013 0.0182626 -0.0282781
l 135 136
v -0.00246078 0.0182626 -0.0283343
v -0.00219028 0.0182626 -0.0283847
l 137 138
v -0.00191875 0.0182626 -0.0284292
v -0.00164631 0.0182626 -0.0284678
l 139 140
v -0.00137311 0.0182626 -0.0285005
v -0.00109926 0.0182626 -0.0285273
l 141 142
v -0.000824899 0.0182626 -0.0285482
v -0.000550148 0.0182626 -0.0285631
l 143 144
v -0.000275139 0.0182626 -0.028572
v 1.25634e-16 0.0182626 -0.028575
l 145 146
v 0.000275139 0.0182626 -0.028572
v 0.000550148 0.0182626 -0.0285631
l 147 148
v 0.000824899 0.0182626 -0.0285482
v 0.00109926 0.0182626 -0.0285273
l 149 150
v 0.00137311 0.0182626 -0.0285005
v 0.00164631 0.0182626 -0.0284678
l 151 152
v 0.00191875 0.0182626 -0.0284292
v 0.00219028 0.0182626 -0.0283847
l 153 154
v 0.00246078 0.0182626 -0.0283343
v 0.00273013 0.0182626 -0.0282781
l 155 156
v 0.00299819 0.0182626 -0.028216
v 0.00326485 0.0182626 -0.0281482
l 157 158
v 0.00352997 0.0182626 -0.0280746
v 0.00379344 0.0182626 -0.0279952
l 159 160
v 0.00405513 0.0182626 -0.0279102
v 0.00431491 0.0182626 -0.0278195
l 161 162
v 0.00457267 0.0182626 -0.0277232
v 0.00482828 0.0182626 -0.0276214
l 163 164
v 0.00508163 0.0182626 -0.027514
v 0.00533259 0.0182626 -0.0274012
l 165 166
v 0.00558105 0.0182626 -0.027283
v 0.00582689 0.0182626 -0.0271594
l 167 168
v 0.00606999 0.0182626 -0.0270305
v 0.00631024 0.0182626 -0.0268964
l 169 170
v 0.00654753 0.0182626 -0.0267571
v 0.00678175 0.0182626 -0.0266127
l 171 172
v 0.00701279 0.0182626 -0.0264632
v 0.00724053 0.0182626 -0.0263088
l 173 174
v 0.00746487 0.0182626 -0.0261495
v 0.00768571 0.0182626 -0.0259854
l 175 176
v 0.00790295 0.0182626 -0.0258165
v 0.00811647 0.0182626 -0.025643
l 177 178
v 0.00832618 0.0182626 -0.0254648
v 0.00853198 0.0182626 -0.0252822
l 179 180
v 0.00873378 0.0182626 -0.0250951
v 0.00893148 0.0182626 -0.0249038
l 181 182
v 0.00912499 0.0182626 -0.0247081
v 0.00931421 0.0182626 -0.0245084
l 183 184
v 0.00949906 0.0182626 -0.0243046
v 0.00967946 0.0182626 -0.0240968
l 185 186
v 0.00985531 0.0182626 -0.0238852
v 0.0100265 0.0182626 -0.0236698
l 187 188
v 0.010193 0.0182626 -0.0234507
v 0.0103548 0.0182626 -0.0232281
l 189 190
v 0.0105116 0.0182626 -0.0230021
v 0.0106636 0.0182626 -0.0227727
l 191 192
v 0.0108105 0.0182626 -0.02254
v 0.0109524 0.0182626 -0.0223043
l 193 194
v 0.0110891 0.0182626 -0.0220655
v 0.0112206 0.0182626 -0.0218238
l 195 196
v 0.0113468 0.0182626 -0.0215793
v 0.0114678 0.0182626 -0.0213321
l 197 198
v 0.0115833 0.0182626 -0.0210824
v 0.0116934 0.0182626 -0.0208302
l 199 200
v 0.011798 0.0182626 -0.0205758
v 0.0118971 0.0182626 -0.0203191
l 201 202
v 0.0119906 0.0182626 -0.0200603
v 0.0120784 0.0182626 -0.0197995
l 203 204
v 0.0121606 0.0182626 -0.0195369
v 0.0122371 0.0182626 -0.0192726
l 205 206
v 0.0123078 0.0182626 -0.0190067
v 0.0123728 0.0182626 -0.0187393
l 207 208
v 0.0124319 0.0182626 -0.0184706
v 0.0124852 0.0182626 -0.0182007
l 209 210
v 0.0125327 0.0182626 -0.0179296
v 0.0125743 0.0182626 -0.0176576
l 211 212
v 0.0126099 0.0182626 -0.0173848
v 0.0126397 0.0182626 -0.0171113
l 213 214
v 0.0126635 0.0182626 -0.0168371
v 0.0126814 0.0182626 -0.0165626
l 215 216
v 0.0126933 0.0182626 -0.0162877
v 0.0126993 0.0182626 -0.0160126
l 217 218
v 0.0126993 0.0182626 -0.0157374
v 0.0126933 0.0182626 -0.0154623
l 219 220
v 0.0126814 0.0182626 -0.0151874
v 0.0126635 0.0182626 -0.0149129
l 221 222
v 0.0126397 0.0182626 -0.0146387
v 0.0126099 0.0182626 -0.0143652
l 223 224
v 0.0125743 0.0182626 -0.0140924
v 0.0125327 0.0182626 -0.0138204
l 225 226
v 0.0124852 0.0182626 -0.0135493
v 0.0124319 0.0182626 -0.0132794
l 227 228
v 0.0123728 0.0182626 -0.0130107
v 0.0123078 0.0182626 -0.0127433
l 229 230
v 0.0122371 0.0182626 -0.0124774
v 0.0121606 0.0182626 -0.0122131
l 231 232
v 0.0120784 0.0182626 -0.0119505
v 0.0119906 0.0182626 -0.0116897
l 233 234
v 0.0118971 0.0182626 -0.0114309
v 0.011798 0.0182626 -0.0111743
l 235 236
v 0.0116934 0.0182626 -0.0109197
v 0.0115833 0.0182626 -0.0106676
l 237 238
v 0.0114678 0.0182626 -0.0104179
v 0.0113468 0.0182626 -0.0101707
l 239 240
v 0.0112206 0.0182626 -0.00992621
v 0.0110891 0.0182626 -0.00968452
l 241 242
v 0.0109524 0.0182626 -0.00944573
v 0.0108105 0.0182626 -0.00920997
l 243 244
v 0.0106636 0.0182626 -0.00897733
v 0.0105116 0.0182626 -0.00874792
l 245 246
v 0.0103548 0.0182626 -0.00852187
v 0.010193 0.0182626 -0.00829926
l 247 248
v 0.0100265 0.0182626 -0.00808021
v 0.00985531 0.0182626 -0.00786482
l 249 250
v 0.00967946 0.0182626 -0.00765319
v 0.00949906 0.0182626 -0.00744542
l 251 252
v 0.00931421 0.0182626 -0.00724161
v 0.00912499 0.0182626 -0.00704185
l 253 254
v 0.00893148 0.0182626 -0.00684623
v 0.00873378 0.0182626 -0.00665486
l 255 256
v 0.00853198 0.0182626 -0.00646781
v 0.00832618 0.0182626 -0.00628518
l 257 258
v 0.00811647 0.0182626 -0.00610704
v 0.00790295 0.0182626 -0.0059335
l 259 260
v 0.00768571 0.0182626 -0.00576462
v 0.00746487 0.0182626 -0.00560048
l 261 262
v 0.00724053 0.0182626 -0.00544117
v 0.00701279 0.0182626 -0.00528676
l 263 264
v 0.00678175 0.0182626 -0.00513732
v 0.00654753 0.0182626 -0.00499291
l 265 266
v 0.00631024 0.0182626 -0.00485362
v 0.00606999 0.0182626 -0.0047195
l 267 268
v 0.00582689 0.0182626 -0.00459061
v 0.00558105 0.0182626 -0.00446702
l 269 270
v 0.00533259 0.0182626 -0.00434879
v 0.00508163 0.0182626 -0.00423597
l 271 272
v 0.00482828 0.0182626 -0.00412861
v 0.00457267 0.0182626 -0.00402677
l 273 274
v 0.00431491 0.0182626 -0.00393048
v 0.00405513 0.0182626 -0.00383981
l 275 276
v 0.00379344 0.0182626 -0.00375478
v 0.00352997 0.0182626 -0.00367544
l 277 278
v 0.00326485 0.0182626 -0.00360183
v 0.00299819 0.0182626 -0.00353398
l 279 280
v 0.00273013 0.0182626 -0.00347192
v 0.00246078 0.0182626 -0.00341568
l 281 282
v 0.00219028 0.0182626 -0.0033653
v 0.00191875 0.0182626 -0.00332078
l 283 284
v 0.00164631 0.0182626 -0.00328216
v 0.00137311 0.0182626 -0.00324945
l 285 286
v 0.00109926 0.0182626 -0.00322266
v 0.000824899 0.0182626 -0.00320182
l 287 288
v 0.000550148 0.0182626 -0.00318692
v 0.000275139 0.0182626 -0.00317798
l 289 290
v 0.000275139 0.0182626 -0.00317798
v 0 0.0182626 -0.003175
l 291 292
v -0.000275139 0.0182626 -0.00317798
v -0.000550148 0.0182626 -0.00318692
l 293 294
v -0.000824899 0.0182626 -0.00320182
v -0.00109926 0.0182626 -0.00322266
l 295 296
v -0.00137311 0.0182626 -0.00324945
v -0.00164631 0.0182626 -0.00328216
l 297 298
v -0.00191875 0.0182626 -0.00332078
v -0.00219028 0.0182626 -0.0033653
l 299 300
v -0.00246078 0.0182626 -0.00341568
v -0.00273013 0.0182626 -0.00347192
l 301 302
v -0.00299819 0.0182626 -0.00353398
v -0.00326485 0.0182626 -0.00360183
l 303 304
v -0.00352997 0.0182626 -0.00367544
v -0.00379344 0.0182626 -0.00375478
l 305 306
v -0.00405513 0.0182626 -0.00383981
v -0.00431491 0.0182626 -0.00393048
l 307 308
v -0.00457267 0.0182626 -0.00402677
v -0.00482828 0.0182626 -0.00412861
l 309 310
v -0.00508163 0.0182626 -0.00423597
v -0.00533259 0.0182626 -0.00434879
l 311 312
v -0.00558105 0.0182626 -0.00446702
v -0.00582689 0.0182626 -0.00459061
l 313 314
v -0.00606999 0.0182626 -0.0047195
v -0.00631024 0.0182626 -0.00485362
l 315 316
v -0.00654753 0.0182626 -0.00499291
v -0.00678175 0.0182626 -0.00513732
l 317 318
v -0.00701279 0.0182626 -0.00528676
v -0.00724053 0.0182626 -0.00544117
l 319 320
v -0.00746487 0.0182626 -0.00560048
v -0.00768571 0.0182626 -0.00576462
l 321 322
v -0.00790295 0.0182626 -0.0059335
v -0.00811647 0.0182626 -0.00610704
l 323 324
v -0.00832618 0.0182626 -0.00628518
v -0.00853198 0.0182626 -0.00646781
l 325 326
v -0.00873378 0.0182626 -0.00665486
v -0.00893148 0.0182626 -0.00684623
l 327 328
v -0.00912499 0.0182626 -0.00704185
v -0.00931421 0.0182626 -0.00724161
l 329 330
v -0.00949906 0.0182626 -0.00744542
v -0.00967946 0.0182626 -0.00765319
l 331 332
v -0.00985531 0.0182626 -0.00786482
v -0.0100265 0.0182626 -0.00808021
l 333 334
v -0.010193 0.0182626 -0.00829926
v -0.0103548 0.0182626 -0.00852187
l 335 336
v -0.0105116 0.0182626 -0.00874792
v -0.0106636 0.0182626 -0.00897733
l 337 338
v -0.0108105 0.0182626 -0.00920997
v -0.0109524 0.0182626 -0.00944573
l 339 340
v -0.0110891 0.0182626 -0.00968452
v -0.0112206 0.0182626 -0.00992621
l 341 342
v -0.0113468 0.0182626 -0.0101707
v -0.0114678 0.0182626 -0.0104179
l 343 344
v -0.0115833 0.0182626 -0.0106676
v -0.0116934 0.0182626 -0.0109197
l 345 346
v -0.011798 0.0182626 -0.0111743
v -0.0118971 0.0182626 -0.0114309
l 347 348
v -0.0119906 0.0182626 -0.0116897
v -0.0120784 0.0182626 -0.0119505
l 349 350
v -0.0121606 0.0182626 -0.0122131
v -0.0122371 0.0182626 -0.0124774
l 351 352
v -0.0123078 0.0182626 -0.0127433
v -0.0123728 0.0182626 -0.0130107
l 353 354
v -0.0124319 0.0182626 -0.0132794
v -0.0124852 0.0182626 -0.0135493
l 355 356
v -0.0125327 0.0182626 -0.0138204
v -0.0125743 0.0182626 -0.0140924
l 357 358
v -0.0126099 0.0182626 -0.0143652
v -0.0126397 0.0182626 -0.0146387
l 359 360
v -0.0126635 0.0182626 -0.0149129
v -0.0126814 0.0182626 -0.0151874
l 361 362
v -0.0126933 0.0182626 -0.0154623
v -0.0126993 0.0182626 -0.0157374
l 363 364
v -0.0126993 0.0182626 -0.0160126
v -0.0126933 0.0182626 -0.0162877
l 365 366
v -0.0126814 0.0182626 -0.0165626
v -0.0126635 0.0182626 -0.0168371
l 367 368
v -0.0126397 0.0182626 -0.0171113
v -0.0126099 0.0182626 -0.0173848
l 369 370
v -0.0125743 0.0182626 -0.0176576
v -0.0125327 0.0182626 -0.0179296
l 371 372
v -0.0124852 0.0182626 -0.0182007
v -0.0124319 0.0182626 -0.0184706
l 373 374
v -0.0123728 0.0182626 -0.0187393
v -0.0123078 0.0182626 -0.0190067
l 375 376
v -0.0122371 0.0182626 -0.0192726
v -0.0121606 0.0182626 -0.0195369
l 377 378
v -0.0120784 0.0182626 -0.0197995
v -0.0119906 0.0182626 -0.0200603
l 379 380
v -0.0118971 0.0182626 -0.0203191
v -0.011798 0.0182626 -0.0205758
l 381 382
v -0.0116934 0.0182626 -0.0208302
v -0.0115833 0.0182626 -0.0210824
l 383 384
v -0.0114678 0.0182626 -0.0213321
v -0.0113468 0.0182626 -0.0215793
l 385 386
v -0.0112206 0.0182626 -0.0218238
v -0.0110891 0.0182626 -0.0220655
l 387 388
v -0.0109524 0.0182626 -0.0223043
v -0.0108105 0.0182626 -0.02254
l 389 390
v -0.0106636 0.0182626 -0.0227727
v -0.0105116 0.0182626 -0.0230021
l 391 392
v -0.0103548 0.0182626 -0.0232281
v -0.010193 0.0182626 -0.0234507
l 393 394
v -0.0100265 0.0182626 -0.0236698
v -0.00985531 0.0182626 -0.0238852
l 395 396
v -0.00967946 0.0182626 -0.0240968
v -0.00949906 0.0182626 -0.0243046
l 397 398
v -0.00931421 0.0182626 -0.0245084
v -0.00912499 0.0182626 -0.0247081
l 399 400
v -0.00893148 0.0182626 -0.0249038
v -0.00873378 0.0182626 -0.0250951
l 401 402
v -0.00853198 0.0182626 -0.0252822
v -0.00832618 0.0182626 -0.0254648
l 403 404
v -0.00811647 0.0182626 -0.025643
v -0.00790295 0.0182626 -0.0258165
l 405 406
v -0.00768571 0.0182626 -0.0259854
v -0.00746487 0.0182626 -0.0261495
l 407 408
v -0.00724053 0.0182626 -0.0263088
v -0.00701279 0.0182626 -0.0264632
l 409 410
v -0.00678175 0.0182626 -0.0266127
v -0.00654753 0.0182626 -0.0267571
l 411 412
v -0.00631024 0.0182626 -0.0268964
v -0.00606999 0.0182626 -0.0270305
l 413 414
v -0.00582689 0.0182626 -0.0271594
v -0.00558105 0.0182626 -0.027283
l 415 416
v -0.00533259 0.0182626 -0.0274012
v -0.00508163 0.0182626 -0.027514
l 417 418
v -0.00482828 0.0182626 -0.0276214
v -0.00457267 0.0182626 -0.0277232
l 419 420
v -0.00431491 0.0182626 -0.0278195
v -0.00405513 0.0182626 -0.0279102
l 421 422
v -0.00379344 0.0182626 -0.0279952
v -0.00352997 0.0182626 -0.0280746
l 423 424
v -0.00326485 0.0182626 -0.0281482
v -0.00299819 0.0182626 -0.028216
l 425 426
v -0.00273013 0.0182626 -0.0282781
v -0.00246078 0.0182626 -0.0283343
l 427 428
v -0.00219028 0.0182626 -0.0283847
v -0.00191875 0.0182626 -0.0284292
l 429 430
v -0.00164631 0.0182626 -0.0284678
v -0.00137311 0.0182626 -0.0285005
l 431 432
v -0.00109926 0.0182626 -0.0285273
v -0.000824899 0.0182626 -0.0285482
l 433 434
v -0.000550148 0.0182626 -0.0285631
v -0.000275139 0.0182626 -0.028572
l 435 436
v 1.25634e-16 0.0182626 -0.028575
v 0.000275139 0.0182626 -0.028572
l 437 438
v 0.000550148 0.0182626 -0.0285631
v 0.000824899 0.0182626 -0.0285482
l 439 440
v 0.00109926 0.0182626 -0.0285273
v 0.00137311 0.0182626 -0.0285005
l 441 442
v 0.00164631 0.0182626 -0.0284678
v 0.00191875 0.0182626 -0.0284292
l 443 444
v 0.00219028 0.0182626 -0.0283847
v 0.00246078 0.0182626 -0.0283343
l 445 446
v 0.00273013 0.0182626 -0.0282781
v 0.00299819 0.0182626 -0.028216
l 447 448
v 0.00326485 0.0182626 -0.0281482
v 0.00352997 0.0182626 -0.0280746
l 449 450
v 0.00379344 0.0182626 -0.0279952
v 0.00405513 0.0182626 -0.0279102
l 451 452
v 0.00431491 0.0182626 -0.0278195
v 0.00457267 0.0182626 -0.0277232
l 453 454
v 0.00482828 0.0182626 -0.0276214
v 0.00508163 0.0182626 -0.027514
l 455 456
v 0.00533259 0.0182626 -0.0274012
v 0.00558105 0.0182626 -0.027283
l 457 458
v 0.00582689 0.0182626 -0.0271594
v 0.00606999 0.0182626 -0.0270305
l 459 460
v 0.00631024 0.0182626 -0.0268964
v 0.00654753 0.0182626 -0.0267571
l 461 462
v 0.00678175 0.0182626 -0.0266127
v 0.00701279 0.0182626 -0.0264632
l 463 464
v 0.00724053 0.0182626 -0.0263088
v 0.00746487 0.0182626 -0.0261495
l 465 466
v 0.00768571 0.0182626 -0.0259854
v 0.00790295 0.0182626 -0.0258165
l 467 468
v 0.00811647 0.0182626 -0.025643
v 0.00832618 0.0182626 -0.0254648
l 469 470
v 0.00853198 0.0182626 -0.0252822
v 0.00873378 0.0182626 -0.0250951
l 471 472
v 0.00893148 0.0182626 -0.0249038
v 0.00912499 0.0182626 -0.0247081
l 473 474
v 0.00931421 0.0182626 -0.0245084
v 0.00949906 0.0182626 -0.0243046
l 475 476
v 0.00967946 0.0182626 -0.0240968
v 0.00985531 0.0182626 -0.0238852
l 477 478
v 0.0100265 0.0182626 -0.0236698
v 0.010193 0.0182626 -0.0234507
l 479 480
v 0.0103548 0.0182626 -0.0232281
v 0.0105116 0.0182626 -0.0230021
l 481 482
v 0.0106636 0.0182626 -0.0227727
v 0.0108105 0.0182626 -0.02254
l 483 484
v 0.0109524 0.0182626 -0.0223043
v 0.0110891 0.0182626 -0.0220655
l 485 486
v 0.0112206 0.0182626 -0.0218238
v 0.0113468 0.0182626 -0.0215793
l 487 488
v 0.0114678 0.0182626 -0.0213321
v 0.0115833 0.0182626 -0.0210824
l 489 490
v 0.0116934 0.0182626 -0.0208302
v 0.011798 0.0182626 -0.0205758
l 491 492
v 0.0118971 0.0182626 -0.0203191
v 0.0119906 0.0182626 -0.0200603
l 493 494
v 0.0120784 0.0182626 -0.0197995
v 0.0121606 0.0182626 -0.0195369
l 495 496
v 0.0122371 0.0182626 -0.0192726
v 0.0123078 0.0182626 -0.0190067
l 497 498
v 0.0123728 0.0182626 -0.0187393
v 0.0124319 0.0182626 -0.0184706
l 499 500
v 0.0124852 0.0182626 -0.0182007
v 0.0125327 0.0182626 -0.0179296
l 501 502
v 0.0125743 0.0182626 -0.0176576
v 0.0126099 0.0182626 -0.0173848
l 503 504
v 0.0126397 0.0182626 -0.0171113
v 0.0126635 0.0182626 -0.0168371
l 505 506
v 0.0126814 0.0182626 -0.0165626
v 0.0126933 0.0182626 -0.0162877
l 507 508
v 0.0126993 0.0182626 -0.0160126
v 0.0126993 0.0182626 -0.0157374
l 509 510
v 0.0126933 0.0182626 -0.0154623
v 0.0126814 0.0182626 -0.0151874
l 511 512
v 0.0126635 0.0182626 -0.0149129
v 0.0126397 0.0182626 -0.0146387
l 513 514
v 0.0126099 0.0182626 -0.0143652
v 0.0125743 0.0182626 -0.0140924
l 515 516
v 0.0125327 0.0182626 -0.0138204
v 0.0124852 0.0182626 -0.0135493
l 517 518
v 0.0124319 0.0182626 -0.0132794
v 0.0123728 0.0182626 -0.0130107
l 519 520
v 0.0123078 0.0182626 -0.0127433
v 0.0122371 0.0182626 -0.0124774
l 521 522
v 0.0121606 0.0182626 -0.0122131
v 0.0120784 0.0182626 -0.0119505
l 523 524
v 0.0119906 0.0182626 -0.0116897
v 0.0118971 0.0182626 -0.0114309
l 525 526
v 0.011798 0.0182626 -0.0111743
v 0.0116934 0.0182626 -0.0109197
l 527 528
v 0.0115833 0.0182626 -0.0106676
v 0.0114678 0.0182626 -0.0104179
l 529 530
v 0.0113468 0.0182626 -0.0101707
v 0.0112206 0.0182626 -0.00992621
l 531 532
v 0.0110891 0.0182626 -0.00968452
v 0.0109524 0.0182626 -0.00944573
l 533 534
v 0.0108105 0.0182626 -0.00920997
v 0.0106636 0.0182626 -0.00897733
l 535 536
v 0.0105116 0.0182626 -0.00874792
v 0.0103548 0.0182626 -0.00852187
l 537 538
v 0.010193 0.0182626 -0.00829926
v 0.0100265 0.0182626 -0.00808021
l 539 540
v 0.00985531 0.0182626 -0.00786482
v 0.00967946 0.0182626 -0.00765319
l 541 542
v 0.00949906 0.0182626 -0.00744542
v 0.00931421 0.0182626 -0.00724161
l 543 544
v 0.00912499 0.0182626 -0.00704185
v 0.00893148 0.0182626 -0.00684623
l 545 546
v 0.00873378 0.0182626 -0.00665486
v 0.00853198 0.0182626 -0.00646781
l 547 548
v 0.00832618 0.0182626 -0.00628518
v 0.00811647 0.0182626 -0.00610704
l 549 550
v 0.00790295 0.0182626 -0.0059335
v 0.00768571 0.0182626 -0.00576462
l 551 552
v 0.00746487 0.0182626 -0.00560048
v 0.00724053 0.0182626 -0.00544117
l 553 554
v 0.00701279 0.0182626 -0.00528676
v 0.00678175 0.0182626 -0.00513732
l 555 556
v 0.00654753 0.0182626 -0.00499291
v 0.00631024 0.0182626 -0.00485362
l 557 558
v 0.00606999 0.0182626 -0.0047195
v 0.00582689 0.0182626 -0.00459061
l 559 560
v 0.00558105 0.0182626 -0.00446702
v 0.00533259 0.0182626 -0.00434879
l 561 562
v 0.00508163 0.0182626 -0.00423597
v 0.00482828 0.0182626 -0.00412861
l 563 564
v 0.00457267 0.0182626 -0.00402677
v 0.00431491 0.0182626 -0.00393048
l 565 566
v 0.00405513 0.0182626 -0.00383981
v 0.00379344 0.0182626 -0.00375478
l 567 568
v 0.00352997 0.0182626 -0.00367544
v 0.00326485 0.0182626 -0.00360183
l 569 570
v 0.00299819 0.0182626 -0.00353398
v 0.00273013 0.0182626 -0.00347192
l 571 572
v 0.00246078 0.0182626 -0.00341568
v 0.00219028 0.0182626 -0.0033653
l 573 574
v 0.00191875 0.0182626 -0.00332078
v 0.00164631 0.0182626 -0.00328216
l 575 576
v 0.00137311 0.0182626 -0.00324945
v 0.00109926 0.0182626 -0.00322266
l 577 578
v 0.000824899 0.0182626 -0.00320182
v 0.000550148 0.0182626 -0.00318692
l 579 580
v 0.00232231 0.0233068 -0.0860373
v 0.00237489 0.0228656 -0.0862583
l 581 582
v 0.00216834 0.0237285 -0.0858261
v 0.00232231 0.0233068 -0.0860373
l 583 584
v 0.00191972 0.0241125 -0.0856338
v 0.00216834 0.0237285 -0.0858261
l 585 586
v 0.0015873 0.0244419 -0.0854689
v 0.00191972 0.0241125 -0.0856338
l 587 588
v 0.00118559 0.0247023 -0.0853385
v 0.0015873 0.0244419 -0.0854689
l 589 590
v 0.00073213 0.0248824 -0.0852482
v 0.00118559 0.0247023 -0.0853385
l 591 592
v 0.000246708 0.0249743 -0.0852022
v 0.00073213 0.0248824 -0.0852482
l 593 594
v -0.000249484 0.0249741 -0.0852023
v 0.000246708 0.0249743 -0.0852022
l 595 596
v -0.000734785 0.0248816 -0.0852486
v -0.000249484 0.0249741 -0.0852023
l 597 598
v -0.00118801 0.0247011 -0.0853391
v -0.000734785 0.0248816 -0.0852486
l 599 600
v -0.00158938 0.0244402 -0.0854697
v -0.00118801 0.0247011 -0.0853391
l 601 602
v -0.00192136 0.0241105 -0.0856348
v -0.00158938 0.0244402 -0.0854697
l 603 604
v -0.00216948 0.0237262 -0.0858272
v -0.00192136 0.0241105 -0.0856348
l 605 606
v -0.00232289 0.0233043 -0.0860386
v -0.00216948 0.0237262 -0.0858272
l 607 608
v -0.00237489 0.0228631 -0.0862595
v -0.00232289 0.0233043 -0.0860386
l 609 610
v 0.00237489 0.0228656 -0.0862583
v 0.00232369 0.0224238 -0.0864795
l 611 612
v 0.00232369 0.0224238 -0.0864795
v 0.00217081 0.0220011 -0.0866912
l 613 614
v 0.00192295 0.0216162 -0.086884
v 0.00159093 0.0212857 -0.0870494
l 615 616
v 0.00118931 0.0210243 -0.0871804
v 0.000735638 0.0208433 -0.087271
l 617 618
v 0.000249782 0.0207506 -0.0873174
v -0.000247005 0.0207503 -0.0873175
l 619 620
v -0.000732984 0.0208425 -0.0872714
v -0.00118689 0.021023 -0.087181
l 621 622
v -0.00158886 0.0212841 -0.0870503
v -0.0019213 0.0216141 -0.086885
l 623 624
v -0.00216968 0.0219988 -0.0866923
v -0.00232312 0.0224213 -0.0864808
l 625 626
v -0.00232312 0.0224213 -0.0864808
v -0.00237489 0.0228631 -0.0862595
l 627 628
v 0.00231536 0.00677051 -0.0553073
v 0.0023749 0.00724304 -0.0550706
l 629 630
v 0.00213971 0.00632168 -0.055532
v 0.00231536 0.00677051 -0.0553073
l 631 632
v 0.00185677 0.00591906 -0.0557337
v 0.00213971 0.00632168 -0.055532
l 633 634
v 0.00148073 0.00558282 -0.0559021
v 0.00185677 0.00591906 -0.0557337
l 635 636
v 0.00103043 0.00532983 -0.0560287
v 0.00148073 0.00558282 -0.0559021
l 637 638
v 0.000528465 0.00517278 -0.0561074
v 0.00103043 0.00532983 -0.0560287
l 639 640
v 0 0.00511954 -0.0561341
v 0.000528465 0.00517278 -0.0561074
l 641 642
v -0.000504821 0.00516806 -0.0561098
v 0 0.00511954 -0.0561341
l 643 644
v -0.000986569 0.00531143 -0.056038
v -0.000504821 0.00516806 -0.0561098
l 645 646
v -0.00142323 0.00554309 -0.0559219
v -0.000986569 0.00531143 -0.056038
l 647 648
v -0.00179483 0.00585244 -0.055767
v -0.00142323 0.00554309 -0.0559219
l 649 650
v -0.0020844 0.00622535 -0.0555803
v -0.00179483 0.00585244 -0.055767
l 651 652
v -0.0022787 0.00664478 -0.0553702
v -0.0020844 0.00622535 -0.0555803
l 653 654
v -0.00236885 0.00709155 -0.0551465
v -0.0022787 0.00664478 -0.0553702
l 655 656
v -0.00235073 0.00754524 -0.0549193
v -0.00236885 0.00709155 -0.0551465
l 657 658
v -0.00222516 0.00798513 -0.054699
v -0.00235073 0.00754524 -0.0549193
l 659 660
v -0.00199789 0.00839109 -0.0544957
v -0.00222516 0.00798513 -0.054699
l 661 662
v -0.00167931 0.00874458 -0.0543187
v -0.00199789 0.00839109 -0.0544957
l 663 664
v -0.00128397 0.00902944 -0.054176
v -0.00167931 0.00874458 -0.0543187
l 665 666
v -0.000829943 0.00923265 -0.0540743
v -0.00128397 0.00902944 -0.054176
l 667 668
v -0.000337984 0.00934493 -0.054018
v -0.000829943 0.00923265 -0.0540743
l 669 670
v 0.000169423 0.00936113 -0.0540099
v -0.000337984 0.00934493 -0.054018
l 671 672
v 0.000669087 0.00928052 -0.0540503
v 0.000169423 0.00936113 -0.0540099
l 673 674
v 0.00113817 0.00910679 -0.0541373
v 0.000669087 0.00928052 -0.0540503
l 675 676
v 0.00155523 0.00884787 -0.0542669
v 0.00113817 0.00910679 -0.0541373
l 677 678
v 0.00190121 0.0085156 -0.0544333
v 0.00155523 0.00884787 -0.0542669
l 679 680
v 0.00216028 0.00812517 -0.0546289
v 0.00190121 0.0085156 -0.0544333
l 681 682
v 0.00232063 0.00769442 -0.0548446
v 0.00216028 0.00812517 -0.0546289
l 683 684
v 0.0023749 0.00724304 -0.0550706
v 0.00232063 0.00769442 -0.0548446
l 685 686
v 0.00217081 0.0220011 -0.0866912
v 0.00192295 0.0216162 -0.086884
l 687 688
v 0.00159093 0.0212857 -0.0870494
v 0.00118931 0.0210243 -0.0871804
l 689 690
v 0.000735638 0.0208433 -0.087271
v 0.000249782 0.0207506 -0.0873174
l 691 692
v -0.000247005 0.0207503 -0.0873175
v -0.000732984 0.0208425 -0.0872714
l 693 694
v -0.00118689 0.021023 -0.087181
v -0.00158886 0.0212841 -0.0870503
l 695 696
v -0.0019213 0.0216141 -0.086885
v -0.00216968 0.0219988 -0.0866923
l 697 698
v 0 0.0294986 -0.0969848
v -0.000247147 0.0294965 -0.0969866
l 699 700
v -0.000494169 0.0294892 -0.0969906
v -0.000740924 0.0294767 -0.0969973
l 701 702
v -0.000987255 0.0294588 -0.0970068
v -0.00123299 0.0294354 -0.0970193
l 703 704
v -0.00147793 0.0294063 -0.0970348
v -0.00172188 0.0293712 -0.0970535
l 705 706
v -0.00196459 0.02933 -0.0970754
v -0.00220578 0.0292823 -0.0971007
l 707 708
v -0.00244494 0.0292272 -0.0971298
v -0.00268158 0.0291641 -0.0971631
l 709 710
v -0.00291509 0.0290925 -0.0972008
v -0.00314443 0.0290109 -0.0972436
l 711 712
v -0.00336764 0.0289169 -0.0972927
v -0.0035822 0.0288082 -0.0973492
l 713 714
v -0.0035822 0.0288082 -0.0973492
v -0.0037815 0.0286787 -0.0974161
l 715 716
v -0.0037815 0.0286787 -0.0974161
v -0.00393584 0.0285004 -0.0975117
l 717 718
v -0.00393584 0.0285004 -0.0975117
v -0.00378651 0.0283152 -0.0975982
l 719 720
v -0.00378651 0.0283152 -0.0975982
v -0.00358709 0.0281835 -0.0976621
l 721 722
v -0.00358709 0.0281835 -0.0976621
v -0.00337237 0.0280725 -0.0977156
l 723 724
v -0.00337237 0.0280725 -0.0977156
v -0.00314909 0.0279761 -0.0977619
l 725 726
v -0.00291952 0.0278924 -0.0978018
v -0.00268564 0.027819 -0.0978367
l 727 728
v -0.00244869 0.0277541 -0.0978675
v -0.00220946 0.0276964 -0.0978949
l 729 730
v -0.00196842 0.0276451 -0.0979191
v -0.00172549 0.0276018 -0.0979396
l 731 732
v -0.00148109 0.0275658 -0.0979565
v -0.00123559 0.0275366 -0.0979702
l 733 734
v -0.000989275 0.0275136 -0.0979809
v -0.000742385 0.0274964 -0.0979889
l 735 736
v -0.00049511 0.0274846 -0.0979944
v -0.000247607 0.0274778 -0.0979976
l 737 738
v 0 0.0274753 -0.097998
v 0.00024806 0.0274781 -0.0979974
l 739 740
v 0.000495995 0.0274856 -0.0979939
v 0.000743664 0.0274984 -0.0979879
l 741 742
v 0.000990909 0.0275168 -0.0979793
v 0.00123755 0.0275409 -0.097968
l 743 744
v 0.00148338 0.027571 -0.0979539
v 0.00172819 0.0276073 -0.0979368
l 745 746
v 0.00197171 0.0276501 -0.0979167
v 0.00221366 0.0276996 -0.0978933
l 747 748
v 0.00245358 0.0277566 -0.0978663
v 0.00269098 0.0278216 -0.0978355
l 749 750
v 0.00292523 0.0278953 -0.0978004
v 0.00315523 0.0279791 -0.0977604
l 751 752
v 0.00337894 0.0280757 -0.0977141
v 0.00359353 0.0281877 -0.0976601
l 753 754
v 0.00359353 0.0281877 -0.0976601
v 0.00379201 0.0283211 -0.0975953
l 755 756
v 0.00379201 0.0283211 -0.0975953
v 0.00393625 0.0285012 -0.0975118
l 757 758
v 0.00393625 0.0285012 -0.0975118
v 0.00378283 0.0286796 -0.0974157
l 759 760
v 0.00378283 0.0286796 -0.0974157
v 0.00358296 0.0288085 -0.0973491
l 761 762
v 0.00358296 0.0288085 -0.0973491
v 0.00336804 0.0289167 -0.0972928
l 763 764
v 0.00336804 0.0289167 -0.0972928
v 0.00314521 0.0290115 -0.0972432
l 765 766
v 0.00291616 0.0290939 -0.0972001
v 0.00268259 0.0291655 -0.0971624
l 767 768
v 0.00244567 0.0292279 -0.0971294
v 0.00220621 0.0292821 -0.0971007
l 769 770
v 0.00196499 0.0293299 -0.0970754
v 0.00172223 0.0293711 -0.0970535
l 771 772
v 0.00147824 0.0294062 -0.0970348
v 0.00123324 0.0294354 -0.0970193
l 773 774
v 0.000987458 0.0294588 -0.0970068
v 0.000741076 0.0294766 -0.0969973
l 775 776
v 0.00049427 0.0294891 -0.0969906
v 0.000247198 0.0294965 -0.0969866
l 777 778
v 0.000247198 0.0294965 -0.0969866
v 0 0.0294986 -0.0969848
l 779 780
v -0.000247147 0.0294965 -0.0969866
v -0.000494169 0.0294892 -0.0969906
l 781 782
v -0.000740924 0.0294767 -0.0969973
v -0.000987255 0.0294588 -0.0970068
l 783 784
v -0.00123299 0.0294354 -0.0970193
v -0.00147793 0.0294063 -0.0970348
l 785 786
v -0.00172188 0.0293712 -0.0970535
v -0.00196459 0.02933 -0.0970754
l 787 788
v -0.00220578 0.0292823 -0.0971007
v -0.00244494 0.0292272 -0.0971298
l 789 790
v -0.00268158 0.0291641 -0.0971631
v -0.00291509 0.0290925 -0.0972008
l 791 792
v -0.00314443 0.0290109 -0.0972436
v -0.00336764 0.0289169 -0.0972927
l 793 794
v -0.00314909 0.0279761 -0.0977619
v -0.00291952 0.0278924 -0.0978018
l 795 796
v -0.00268564 0.027819 -0.0978367
v -0.00244869 0.0277541 -0.0978675
l 797 798
v -0.00220946 0.0276964 -0.0978949
v -0.00196842 0.0276451 -0.0979191
l 799 800
v -0.00172549 0.0276018 -0.0979396
v -0.00148109 0.0275658 -0.0979565
l 801 802
v -0.00123559 0.0275366 -0.0979702
v -0.000989275 0.0275136 -0.0979809
l 803 804
v -0.000742385 0.0274964 -0.0979889
v -0.00049511 0.0274846 -0.0979944
l 805 806
v -0.000247607 0.0274778 -0.0979976
v 0 0.0274753 -0.097998
l 807 808
v 0.00024806 0.0274781 -0.0979974
v 0.000495995 0.0274856 -0.0979939
l 809 810
v 0.000743664 0.0274984 -0.0979879
v 0.000990909 0.0275168 -0.0979793
l 811 812
v 0.00123755 0.0275409 -0.097968
v 0.00148338 0.027571 -0.0979539
l 813 814
v 0.00172819 0.0276073 -0.0979368
v 0.00197171 0.0276501 -0.0979167
l 815 816
v 0.00221366 0.0276996 -0.0978933
v 0.00245358 0.0277566 -0.0978663
l 817 818
v 0.00269098 0.0278216 -0.0978355
v 0.00292523 0.0278953 -0.0978004
l 819 820
v 0.00315523 0.0279791 -0.0977604
v 0.00337894 0.0280757 -0.0977141
l 821 822
v 0.00314521 0.0290115 -0.0972432
v 0.00291616 0.0290939 -0.0972001
l 823 824
v 0.00268259 0.0291655 -0.0971624
v 0.00244567 0.0292279 -0.0971294
l 825 826
v 0.00220621 0.0292821 -0.0971007
v 0.00196499 0.0293299 -0.0970754
l 827 828
v 0.00172223 0.0293711 -0.0970535
v 0.00147824 0.0294062 -0.0970348
l 829 830
v 0.00123324 0.0294354 -0.0970193
v 0.000987458 0.0294588 -0.0970068
l 831 832
v 0.000741076 0.0294766 -0.0969973
v 0.00049427 0.0294891 -0.0969906
l 833 834
v 0.00393582 0.0285014 -0.0975137
v 0.00378799 0.0283164 -0.0976006
l 835 836
v 0.00359078 0.0281825 -0.0976637
v 0.00337693 0.0280715 -0.0977163
l 837 838
v 0.00315397 0.0279761 -0.0977615
v 0.00291674 0.0278902 -0.0978022
l 839 840
v 0.00268361 0.0278175 -0.0978366
v 0.00244717 0.0277537 -0.0978668
l 841 842
v 0.00220837 0.0276978 -0.0978932
v 0.00196886 0.0276493 -0.0979159
l 843 844
v 0.0017251 0.027607 -0.0979358
v 0.00148155 0.0275712 -0.0979525
l 845 846
v 0.00123701 0.0275415 -0.0979664
v 0.000991701 0.0275175 -0.0979776
l 847 848
v 0.000739615 0.0274985 -0.0979865
v 0.000493303 0.0274854 -0.0979926
l 849 850
v 0.000246718 0.0274776 -0.0979962
v 0 0.027475 -0.0979974
l 851 852
v -0.000246732 0.0274775 -0.0979962
v -0.000493339 0.027485 -0.0979927
l 853 854
v -0.00073968 0.0274979 -0.0979868
v -0.000989522 0.0275165 -0.0979781
l 855 856
v -0.00123484 0.0275405 -0.0979669
v -0.00147936 0.0275704 -0.0979529
l 857 858
v -0.00172289 0.0276064 -0.0979361
v -0.00196519 0.0276486 -0.0979163
l 859 860
v -0.00220559 0.0276972 -0.0978934
v -0.00244504 0.027753 -0.0978672
l 861 862
v -0.00268149 0.0278169 -0.0978369
v -0.00291489 0.0278902 -0.0978022
l 863 864
v -0.00315176 0.027977 -0.0977611
v -0.00337403 0.0280734 -0.0977154
l 865 866
v -0.00358759 0.0281852 -0.0976624
v -0.00378556 0.0283181 -0.0975998
l 867 868
v -0.00378556 0.0283181 -0.0975998
v -0.00393582 0.0285014 -0.0975137
l 869 870
v 0.00378799 0.0283164 -0.0976006
v 0.00359078 0.0281825 -0.0976637
l 871 872
v 0.00337693 0.0280715 -0.0977163
v 0.00315397 0.0279761 -0.0977615
l 873 874
v 0.00291674 0.0278902 -0.0978022
v 0.00268361 0.0278175 -0.0978366
l 875 876
v 0.00244717 0.0277537 -0.0978668
v 0.00220837 0.0276978 -0.0978932
l 877 878
v 0.00196886 0.0276493 -0.0979159
v 0.0017251 0.027607 -0.0979358
l 879 880
v 0.00148155 0.0275712 -0.0979525
v 0.00123701 0.0275415 -0.0979664
l 881 882
v 0.000991701 0.0275175 -0.0979776
v 0.000739615 0.0274985 -0.0979865
l 883 884
v 0.000493303 0.0274854 -0.0979926
v 0.000246718 0.0274776 -0.0979962
l 885 886
v 0 0.027475 -0.0979974
v -0.000246732 0.0274775 -0.0979962
l 887 888
v -0.000493339 0.027485 -0.0979927
v -0.00073968 0.0274979 -0.0979868
l 889 890
v -0.000989522 0.0275165 -0.0979781
v -0.00123484 0.0275405 -0.0979669
l 891 892
v -0.00147936 0.0275704 -0.0979529
v -0.00172289 0.0276064 -0.0979361
l 893 894
v -0.00196519 0.0276486 -0.0979163
v -0.00220559 0.0276972 -0.0978934
l 895 896
v -0.00244504 0.027753 -0.0978672
v -0.00268149 0.0278169 -0.0978369
l 897 898
v -0.00291489 0.0278902 -0.0978022
v -0.00315176 0.027977 -0.0977611
l 899 900
v -0.00337403 0.0280734 -0.0977154
v -0.00358759 0.0281852 -0.0976624
l 901 902
v -0.00393582 0.0285014 -0.0975137
v -0.00377949 0.0286805 -0.097418
l 903 904
v -0.00377949 0.0286805 -0.097418
v -0.00358142 0.0288102 -0.0973492
l 905 906
v -0.00336443 0.0289198 -0.0972913
v -0.0031414 0.0290128 -0.0972422
l 907 908
v -0.00291249 0.029094 -0.0971993
v -0.00267953 0.0291652 -0.0971617
l 909 910
v -0.00244324 0.0292277 -0.0971286
v -0.00220458 0.0292822 -0.0970997
l 911 912
v -0.00196517 0.0293294 -0.0970746
v -0.00172152 0.0293705 -0.0970526
l 913 914
v -0.00147808 0.0294052 -0.0970341
v -0.00123367 0.029434 -0.0970186
l 915 916
v -0.000984962 0.0294576 -0.097006
v -0.000739205 0.0294755 -0.0969964
l 917 918
v -0.00049303 0.0294883 -0.0969896
v -0.000246582 0.0294958 -0.0969855
l 919 920
v 0 0.0294983 -0.0969841
v 0.000246085 0.0294959 -0.0969854
l 921 922
v 0.000492044 0.0294886 -0.0969894
v 0.000737741 0.0294763 -0.096996
l 923 924
v 0.00098302 0.0294586 -0.0970055
v 0.00123514 0.0294346 -0.0970183
l 925 926
v 0.00147902 0.0294056 -0.0970339
v 0.00172932 0.0293695 -0.0970531
l 927 928
v 0.00197095 0.0293283 -0.0970751
v 0.00221085 0.0292809 -0.0971004
l 929 930
v 0.00244938 0.0292265 -0.0971293
v 0.00268526 0.029164 -0.0971624
l 931 932
v 0.00291762 0.0290924 -0.0972002
v 0.00314575 0.0290108 -0.0972433
l 933 934
v 0.0033676 0.028917 -0.0972928
v 0.00358081 0.0288082 -0.0973503
l 935 936
v 0.0037787 0.0286791 -0.0974188
v 0.00393582 0.0285014 -0.0975137
l 937 938
v 0.00358081 0.0288082 -0.0973503
v 0.0037787 0.0286791 -0.0974188
l 939 940
v -0.00358142 0.0288102 -0.0973492
v -0.00336443 0.0289198 -0.0972913
l 941 942
v -0.0031414 0.0290128 -0.0972422
v -0.00291249 0.029094 -0.0971993
l 943 944
v -0.00267953 0.0291652 -0.0971617
v -0.00244324 0.0292277 -0.0971286
l 945 946
v -0.00220458 0.0292822 -0.0970997
v -0.00196517 0.0293294 -0.0970746
l 947 948
v -0.00172152 0.0293705 -0.0970526
v -0.00147808 0.0294052 -0.0970341
l 949 950
v -0.00123367 0.029434 -0.0970186
v -0.000984962 0.0294576 -0.097006
l 951 952
v -0.000739205 0.0294755 -0.0969964
v -0.00049303 0.0294883 -0.0969896
l 953 954
v -0.000246582 0.0294958 -0.0969855
v 0 0.0294983 -0.0969841
l 955 956
v 0.000246085 0.0294959 -0.0969854
v 0.000492044 0.0294886 -0.0969894
l 957 958
v 0.000737741 0.0294763 -0.096996
v 0.00098302 0.0294586 -0.0970055
l 959 960
v 0.00123514 0.0294346 -0.0970183
v 0.00147902 0.0294056 -0.0970339
l 961 962
v 0.00172932 0.0293695 -0.0970531
v 0.00197095 0.0293283 -0.0970751
l 963 964
v 0.00221085 0.0292809 -0.0971004
v 0.00244938 0.0292265 -0.0971293
l 965 966
v 0.00268526 0.029164 -0.0971624
v 0.00291762 0.0290924 -0.0972002
l 967 968
v 0.00314575 0.0290108 -0.0972433
v 0.0033676 0.028917 -0.0972928
l 969 970
