v -0.0037815 0.0286787 -0.0974161
v -0.00393584 0.0285004 -0.0975117
l 1 2
v -0.00393584 0.0285004 -0.0975117
v -0.00378651 0.0283152 -0.0975982
l 3 4
v 0.00379201 0.0283211 -0.0975953
v 0.00393625 0.0285012 -0.0975118
l 5 6
v 0.00393625 0.0285012 -0.0975118
v 0.00378283 0.0286796 -0.0974157
l 7 8
v -0.0003937 0 -0.0207391
v -0.000335763 -0.00020558 -0.0209186
l 9 10
v -0.000335763 -0.00020558 -0.0209186
v -0.000216142 -0.000329063 -0.0207391
l 11 12
v -0.0003937 0 -0.0211201
v -0.000335763 -0.00020558 -0.0209186
l 13 14
v -0.000216142 -0.000329063 -0.0211201
v -0.000335763 -0.00020558 -0.0209186
l 15 16
v -0.000335763 -0.00020558 -0.0209186
v -0.000312982 0.000238834 -0.0211201
l 17 18
v -0.000312982 0.000238834 -0.0207391
v -0.000312982 0.000238834 -0.0211201
l 19 20
v -0.000335763 -0.00020558 -0.0209186
v -0.000312982 0.000238834 -0.0211201
l 21 22
v -0.000312982 0.000238834 -0.0211201
v -0.0003937 0 -0.0211201
l 23 24
v -9.78192e-05 0.000381354 -0.0211201
v -0.000312982 0.000238834 -0.0211201
l 25 26
v -9.78192e-05 0.000381354 -0.0211201
v -9.78192e-05 0.000381354 -0.0207391
l 27 28
v -9.78192e-05 0.000381354 -0.0211201
v -0.000312982 0.000238834 -0.0211201
l 29 30
v 0.000237628 0.000313899 -0.0211201
v -9.78192e-05 0.000381354 -0.0211201
l 31 32
v -0.0003937 0 -0.0211201
v -0.000335763 -0.00020558 -0.0209186
l 33 34
v -0.000312982 0.000238834 -0.0211201
v -0.0003937 0 -0.0211201
l 35 36
v -0.0003937 0 -0.0211201
v -0.000216142 -0.000329063 -0.0211201
l 37 38
v 0.0003937 0 -0.0211201
v 0.0003937 0 -0.0207391
l 39 40
v 0.000189115 -0.000345304 -0.0211201
v 0.0003937 0 -0.0211201
l 41 42
v 0.0003937 0 -0.0211201
v 0.000237628 0.000313899 -0.0211201
l 43 44
v 0.000237628 0.000313899 -0.0207391
v 0.000237628 0.000313899 -0.0211201
l 45 46
v 0.000237628 0.000313899 -0.0211201
v -9.78192e-05 0.000381354 -0.0211201
l 47 48
v 0.0003937 0 -0.0211201
v 0.000237628 0.000313899 -0.0211201
l 49 50
v -2.33268e-05 -0.000393008 -0.0209306
v -0.000216142 -0.000329063 -0.0211201
l 51 52
v -0.000216142 -0.000329063 -0.0211201
v -0.000335763 -0.00020558 -0.0209186
l 53 54
v -0.000216142 -0.000329063 -0.0211201
v 0.000189115 -0.000345304 -0.0211201
l 55 56
v -0.0003937 0 -0.0211201
v -0.000216142 -0.000329063 -0.0211201
l 57 58
v 0.000189115 -0.000345304 -0.0211201
v -2.33268e-05 -0.000393008 -0.0209306
l 59 60
v 0.000308749 -0.000244281 -0.0209298
v 0.000189115 -0.000345304 -0.0211201
l 61 62
v -0.000216142 -0.000329063 -0.0211201
v 0.000189115 -0.000345304 -0.0211201
l 63 64
v 0.000189115 -0.000345304 -0.0211201
v 0.0003937 0 -0.0211201
l 65 66
v 0.0011684 0.00173912 -0.0211201
v 0.0011684 0.00206761 -0.0211201
l 67 68
v 0.0011684 0.00206761 -0.0211201
v 0.000819344 0.00222909 -0.0211201
l 69 70
v 0.0011684 0.00206761 -0.0215259
v 0.0011684 0.00206761 -0.0211201
l 71 72
v -0.0011684 0.00206761 -0.0211201
v -0.0011684 0.00175231 -0.0211201
l 73 74
v -0.00083505 0.00222325 -0.0211201
v -0.0011684 0.00206761 -0.0211201
l 75 76
v -0.0011684 0.00206761 -0.0215259
v -0.0011684 0.00206761 -0.0211201
l 77 78
v 0.0011684 0.00173675 -0.0219075
v 0.0011684 0.00206761 -0.0219075
l 79 80
v 0.0011684 0.00206761 -0.0219075
v 0.0011684 0.00206761 -0.0215259
l 81 82
v 0.0011684 0.00206761 -0.0219075
v 0.000819344 0.00222909 -0.0219075
l 83 84
v -0.0011684 0.00206761 -0.0219075
v -0.0011684 0.00175017 -0.0219075
l 85 86
v -0.0011684 0.00206761 -0.0219075
v -0.0011684 0.00206761 -0.0215259
l 87 88
v -0.00083505 0.00222325 -0.0219075
v -0.0011684 0.00206761 -0.0219075
l 89 90
v -0.00226945 -0.000699807 -0.0198374
v -0.0023622 -0.000245278 -0.0198374
l 91 92
v -0.00236681 0.000195861 -0.0198374
v -0.0023622 -0.000245278 -0.0198374
l 93 94
v -0.0023622 -0.000245278 -0.0198374
v -0.0023622 -0.000245278 -0.0194437
l 95 96
v 0.0023622 -0.000245278 -0.0198374
v 0.00226945 -0.000699807 -0.0198374
l 97 98
v 0.0023622 -0.000245278 -0.0198374
v 0.00236681 0.000195861 -0.0198374
l 99 100
v 0.0023622 -0.000245278 -0.0194437
v 0.0023622 -0.000245278 -0.0198374
l 101 102
v 0.0023622 -0.000245278 -0.0182626
v 0.00226945 -0.000699807 -0.0182626
l 103 104
v 0.0023622 -0.000245278 -0.0182626
v 0.0023622 -0.000245278 -0.0186563
l 105 106
v 0.00236681 0.000195861 -0.0182626
v 0.0023622 -0.000245278 -0.0182626
l 107 108
v -0.00226945 -0.000699807 -0.0182626
v -0.0023622 -0.000245278 -0.0182626
l 109 110
v -0.0023622 -0.000245278 -0.0186563
v -0.0023622 -0.000245278 -0.0182626
l 111 112
v -0.0023622 -0.000245278 -0.0182626
v -0.00236681 0.000195861 -0.0182626
l 113 114
v 0.00390358 0.0283714 -0.0972775
v 0.00393582 0.0285014 -0.0975137
l 115 116
v 0.00393582 0.0285014 -0.0975137
v 0.00378799 0.0283164 -0.0976006
l 117 118
v 0.0037787 0.0286791 -0.0974188
v 0.00393582 0.0285014 -0.0975137
l 119 120
v -0.00393582 0.0285014 -0.0975137
v -0.00390353 0.0283711 -0.0972773
l 121 122
v -0.00378556 0.0283181 -0.0975998
v -0.00393582 0.0285014 -0.0975137
l 123 124
v -0.00393582 0.0285014 -0.0975137
v -0.00377949 0.0286805 -0.097418
l 125 126
v 0.000167926 0.0030747 -0.0104856
v 1.5875e-11 0.00310015 -0.0106356
l 127 128
v 1.5875e-11 0.00310015 -0.0106356
v -0.000189393 0.00309281 -0.0104871
l 129 130
v 1.5875e-11 0.00310015 -0.0106356
v 2.52951e-11 0.00291475 -0.010501
l 131 132
v 0.000200878 0.00287984 -0.0102205
v 2.52951e-11 0.00291475 -0.010501
l 133 134
v 2.52951e-11 0.00291475 -0.010501
v -0.000194723 0.00283685 -0.0102164
l 135 136
v 1.5875e-11 0.00310015 -0.0106356
v 2.52951e-11 0.00291475 -0.010501
l 137 138
v 2.52951e-11 0.00291475 -0.010501
v 2.56357e-11 0.00268892 -0.0104961
l 139 140
v 1.69656e-11 0.00250003 -0.01062
v 0.000241691 0.00258948 -0.0102489
l 141 142
v 1.69656e-11 0.00250003 -0.01062
v -0.000182845 0.00249795 -0.0104826
l 143 144
v 2.56357e-11 0.00268892 -0.0104961
v 1.69656e-11 0.00250003 -0.01062
l 145 146
v 0.0024011 0.00342841 -0.00340405
v 0.00245821 0.00327396 -0.00364482
l 147 148
v 0.0024011 0.00342841 -0.00340405
v 0.00237097 0.00314467 -0.00339829
l 149 150
v 0.00268335 0.00349681 -0.00361768
v 0.0024011 0.00342841 -0.00340405
l 151 152
