v -0.0003937 0 -0.0207391
v -0.000216142 -0.000329063 -0.0207391
v 0.000189115 -0.000345304 -0.0207391
v 0.0003937 0 -0.0207391
v 0.000237628 0.000313899 -0.0207391
v -9.78192e-05 0.000381354 -0.0207391
v -0.000312982 0.000238834 -0.0207391
v 0.000308749 -0.000244281 -0.0209298
v -2.33268e-05 -0.000393008 -0.0209306
v -0.0007874 0 -0.0198374
v -2.23052e-19 -0.0007874 -0.0198374
v 0.0007874 0 -0.0198374
v 1.44643e-19 0.0007874 -0.0198374
v -0.0007874 0 -0.0182626
v -2.23052e-19 -0.0007874 -0.0182626
v 0.0007874 0 -0.0182626
v 1.44643e-19 0.0007874 -0.0182626
v -0.00222398 0.00299737 -0.00557467
v -0.000327665 0.00269961 -0.0100318
v -0.00226641 0.0031084 -0.00586209
v -0.000485203 0.00256981 -0.00989059
v 0.00240833 0.0030432 -0.00470055
v -0.00243319 0.00313866 -0.00377412
