v 0.00232231 0.0233068 -0.0860373
v 0.108306 -0.865803 -0.531292
l 1 2
v 0.00216834 0.0237285 -0.0858261
v 0.31246 -0.826278 -0.511511
l 3 4
v 0.00191972 0.0241125 -0.0856338
v 0.502974 -0.749698 -0.47314
l 5 6
v 0.0015873 0.0244419 -0.0854689
v 0.67153 -0.639378 -0.417914
l 7 8
v -0.00158938 0.0244402 -0.0854697
v 0.807301 0.550166 0.177797
l 9 10
v -0.00192136 0.0241105 -0.0856348
v 0.667149 0.68863 0.247169
l 11 12
v -0.00216948 0.0237262 -0.0858272
v 0.497868 0.798067 0.301934
l 13 14
v -0.00232289 0.0233043 -0.0860386
v 0.306852 0.873633 0.339815
l 15 16
v -0.00237489 0.0228631 -0.0862595
v 0.102428 0.912087 0.359045
l 17 18
v 0.00237489 0.0228656 -0.0862583
v -0.100686 -0.866515 -0.531657
l 19 20
v 0.00232369 0.0224238 -0.0864795
v -0.305419 -0.828332 -0.512519
l 21 22
v 0.00192295 0.0216162 -0.086884
v -0.666396 -0.643521 -0.419964
l 23 24
v -0.00158886 0.0212841 -0.0870503
v -0.670782 0.685714 0.245686
l 25 26
v -0.00216968 0.0219988 -0.0866923
v -0.311029 0.872433 0.339181
l 27 28
v -0.00232312 0.0224213 -0.0864808
v -0.10654 0.911691 0.35887
l 29 30
v 0.00231536 0.00677051 -0.0553073
v 0.11428 0.895291 0.38966
l 31 32
v 0.00213971 0.00632168 -0.055532
v 0.332418 0.85029 0.367119
l 33 34
v 0.00185677 0.00591906 -0.0557337
v 0.533889 0.763014 0.323409
l 35 36
v 0.00148073 0.00558282 -0.0559021
v 0.708586 0.637836 0.260734
l 37 38
v 0.00103043 0.00532983 -0.0560287
v 0.847756 0.481045 0.182196
l 39 40
v 0.000528465 0.00517278 -0.0561074
v 0.944412 0.300489 0.091788
l 41 42
v 0 0.00511954 -0.0561341
v 0.993713 0.105231 -0.00600666
l 43 44
v -0.000504821 0.00516806 -0.0561098
v 0.993766 -0.0904102 -0.10397
l 45 46
v -0.000986569 0.00531143 -0.056038
v 0.947841 -0.277059 -0.197432
l 47 48
v -0.00142323 0.00554309 -0.0559219
v 0.858587 -0.450711 -0.284429
l 49 50
v -0.00179483 0.00585244 -0.055767
v 0.730101 -0.603433 -0.36089
l 51 52
v -0.0020844 0.00622535 -0.0555803
v 0.568238 -0.728245 -0.423391
l 53 54
v -0.0022787 0.00664478 -0.0553702
v 0.380407 -0.81944 -0.469055
l 55 56
v -0.00236885 0.00709155 -0.0551465
v 0.175184 -0.872844 -0.495815
l 57 58
v -0.00235073 0.00754524 -0.0549193
v -0.0380426 -0.886027 -0.502418
l 59 60
v -0.00222516 0.00798513 -0.054699
v -0.249531 -0.858383 -0.488573
l 61 62
v -0.00199789 0.00839109 -0.0544957
v -0.449617 -0.791176 -0.454907
l 63 64
v -0.00167931 0.00874458 -0.0543187
v -0.629146 -0.687471 -0.402986
l 65 66
v -0.00128397 0.00902944 -0.054176
v -0.779929 -0.55202 -0.335131
l 67 68
v -0.000829943 0.00923265 -0.0540743
v -0.895053 -0.391002 -0.254517
l 69 70
v -0.000337984 0.00934493 -0.054018
v -0.969277 -0.211784 -0.164743
l 71 72
v 0.000169423 0.00936113 -0.0540099
v -0.999193 -0.0225518 -0.0700049
l 73 74
v 0.000669087 0.00928052 -0.0540503
v -0.983442 0.168038 0.0254623
l 75 76
v 0.00113817 0.00910679 -0.0541373
v -0.922743 0.351283 0.117207
l 77 78
v 0.00155523 0.00884787 -0.0542669
v -0.819863 0.518797 0.201123
l 79 80
v 0.00190121 0.0085156 -0.0544333
v -0.67952 0.662938 0.273282
l 81 82
v 0.00216028 0.00812517 -0.0546289
v -0.508107 0.777097 0.330481
l 83 84
v 0.00232063 0.00769442 -0.0548446
v -0.313478 0.856079 0.370026
l 85 86
v 0.0023749 0.00724304 -0.0550706
v -0.104521 0.896271 0.390129
l 87 88
v 0.00217081 0.0220011 -0.0866912
v -0.49677 -0.75289 -0.474765
l 89 90
v 0.00159093 0.0212857 -0.0870494
v -0.806859 -0.504974 -0.350601
l 91 92
v -0.00118689 0.021023 -0.087181
v -0.81033 0.546441 0.175922
l 93 94
v -0.0019213 0.0216141 -0.086885
v -0.501879 0.795979 0.300931
l 95 96
v -0.0003937 0 -0.0207391
v 0.474474 -0.880057 -0.0207391
l 97 98
v -0.000216142 -0.000329063 -0.0207391
v 0.998982 -0.0403735 -0.0207391
l 99 100
v 0.0003937 0 -0.0207391
v -0.444816 0.895426 -0.0207391
l 101 102
v 0.000237628 0.000313899 -0.0207391
v -0.980137 0.197458 -0.0207391
l 103 104
v -9.78192e-05 0.000381354 -0.0207391
v -0.833793 -0.551843 -0.0207391
l 105 106
v -0.000312982 0.000238834 -0.0207391
v -0.320487 -0.94712 -0.0207391
l 107 108
v 0.000189115 -0.000345304 -0.0207391
v 0.509918 0.85999 -0.0207391
l 109 110
v -0.0003937 0 -0.0207391
v 0.207254 -0.736801 -0.664173
l 111 112
v -0.000335763 -0.00020558 -0.0209186
v 0.480898 -0.496975 0.701324
l 113 114
v -0.000312982 0.000238834 -0.0207391
v -0.000312982 0.000238834 -1.02074
l 115 116
v -9.78192e-05 0.000381354 -0.0211201
v -9.78192e-05 0.000381354 0.97888
l 117 118
v -0.0003937 0 -0.0211201
v 0.196931 -0.700169 0.665048
l 119 120
v 0.0003937 0 -0.0211201
v 0.0003937 0 0.97888
l 121 122
v 0.000189115 -0.000345304 -0.0207391
v 0.48502 0.409061 -0.793607
l 123 124
v -0.000216142 -0.000329063 -0.0207391
v 0.690445 -0.22938 -0.706686
l 125 126
v -2.33268e-05 -0.000393008 -0.0209306
v 0.732627 0.164124 0.639492
l 127 128
v 0.000237628 0.000313899 -0.0207391
v 0.000237628 0.000313899 -1.02074
l 129 130
v 0.000189115 -0.000345304 -0.0211201
v -0.735802 -0.165612 0.635389
l 131 132
v -2.33268e-05 -0.000393008 -0.0209306
v -0.694083 0.229785 -0.703059
l 133 134
v 0.000308749 -0.000244281 -0.0209298
v -0.485159 -0.410189 -0.793113
l 135 136
v -0.000216142 -0.000329063 -0.0211201
v -0.451867 0.465903 0.739563
l 137 138
v 0.0011684 0 -0.0211201
v 0.0011684 1 -0.0211201
l 139 140
v 0.0011684 0.000848617 -0.0211201
v 0.0011684 1.00085 -0.0211201
l 141 142
v 0.0011684 0.00173912 -0.0211201
v 0.0011684 1.00174 -0.0211201
l 143 144
v -0.0011684 0.00206761 -0.0211201
v -0.0011684 -0.997932 -0.0211201
l 145 146
v -0.0011684 0.00135935 -0.0211201
v -0.0011684 -0.998641 -0.0211201
l 147 148
v -0.0011684 0.000453173 -0.0211201
v -0.0011684 -0.999547 -0.0211201
l 149 150
v -0.00107481 -0.000458204 -0.0211201
v 0.567254 -0.82326 -0.0211201
l 151 152
v -0.000413618 -0.00109274 -0.0211201
v 0.986757 -0.160765 -0.0211201
l 153 154
v 0.000502014 -0.00105505 -0.0211201
v 0.810504 0.585372 -0.0211201
l 155 156
v 0.001039 -0.000534458 -0.0211201
v 0.355568 0.934511 -0.0211201
l 157 158
v 0.00113216 -0.00028875 -0.0211201
v 0.125669 0.991926 -0.0211201
l 159 160
v 0.0011684 0.000387255 -0.0211201
v 0.0011684 1.00039 -0.0211201
l 161 162
v 0.0011684 0.00132099 -0.0211201
v 0.0011684 1.00132 -0.0211201
l 163 164
v -0.0011684 0.00175231 -0.0211201
v -0.0011684 -0.998248 -0.0211201
l 165 166
v -0.0011684 0.000906346 -0.0211201
v -0.0011684 -0.999094 -0.0211201
l 167 168
v -0.0011684 0 -0.0211201
v 0.198962 -0.979769 -0.0211201
l 169 170
v -0.000809018 -0.000842999 -0.0211201
v 0.844667 -0.534857 -0.0211201
l 171 172
v 4.80467e-05 -0.00116741 -0.0211201
v 0.970759 0.239084 -0.0211201
l 173 174
v 0.000845584 -0.000806317 -0.0211201
v 0.58055 0.81402 -0.0211201
l 175 176
v 0.0011684 0 -0.0219075
v 0.0011684 1 -0.0219075
l 177 178
v 0.0011684 0.000386582 -0.0219075
v 0.0011684 1.00039 -0.0219075
l 179 180
v 0.0011684 0.00132005 -0.0219075
v 0.0011684 1.00132 -0.0219075
l 181 182
v 0.0011684 0.00173675 -0.0219075
v 0.0011684 1.00174 -0.0219075
l 183 184
v 0.0011684 0.000847699 -0.0219075
v 0.0011684 1.00085 -0.0219075
l 185 186
v -0.0023622 -0.000245278 -0.0231702
v 0.168461 -0.980686 0.0745808
l 187 188
v -0.00222025 -0.000842866 -0.0230903
v 0.397368 -0.891962 0.191934
l 189 190
v -0.00198731 -0.00130029 -0.0229673
v 0.562565 -0.778147 0.255941
l 191 192
v -0.00169431 -0.00166419 -0.022827
v 0.702295 -0.645017 0.277999
l 193 194
v -0.00126393 -0.00201064 -0.0226547
v 0.837454 -0.473367 0.250063
l 195 196
v -0.000846001 -0.00221911 -0.0225302
v 0.931768 -0.305028 0.17378
l 197 198
v -0.000384368 -0.00234359 -0.0224481
v 0.99465 -0.0834004 0.035309
l 199 200
v 0.000434605 -0.00233472 -0.0224542
v 0.954519 0.247269 -0.18805
l 201 202
v 0.00098988 -0.00215877 -0.022568
v 0.856374 0.443555 -0.286495
l 203 204
v 0.00140094 -0.00191768 -0.0227051
v 0.742806 0.598746 -0.321906
l 205 206
v 0.00175905 -0.00159559 -0.0228565
v 0.608017 0.738901 -0.312886
l 207 208
v 0.00204344 -0.00121017 -0.0229961
v 0.453848 0.858419 -0.261555
l 209 210
v 0.00224627 -0.000770975 -0.0231046
v 0.273226 0.949766 -0.174925
l 211 212
v -0.00230615 -0.00056695 -0.0231381
v 0.290976 -0.942562 0.140051
l 213 214
v -0.00210591 -0.00109787 -0.0230288
v 0.486874 -0.835701 0.230616
l 215 216
v -0.00185041 -0.00148867 -0.0228997
v 0.633056 -0.715395 0.272452
l 217 218
v -0.00150365 -0.00183843 -0.0227456
v 0.774673 -0.559443 0.271579
l 219 220
v -0.00106056 -0.00212494 -0.0225885
v 0.887508 -0.392111 0.218984
l 221 222
v -0.000618965 -0.00229282 -0.0224824
v 0.96693 -0.21167 0.118976
l 223 224
v 0 -0.0023749 -0.0224258
v 0.993659 0.0894929 -0.0872426
l 225 226
v 0.000765323 -0.0022482 -0.0225116
v 0.905476 0.358046 -0.249857
l 227 228
v 0.00120223 -0.00204812 -0.0226335
v 0.801653 0.523378 -0.31109
l 229 230
v 0.00158533 -0.0017683 -0.0227795
v 0.678171 0.670883 -0.3224
l 231 232
v 0.00191139 -0.00140951 -0.0229293
v 0.533825 0.801593 -0.291731
l 233 234
v 0.0021556 -0.000996773 -0.0230553
v 0.367394 0.908493 -0.221625
l 235 236
v 0.00231513 -0.000529423 -0.0231432
v 0.165011 0.981709 -0.116616
l 237 238
v -0.0011684 0.00206761 -0.0219075
v -0.0011684 -0.997932 -0.0219075
l 239 240
v -0.0011684 0.00175017 -0.0219075
v -0.0011684 -0.99825 -0.0219075
l 241 242
v -0.0011684 0.000905902 -0.0219075
v -0.0011684 -0.999094 -0.0219075
l 243 244
v -0.0011684 0.000452951 -0.0219075
v -0.0011684 -0.999547 -0.0219075
l 245 246
v -0.0011684 0.00135881 -0.0219075
v -0.0011684 -0.998641 -0.0219075
l 247 248
v -0.0011684 0 -0.0219075
v 0.198962 -0.979769 -0.0219075
l 249 250
v -0.00107481 -0.000458204 -0.0219075
v 0.567254 -0.82326 -0.0219075
l 251 252
v -0.000413618 -0.00109274 -0.0219075
v 0.986757 -0.160765 -0.0219075
l 253 254
v 4.80467e-05 -0.00116741 -0.0219075
v 0.970759 0.239084 -0.0219075
l 255 256
v 0.000502014 -0.00105505 -0.0219075
v 0.810504 0.585372 -0.0219075
l 257 258
v 0.001039 -0.000534458 -0.0219075
v 0.355568 0.934511 -0.0219075
l 259 260
v 0.00113216 -0.00028875 -0.0219075
v 0.125669 0.991926 -0.0219075
l 261 262
v -0.000809018 -0.000842999 -0.0219075
v 0.844667 -0.534857 -0.0219075
l 263 264
v 0.000845584 -0.000806317 -0.0219075
v 0.58055 0.81402 -0.0219075
l 265 266
v -0.00202272 -0.00124481 -0.0151147
v 0.542056 -0.794562 -0.288293
l 267 268
v -0.00188747 -0.00144202 -0.0151826
v 0.625313 -0.722974 -0.308459
l 269 270
v -0.00151453 -0.00182939 -0.0153501
v 0.762793 -0.574231 -0.312319
l 271 272
v -0.00112002 -0.00209456 -0.0154934
v 0.880613 -0.40436 -0.261928
l 273 274
v -0.000620222 -0.00229264 -0.0156178
v 0.966995 -0.21114 -0.157403
l 275 276
v -0.00037973 -0.00234455 -0.015653
v 0.994907 -0.0818928 -0.0711181
l 277 278
v 0 -0.0023749 -0.0156742
v 0.993412 0.0913942 0.0502071
l 279 280
v 0.000448148 -0.0023326 -0.0156445
v 0.947843 0.264934 0.160456
l 281 282
v 0.00083297 -0.00222404 -0.0155729
v 0.892568 0.382231 0.22318
l 283 284
v 0.00125293 -0.00201797 -0.0154494
v 0.781405 0.550412 0.27812
l 285 286
v 0.00148349 -0.00185471 -0.0153627
v 0.713026 0.632866 0.286029
l 287 288
v 0.00182969 -0.00151463 -0.0152104
v 0.57379 0.769061 0.265993
l 289 290
v -0.00213875 -0.00103246 -0.0150537
v 0.462832 -0.851987 -0.259346
l 291 292
v -0.00169354 -0.00166511 -0.0152733
v 0.700819 -0.646382 -0.316631
l 293 294
v -0.00132459 -0.00197164 -0.0154239
v 0.82158 -0.496426 -0.295321
l 295 296
v -0.000852428 -0.00221664 -0.0155682
v 0.930571 -0.307064 -0.21436
l 297 298
v 0.00104896 -0.00213092 -0.0155151
v 0.843121 0.464144 0.255599
l 299 300
v 0.00167342 -0.00168529 -0.0152822
v 0.646659 0.702737 0.280999
l 301 302
v 0.00197855 -0.00131406 -0.0151373
v 0.486232 0.836548 0.236826
l 303 304
v 0.0021241 -0.00106224 -0.0150615
v 0.395765 0.893295 0.197478
l 305 306
v 0.0022195 -0.000845485 -0.01501
v 0.306083 0.936815 0.153688
l 307 308
v -0.00224015 -0.00078922 -0.0149987
v 0.374415 -0.904292 -0.21948
l 309 310
v 0.00229391 -0.000615877 -0.0149687
v 0.182556 0.977623 0.0877652
l 311 312
v -0.00231526 -0.000529733 -0.0149566
v 0.272415 -0.949681 -0.168693
l 313 314
v -0.0023622 -0.000245278 -0.0149298
v 0.159752 -0.982651 -0.10766
l 315 316
v 0.0023622 -0.000245278 -0.0198374
v -0.197567 -0.980056 -0.0198374
l 317 318
v 0.00209012 -0.00112764 -0.0198374
v -0.556408 -0.830633 -0.0198374
l 319 320
v 0.00150209 -0.00183954 -0.0198374
v -0.831142 -0.555648 -0.0198374
l 321 322
v 0.000686993 -0.00227337 -0.0198374
v -0.980236 -0.196671 -0.0198374
l 323 324
v -0.000231948 -0.00236355 -0.0198374
v -0.981155 0.192034 -0.0198374
l 325 326
v -0.00111583 -0.00209645 -0.0198374
v -0.83376 0.551713 -0.0198374
l 327 328
v -0.00183103 -0.00151244 -0.0198374
v -0.560329 0.827993 -0.0198374
l 329 330
v -0.00226945 -0.000699807 -0.0198374
v -0.202198 0.979111 -0.0198374
l 331 332
v -0.0007874 0 -0.0198374
v 0.258032 -0.965926 -0.0198374
l 333 334
v -0.000681908 -0.0003937 -0.0198374
v 0.706425 -0.7075 -0.0198374
l 335 336
v -0.0003937 -0.000681908 -0.0198374
v 0.965532 -0.259501 -0.0198374
l 337 338
v -2.23052e-19 -0.0007874 -0.0198374
v 0.965926 0.258032 -0.0198374
l 339 340
v 0.0003937 -0.000681908 -0.0198374
v 0.7075 0.706425 -0.0198374
l 341 342
v 0.000681908 -0.0003937 -0.0198374
v 0.259501 0.965532 -0.0198374
l 343 344
v 0.0007874 0 -0.0198374
v -0.258032 0.965926 -0.0198374
l 345 346
v 0.000681908 0.0003937 -0.0198374
v -0.706425 0.7075 -0.0198374
l 347 348
v 0.0003937 0.000681908 -0.0198374
v -0.965532 0.259501 -0.0198374
l 349 350
v 1.44643e-19 0.0007874 -0.0198374
v -0.965926 -0.258032 -0.0198374
l 351 352
v -0.0003937 0.000681908 -0.0198374
v -0.7075 -0.706425 -0.0198374
l 353 354
v -0.000681908 0.0003937 -0.0198374
v -0.259501 -0.965532 -0.0198374
l 355 356
v 0.00226945 -0.000699807 -0.0198374
v -0.384321 -0.922952 -0.0198374
l 357 358
v 0.00183103 -0.00151244 -0.0198374
v -0.707267 -0.706622 -0.0198374
l 359 360
v 0.00111583 -0.00209645 -0.0198374
v -0.923302 -0.383478 -0.0198374
l 361 362
v 0.000231948 -0.00236355 -0.0198374
v -0.999768 -0.00236355 -0.0198374
l 363 364
v -0.000686993 -0.00227337 -0.0198374
v -0.925105 0.379108 -0.0198374
l 365 366
v -0.00150209 -0.00183954 -0.0198374
v -0.7106 0.70327 -0.0198374
l 367 368
v -0.00209012 -0.00112764 -0.0198374
v -0.38868 0.921124 -0.0198374
l 369 370
v -0.00226945 -0.000699807 -0.0182626
v -0.202198 0.979111 -0.0182626
l 371 372
v 0.0023622 -0.000245278 -0.0182626
v -0.197567 -0.980056 -0.0182626
l 373 374
v 0.00226945 -0.000699807 -0.0182626
v -0.384321 -0.922952 -0.0182626
l 375 376
v 0.00183103 -0.00151244 -0.0182626
v -0.707267 -0.706622 -0.0182626
l 377 378
v 0.00111583 -0.00209645 -0.0182626
v -0.923302 -0.383478 -0.0182626
l 379 380
v 0.000231948 -0.00236355 -0.0182626
v -0.999768 -0.00236355 -0.0182626
l 381 382
v -0.000686993 -0.00227337 -0.0182626
v -0.925105 0.379108 -0.0182626
l 383 384
v -0.00150209 -0.00183954 -0.0182626
v -0.7106 0.70327 -0.0182626
l 385 386
v -0.00209012 -0.00112764 -0.0182626
v -0.38868 0.921124 -0.0182626
l 387 388
v 0.00209012 -0.00112764 -0.0182626
v -0.556408 -0.830633 -0.0182626
l 389 390
v 0.00150209 -0.00183954 -0.0182626
v -0.831142 -0.555648 -0.0182626
l 391 392
v 0.000686993 -0.00227337 -0.0182626
v -0.980236 -0.196671 -0.0182626
l 393 394
v -0.000231948 -0.00236355 -0.0182626
v -0.981155 0.192034 -0.0182626
l 395 396
v -0.00111583 -0.00209645 -0.0182626
v -0.83376 0.551713 -0.0182626
l 397 398
v -0.00183103 -0.00151244 -0.0182626
v -0.560329 0.827993 -0.0182626
l 399 400
v -0.0007874 0 -0.0182626
v 0.258032 -0.965926 -0.0182626
l 401 402
v -0.000681908 -0.0003937 -0.0182626
v 0.706425 -0.7075 -0.0182626
l 403 404
v -0.0003937 -0.000681908 -0.0182626
v 0.965532 -0.259501 -0.0182626
l 405 406
v -2.23052e-19 -0.0007874 -0.0182626
v 0.965926 0.258032 -0.0182626
l 407 408
v 0.0003937 -0.000681908 -0.0182626
v 0.7075 0.706425 -0.0182626
l 409 410
v 0.000681908 -0.0003937 -0.0182626
v 0.259501 0.965532 -0.0182626
l 411 412
v 0.0007874 0 -0.0182626
v -0.258032 0.965926 -0.0182626
l 413 414
v 0.0003937 0.000681908 -0.0182626
v -0.965532 0.259501 -0.0182626
l 415 416
v 1.44643e-19 0.0007874 -0.0182626
v -0.965926 -0.258032 -0.0182626
l 417 418
v -0.0003937 0.000681908 -0.0182626
v -0.7075 -0.706425 -0.0182626
l 419 420
v -0.000681908 0.0003937 -0.0182626
v -0.259501 -0.965532 -0.0182626
l 421 422
v 0.000681908 0.0003937 -0.0182626
v -0.706425 0.7075 -0.0182626
l 423 424
v -0.000327665 0.00269961 -0.0100318
v 0.287957 -0.468056 -0.843867
l 425 426
v -0.00242384 0.00311597 -0.00517679
v 0.188307 -0.00195918 -0.986806
l 427 428
v -0.00222398 0.00299737 -0.00557467
v -0.145112 -0.0916321 0.97963
l 429 430
v -0.00201757 0.00286932 -0.00618243
v -0.284199 0.103954 0.947838
l 431 432
v -0.00193216 0.00285962 -0.00646446
v -0.291603 0.0357545 0.950096
l 433 434
v -0.00183614 0.00284639 -0.00675614
v -0.314231 0.0458972 0.94222
l 435 436
v -0.00164981 0.00281778 -0.00727075
v -0.351981 0.083028 0.925914
l 437 438
v -0.00137783 0.00275796 -0.00794751
v -0.407356 -0.171404 0.889186
l 439 440
v -0.00126657 0.00276477 -0.00820022
v -0.404099 -0.0218954 0.906741
l 441 442
v -0.000830053 0.00263207 -0.00918755
v -0.410865 0.109207 0.896634
l 443 444
v -0.000944796 0.00308206 -0.00917336
v 0.420786 0.0414546 -0.915082
l 445 446
v -0.000678218 0.00309455 -0.00970351
v 0.439859 0.0518303 -0.906114
l 447 448
v -0.000819714 0.00309344 -0.00944205
v 0.47512 0.00684398 -0.888912
l 449 450
v -0.00102732 0.00301895 -0.00887978
v 0.263945 0.205652 -0.951604
l 451 452
v -0.00116916 0.00303495 -0.00861459
v 0.469817 -0.0500723 -0.889155
l 453 454
v -0.00130511 0.00304966 -0.0083517
v 0.457488 -0.0466118 -0.895506
l 455 456
v -0.00142245 0.00304542 -0.00807878
v 0.393515 0.0173373 -0.926676
l 457 458
v -0.00152207 0.00300983 -0.00777338
v 0.306713 0.113125 -0.952689
l 459 460
v -0.00168695 0.00306552 -0.007489
v 0.492855 -0.163982 -0.860439
l 461 462
v -0.00179547 0.00307054 -0.00721853
v 0.37051 -0.0141495 -0.935169
l 463 464
v -0.00199811 0.003087 -0.00669238
v 0.358555 -0.0352044 -0.938645
l 465 466
v -0.0020928 0.00309216 -0.00641108
v 0.316882 -0.0142769 -0.954015
l 467 468
v -0.00218038 0.00309658 -0.00612696
v 0.29235 -0.0117817 -0.961653
l 469 470
v -0.00174486 0.00283955 -0.00701756
v -0.331299 0.0275601 0.936795
l 471 472
v -0.00155449 0.00279008 -0.00751505
v -0.363041 0.107837 0.918926
l 473 474
v -0.00115137 0.00275156 -0.00845593
v -0.41144 0.0498351 0.902283
l 475 476
v -0.000937348 0.00265996 -0.00895052
v -0.365362 0.252709 0.888084
l 477 478
v -0.000705881 0.00262863 -0.00942652
v -0.461752 0.0154309 0.877857
l 479 480
v -0.000485203 0.00256981 -0.00989059
v -0.402749 0.162437 0.891567
l 481 482
v -0.00189388 0.00307593 -0.00696178
v 0.355947 -0.0165292 -0.940539
l 483 484
v -0.00226641 0.0031084 -0.00586209
v 0.306385 -0.0392794 -0.956092
l 485 486
v -0.00210412 0.00290033 -0.00588979
v -0.343728 0.279488 0.892326
l 487 488
v -0.0014756 0.00271602 -0.00773147
v -0.327515 0.308778 0.886709
l 489 490
v -0.0010371 0.00272841 -0.00870498
v -0.416578 0.0869024 0.896966
l 491 492
v -0.000584493 0.00260927 -0.00966808
v -0.448451 0.0740247 0.881576
l 493 494
v -0.0007469 0.00287309 -0.00928673
v -0.448353 -0.0631204 0.882506
l 495 496
v -0.000612364 0.00287477 -0.00953754
v -0.473303 -0.00302741 0.871671
l 497 498
v -0.000327665 0.00269961 -0.0100318
v -0.63503 -0.520254 0.558891
l 499 500
v -0.000348327 0.00296791 -0.0100555
v -0.374412 -0.359911 0.843405
l 501 502
v -0.000459928 0.00285965 -0.00980091
v -0.500777 0.052499 0.854617
l 503 504
v -0.000462871 0.00313062 -0.0101746
v -0.383874 -0.0908312 0.908611
l 505 506
v -0.00226641 0.0031084 -0.00586209
v 0.134164 -0.353862 0.918237
l 507 508
v 0.000393138 0.00303557 -0.0100676
v -0.325662 0.231207 -0.927469
l 509 510
v 0.000376255 0.00280163 -0.0099306
v -0.503994 0.227751 -0.843602
l 511 512
v 0.000241691 0.00258948 -0.0102489
v 0.61954 -0.131999 0.763285
l 513 514
v 0.00222106 0.00292585 -0.00541923
v -0.242755 -0.0905776 -0.970429
l 515 516
v 0.00233634 0.00303807 -0.00516137
v -0.37696 -0.366184 -0.853577
l 517 518
v 0.000915464 0.00262286 -0.00903029
v -0.471588 0.0400634 -0.889563
l 519 520
v 0.000800307 0.00263198 -0.00924489
v -0.442592 -0.0551139 -0.903711
l 521 522
v 0.00163492 0.00281346 -0.00730937
v -0.364649 -0.0187975 -0.937562
l 523 524
v 0.0017465 0.00282727 -0.00700916
v -0.346329 -0.0402492 -0.943486
l 525 526
v 0.00204833 0.00287088 -0.0060729
v -0.28266 -0.04051 -0.963705
l 527 528
v 0.0021427 0.00289594 -0.0057279
v -0.261076 -0.066989 -0.96793
l 529 530
v 0.00191256 0.0030763 -0.00690911
v 0.345505 0.030269 0.931816
l 531 532
v 0.00202299 0.00308504 -0.0066074
v 0.294025 0.00429842 0.94981
l 533 534
v 0.00212189 0.00308545 -0.00628348
v 0.292244 0.0259181 0.950434
l 535 536
v 0.00168794 0.00307017 -0.00749967
v 0.37639 0.0225544 0.919441
l 537 538
v 0.00158301 0.00308716 -0.0078108
v 0.320733 -0.048561 0.938485
l 539 540
v 0.00140321 0.00304485 -0.00812157
v 0.498759 0.12008 0.851495
l 541 542
v 0.00127315 0.0030512 -0.00842495
v 0.395198 -0.0161974 0.910516
l 543 544
v 0.00114668 0.00306124 -0.00871654
v 0.398878 -0.028509 0.908242
l 545 546
v 0.0010275 0.00307801 -0.00899982
v 0.388233 -0.0514237 0.911382
l 547 548
v 0.000887394 0.00309126 -0.00930822
v 0.414199 -0.0359921 0.900443
l 549 550
v 0.000724954 0.00308467 -0.00959434
v 0.49434 0.0231157 0.859856
l 551 552
v 0.000549089 0.00306665 -0.00986472
v 0.544946 0.0588638 0.827105
l 553 554
v 0.000684112 0.00261685 -0.00947929
v -0.433822 -0.0930073 -0.905058
l 555 556
v 0.00111029 0.00276642 -0.0085405
v -0.433103 0.0237348 -0.909107
l 557 558
v 0.00133485 0.00272609 -0.00805795
v -0.417918 0.177306 -0.898984
l 559 560
v 0.00184538 0.0028421 -0.0067266
v -0.328065 -0.0466212 -0.949442
l 561 562
v 0.0018111 0.00307658 -0.00719501
v 0.336262 0.00217016 0.935218
l 563 564
v 0.000393138 0.00303557 -0.0100676
v 0.60533 0.123576 0.777029
l 565 566
v 0.000559337 0.00258939 -0.00973647
v -0.390098 -0.161476 -0.915534
l 567 568
v 0.00143141 0.00268665 -0.00785656
v -0.424336 0.176591 -0.89582
l 569 570
v 0.00122653 0.00277119 -0.00828813
v -0.417052 -0.0143971 -0.916445
l 571 572
v 0.00194739 0.00285551 -0.00641241
v -0.306593 -0.0376948 -0.956759
l 573 574
v 0.00222613 0.00309366 -0.00593972
v 0.25741 0.0198018 0.960809
l 575 576
v 0.000979132 0.00277276 -0.00881253
v -0.414652 0.27516 -0.8766
l 577 578
v 0.00230664 0.00309893 -0.00563473
v 0.312822 0.0762027 0.942118
l 579 580
v 0.000553262 0.00285217 -0.00963525
v -0.508057 -0.142374 -0.858296
l 581 582
v 0.00141883 0.00289691 -0.00788306
v 0.320042 -0.309452 0.887057
l 583 584
v 0.000843035 0.00286195 -0.00909668
v -0.455039 0.0413739 -0.898303
l 585 586
v 0.000702832 0.00287379 -0.00937015
v -0.489455 -0.0679913 -0.878118
l 587 588
v 0.000167926 0.0030747 -0.0104856
v -0.741055 0.115433 -0.672274
l 589 590
v 0.000200878 0.00287984 -0.0102205
v -0.579081 0.103546 -0.819108
l 591 592
v 1.69656e-11 0.00250003 -0.01062
v 0.534998 0.200508 0.810702
l 593 594
v 0.000311425 0.00309275 -0.0102975
v -0.604507 -0.0730056 -0.803017
l 595 596
v -0.000189393 0.00309281 -0.0104871
v -0.475638 -0.0604265 0.86696
l 597 598
v 2.52951e-11 0.00291475 -0.010501
v -0.550822 -0.217454 0.794504
l 599 600
v 1.69656e-11 0.00250003 -0.01062
v -0.799409 -0.00657599 0.590099
l 601 602
v 1.5875e-11 0.00310015 -0.0106356
v -0.786595 -0.0274097 0.606079
l 603 604
v -0.00250308 0.00311811 -0.00464558
v 0.135621 -0.186845 0.967381
l 605 606
v 0.0024011 0.00342841 -0.00340405
v 0.198174 -0.526047 -0.82883
l 607 608
v 0.00244855 0.00304312 -0.00426188
v 0.0196811 0.187246 0.978475
l 609 610
v 0.00245494 0.00311134 -0.00389792
v 0.0133302 0.543625 0.837367
l 611 612
v 0.00237682 0.00295369 -0.00444271
v 0.117037 0.328758 -0.942901
l 613 614
v 0.00240833 0.0030432 -0.00470055
v -0.151921 -0.00796528 -0.992659
l 615 616
v 0.00252061 0.00311657 -0.00444183
v -0.382779 -0.248649 -0.892225
l 617 618
v -0.00244855 0.00304312 -0.00426188
v -0.0614052 0.184708 0.97733
l 619 620
v -0.00243319 0.00313866 -0.00377412
v -0.128583 0.730157 0.671156
l 621 622
v -0.00246545 0.00309519 -0.00398056
v 0.148705 0.206802 0.96331
l 623 624
v 0 0.0182626 -0.003175
v -0.999941 0.0182626 -0.0140086
l 625 626
v -0.000550148 0.0182626 -0.00318692
v -0.999083 0.0182626 -0.0573281
l 627 628
v -0.00109926 0.0182626 -0.00322266
v -0.99635 0.0182626 -0.100568
l 629 630
v -0.00164631 0.0182626 -0.00328216
v -0.991746 0.0182626 -0.143646
l 631 632
v -0.00219028 0.0182626 -0.0033653
v -0.98528 0.0182626 -0.186488
l 633 634
v -0.00273013 0.0182626 -0.00347192
v -0.976964 0.0182626 -0.229011
l 635 636
v -0.00326485 0.0182626 -0.00360183
v -0.966815 0.0182626 -0.271131
l 637 638
v -0.00379344 0.0182626 -0.00375478
v -0.954849 0.0182626 -0.312775
l 639 640
v -0.00431491 0.0182626 -0.00393048
v -0.941093 0.0182626 -0.353853
l 641 642
v -0.00482828 0.0182626 -0.00412861
v -0.925569 0.0182626 -0.394305
l 643 644
v -0.00533259 0.0182626 -0.00434879
v -0.908306 0.0182626 -0.434045
l 645 646
v -0.00582689 0.0182626 -0.00459061
v -0.889338 0.0182626 -0.473002
l 647 648
v -0.00631024 0.0182626 -0.00485362
v -0.868701 0.0182626 -0.511097
l 649 650
v -0.00678175 0.0182626 -0.00513732
v -0.846433 0.0182626 -0.548263
l 651 652
v -0.00724053 0.0182626 -0.00544117
v -0.822577 0.0182626 -0.584428
l 653 654
v -0.00768571 0.0182626 -0.00576462
v -0.797176 0.0182626 -0.619527
l 655 656
v -0.00811647 0.0182626 -0.00610704
v -0.770278 0.0182626 -0.653493
l 657 658
v -0.00853198 0.0182626 -0.00646781
v -0.741935 0.0182626 -0.686262
l 659 660
v -0.00893148 0.0182626 -0.00684623
v -0.712196 0.0182626 -0.717774
l 661 662
v -0.00931421 0.0182626 -0.00724161
v -0.681122 0.0182626 -0.747967
l 663 664
v -0.00967946 0.0182626 -0.00765319
v -0.648771 0.0182626 -0.776784
l 665 666
v -0.0100265 0.0182626 -0.00808021
v -0.615207 0.0182626 -0.804168
l 667 668
v -0.0103548 0.0182626 -0.00852187
v -0.580473 0.0182626 -0.830085
l 669 670
v -0.0106636 0.0182626 -0.00897733
v -0.544652 0.0182626 -0.854469
l 671 672
v -0.0109524 0.0182626 -0.00944573
v -0.507807 0.0182626 -0.877279
l 673 674
v -0.0112206 0.0182626 -0.00992621
v -0.470042 0.0182626 -0.898455
l 675 676
v -0.0114678 0.0182626 -0.0104179
v -0.431378 0.0182626 -0.917984
l 677 678
v -0.0116934 0.0182626 -0.0109197
v -0.391838 0.0182626 -0.935847
l 679 680
v -0.0118971 0.0182626 -0.0114309
v -0.351675 0.0182626 -0.951937
l 681 682
v -0.0120784 0.0182626 -0.0119505
v -0.310776 0.0182626 -0.966298
l 683 684
v -0.0122371 0.0182626 -0.0124774
v -0.269323 0.0182626 -0.978866
l 685 686
v -0.0123728 0.0182626 -0.0130107
v -0.227337 0.0182626 -0.989632
l 687 688
v -0.0124852 0.0182626 -0.0135493
v -0.184971 0.0182626 -0.998561
l 689 690
v -0.0125743 0.0182626 -0.0140924
v -0.142206 0.0182626 -1.00565
l 691 692
v -0.0126397 0.0182626 -0.0146387
v -0.0991744 0.0182626 -1.01089
l 693 694
v -0.0126814 0.0182626 -0.0151874
v -0.0560036 0.0182626 -1.01425
l 695 696
v -0.0126993 0.0182626 -0.0157374
v -0.0126993 0.0182626 -1.01574
l 697 698
v -0.0126933 0.0182626 -0.0162877
v 0.0306286 0.0182626 -1.01535
l 699 700
v -0.0126635 0.0182626 -0.0168371
v 0.0738712 0.0182626 -1.01309
l 701 702
v -0.0126099 0.0182626 -0.0173848
v 0.117022 0.0182626 -1.00895
l 703 704
v -0.0125327 0.0182626 -0.0179296
v 0.159953 0.0182626 -1.00294
l 705 706
v -0.0124319 0.0182626 -0.0184706
v 0.202533 0.0182626 -0.995092
l 707 708
v -0.0123078 0.0182626 -0.0190067
v 0.244778 0.0182626 -0.985395
l 709 710
v -0.0121606 0.0182626 -0.0195369
v 0.286538 0.0182626 -0.973885
l 711 712
v -0.0119906 0.0182626 -0.0200603
v 0.327786 0.0182626 -0.960566
l 713 714
v -0.011798 0.0182626 -0.0205758
v 0.368349 0.0182626 -0.945502
l 715 716
v -0.0115833 0.0182626 -0.0210824
v 0.408328 0.0182626 -0.928648
l 717 718
v -0.0113468 0.0182626 -0.0215793
v 0.447469 0.0182626 -0.910111
l 719 720
v -0.0110891 0.0182626 -0.0220655
v 0.485758 0.0182626 -0.889903
l 721 722
v -0.0108105 0.0182626 -0.02254
v 0.523178 0.0182626 -0.868032
l 723 724
v -0.0105116 0.0182626 -0.0230021
v 0.559619 0.0182626 -0.844556
l 725 726
v -0.010193 0.0182626 -0.0234507
v 0.594985 0.0182626 -0.819541
l 727 728
v -0.00985531 0.0182626 -0.0238852
v 0.629235 0.0182626 -0.793017
l 729 730
v -0.00949906 0.0182626 -0.0243046
v 0.662314 0.0182626 -0.765025
l 731 732
v -0.00912499 0.0182626 -0.0247081
v 0.69413 0.0182626 -0.735646
l 733 734
v -0.00873378 0.0182626 -0.0250951
v 0.724668 0.0182626 -0.70489
l 735 736
v -0.00832618 0.0182626 -0.0254648
v 0.753822 0.0182626 -0.672867
l 737 738
v -0.00790295 0.0182626 -0.0258165
v 0.781587 0.0182626 -0.63958
l 739 740
v -0.00746487 0.0182626 -0.0261495
v 0.807874 0.0182626 -0.605134
l 741 742
v -0.00701279 0.0182626 -0.0264632
v 0.832644 0.0182626 -0.56958
l 743 744
v -0.00654753 0.0182626 -0.0267571
v 0.855851 0.0182626 -0.532988
l 745 746
v -0.00606999 0.0182626 -0.0270305
v 0.877434 0.0182626 -0.495453
l 747 748
v -0.00558105 0.0182626 -0.027283
v 0.897381 0.0182626 -0.457003
l 749 750
v -0.00508163 0.0182626 -0.027514
v 0.915656 0.0182626 -0.417697
l 751 752
v -0.00457267 0.0182626 -0.0277232
v 0.932198 0.0182626 -0.377667
l 753 754
v -0.00405513 0.0182626 -0.0279102
v 0.947011 0.0182626 -0.336899
l 755 756
v -0.00352997 0.0182626 -0.0280746
v 0.960022 0.0182626 -0.295597
l 757 758
v -0.00299819 0.0182626 -0.028216
v 0.971233 0.0182626 -0.253767
l 759 760
v -0.00246078 0.0182626 -0.0283343
v 0.980633 0.0182626 -0.211435
l 761 762
v -0.00191875 0.0182626 -0.0284292
v 0.988182 0.0182626 -0.168787
l 763 764
v -0.00137311 0.0182626 -0.0285005
v 0.993876 0.0182626 -0.125865
l 765 766
v -0.000824899 0.0182626 -0.0285482
v 0.997708 0.0182626 -0.0827037
l 767 768
v -0.000275139 0.0182626 -0.028572
v 0.999666 0.0182626 -0.0394031
l 769 770
v 0.000275139 0.0182626 -0.028572
v 0.999747 0.0182626 0.00391455
l 771 772
v 0.000824899 0.0182626 -0.0285482
v 0.997953 0.0182626 0.0471886
l 773 774
v 0.00137311 0.0182626 -0.0285005
v 0.994282 0.0182626 0.0903779
l 775 776
v 0.00191875 0.0182626 -0.0284292
v 0.988743 0.0182626 0.133367
l 777 778
v 0.00246078 0.0182626 -0.0283343
v 0.98135 0.0182626 0.176055
l 779 780
v 0.00299819 0.0182626 -0.028216
v 0.97212 0.0182626 0.218368
l 781 782
v 0.00352997 0.0182626 -0.0280746
v 0.961055 0.0182626 0.260275
l 783 784
v 0.00405513 0.0182626 -0.0279102
v 0.948189 0.0182626 0.301651
l 785 786
v 0.00457267 0.0182626 -0.0277232
v 0.933556 0.0182626 0.342399
l 787 788
v 0.00508163 0.0182626 -0.027514
v 0.917158 0.0182626 0.382506
l 789 790
v 0.00558105 0.0182626 -0.027283
v 0.899044 0.0182626 0.421853
l 791 792
v 0.00606999 0.0182626 -0.0270305
v 0.87923 0.0182626 0.460403
l 793 794
v 0.00654753 0.0182626 -0.0267571
v 0.85776 0.0182626 0.498064
l 795 796
v 0.00701279 0.0182626 -0.0264632
v 0.834709 0.0182626 0.534713
l 797 798
v 0.00746487 0.0182626 -0.0261495
v 0.810056 0.0182626 0.570379
l 799 800
v 0.00790295 0.0182626 -0.0258165
v 0.78392 0.0182626 0.604896
l 801 802
v 0.00832618 0.0182626 -0.0254648
v 0.756288 0.0182626 0.638277
l 803 804
v 0.00873378 0.0182626 -0.0250951
v 0.72725 0.0182626 0.670415
l 805 806
v 0.00912499 0.0182626 -0.0247081
v 0.696829 0.0182626 0.701283
l 807 808
v 0.00949906 0.0182626 -0.0243046
v 0.665105 0.0182626 0.730799
l 809 810
v 0.00985531 0.0182626 -0.0238852
v 0.632138 0.0182626 0.758908
l 811 812
v 0.010193 0.0182626 -0.0234507
v 0.597964 0.0182626 0.785577
l 813 814
v 0.0105116 0.0182626 -0.0230021
v 0.562694 0.0182626 0.810722
l 815 816
v 0.0108105 0.0182626 -0.02254
v 0.526388 0.0182626 0.834303
l 817 818
v 0.0110891 0.0182626 -0.0220655
v 0.489044 0.0182626 0.856319
l 819 820
v 0.0113468 0.0182626 -0.0215793
v 0.450783 0.0182626 0.876695
l 821 822
v 0.0115833 0.0182626 -0.0210824
v 0.411717 0.0182626 0.895374
l 823 824
v 0.011798 0.0182626 -0.0205758
v 0.371851 0.0182626 0.912356
l 825 826
v 0.0119906 0.0182626 -0.0200603
v 0.331303 0.0182626 0.927589
l 827 828
v 0.0121606 0.0182626 -0.0195369
v 0.290082 0.0182626 0.941067
l 829 830
v 0.0123078 0.0182626 -0.0190067
v 0.248398 0.0182626 0.952724
l 831 832
v 0.0124319 0.0182626 -0.0184706
v 0.206178 0.0182626 0.962581
l 833 834
v 0.0125327 0.0182626 -0.0179296
v 0.163616 0.0182626 0.970591
l 835 836
v 0.0126099 0.0182626 -0.0173848
v 0.120733 0.0182626 0.976753
l 837 838
v 0.0126635 0.0182626 -0.0168371
v 0.0776047 0.0182626 0.981052
l 839 840
v 0.0126933 0.0182626 -0.0162877
v 0.0343555 0.0182626 0.983478
l 841 842
v 0.0126993 0.0182626 -0.0157374
v -0.00896296 0.0182626 0.984028
l 843 844
v 0.0126814 0.0182626 -0.0151874
v -0.0522597 0.0182626 0.982702
l 845 846
v 0.0126397 0.0182626 -0.0146387
v -0.0954827 0.0182626 0.979499
l 847 848
v 0.0125743 0.0182626 -0.0140924
v -0.13851 0.0182626 0.974429
l 849 850
v 0.0124852 0.0182626 -0.0135493
v -0.18126 0.0182626 0.967502
l 851 852
v 0.0123728 0.0182626 -0.0130107
v -0.223717 0.0182626 0.958721
l 853 854
v 0.0122371 0.0182626 -0.0124774
v -0.265685 0.0182626 0.948126
l 855 856
v 0.0120784 0.0182626 -0.0119505
v -0.307234 0.0182626 0.935699
l 857 858
v 0.0118971 0.0182626 -0.0114309
v -0.348158 0.0182626 0.9215
l 859 860
v 0.0116934 0.0182626 -0.0109197
v -0.388442 0.0182626 0.905536
l 861 862
v 0.0114678 0.0182626 -0.0104179
v -0.427968 0.0182626 0.887856
l 863 864
v 0.0112206 0.0182626 -0.00992621
v -0.46673 0.0182626 0.868461
l 865 866
v 0.0109524 0.0182626 -0.00944573
v -0.50461 0.0182626 0.847407
l 867 868
v 0.0106636 0.0182626 -0.00897733
v -0.541534 0.0182626 0.824736
l 869 870
v 0.0103548 0.0182626 -0.00852187
v -0.577426 0.0182626 0.800499
l 871 872
v 0.0100265 0.0182626 -0.00808021
v -0.612252 0.0182626 0.774715
l 873 874
v 0.00967946 0.0182626 -0.00765319
v -0.645927 0.0182626 0.747449
l 875 876
v 0.00931421 0.0182626 -0.00724161
v -0.678387 0.0182626 0.718752
l 877 878
v 0.00893148 0.0182626 -0.00684623
v -0.709572 0.0182626 0.688677
l 879 880
v 0.00853198 0.0182626 -0.00646781
v -0.739425 0.0182626 0.657279
l 881 882
v 0.00811647 0.0182626 -0.00610704
v -0.767891 0.0182626 0.624616
l 883 884
v 0.00768571 0.0182626 -0.00576462
v -0.794916 0.0182626 0.59075
l 885 886
v 0.00724053 0.0182626 -0.00544117
v -0.82045 0.0182626 0.555743
l 887 888
v 0.00678175 0.0182626 -0.00513732
v -0.844441 0.0182626 0.519668
l 889 890
v 0.00631024 0.0182626 -0.00485362
v -0.866848 0.0182626 0.482583
l 891 892
v 0.00582689 0.0182626 -0.00459061
v -0.887626 0.0182626 0.444566
l 893 894
v 0.00533259 0.0182626 -0.00434879
v -0.906739 0.0182626 0.405683
l 895 896
v 0.00482828 0.0182626 -0.00412861
v -0.924147 0.0182626 0.366013
l 897 898
v 0.00431491 0.0182626 -0.00393048
v -0.939824 0.0182626 0.325618
l 899 900
v 0.00379344 0.0182626 -0.00375478
v -0.953735 0.0182626 0.284584
l 901 902
v 0.00326485 0.0182626 -0.00360183
v -0.965856 0.0182626 0.242986
l 903 904
v 0.00273013 0.0182626 -0.00347192
v -0.976162 0.0182626 0.200908
l 905 906
v 0.00219028 0.0182626 -0.0033653
v -0.984636 0.0182626 0.158416
l 907 908
v 0.00164631 0.0182626 -0.00328216
v -0.991262 0.0182626 0.1156
l 909 910
v 0.00109926 0.0182626 -0.00322266
v -0.996027 0.0182626 0.0725343
l 911 912
v 0.000550148 0.0182626 -0.00318692
v -0.998922 0.0182626 0.0293039
l 913 914
v 0.000275139 0.0182626 -0.00317798
v -0.999666 0.0182626 0.00765567
l 915 916
v -0.000275139 0.0182626 -0.00317798
v -0.999747 0.0182626 -0.0356688
l 917 918
v -0.000824899 0.0182626 -0.00320182
v -0.997951 0.0182626 -0.0789588
l 919 920
v -0.00137311 0.0182626 -0.00324945
v -0.994281 0.0182626 -0.122132
l 921 922
v -0.00191875 0.0182626 -0.00332078
v -0.988745 0.0182626 -0.165102
l 923 924
v -0.00246078 0.0182626 -0.00341568
v -0.981353 0.0182626 -0.207795
l 925 926
v -0.00299819 0.0182626 -0.00353398
v -0.972119 0.0182626 -0.250122
l 927 928
v -0.00352997 0.0182626 -0.00367544
v -0.961058 0.0182626 -0.292015
l 929 930
v -0.00405513 0.0182626 -0.00383981
v -0.948194 0.0182626 -0.333388
l 931 932
v -0.00457267 0.0182626 -0.00402677
v -0.933548 0.0182626 -0.374168
l 933 934
v -0.00508163 0.0182626 -0.00423597
v -0.917153 0.0182626 -0.414267
l 935 936
v -0.00558105 0.0182626 -0.00446702
v -0.899034 0.0182626 -0.453624
l 937 938
v -0.00606999 0.0182626 -0.0047195
v -0.879229 0.0182626 -0.492156
l 939 940
v -0.00654753 0.0182626 -0.00499291
v -0.85777 0.0182626 -0.529798
l 941 942
v -0.00701279 0.0182626 -0.00528676
v -0.834703 0.0182626 -0.566471
l 943 944
v -0.00746487 0.0182626 -0.00560048
v -0.810067 0.0182626 -0.602115
l 945 946
v -0.00790295 0.0182626 -0.0059335
v -0.783911 0.0182626 -0.636657
l 947 948
v -0.00832618 0.0182626 -0.00628518
v -0.756283 0.0182626 -0.670032
l 949 950
v -0.00873378 0.0182626 -0.00665486
v -0.727237 0.0182626 -0.702178
l 951 952
v -0.00912499 0.0182626 -0.00704185
v -0.696826 0.0182626 -0.733036
l 953 954
v -0.00949906 0.0182626 -0.00744542
v -0.665106 0.0182626 -0.762548
l 955 956
v -0.00985531 0.0182626 -0.00786482
v -0.632134 0.0182626 -0.79066
l 957 958
v -0.010193 0.0182626 -0.00829926
v -0.597973 0.0182626 -0.81732
l 959 960
v -0.0105116 0.0182626 -0.00874792
v -0.562709 0.0182626 -0.842461
l 961 962
v -0.0108105 0.0182626 -0.00920997
v -0.526373 0.0182626 -0.866062
l 963 964
v -0.0110891 0.0182626 -0.00968452
v -0.489039 0.0182626 -0.888071
l 965 966
v -0.0113468 0.0182626 -0.0101707
v -0.450783 0.0182626 -0.908445
l 967 968
v -0.0115833 0.0182626 -0.0106676
v -0.411718 0.0182626 -0.927124
l 969 970
v -0.011798 0.0182626 -0.0111743
v -0.371853 0.0182626 -0.944105
l 971 972
v -0.0119906 0.0182626 -0.0116897
v -0.331303 0.0182626 -0.959339
l 973 974
v -0.0121606 0.0182626 -0.0122131
v -0.290082 0.0182626 -0.972817
l 975 976
v -0.0123078 0.0182626 -0.0127433
v -0.248397 0.0182626 -0.984475
l 977 978
v -0.0124319 0.0182626 -0.0132794
v -0.206178 0.0182626 -0.994331
l 979 980
v -0.0125327 0.0182626 -0.0138204
v -0.163617 0.0182626 -1.00234
l 981 982
v -0.0126099 0.0182626 -0.0143652
v -0.120732 0.0182626 -1.0085
l 983 984
v -0.0126635 0.0182626 -0.0149129
v -0.0776045 0.0182626 -1.0128
l 985 986
v -0.0126933 0.0182626 -0.0154623
v -0.0343555 0.0182626 -1.01523
l 987 988
v -0.0126993 0.0182626 -0.0160126
v 0.00896296 0.0182626 -1.01578
l 989 990
v -0.0126814 0.0182626 -0.0165626
v 0.0522599 0.0182626 -1.01445
l 991 992
v -0.0126397 0.0182626 -0.0171113
v 0.095483 0.0182626 -1.01125
l 993 994
v -0.0125743 0.0182626 -0.0176576
v 0.138509 0.0182626 -1.00618
l 995 996
v -0.0124852 0.0182626 -0.0182007
v 0.18126 0.0182626 -0.999252
l 997 998
v -0.0123728 0.0182626 -0.0187393
v 0.223718 0.0182626 -0.99047
l 999 1000
v -0.0122371 0.0182626 -0.0192726
v 0.265685 0.0182626 -0.979876
l 1001 1002
v -0.0120784 0.0182626 -0.0197995
v 0.307234 0.0182626 -0.967449
l 1003 1004
v -0.0118971 0.0182626 -0.0203191
v 0.348156 0.0182626 -0.953251
l 1005 1006
v -0.0116934 0.0182626 -0.0208302
v 0.38844 0.0182626 -0.937287
l 1007 1008
v -0.0114678 0.0182626 -0.0213321
v 0.427968 0.0182626 -0.919606
l 1009 1010
v -0.0112206 0.0182626 -0.0218238
v 0.466734 0.0182626 -0.900208
l 1011 1012
v -0.0109524 0.0182626 -0.0223043
v 0.504625 0.0182626 -0.879148
l 1013 1014
v -0.0106636 0.0182626 -0.0227727
v 0.541518 0.0182626 -0.856496
l 1015 1016
v -0.0103548 0.0182626 -0.0232281
v 0.577416 0.0182626 -0.832256
l 1017 1018
v -0.0100265 0.0182626 -0.0236698
v 0.612256 0.0182626 -0.806463
l 1019 1020
v -0.00967946 0.0182626 -0.0240968
v 0.645927 0.0182626 -0.7792
l 1021 1022
v -0.00931421 0.0182626 -0.0245084
v 0.678389 0.0182626 -0.7505
l 1023 1024
v -0.00893148 0.0182626 -0.0249038
v 0.709585 0.0182626 -0.720414
l 1025 1026
v -0.00853198 0.0182626 -0.0252822
v 0.739429 0.0182626 -0.689024
l 1027 1028
v -0.00811647 0.0182626 -0.025643
v 0.767901 0.0182626 -0.656355
l 1029 1030
v -0.00768571 0.0182626 -0.0259854
v 0.794906 0.0182626 -0.622514
l 1031 1032
v -0.00724053 0.0182626 -0.0263088
v 0.820456 0.0182626 -0.587485
l 1033 1034
v -0.00678175 0.0182626 -0.0266127
v 0.844431 0.0182626 -0.551434
l 1035 1036
v -0.00631024 0.0182626 -0.0268964
v 0.86685 0.0182626 -0.51433
l 1037 1038
v -0.00582689 0.0182626 -0.0271594
v 0.887636 0.0182626 -0.476296
l 1039 1040
v -0.00533259 0.0182626 -0.0274012
v 0.906744 0.0182626 -0.437421
l 1041 1042
v -0.00482828 0.0182626 -0.0276214
v 0.924155 0.0182626 -0.397744
l 1043 1044
v -0.00431491 0.0182626 -0.0278195
v 0.939819 0.0182626 -0.357381
l 1045 1046
v -0.00379344 0.0182626 -0.0279952
v 0.953732 0.0182626 -0.316345
l 1047 1048
v -0.00326485 0.0182626 -0.0281482
v 0.965857 0.0182626 -0.274732
l 1049 1050
v -0.00273013 0.0182626 -0.0282781
v 0.97616 0.0182626 -0.232667
l 1051 1052
v -0.00219028 0.0182626 -0.0283847
v 0.984634 0.0182626 -0.190181
l 1053 1054
v -0.00164631 0.0182626 -0.0284678
v 0.991262 0.0182626 -0.147346
l 1055 1056
v -0.00109926 0.0182626 -0.0285273
v 0.996029 0.0182626 -0.104264
l 1057 1058
v -0.000550148 0.0182626 -0.0285631
v 0.998922 0.0182626 -0.0610497
l 1059 1060
v 1.25634e-16 0.0182626 -0.028575
v 0.999941 0.0182626 -0.0177439
l 1061 1062
v 0.000550148 0.0182626 -0.0285631
v 0.999083 0.0182626 0.0255924
l 1063 1064
v 0.00109926 0.0182626 -0.0285273
v 0.996348 0.0182626 0.068837
l 1065 1066
v 0.00164631 0.0182626 -0.0284678
v 0.991747 0.0182626 0.11189
l 1067 1068
v 0.00219028 0.0182626 -0.0283847
v 0.985284 0.0182626 0.154716
l 1069 1070
v 0.00273013 0.0182626 -0.0282781
v 0.976962 0.0182626 0.197273
l 1071 1072
v 0.00326485 0.0182626 -0.0281482
v 0.966817 0.0182626 0.239374
l 1073 1074
v 0.00379344 0.0182626 -0.0279952
v 0.954859 0.0182626 0.280993
l 1075 1076
v 0.00431491 0.0182626 -0.0278195
v 0.941086 0.0182626 0.322124
l 1077 1078
v 0.00482828 0.0182626 -0.0276214
v 0.925566 0.0182626 0.362562
l 1079 1080
v 0.00533259 0.0182626 -0.0274012
v 0.908295 0.0182626 0.402319
l 1081 1082
v 0.00582689 0.0182626 -0.0271594
v 0.889331 0.0182626 0.441263
l 1083 1084
v 0.00631024 0.0182626 -0.0268964
v 0.868708 0.0182626 0.479334
l 1085 1086
v 0.00678175 0.0182626 -0.0266127
v 0.846439 0.0182626 0.516504
l 1087 1088
v 0.00724053 0.0182626 -0.0263088
v 0.822579 0.0182626 0.552676
l 1089 1090
v 0.00768571 0.0182626 -0.0259854
v 0.797175 0.0182626 0.587778
l 1091 1092
v 0.00811647 0.0182626 -0.025643
v 0.770265 0.0182626 0.621759
l 1093 1094
v 0.00853198 0.0182626 -0.0252822
v 0.741934 0.0182626 0.654513
l 1095 1096
v 0.00893148 0.0182626 -0.0249038
v 0.712186 0.0182626 0.686034
l 1097 1098
v 0.00931421 0.0182626 -0.0245084
v 0.681128 0.0182626 0.716212
l 1099 1100
v 0.00967946 0.0182626 -0.0240968
v 0.64877 0.0182626 0.745035
l 1101 1102
v 0.0100265 0.0182626 -0.0236698
v 0.615204 0.0182626 0.772421
l 1103 1104
v 0.0103548 0.0182626 -0.0232281
v 0.580485 0.0182626 0.798326
l 1105 1106
v 0.0106636 0.0182626 -0.0227727
v 0.544652 0.0182626 0.822719
l 1107 1108
v 0.0109524 0.0182626 -0.0223043
v 0.5078 0.0182626 0.845534
l 1109 1110
v 0.0112206 0.0182626 -0.0218238
v 0.470037 0.0182626 0.866707
l 1111 1112
v 0.0114678 0.0182626 -0.0213321
v 0.431379 0.0182626 0.886233
l 1113 1114
v 0.0116934 0.0182626 -0.0208302
v 0.39184 0.0182626 0.904096
l 1115 1116
v 0.0118971 0.0182626 -0.0203191
v 0.351674 0.0182626 0.920187
l 1117 1118
v 0.0120784 0.0182626 -0.0197995
v 0.310777 0.0182626 0.934548
l 1119 1120
v 0.0122371 0.0182626 -0.0192726
v 0.269322 0.0182626 0.947116
l 1121 1122
v 0.0123728 0.0182626 -0.0187393
v 0.227337 0.0182626 0.957882
l 1123 1124
v 0.0124852 0.0182626 -0.0182007
v 0.184971 0.0182626 0.966811
l 1125 1126
v 0.0125743 0.0182626 -0.0176576
v 0.142206 0.0182626 0.973905
l 1127 1128
v 0.0126397 0.0182626 -0.0171113
v 0.0991744 0.0182626 0.979138
l 1129 1130
v 0.0126814 0.0182626 -0.0165626
v 0.0560033 0.0182626 0.982499
l 1131 1132
v 0.0126993 0.0182626 -0.0160126
v 0.0126993 0.0182626 0.983987
l 1133 1134
v 0.0126933 0.0182626 -0.0154623
v -0.0306289 0.0182626 0.983599
l 1135 1136
v 0.0126635 0.0182626 -0.0149129
v -0.0738712 0.0182626 0.981336
l 1137 1138
v 0.0126099 0.0182626 -0.0143652
v -0.117022 0.0182626 0.977197
l 1139 1140
v 0.0125327 0.0182626 -0.0138204
v -0.159953 0.0182626 0.971192
l 1141 1142
v 0.0124319 0.0182626 -0.0132794
v -0.202533 0.0182626 0.963342
l 1143 1144
v 0.0123078 0.0182626 -0.0127433
v -0.244778 0.0182626 0.953645
l 1145 1146
v 0.0121606 0.0182626 -0.0122131
v -0.286537 0.0182626 0.942135
l 1147 1148
v 0.0119906 0.0182626 -0.0116897
v -0.327787 0.0182626 0.928816
l 1149 1150
v 0.011798 0.0182626 -0.0111743
v -0.368347 0.0182626 0.913753
l 1151 1152
v 0.0115833 0.0182626 -0.0106676
v -0.408327 0.0182626 0.896898
l 1153 1154
v 0.0113468 0.0182626 -0.0101707
v -0.447475 0.0182626 0.878358
l 1155 1156
v 0.0110891 0.0182626 -0.00968452
v -0.485766 0.0182626 0.858149
l 1157 1158
v 0.0108105 0.0182626 -0.00920997
v -0.523178 0.0182626 0.836282
l 1159 1160
v 0.0105116 0.0182626 -0.00874792
v -0.559606 0.0182626 0.812815
l 1161 1162
v 0.010193 0.0182626 -0.00829926
v -0.594988 0.0182626 0.787789
l 1163 1164
v 0.00985531 0.0182626 -0.00786482
v -0.629236 0.0182626 0.761266
l 1165 1166
v 0.00949906 0.0182626 -0.00744542
v -0.662309 0.0182626 0.73328
l 1167 1168
v 0.00912499 0.0182626 -0.00704185
v -0.69414 0.0182626 0.703886
l 1169 1170
v 0.00873378 0.0182626 -0.00665486
v -0.724669 0.0182626 0.673139
l 1171 1172
v 0.00832618 0.0182626 -0.00628518
v -0.753836 0.0182626 0.641101
l 1173 1174
v 0.00790295 0.0182626 -0.0059335
v -0.781588 0.0182626 0.607829
l 1175 1176
v 0.00746487 0.0182626 -0.00560048
v -0.807872 0.0182626 0.573386
l 1177 1178
v 0.00701279 0.0182626 -0.00528676
v -0.832639 0.0182626 0.537839
l 1179 1180
v 0.00654753 0.0182626 -0.00499291
v -0.855843 0.0182626 0.50125
l 1181 1182
v 0.00606999 0.0182626 -0.0047195
v -0.877441 0.0182626 0.463691
l 1183 1184
v 0.00558105 0.0182626 -0.00446702
v -0.897392 0.0182626 0.42523
l 1185 1186
v 0.00508163 0.0182626 -0.00423597
v -0.915659 0.0182626 0.38594
l 1187 1188
v 0.00457267 0.0182626 -0.00402677
v -0.932206 0.0182626 0.345896
l 1189 1190
v 0.00405513 0.0182626 -0.00383981
v -0.947 0.0182626 0.30518
l 1191 1192
v 0.00352997 0.0182626 -0.00367544
v -0.96002 0.0182626 0.263854
l 1193 1194
v 0.00299819 0.0182626 -0.00353398
v -0.971236 0.0182626 0.222005
l 1195 1196
v 0.00246078 0.0182626 -0.00341568
v -0.980629 0.0182626 0.179707
l 1197 1198
v 0.00191875 0.0182626 -0.00332078
v -0.988181 0.0182626 0.137043
l 1199 1200
v 0.00137311 0.0182626 -0.00324945
v -0.993878 0.0182626 0.0940957
l 1201 1202
v 0.000824899 0.0182626 -0.00320182
v -0.997708 0.0182626 0.0509394
l 1203 1204
v 0.00073213 0.0248824 -0.0852482
v 0.914621 -0.338104 -0.267042
l 1205 1206
v 0.000246708 0.0249743 -0.0852022
v 0.978545 -0.160295 -0.177983
l 1207 1208
v -0.000249484 0.0249741 -0.0852023
v 0.99975 0.0254996 -0.0849471
l 1209 1210
v -0.000734785 0.0248816 -0.0852486
v 0.977316 0.211179 0.00807283
l 1211 1212
v -0.00118801 0.0247011 -0.0853391
v 0.912224 0.388652 0.09692
l 1213 1214
v 0.00118931 0.0210243 -0.0871804
v -0.912016 -0.343338 -0.269656
l 1215 1216
v 0.000249782 0.0207506 -0.0873174
v -0.99975 0.020207 -0.0875724
l 1217 1218
v -0.000732984 0.0208425 -0.0872714
v -0.914417 0.384241 0.0947242
l 1219 1220
v 0.000735638 0.0208433 -0.087271
v -0.977265 -0.165678 -0.180676
l 1221 1222
v -0.000247005 0.0207503 -0.0873175
v -0.978488 0.206262 0.00557702
l 1223 1224
v -0.000335763 -0.00020558 -0.0209186
v 0.0462991 0.909584 -0.43336
l 1225 1226
v -0.000312982 0.000238834 -0.0211201
v -0.320487 -0.94712 -0.0211201
l 1227 1228
v -9.78192e-05 0.000381354 -0.0211201
v -0.833793 -0.551843 -0.0211201
l 1229 1230
v 0.000237628 0.000313899 -0.0211201
v -0.980137 0.197458 -0.0211201
l 1231 1232
v -0.000216142 -0.000329063 -0.0211201
v 0.998982 -0.0403735 -0.0211201
l 1233 1234
v 0.000189115 -0.000345304 -0.0211201
v 0.509918 0.85999 -0.0211201
l 1235 1236
v 0.0003937 0 -0.0211201
v -0.444816 0.895426 -0.0211201
l 1237 1238
v -0.0003937 0 -0.0211201
v 0.474474 -0.880057 -0.0211201
l 1239 1240
v 0.0011684 0.00206761 -0.0211201
v -0.906417 0.421936 -0.0211201
l 1241 1242
v 0.000416109 0.00233816 -0.0211201
v -0.995709 0.0902858 -0.0211201
l 1243 1244
v -0.000424354 0.00233668 -0.0211201
v -0.964336 -0.263886 -0.0211201
l 1245 1246
v -0.00083505 0.00222325 -0.0211201
v -0.906933 -0.420845 -0.0211201
l 1247 1248
v 0.000819344 0.00222909 -0.0211201
v -0.964488 0.263347 -0.0211201
l 1249 1250
v 0 0.0023749 -0.0211201
v -0.995969 -0.0873284 -0.0211201
l 1251 1252
v 0.0011684 0.00206761 -0.0219075
v 0.0011684 0.00206761 0.978092
l 1253 1254
v 0.0011684 0.00206761 -0.0215259
v 0.0011684 0.00206761 0.978474
l 1255 1256
v 0 0.0023749 -0.0219075
v -0.995969 -0.0873284 -0.0219075
l 1257 1258
v -0.000424354 0.00233668 -0.0219075
v -0.964336 -0.263886 -0.0219075
l 1259 1260
v -0.0011684 0.00206761 -0.0219075
v -0.0011684 0.00206761 0.978092
l 1261 1262
v 0 0.0023749 -0.0198374
v -0.995677 -0.0905044 -0.0198374
l 1263 1264
v -0.000439256 0.00233393 -0.0198374
v -0.961758 -0.273104 -0.0198374
l 1265 1266
v -0.00125766 0.00201456 -0.0198374
v -0.796675 -0.604047 -0.0198374
l 1267 1268
v -0.00190397 0.00141952 -0.0198374
v -0.522577 -0.852337 -0.0198374
l 1269 1270
v -0.00228975 0.000630242 -0.0198374
v -0.176969 -0.983995 -0.0198374
l 1271 1272
v -0.00236681 0.000195861 -0.0198374
v 0.00808294 -0.99975 -0.0198374
l 1273 1274
v 0.0023622 -0.000245278 -0.0198374
v 0.012812 0.9997 -0.0198374
l 1275 1276
v 0.00236681 0.000195861 -0.0198374
v -0.172312 0.984821 -0.0198374
l 1277 1278
v 0.00213367 0.00104287 -0.0198374
v -0.518539 0.854799 -0.0198374
l 1279 1280
v 0.00160857 0.00174718 -0.0198374
v -0.793809 0.607809 -0.0198374
l 1281 1282
v 0.000863355 0.00221241 -0.0198374
v -0.960456 0.27765 -0.0198374
l 1283 1284
v 0.000439256 0.00233393 -0.0198374
v -0.995238 0.0952132 -0.0198374
l 1285 1286
v 0.0011684 0.00206761 -0.0219075
v -0.906417 0.421936 -0.0219075
l 1287 1288
v 0.000416109 0.00233816 -0.0219075
v -0.995709 0.0902858 -0.0219075
l 1289 1290
v -0.00083505 0.00222325 -0.0219075
v -0.906933 -0.420845 -0.0219075
l 1291 1292
v -0.0011684 0.00206761 -0.0215259
v -0.0011684 0.00206761 0.978474
l 1293 1294
v 0.000819344 0.00222909 -0.0219075
v -0.964488 0.263347 -0.0219075
l 1295 1296
v -0.000863355 0.00221241 -0.0198374
v -0.894653 -0.446275 -0.0198374
l 1297 1298
v -0.00160857 0.00174718 -0.0198374
v -0.671205 -0.740978 -0.0198374
l 1299 1300
v -0.00213367 0.00104287 -0.0198374
v -0.355912 -0.934286 -0.0198374
l 1301 1302
v 0.00228975 0.000630242 -0.0198374
v -0.351489 0.93596 -0.0198374
l 1303 1304
v 0.00190397 0.00141952 -0.0198374
v -0.667692 0.744145 -0.0198374
l 1305 1306
v 0.00125766 0.00201456 -0.0198374
v -0.892532 0.450502 -0.0198374
l 1307 1308
v -0.0023622 -0.00181492 -0.0227571
v -0.0023622 -0.876105 0.462646
l 1309 1310
v -0.0023622 -0.00218683 -0.0225506
v -0.0023622 -0.817925 0.555871
l 1311 1312
v -0.0023622 -0.00293771 -0.0219493
v -0.0023622 -0.66264 0.729578
l 1313 1314
v -0.0023622 -0.00352903 -0.0211906
v -0.0023622 -0.471367 0.862624
l 1315 1316
v -0.0023622 -0.00392867 -0.0203156
v -0.0023622 -0.254486 0.947786
l 1317 1318
v -0.0023622 -0.00411493 -0.0193719
v -0.0023622 -0.0237806 0.980435
l 1319 1320
v -0.0023622 -0.00407768 -0.0184107
v -0.0023622 0.208218 0.958795
l 1321 1322
v -0.0023622 -0.00381896 -0.0174842
v -0.0023622 0.428906 0.884042
l 1323 1324
v -0.0023622 -0.00335281 -0.0166427
v -0.0023622 0.626292 0.76024
l 1325 1326
v -0.0023622 -0.00270455 -0.015932
v -0.0023622 0.789664 0.59411
l 1327 1328
v -0.0023622 -0.00194451 -0.0154092
v -0.0023622 0.904948 0.405952
l 1329 1330
v 0.0023622 -0.00145519 -0.0151875
v 0.0023622 -0.917127 -0.417114
l 1331 1332
v 0.0023622 -0.00185796 -0.0153643
v 0.0023622 -0.87042 -0.510945
l 1333 1334
v 0.0023622 -0.00261767 -0.0158588
v 0.0023622 -0.737421 -0.694139
l 1335 1336
v 0.0023622 -0.00328574 -0.016552
v 0.0023622 -0.560974 -0.846602
l 1337 1338
v 0.0023622 -0.00377505 -0.0173811
v 0.0023622 -0.354001 -0.954046
l 1339 1340
v 0.0023622 -0.00405897 -0.018301
v 0.0023622 -0.127771 -1.01062
l 1341 1342
v 0.0023622 -0.00412207 -0.0192617
v 0.0023622 0.105407 -1.01325
l 1343 1344
v 0.0023622 -0.0039609 -0.0202108
v 0.0023622 0.332858 -0.96178
l 1345 1346
v 0.0023622 -0.00358424 -0.0210968
v 0.0023622 0.542184 -0.859033
l 1347 1348
v 0.0023622 -0.00301259 -0.0218714
v 0.0023622 0.722025 -0.710581
l 1349 1350
v 0.0023622 -0.00227703 -0.0224926
v 0.0023622 0.860149 -0.528675
l 1351 1352
v 0.0023622 -0.00189552 -0.0227165
v 0.0023622 0.910623 -0.431752
l 1353 1354
v -0.0023622 -0.000797617 -0.0230997
v -0.0023622 -0.974687 0.203923
l 1355 1356
v -0.0023622 -0.00141259 -0.0229282
v -0.0023622 -0.921581 0.368593
l 1357 1358
v -0.0023622 -0.00257985 -0.0222719
v -0.0023622 -0.745367 0.647255
l 1359 1360
v -0.0023622 -0.00325555 -0.0215873
v -0.0023622 -0.57089 0.801693
l 1361 1362
v -0.0023622 -0.00375443 -0.0207648
v -0.0023622 -0.36541 0.911547
l 1363 1364
v -0.0023622 -0.00404939 -0.0198492
v -0.0023622 -0.140086 0.970855
l 1365 1366
v -0.0023622 -0.0041244 -0.0188902
v -0.0023622 0.0928488 0.976397
l 1367 1368
v -0.0023622 -0.0039754 -0.0179399
v -0.0023622 0.320736 0.927873
l 1369 1370
v -0.0023622 -0.00361048 -0.0170498
v -0.0023622 0.53121 0.827916
l 1371 1372
v -0.0023622 -0.00304945 -0.0162684
v -0.0023622 0.712829 0.681956
l 1373 1374
v -0.0023622 -0.0023228 -0.0156381
v -0.0023622 0.85325 0.502045
l 1375 1376
v -0.0023622 -0.00152847 -0.0152159
v -0.0023622 0.945614 0.305597
l 1377 1378
v -0.0023622 -0.00111615 -0.0150763
v -0.0023622 0.971922 0.215567
l 1379 1380
v 0.0023622 -0.000850733 -0.0150111
v 0.0023622 -0.971851 -0.25409
l 1381 1382
v 0.0023622 -0.00112191 -0.0150779
v 0.0023622 -0.951048 -0.327552
l 1383 1384
v 0.0023622 -0.00222763 -0.0155752
v 0.0023622 -0.811117 -0.603537
l 1385 1386
v 0.0023622 -0.00297199 -0.0161858
v 0.0023622 -0.653656 -0.775534
l 1387 1388
v 0.0023622 -0.00355465 -0.0169522
v 0.0023622 -0.460621 -0.906385
l 1389 1390
v 0.0023622 -0.00394392 -0.0178327
v 0.0023622 -0.242544 -0.988951
l 1391 1392
v 0.0023622 -0.00411863 -0.0187795
v 0.0023622 -0.0112591 -1.01875
l 1393 1394
v 0.0023622 -0.00406926 -0.019741
v 0.0023622 0.220636 -0.994168
l 1395 1396
v 0.0023622 -0.0037985 -0.0206648
v 0.0023622 0.440525 -0.916531
l 1397 1398
v 0.0023622 -0.00332108 -0.0215009
v 0.0023622 0.636456 -0.790062
l 1399 1400
v 0.0023622 -0.00266298 -0.0222035
v 0.0023622 0.797749 -0.621654
l 1401 1402
v 0.0023622 -0.00147588 -0.0229046
v 0.0023622 0.949903 -0.330928
l 1403 1404
v 0.0023622 -0.00106339 -0.0230382
v 0.0023622 0.974412 -0.243147
l 1405 1406
v -0.0023622 -0.00107543 -0.0230349
v -0.0023622 -0.95448 0.278658
l 1407 1408
v -0.0023622 -0.000786285 -0.0149981
v -0.0023622 0.98651 0.143891
l 1409 1410
v 0.0023622 -0.00075201 -0.0231084
v 0.0023622 0.987517 -0.175835
l 1411 1412
v 0.0023622 -0.00060077 -0.0149665
v 0.0023622 -0.985005 -0.190886
l 1413 1414
v -0.0023622 -0.000535729 -0.0231426
v -0.0023622 -0.987395 0.13844
l 1415 1416
v 0.0023622 -0.000245278 -0.0149298
v 0.0023622 -0.994967 -0.117538
l 1417 1418
v -0.0023622 -0.000245278 -0.0231702
v -0.0023622 -0.995751 0.0715319
l 1419 1420
v -0.0023622 -0.000524562 -0.014956
v -0.0023622 0.99511 0.0783759
l 1421 1422
v 0.0023622 -0.000508457 -0.0231461
v 0.0023622 0.995307 -0.114529
l 1423 1424
v 0.0023622 -0.000245278 -0.0186563
v 0.0023622 -0.000245278 -1.01866
l 1425 1426
v 0.0023622 -0.000245278 -0.0194437
v 0.0023622 -0.000245278 -1.01944
l 1427 1428
v 0.0023622 -0.000245278 -0.0182626
v 0.0023622 -0.000245278 -1.01826
l 1429 1430
v 0.0023622 -0.000245278 -0.01905
v 0.0023622 -0.000245278 -1.01905
l 1431 1432
v -0.0023622 -0.000245278 -0.0198374
v -0.0023622 -0.000245278 0.980163
l 1433 1434
v -0.0023622 -0.000245278 -0.01905
v -0.0023622 -0.000245278 0.98095
l 1435 1436
v -0.0023622 -0.000245278 -0.0194437
v -0.0023622 -0.000245278 0.980556
l 1437 1438
v -0.0023622 -0.000245278 -0.0186563
v -0.0023622 -0.000245278 0.981344
l 1439 1440
v -0.0023622 -0.000245278 -0.0182626
v -0.012812 0.9997 -0.0182626
l 1441 1442
v -0.00236681 0.000195861 -0.0182626
v 0.172312 0.984821 -0.0182626
l 1443 1444
v -0.00213367 0.00104287 -0.0182626
v 0.518539 0.854799 -0.0182626
l 1445 1446
v -0.00160857 0.00174718 -0.0182626
v 0.793809 0.607809 -0.0182626
l 1447 1448
v -0.000863355 0.00221241 -0.0182626
v 0.960456 0.27765 -0.0182626
l 1449 1450
v -0.000439256 0.00233393 -0.0182626
v 0.995238 0.0952132 -0.0182626
l 1451 1452
v 0 0.0023749 -0.0182626
v 0.995677 -0.0905044 -0.0182626
l 1453 1454
v 0.000439256 0.00233393 -0.0182626
v 0.961758 -0.273104 -0.0182626
l 1455 1456
v 0.00125766 0.00201456 -0.0182626
v 0.796675 -0.604047 -0.0182626
l 1457 1458
v 0.00190397 0.00141952 -0.0182626
v 0.522577 -0.852337 -0.0182626
l 1459 1460
v 0.00228975 0.000630242 -0.0182626
v 0.176969 -0.983995 -0.0182626
l 1461 1462
v 0.00236681 0.000195861 -0.0182626
v -0.00808294 -0.99975 -0.0182626
l 1463 1464
v -0.00228975 0.000630242 -0.0182626
v 0.351489 0.93596 -0.0182626
l 1465 1466
v -0.00190397 0.00141952 -0.0182626
v 0.667692 0.744145 -0.0182626
l 1467 1468
v -0.00125766 0.00201456 -0.0182626
v 0.892532 0.450502 -0.0182626
l 1469 1470
v 0.000863355 0.00221241 -0.0182626
v 0.894653 -0.446275 -0.0182626
l 1471 1472
v 0.00160857 0.00174718 -0.0182626
v 0.671205 -0.740978 -0.0182626
l 1473 1474
v 0.00213367 0.00104287 -0.0182626
v 0.355912 -0.934286 -0.0182626
l 1475 1476
v 0.00289102 0.0247223 -0.0899797
v 0.126044 0.468553 -0.977588
l 1477 1478
v 0.00295114 0.024939 -0.090413
v 0.126107 0.468766 -0.978022
l 1479 1480
v 0.00301127 0.0251557 -0.0908464
v 0.126165 0.468986 -0.978454
l 1481 1482
v 0.00307139 0.0253724 -0.0912797
v 0.126226 0.469194 -0.978892
l 1483 1484
v 0.00313151 0.025589 -0.091713
v 0.126285 0.46942 -0.979321
l 1485 1486
v 0.00319164 0.0258057 -0.0921464
v 0.126346 0.469627 -0.979759
l 1487 1488
v 0.00325176 0.0260224 -0.0925797
v 0.126405 0.469853 -0.980188
l 1489 1490
v 0.00331188 0.0262391 -0.093013
v 0.126468 0.47006 -0.980625
l 1491 1492
v 0.00337201 0.0264557 -0.0934463
v 0.126525 0.470292 -0.981051
l 1493 1494
v 0.00343213 0.0266724 -0.0938797
v 0.126589 0.470494 -0.981492
l 1495 1496
v 0.00349225 0.0268891 -0.094313
v 0.126644 0.47072 -0.981921
l 1497 1498
v 0.00355238 0.0271058 -0.0947463
v 0.126709 0.470927 -0.982358
l 1499 1500
v 0.0036125 0.0273224 -0.0951796
v 0.126764 0.471153 -0.982788
l 1501 1502
v 0.00367262 0.0275391 -0.095613
v 0.126827 0.471354 -0.983228
l 1503 1504
v 0.00373275 0.0277558 -0.0960463
v 0.126888 0.471592 -0.983651
l 1505 1506
v 0.00379287 0.0279725 -0.0964796
v 0.126946 0.471797 -0.98409
l 1507 1508
v 0.0038523 0.0281866 -0.096908
v 0.127006 0.472014 -0.984517
l 1509 1510
v 0.00390358 0.0283714 -0.0972775
v 0.12268 0.50716 -0.967136
l 1511 1512
v -0.00393582 0.0285014 -0.0975137
v 0.114835 -0.450732 0.7721
l 1513 1514
v -0.00390353 0.0283711 -0.0972773
v 0.119248 -0.415835 0.790143
l 1515 1516
v -0.00385222 0.028186 -0.0969075
v 0.119303 -0.416014 0.790515
l 1517 1518
v -0.00379541 0.0279811 -0.0964981
v 0.119361 -0.416252 0.790908
l 1519 1520
v -0.00373569 0.0277657 -0.0960679
v 0.119421 -0.416461 0.791341
l 1521 1522
v -0.00367905 0.0275614 -0.0956597
v 0.119473 -0.416654 0.791756
l 1523 1524
v -0.0036199 0.027348 -0.0952335
v 0.119536 -0.416861 0.792185
l 1525 1526
v -0.00356112 0.027136 -0.0948099
v 0.119595 -0.417091 0.792599
l 1527 1528
v -0.00350407 0.0269303 -0.0943989
v 0.11965 -0.417276 0.793021
l 1529 1530
v -0.00344627 0.0267218 -0.0939824
v 0.11971 -0.417492 0.793433
l 1531 1532
v -0.00338826 0.0265126 -0.0935644
v 0.119766 -0.417719 0.793843
l 1533 1534
v -0.00333135 0.0263072 -0.0931543
v 0.119826 -0.417912 0.794259
l 1535 1536
v -0.0032723 0.0260943 -0.0927288
v 0.119881 -0.418121 0.794686
l 1537 1538
v -0.00321225 0.0258777 -0.0922961
v 0.119943 -0.418333 0.795122
l 1539 1540
v -0.00315232 0.0256615 -0.0918643
v 0.120003 -0.418561 0.795547
l 1541 1542
v -0.00309288 0.0254471 -0.091436
v 0.120062 -0.418768 0.795979
l 1543 1544
v -0.00303509 0.0252386 -0.0910195
v 0.120119 -0.418972 0.796398
l 1545 1546
v -0.00297654 0.0250275 -0.0905977
v 0.12018 -0.419206 0.796808
l 1547 1548
v -0.00291941 0.0248214 -0.090186
v 0.120231 -0.419386 0.797234
l 1549 1550
v -0.00286179 0.0246136 -0.0897708
v 0.120296 -0.419621 0.797634
l 1551 1552
v -0.00237097 0.00314467 -0.00339829
v -0.013515 -0.996792 -0.00505985
l 1553 1554
v -0.00235352 0.00260277 -0.00339472
v 0.150475 -0.985249 0.0247429
l 1555 1556
v -0.00225685 0.00210978 -0.00337714
v 0.326107 -0.940659 0.0546218
l 1557 1558
v -0.00200899 0.00150662 -0.00333481
v 0.524869 -0.844544 0.0778956
l 1559 1560
v -0.00172248 0.00109352 -0.00329235
v 0.685964 -0.719427 0.085793
l 1561 1562
v -0.00132811 0.000725509 -0.00324458
v 0.834367 -0.54256 0.0770978
l 1563 1564
v -0.000835742 0.000448752 -0.00320251
v 0.957012 -0.282963 0.0437525
l 1565 1566
v -0.000415908 0.00032453 -0.00318193
v 0.994941 -0.094488 0.0134058
l 1567 1568
v -0.00231483 0.00235273 -0.0033876
v 0.229626 -0.969476 0.0384695
l 1569 1570
v -0.00237377 0.00289316 -0.0033987
v 0.0671942 -0.99459 0.0102756
l 1571 1572
v -0.00214297 0.00178281 -0.00335702
v 0.433176 -0.895596 0.068822
l 1573 1574
v -0.00187529 0.00129193 -0.00331419
v 0.605984 -0.787986 0.0835674
l 1575 1576
v -0.00153964 0.000901948 -0.00326867
v 0.763473 -0.637196 0.0838286
l 1577 1578
v -0.00109706 0.000575302 -0.00322237
v 0.896822 -0.434263 0.0650156
l 1579 1580
v 1.5875e-11 0.00310015 -0.0106356
v 4.11354e-08 -0.806189 0.576775
l 1581 1582
v 2.52951e-11 0.00291475 -0.010501
v 1.53317e-09 -0.996853 0.0110586
l 1583 1584
v 2.56357e-11 0.00268892 -0.0104961
v -3.83572e-08 -0.833568 -0.558834
l 1585 1586
v 0.0111771 0.003175 -0.0186874
v -0.946597 0.003175 0.268834
l 1587 1588
v 0.0107321 0.003175 -0.0185538
v -0.950505 0.003175 0.25717
l 1589 1590
v 0.00982114 0.003175 -0.0182986
v -0.957966 0.003175 0.233472
l 1591 1592
v 0.00890415 0.003175 -0.0180661
v -0.964835 0.003175 0.209601
l 1593 1594
v 0.00798167 0.003175 -0.0178565
v -0.97111 0.003175 0.185561
l 1595 1596
v 0.00705427 0.003175 -0.0176698
v -0.976787 0.003175 0.161373
l 1597 1598
v 0.00612252 0.003175 -0.0175062
v -0.981861 0.003175 0.137054
l 1599 1600
v 0.00518699 0.003175 -0.0173658
v -0.98633 0.003175 0.112611
l 1601 1602
v 0.00424827 0.003175 -0.0172487
v -0.990187 0.003175 0.0880966
l 1603 1604
v 0.00330693 0.003175 -0.0171549
v -0.993439 0.003175 0.063457
l 1605 1606
v 0.00236355 0.003175 -0.0170844
v -0.996076 0.003175 0.0387504
l 1607 1608
v 0.00141871 0.003175 -0.0170375
v -0.9981 0.003175 0.0139967
l 1609 1610
v 0.000473002 0.003175 -0.017014
v -0.999508 0.003175 -0.0108198
l 1611 1612
v -0.000491334 0.003175 -0.0170142
v -1.0003 0.003175 -0.0363479
l 1613 1614
v -0.00147368 0.003175 -0.0170396
v -1.00046 0.003175 -0.0621591
l 1615 1616
v -0.00245504 0.003175 -0.0170902
v -0.999941 0.003175 -0.0879576
l 1617 1618
v -0.00343476 0.003175 -0.0171662
v -0.998761 0.003175 -0.113736
l 1619 1620
v -0.00441221 0.003175 -0.0172674
v -0.996916 0.003175 -0.139483
l 1621 1622
v -0.00538672 0.003175 -0.0173938
v -0.99441 0.003175 -0.165152
l 1623 1624
v -0.00635764 0.003175 -0.0175452
v -0.991237 0.003175 -0.190786
l 1625 1626
v -0.00732434 0.003175 -0.0177217
v -0.987414 0.003175 -0.216279
l 1627 1628
v -0.00828616 0.003175 -0.017923
v -0.982927 0.003175 -0.241698
l 1629 1630
v -0.00924247 0.003175 -0.0181491
v -0.977785 0.003175 -0.266996
l 1631 1632
v -0.0101926 0.003175 -0.0183998
v -0.972002 0.003175 -0.292119
l 1633 1634
v -0.0106652 0.003175 -0.0185343
v -0.968862 0.003175 -0.304643
l 1635 1636
v -0.011136 0.003175 -0.0186748
v -0.9658 0.003175 -0.316362
l 1637 1638
v 0.0115472 0.003175 -0.018803
v -0.942953 0.003175 0.279408
l 1639 1640
v 0.0102774 0.003175 -0.0184234
v -0.954306 0.003175 0.245356
l 1641 1642
v 0.00936337 0.003175 -0.0181795
v -0.961478 0.003175 0.221542
l 1643 1644
v 0.00844356 0.003175 -0.0179585
v -0.968047 0.003175 0.1976
l 1645 1646
v 0.00751855 0.003175 -0.0177603
v -0.974024 0.003175 0.173485
l 1647 1648
v 0.0065889 0.003175 -0.0175851
v -0.979397 0.003175 0.149242
l 1649 1650
v 0.00565519 0.003175 -0.0174331
v -0.984168 0.003175 0.124869
l 1651 1652
v 0.004718 0.003175 -0.0173043
v -0.988335 0.003175 0.100366
l 1653 1654
v 0.00377789 0.003175 -0.0171988
v -0.99189 0.003175 0.0757816
l 1655 1656
v 0.00283546 0.003175 -0.0171167
v -0.994835 0.003175 0.0511065
l 1657 1658
v 0.00189128 0.003175 -0.017058
v -0.997165 0.003175 0.0263842
l 1659 1660
v 0.00094593 0.003175 -0.0170228
v -0.998881 0.003175 0.00160322
l 1661 1662
v 0 0.003175 -0.0170111
v -0.999979 0.003175 -0.0234632
l 1663 1664
v -0.000982587 0.003175 -0.0170237
v -1.00046 0.003175 -0.0492617
l 1665 1666
v -0.00196452 0.003175 -0.0170617
v -1.00028 0.003175 -0.0750665
l 1667 1668
v -0.00294515 0.003175 -0.0171251
v -0.999434 0.003175 -0.100855
l 1669 1670
v -0.00392381 0.003175 -0.0172137
v -0.997922 0.003175 -0.126608
l 1671 1672
v -0.00489987 0.003175 -0.0173275
v -0.995746 0.003175 -0.152326
l 1673 1674
v -0.00587267 0.003175 -0.0174664
v -0.992909 0.003175 -0.177963
l 1675 1676
v -0.00684156 0.003175 -0.0176304
v -0.98941 0.003175 -0.20353
l 1677 1678
v -0.0078059 0.003175 -0.0178193
v -0.98525 0.003175 -0.229014
l 1679 1680
v -0.00876504 0.003175 -0.018033
v -0.980443 0.003175 -0.254344
l 1681 1682
v -0.00971836 0.003175 -0.0182714
v -0.974974 0.003175 -0.279577
l 1683 1684
v -0.00237097 0.00314467 -0.00339829
v -0.107993 0.997347 -0.0235364
l 1685 1686
v -0.00240111 0.0034284 -0.00340403
v -0.317843 0.950348 -0.0653743
l 1687 1688
v -0.0122967 0.00443317 -0.01905
v -0.0122967 1.00443 -0.01905
l 1689 1690
v -0.0122967 0.00537472 -0.01905
v -0.0122967 1.00537 -0.01905
l 1691 1692
v -0.0122967 0.00631626 -0.01905
v -0.0122967 1.00632 -0.01905
l 1693 1694
v -0.0122967 0.0072578 -0.01905
v -0.0122967 1.00726 -0.01905
l 1695 1696
v -0.0122967 0.00819935 -0.01905
v -0.0122967 1.0082 -0.01905
l 1697 1698
v -0.0122967 0.00914089 -0.01905
v -0.0122967 1.00914 -0.01905
l 1699 1700
v -0.0122967 0.0100824 -0.01905
v -0.0122967 1.01008 -0.01905
l 1701 1702
v -0.0122967 0.011024 -0.01905
v -0.0122967 1.01102 -0.01905
l 1703 1704
v -0.0122967 0.0119655 -0.01905
v -0.0122967 1.01197 -0.01905
l 1705 1706
v -0.0122967 0.0129071 -0.01905
v -0.0122967 1.01291 -0.01905
l 1707 1708
v -0.0122967 0.0138486 -0.01905
v -0.0122967 1.01385 -0.01905
l 1709 1710
v -0.0122872 0.0147248 -0.019087
v 0.0594746 0.975386 -0.287378
l 1711 1712
v -0.0122536 0.015175 -0.0192127
v 0.112386 0.902918 -0.462358
l 1713 1714
v -0.0121951 0.0155912 -0.0194205
v 0.17017 0.793969 -0.620145
l 1715 1716
v -0.0121096 0.0159561 -0.0197021
v 0.22954 0.656733 -0.748407
l 1717 1718
v -0.0119963 0.0162566 -0.0200438
v 0.290409 0.491074 -0.846542
l 1719 1720
v -0.0118545 0.0164792 -0.0204313
v 0.346837 0.309712 -0.906634
l 1721 1722
v -0.0116864 0.0166167 -0.0208468
v 0.394674 0.114178 -0.929336
l 1723 1724
v -0.0114959 0.0166624 -0.0212727
v 0.430739 0.0166624 -0.918172
l 1725 1726
v -0.0111348 0.0166624 -0.0219828
v 0.479216 0.0166624 -0.893508
l 1727 1728
v -0.0108617 0.0166624 -0.0224562
v 0.517668 0.0166624 -0.871371
l 1729 1730
v -0.0104349 0.0166624 -0.023114
v 0.575473 0.0166624 -0.833491
l 1731 1732
v -0.0101448 0.0166624 -0.0235152
v 0.603063 0.0166624 -0.813437
l 1733 1734
v -0.00974408 0.0166624 -0.0240201
v 0.639818 0.0166624 -0.784328
l 1735 1736
v -0.00938458 0.0166624 -0.0244319
v 0.675196 0.0166624 -0.753369
l 1737 1738
v -0.00878068 0.0166624 -0.0250505
v 0.725383 0.0166624 -0.704023
l 1739 1740
v -0.00824672 0.0166624 -0.0255332
v 0.75918 0.0166624 -0.66667
l 1741 1742
v -0.0078235 0.0166624 -0.0258791
v 0.78819 0.0166624 -0.631158
l 1743 1744
v -0.00715816 0.0166624 -0.0263655
v 0.82867 0.0166624 -0.575356
l 1745 1746
v -0.00653832 0.0166624 -0.0267626
v 0.856242 0.0166624 -0.532342
l 1747 1748
v -0.00606379 0.0166624 -0.0270339
v 0.878826 0.0166624 -0.492834
l 1749 1750
v -0.00535372 0.0166624 -0.0273914
v 0.909521 0.0166624 -0.43113
l 1751 1752
v -0.00460512 0.0166624 -0.0277107
v 0.931181 0.0166624 -0.380278
l 1753 1754
v -0.00409159 0.0166624 -0.0278978
v 0.946414 0.0166624 -0.338605
l 1755 1756
v -0.00335092 0.0166624 -0.028125
v 0.966189 0.0166624 -0.27306
l 1757 1758
v -0.00286916 0.0166624 -0.0282467
v 0.975044 0.0166624 -0.237259
l 1759 1760
v -0.00216184 0.0166624 -0.0283896
v 0.985019 0.0166624 -0.187994
l 1761 1762
v -0.0015149 0.0166624 -0.0284843
v 0.993455 0.0166624 -0.128659
l 1763 1764
v -0.00102941 0.0166624 -0.0285332
v 0.996925 0.0166624 -0.092458
l 1765 1766
v -0.000260905 0.0166624 -0.0285723
v 0.999691 0.0166624 -0.0383453
l 1767 1768
v 0.000285682 0.0166624 -0.0285718
v 0.999672 0.0166624 0.00646997
l 1769 1770
v 0.00103074 0.0166624 -0.0285331
v 0.995964 0.0166624 0.0720002
l 1771 1772
v 0.00191553 0.0166624 -0.0284297
v 0.988791 0.0166624 0.133055
l 1773 1774
v 0.00245496 0.0166624 -0.0283355
v 0.980236 0.0166624 0.181294
l 1775 1776
v 0.00286929 0.0166624 -0.0282466
v 0.972406 0.0166624 0.216698
l 1777 1778
v 0.00335092 0.0166624 -0.028125
v 0.962775 0.0166624 0.253841
l 1779 1780
v 0.00411504 0.0166624 -0.0278898
v 0.946628 0.0166624 0.30628
l 1781 1782
v 0.00462821 0.0166624 -0.0277016
v 0.931506 0.0166624 0.347662
l 1783 1784
v 0.00535372 0.0166624 -0.0273914
v 0.904208 0.0166624 0.410857
l 1785 1786
v 0.00608556 0.0166624 -0.027022
v 0.878592 0.0166624 0.461581
l 1787 1788
v 0.00655956 0.0166624 -0.0267498
v 0.857183 0.0166624 0.499025
l 1789 1790
v 0.00715816 0.0166624 -0.0263655
v 0.822168 0.0166624 0.553082
l 1791 1792
v 0.00755731 0.0166624 -0.0260817
v 0.802728 0.0166624 0.580304
l 1793 1794
v 0.00805615 0.0166624 -0.0256928
v 0.77425 0.0166624 0.616917
l 1795 1796
v 0.00847487 0.0166624 -0.0253337
v 0.742192 0.0166624 0.654121
l 1797 1798
v 0.00913103 0.0166624 -0.0247019
v 0.692888 0.0166624 0.705008
l 1799 1800
v 0.00958283 0.0166624 -0.0242092
v 0.657675 0.0166624 0.737353
l 1801 1802
v 0.00993256 0.0166624 -0.0237892
v 0.62216 0.0166624 0.766892
l 1803 1804
v 0.0104349 0.0166624 -0.023114
v 0.564591 0.0166624 0.809299
l 1805 1806
v 0.0108745 0.0166624 -0.0224351
v 0.518174 0.0166624 0.839335
l 1807 1808
v 0.0111467 0.0166624 -0.0219611
v 0.480067 0.0166624 0.861279
l 1809 1810
v 0.0114959 0.0166624 -0.0212727
v 0.420065 -0.0701278 0.887319
l 1811 1812
v 0.0118203 0.0165165 -0.0205195
v 0.329993 -0.41045 0.825924
l 1813 1814
v 0.0119534 0.0163378 -0.0201654
v 0.276627 -0.564487 0.749634
l 1815 1816
v 0.0121523 0.015796 -0.0195645
v 0.170606 -0.81091 0.520296
l 1817 1818
v 0.012264 0.0150683 -0.0191743
v 0.0743946 -0.955132 0.215031
l 1819 1820
v 0.0122896 0.0146679 -0.0190777
v 0.031568 -0.982324 0.0559958
l 1821 1822
v 0.0122967 0.0138413 -0.01905
v 0.0122967 -0.986159 -0.01905
l 1823 1824
v 0.0122967 0.0128854 -0.01905
v 0.0122967 -0.987115 -0.01905
l 1825 1826
v 0.0122967 0.0119296 -0.01905
v 0.0122967 -0.98807 -0.01905
l 1827 1828
v 0.0122967 0.0109738 -0.01905
v 0.0122967 -0.989026 -0.01905
l 1829 1830
v 0.0122967 0.010018 -0.01905
v 0.0122967 -0.989982 -0.01905
l 1831 1832
v 0.0122967 0.00906213 -0.01905
v 0.0122967 -0.990938 -0.01905
l 1833 1834
v 0.0122967 0.0081063 -0.01905
v 0.0122967 -0.991894 -0.01905
l 1835 1836
v 0.0122967 0.00715048 -0.01905
v 0.0122967 -0.99285 -0.01905
l 1837 1838
v 0.0122967 0.00619465 -0.01905
v 0.0122967 -0.993805 -0.01905
l 1839 1840
v 0.0122967 0.00523882 -0.01905
v 0.0122967 -0.994761 -0.01905
l 1841 1842
v 0.0024011 0.00342841 -0.00340405
v -0.103192 -0.990776 0.0167791
l 1843 1844
v 0.00237097 0.00314467 -0.00339829
v -0.010816 -0.996765 -0.000732347
l 1845 1846
v 0.00236542 0.00272384 -0.00339716
v -0.13931 -0.986837 0.0230232
l 1847 1848
v 0.00223049 0.00202167 -0.0033724
v -0.340068 -0.935663 0.0564585
l 1849 1850
v 0.00202811 0.00154063 -0.00333798
v -0.517107 -0.849312 0.0775829
l 1851 1852
v 0.00172684 0.00109845 -0.00329295
v -0.680722 -0.724412 0.0855764
l 1853 1854
v 0.00135828 0.000747181 -0.00324784
v -0.830718 -0.547984 0.0776378
l 1855 1856
v 0.000871434 0.00046333 -0.00320493
v -0.937851 -0.339706 0.0523332
l 1857 1858
v 0.000361253 0.000313963 -0.00318014
v -0.996321 -0.0798329 0.0109982
l 1859 1860
v -0.0122967 0.0039624 -0.01905
v -0.0122967 1.00396 -0.01905
l 1861 1862
v -0.0122967 0.00490394 -0.01905
v -0.0122967 1.0049 -0.01905
l 1863 1864
v -0.0122967 0.00584549 -0.01905
v -0.0122967 1.00585 -0.01905
l 1865 1866
v -0.0122967 0.00678703 -0.01905
v -0.0122967 1.00679 -0.01905
l 1867 1868
v -0.0122967 0.00772857 -0.01905
v -0.0122967 1.00773 -0.01905
l 1869 1870
v -0.0122967 0.00867012 -0.01905
v -0.0122967 1.00867 -0.01905
l 1871 1872
v -0.0122967 0.00961166 -0.01905
v -0.0122967 1.00961 -0.01905
l 1873 1874
v -0.0122967 0.0105532 -0.01905
v -0.0122967 1.01055 -0.01905
l 1875 1876
v -0.0122967 0.0114948 -0.01905
v -0.0122967 1.01149 -0.01905
l 1877 1878
v -0.0122967 0.0124363 -0.01905
v -0.0122967 1.01244 -0.01905
l 1879 1880
v -0.0122967 0.0133778 -0.01905
v -0.0122967 1.01338 -0.01905
l 1881 1882
v -0.0122967 0.0143002 -0.01905
v 0.0100587 1.01028 -0.10582
l 1883 1884
v -0.0112813 0.0166624 -0.0217078
v 0.458829 0.0166624 -0.904315
l 1885 1886
v -0.0110008 0.0166624 -0.022221
v 0.49797 0.0166624 -0.883005
l 1887 1888
v -0.010699 0.0166624 -0.0227176
v 0.543799 0.0166624 -0.854903
l 1889 1890
v -0.0099171 0.0166624 -0.0238086
v 0.623139 0.0166624 -0.797914
l 1891 1892
v -0.00956654 0.0166624 -0.0242279
v 0.656212 0.0166624 -0.770377
l 1893 1894
v -0.00912851 0.0166624 -0.0247045
v 0.699864 0.0166624 -0.729921
l 1895 1896
v -0.00846251 0.0166624 -0.0253447
v 0.744665 0.0166624 -0.68322
l 1897 1898
v -0.00803697 0.0166624 -0.0257085
v 0.773023 0.0166624 -0.650165
l 1899 1900
v -0.00754919 0.0166624 -0.0260877
v 0.807685 0.0166624 -0.60522
l 1901 1902
v -0.00678384 0.0166624 -0.0266114
v 0.844618 0.0166624 -0.551125
l 1903 1904
v -0.00630252 0.0166624 -0.0269008
v 0.867164 0.0166624 -0.513785
l 1905 1906
v -0.00576666 0.0166624 -0.0271903
v 0.893263 0.0166624 -0.465079
l 1907 1908
v -0.00489911 0.0166624 -0.027592
v 0.922448 0.0166624 -0.401794
l 1909 1910
v -0.00434936 0.0166624 -0.027807
v 0.938812 0.0166624 -0.360142
l 1911 1912
v -0.00379993 0.0166624 -0.0279932
v 0.955738 0.0166624 -0.309574
l 1913 1914
v -0.00243904 0.0166624 -0.0283386
v 0.981016 0.0166624 -0.209489
l 1915 1916
v -0.00189204 0.0166624 -0.0284333
v 0.989067 0.0166624 -0.162595
l 1917 1918
v -0.000593987 0.0166624 -0.0285611
v 0.998839 0.0166624 -0.0622235
l 1919 1920
v 1.23914e-05 0.0166624 -0.028575
v 0.999944 0.0166624 -0.0168665
l 1921 1922
v 0.000604257 0.0166624 -0.0285606
v 0.998529 0.0166624 0.0358339
l 1923 1924
v 0.0015225 0.0166624 -0.0284834
v 0.992317 0.0166624 0.10689
l 1925 1926
v 0.00218626 0.0166624 -0.0283854
v 0.985344 0.0166624 0.154375
l 1927 1928
v 0.00380974 0.0166624 -0.0279901
v 0.953883 0.0166624 0.284038
l 1929 1930
v 0.00437264 0.0166624 -0.0277985
v 0.939469 0.0166624 0.326594
l 1931 1932
v 0.00490551 0.0166624 -0.0275893
v 0.919671 0.0166624 0.376396
l 1933 1934
v 0.00577581 0.0166624 -0.0271856
v 0.890027 0.0166624 0.439827
l 1935 1936
v 0.00632402 0.0166624 -0.0268885
v 0.868116 0.0166624 0.480374
l 1937 1938
v 0.00679441 0.0166624 -0.0266047
v 0.842357 0.0166624 0.52279
l 1939 1940
v 0.00784301 0.0166624 -0.0258639
v 0.78767 0.0166624 0.600132
l 1941 1942
v 0.00826555 0.0166624 -0.0255171
v 0.760319 0.0166624 0.633585
l 1943 1944
v 0.00878087 0.0166624 -0.0250503
v 0.717665 0.0166624 0.680274
l 1945 1946
v 0.00940126 0.0166624 -0.0244135
v 0.67371 0.0166624 0.723045
l 1947 1948
v 0.00975995 0.0166624 -0.0240011
v 0.6413 0.0166624 0.751342
l 1949 1950
v 0.0101491 0.0166624 -0.0235096
v 0.595826 0.0166624 0.787035
l 1951 1952
v 0.0107045 0.0166624 -0.022709
v 0.538075 0.0166624 0.826927
l 1953 1954
v 0.0110132 0.0166624 -0.0221995
v 0.499622 0.0166624 0.850303
l 1955 1956
v 0.011286 0.0166624 -0.0216987
v 0.453152 0.0166624 0.875382
l 1957 1958
v 0.0116667 0.0166261 -0.0208927
v 0.378802 -0.245592 0.87155
l 1959 1960
v 0.0120641 0.0160949 -0.0198435
v 0.223033 -0.698569 0.647051
l 1961 1962
v 0.0122186 0.0154503 -0.0193387
v 0.120746 -0.897663 0.373657
l 1963 1964
v 0.0122967 0.0143002 -0.01905
v 0.0122967 -0.9857 -0.01905
l 1965 1966
v 0.0122967 0.0133634 -0.01905
v 0.0122967 -0.986637 -0.01905
l 1967 1968
v 0.0122967 0.0124075 -0.01905
v 0.0122967 -0.987592 -0.01905
l 1969 1970
v 0.0122967 0.0114517 -0.01905
v 0.0122967 -0.988548 -0.01905
l 1971 1972
v 0.0122967 0.0104959 -0.01905
v 0.0122967 -0.989504 -0.01905
l 1973 1974
v 0.0122967 0.00954005 -0.01905
v 0.0122967 -0.99046 -0.01905
l 1975 1976
v 0.0122967 0.00858422 -0.01905
v 0.0122967 -0.991416 -0.01905
l 1977 1978
v 0.0122967 0.00762839 -0.01905
v 0.0122967 -0.992372 -0.01905
l 1979 1980
v 0.0122967 0.00667256 -0.01905
v 0.0122967 -0.993327 -0.01905
l 1981 1982
v 0.0122967 0.00571673 -0.01905
v 0.0122967 -0.994283 -0.01905
l 1983 1984
v 0.0122967 0.00431336 -0.01905
v 0.0122967 -0.995687 -0.01905
l 1985 1986
v 0.0122967 0.00476091 -0.01905
v 0.0122967 -0.995239 -0.01905
l 1987 1988
v 0.00230589 0.00230807 -0.00338606
v -0.252021 -0.963712 0.0426838
l 1989 1990
v 0.0021429 0.00178173 -0.00335709
v -0.426646 -0.898798 0.0680321
l 1991 1992
v 0.00188369 0.00130393 -0.00331547
v -0.602574 -0.790591 0.0834813
l 1993 1994
v 0.00155298 0.000913611 -0.00327031
v -0.755663 -0.646381 0.0840993
l 1995 1996
v 0.00109913 0.000576279 -0.00322265
v -0.892573 -0.442724 0.0663176
l 1997 1998
v 0.000628582 0.000375327 -0.00319056
v -0.97332 -0.22319 0.0347938
l 1999 2000
v 0.00268335 0.00349681 -0.00361768
v -0.780189 -0.186238 0.588929
l 2001 2002
v -0.0122967 0.0039624 -0.01905
v 0.241688 -0.959393 0.0671916
l 2003 2004
v -0.011899 0.00326676 -0.0189168
v 0.911553 -0.237572 0.279801
l 2005 2006
v -0.0121897 0.00355636 -0.0190137
v 0.677311 -0.683363 0.210617
l 2007 2008
v 0.0122967 0.0039624 -0.01905
v -0.171557 -0.976972 0.0439291
l 2009 2010
v 0.0122406 0.00366303 -0.0190308
v -0.511365 -0.829937 0.156888
l 2011 2012
v 0.0120815 0.00340975 -0.0189773
v -0.755721 -0.58382 0.237226
l 2013 2014
v 0.0118837 0.00325848 -0.0189113
v -0.914581 -0.226519 0.279193
l 2015 2016
v 0.00118559 0.0247023 -0.0853385
v 0.810765 -0.500173 -0.348184
l 2017 2018
v 0 0.0294986 -0.0969848
v -0.999935 0.0209602 -0.104581
l 2019 2020
v -0.000494169 0.0294892 -0.0969906
v -0.998848 -0.0210859 -0.12406
l 2021 2022
v -0.000987255 0.0294588 -0.0970068
v -0.995214 -0.065218 -0.147499
l 2023 2024
v -0.00147793 0.0294063 -0.0970348
v -0.988462 -0.112568 -0.172578
l 2025 2026
v -0.00196459 0.02933 -0.0970754
v -0.977839 -0.163546 -0.199388
l 2027 2028
v -0.00244494 0.0292272 -0.0971298
v -0.959936 -0.225874 -0.231791
l 2029 2030
v -0.00291509 0.0290925 -0.0972008
v -0.930887 -0.300926 -0.270278
l 2031 2032
v -0.00336764 0.0289169 -0.0972927
v -0.871687 -0.411152 -0.326117
l 2033 2034
v -0.0035822 0.0288082 -0.0973492
v -0.810747 -0.49569 -0.368251
l 2035 2036
v -0.0037815 0.0286787 -0.0974161
v -0.610363 -0.672015 -0.473031
l 2037 2038
v -0.00393584 0.0285004 -0.0975117
v 0.585903 -0.703128 -0.439285
l 2039 2040
v -0.00378651 0.0283152 -0.0975982
v 0.80239 -0.504014 -0.355871
l 2041 2042
v -0.00358709 0.0281835 -0.0976621
v 0.86377 -0.420156 -0.313725
l 2043 2044
v -0.00337237 0.0280725 -0.0977156
v 0.898504 -0.361433 -0.284546
l 2045 2046
v -0.00291952 0.0278924 -0.0978018
v 0.941677 -0.26851 -0.238808
l 2047 2048
v -0.00244869 0.0277541 -0.0978675
v 0.963701 -0.205397 -0.208297
l 2049 2050
v -0.00196842 0.0276451 -0.0979191
v 0.979137 -0.147343 -0.180456
l 2051 2052
v -0.00148109 0.0275658 -0.0979565
v 0.989988 -0.0904451 -0.153291
l 2053 2054
v -0.000989275 0.0275136 -0.0979809
v 0.99608 -0.041827 -0.130297
l 2055 2056
v -0.00049511 0.0274846 -0.0979944
v 0.999042 -9.94506e-05 -0.110812
l 2057 2058
v 0 0.0274753 -0.097998
v 0.999936 0.0385652 -0.0957154
l 2059 2060
v 0.000495995 0.0274856 -0.0979939
v 0.998866 0.0792037 -0.0738468
l 2061 2062
v 0.000990909 0.0275168 -0.0979793
v 0.995216 0.124661 -0.0523879
l 2063 2064
v 0.00148338 0.027571 -0.0979539
v 0.988313 0.173942 -0.0290856
l 2065 2066
v 0.00197171 0.0276501 -0.0979167
v 0.977311 0.227228 -0.00366892
l 2067 2068
v 0.00245358 0.0277566 -0.0978663
v 0.959487 0.289751 0.0264179
l 2069 2070
v 0.00292523 0.0278953 -0.0978004
v 0.930166 0.365815 0.0635562
l 2071 2072
v 0.00337894 0.0280757 -0.0977141
v 0.868622 0.479676 0.120027
l 2073 2074
v 0.00359353 0.0281877 -0.0976601
v 0.804531 0.566791 0.163885
l 2075 2076
v 0.00379201 0.0283211 -0.0975953
v 0.591754 0.762202 0.242581
l 2077 2078
v 0.00393625 0.0285012 -0.0975118
v -0.599617 0.730395 0.280733
l 2079 2080
v 0.00378283 0.0286796 -0.0974157
v -0.805523 0.550512 0.172242
l 2081 2082
v 0.00358296 0.0288085 -0.0973491
v -0.86599 0.466911 0.130486
l 2083 2084
v 0.00336804 0.0289167 -0.0972928
v -0.898155 0.412496 0.103013
l 2085 2086
v 0.00291616 0.0290939 -0.0972001
v -0.941996 0.318747 0.0552522
l 2087 2088
v 0.00244567 0.0292279 -0.0971294
v -0.96621 0.248759 0.019116
l 2089 2090
v 0.00196499 0.0293299 -0.0970754
v -0.98004 0.196109 -0.00846788
l 2091 2092
v 0.00147824 0.0294062 -0.0970348
v -0.989558 0.147316 -0.0342258
l 2093 2094
v 0.000987458 0.0294588 -0.0970068
v -0.995656 0.10167 -0.0584296
l 2095 2096
v 0.00049427 0.0294891 -0.0969906
v -0.998935 0.0592658 -0.0810474
l 2097 2098
v 0.000247198 0.0294965 -0.0969866
v -0.999688 0.0380331 -0.0893918
l 2099 2100
v -0.000247147 0.0294965 -0.0969866
v -0.999678 -0.000241063 -0.112933
l 2101 2102
v -0.000740924 0.0294767 -0.0969973
v -0.997386 -0.0427048 -0.135582
l 2103 2104
v -0.00123299 0.0294354 -0.0970193
v -0.992268 -0.0884609 -0.159871
l 2105 2106
v -0.00172188 0.0293712 -0.0970535
v -0.983738 -0.137361 -0.18562
l 2107 2108
v -0.00220578 0.0292823 -0.0971007
v -0.969839 -0.19378 -0.215121
l 2109 2110
v -0.00268158 0.0291641 -0.0971631
v -0.947487 -0.260743 -0.249793
l 2111 2112
v -0.00314443 0.0290109 -0.0972436
v -0.906409 -0.351299 -0.295935
l 2113 2114
v -0.00314909 0.0279761 -0.0977619
v 0.924064 -0.310005 -0.259146
l 2115 2116
v -0.00268564 0.027819 -0.0978367
v 0.954282 -0.234362 -0.222229
l 2117 2118
v -0.00220946 0.0276964 -0.0978949
v 0.971241 -0.179203 -0.195808
l 2119 2120
v -0.00172549 0.0276018 -0.0979396
v 0.985292 -0.117748 -0.166274
l 2121 2122
v -0.00123559 0.0275366 -0.0979702
v 0.993509 -0.0652286 -0.141299
l 2123 2124
v -0.000742385 0.0274964 -0.0979889
v 0.997877 -0.0201573 -0.120104
l 2125 2126
v -0.000247607 0.0274778 -0.0979976
v 0.9997 0.017383 -0.0997427
l 2127 2128
v 0.00024806 0.0274781 -0.0979974
v 0.999687 0.0578271 -0.0838215
l 2129 2130
v 0.000743664 0.0274984 -0.0979879
v 0.997404 0.101472 -0.063389
l 2131 2132
v 0.00123755 0.0275409 -0.097968
v 0.992214 0.148878 -0.0410238
l 2133 2134
v 0.00172819 0.0276073 -0.0979368
v 0.9834 0.200018 -0.0167246
l 2135 2136
v 0.00221366 0.0276996 -0.0978933
v 0.969355 0.257517 0.0108322
l 2137 2138
v 0.00269098 0.0278216 -0.0978355
v 0.946995 0.324963 0.0435719
l 2139 2140
v 0.00315523 0.0279791 -0.0977604
v 0.905141 0.417295 0.0889368
l 2141 2142
v 0.00314521 0.0290115 -0.0972432
v -0.923479 0.361997 0.0773651
l 2143 2144
v 0.00268259 0.0291655 -0.0971624
v -0.955707 0.281591 0.0361447
l 2145 2146
v 0.00220621 0.0292821 -0.0971007
v -0.973568 0.222564 0.00540218
l 2147 2148
v 0.00172223 0.0293711 -0.0970535
v -0.985267 0.171317 -0.0215261
l 2149 2150
v 0.00123324 0.0294354 -0.0970193
v -0.992992 0.12413 -0.0465373
l 2151 2152
v 0.000741076 0.0294766 -0.0969973
v -0.997614 0.0800338 -0.0699631
l 2153 2154
v 0.00393582 0.0285014 -0.0975137
v -0.582079 -0.704884 -0.442089
l 2155 2156
v 0.00359078 0.0281825 -0.0976637
v -0.863589 -0.421934 -0.310724
l 2157 2158
v 0.00315397 0.0279761 -0.0977615
v -0.92499 -0.308378 -0.257182
l 2159 2160
v 0.00268361 0.0278175 -0.0978366
v -0.955472 -0.230969 -0.220176
l 2161 2162
v 0.00220837 0.0276978 -0.0978932
v -0.973697 -0.169791 -0.190665
l 2163 2164
v 0.0017251 0.027607 -0.0979358
v -0.985397 -0.117287 -0.165729
l 2165 2166
v 0.00123701 0.0275415 -0.0979664
v -0.992971 -0.0698507 -0.143413
l 2167 2168
v 0.000739615 0.0274985 -0.0979865
v -0.99755 -0.0255121 -0.122657
l 2169 2170
v 0.000246718 0.0274776 -0.0979962
v -0.999686 0.0169767 -0.102858
l 2171 2172
v -0.000246732 0.0274775 -0.0979962
v -0.999679 0.0580351 -0.0838045
l 2173 2174
v -0.00073968 0.0274979 -0.0979868
v -0.997376 0.10177 -0.063362
l 2175 2176
v -0.00123484 0.0275405 -0.0979669
v -0.992243 0.14876 -0.0413201
l 2177 2178
v -0.00172289 0.0276064 -0.0979361
v -0.983731 0.198598 -0.0177961
l 2179 2180
v -0.00220559 0.0276972 -0.0978934
v -0.970662 0.253103 0.00833078
l 2181 2182
v -0.00268149 0.0278169 -0.0978369
v -0.947258 0.324516 0.0426801
l 2183 2184
v -0.00315176 0.027977 -0.0977611
v -0.904595 0.419144 0.0876807
l 2185 2186
v -0.00358759 0.0281852 -0.0976624
v -0.80655 0.567261 0.1566
l 2187 2188
v -0.00378556 0.0283181 -0.0975998
v -0.599663 0.755193 0.243844
l 2189 2190
v 0.00378799 0.0283164 -0.0976006
v -0.795928 -0.514687 -0.353727
l 2191 2192
v 0.00337693 0.0280715 -0.0977163
v -0.900506 -0.35847 -0.280967
l 2193 2194
v 0.00291674 0.0278902 -0.0978022
v -0.942488 -0.266644 -0.237301
l 2195 2196
v 0.00244717 0.0277537 -0.0978668
v -0.965645 -0.198909 -0.204734
l 2197 2198
v 0.00196886 0.0276493 -0.0979159
v -0.980121 -0.142936 -0.177914
l 2199 2200
v 0.00148155 0.0275712 -0.0979525
v -0.98964 -0.0928846 -0.15424
l 2201 2202
v 0.000991701 0.0275175 -0.0979776
v -0.995575 -0.0475171 -0.132969
l 2203 2204
v 0.000493303 0.0274854 -0.0979926
v -0.9989 -0.00408533 -0.112698
l 2205 2206
v 0 0.027475 -0.0979974
v -0.999939 0.0374847 -0.0933473
l 2207 2208
v -0.000493339 0.027485 -0.0979927
v -0.99885 0.0794436 -0.0738365
l 2209 2210
v -0.000989522 0.0275165 -0.0979781
v -0.995192 0.12495 -0.0525036
l 2211 2212
v -0.00147936 0.0275704 -0.0979529
v -0.988443 0.173302 -0.0296504
l 2213 2214
v -0.00196519 0.0276486 -0.0979163
v -0.977865 0.225142 -0.00509397
l 2215 2216
v -0.00244504 0.027753 -0.0978672
v -0.960545 0.286709 0.0245504
l 2217 2218
v -0.00291489 0.0278902 -0.0978022
v -0.929648 0.367399 0.0631276
l 2219 2220
v -0.00337403 0.0280734 -0.0977154
v -0.868735 0.481023 0.116732
l 2221 2222
v -0.00393582 0.0285014 -0.0975137
v 0.606114 0.727454 0.275721
l 2223 2224
v -0.00377949 0.0286805 -0.097418
v 0.799541 0.554811 0.181621
l 2225 2226
v -0.00336443 0.0289198 -0.0972913
v 0.901076 0.406161 0.1019
l 2227 2228
v -0.00291249 0.029094 -0.0971993
v 0.942243 0.31788 0.0553932
l 2229 2230
v -0.00244324 0.0292277 -0.0971286
v 0.965673 0.250506 0.0202879
l 2231 2232
v -0.00196517 0.0293294 -0.0970746
v 0.980224 0.195086 -0.00859468
l 2233 2234
v -0.00147808 0.0294052 -0.0970341
v 0.989685 0.146355 -0.0344313
l 2235 2236
v -0.000984962 0.0294576 -0.097006
v 0.99561 0.102121 -0.0580304
l 2237 2238
v -0.00049303 0.0294883 -0.0969896
v 0.998901 0.0601399 -0.0805232
l 2239 2240
v 0 0.0294983 -0.0969841
v 0.99994 0.0198256 -0.102222
l 2241 2242
v 0.000492044 0.0294886 -0.0969894
v 0.99886 -0.020813 -0.124025
l 2243 2244
v 0.00098302 0.0294586 -0.0970055
v 0.995217 -0.0650684 -0.147629
l 2245 2246
v 0.00147902 0.0294056 -0.0970339
v 0.988388 -0.112861 -0.173003
l 2247 2248
v 0.00197095 0.0293283 -0.0970751
v 0.977733 -0.163829 -0.199927
l 2249 2250
v 0.00244938 0.0292265 -0.0971293
v 0.960353 -0.224495 -0.231467
l 2251 2252
v 0.00291762 0.0290924 -0.0972002
v 0.929856 -0.30271 -0.272391
l 2253 2254
v 0.0033676 0.028917 -0.0972928
v 0.869469 -0.413028 -0.33086
l 2255 2256
v 0.0037787 0.0286791 -0.0974188
v 0.618754 -0.666935 -0.468803
l 2257 2258
v 0.00358081 0.0288082 -0.0973503
v 0.808026 -0.49599 -0.375658
l 2259 2260
v -0.00358142 0.0288102 -0.0973492
v 0.864709 0.467377 0.134452
l 2261 2262
v -0.0031414 0.0290128 -0.0972422
v 0.924969 0.35825 0.0765825
l 2263 2264
v -0.00267953 0.0291652 -0.0971617
v 0.955373 0.282451 0.0369314
l 2265 2266
v -0.00220458 0.0292822 -0.0970997
v 0.973812 0.221427 0.00523366
l 2267 2268
v -0.00172152 0.0293705 -0.0970526
v 0.985462 0.170129 -0.0218505
l 2269 2270
v -0.00123367 0.029434 -0.0970186
v 0.993024 0.123742 -0.046443
l 2271 2272
v -0.000739205 0.0294755 -0.0969964
v 0.997552 0.0809821 -0.0693812
l 2273 2274
v -0.000246582 0.0294958 -0.0969855
v 0.999687 0.03964 -0.0915169
l 2275 2276
v 0.000246085 0.0294959 -0.0969854
v 0.999681 -9.00517e-05 -0.11294
l 2277 2278
v 0.000737741 0.0294763 -0.096996
v 0.997409 -0.042366 -0.135536
l 2279 2280
v 0.00123514 0.0294346 -0.0970183
v 0.992239 -0.0885621 -0.160172
l 2281 2282
v 0.00172932 0.0293695 -0.0970531
v 0.983596 -0.137879 -0.186305
l 2283 2284
v 0.00221085 0.0292809 -0.0971004
v 0.970461 -0.191512 -0.214328
l 2285 2286
v 0.00268526 0.029164 -0.0971624
v 0.94707 -0.261559 -0.25084
l 2287 2288
v 0.00314575 0.0290108 -0.0972433
v 0.905361 -0.352361 -0.298644
l 2289 2290
