# Wavefront OBJ file written 2026-06-20T01:44:59
o combined_edgeMesh

# points : 1136
# lines  : 1145

# <points count="1136">
v -0.0003937 0 -0.0207391
v -0.000216142 -0.000329063 -0.0207391
v 0.000189115 -0.000345304 -0.0207391
v 0.0003937 0 -0.0207391
v 0.000237628 0.000313899 -0.0207391
v -9.78192e-05 0.000381354 -0.0207391
v -0.000312982 0.000238834 -0.0207391
v 0.000308749 -0.000244281 -0.0209298
v -2.33268e-05 -0.000393008 -0.0209306
v -0.0007874 0 -0.0198374
v -2.23052e-19 -0.0007874 -0.0198374
v 0.0007874 0 -0.0198374
v 1.44643e-19 0.0007874 -0.0198374
v -0.0007874 0 -0.0182626
v -2.23052e-19 -0.0007874 -0.0182626
v 0.0007874 0 -0.0182626
v 1.44643e-19 0.0007874 -0.0182626
v -0.00222398 0.00299737 -0.00557467
v -0.000327665 0.00269961 -0.0100318
v -0.00226641 0.0031084 -0.00586209
v -0.000485203 0.00256981 -0.00989059
v 0.00240833 0.0030432 -0.00470055
v -0.00243319 0.00313866 -0.00377412
v 2.56357e-11 0.00268892 -0.0104961
v -0.0121897 0.00355636 -0.0190137
v -0.00393584 0.0285004 -0.0975117
v 0.00393625 0.0285012 -0.0975118
v -0.000335763 -0.00020558 -0.0209186
v -0.000312982 0.000238834 -0.0211201
v -9.78192e-05 0.000381354 -0.0211201
v -0.0003937 0 -0.0211201
v 0.0003937 0 -0.0211201
v 0.000237628 0.000313899 -0.0211201
v -0.000216142 -0.000329063 -0.0211201
v 0.000189115 -0.000345304 -0.0211201
v 0.0011684 0.00206761 -0.0211201
v -0.0011684 0.00206761 -0.0211201
v 0.0011684 0.00206761 -0.0219075
v -0.0011684 0.00206761 -0.0219075
v -0.0023622 -0.000245278 -0.0198374
v 0.0023622 -0.000245278 -0.0198374
v 0.0023622 -0.000245278 -0.0182626
v -0.0023622 -0.000245278 -0.0182626
v 0.00393582 0.0285014 -0.0975137
v -0.00393582 0.0285014 -0.0975137
v 1.5875e-11 0.00310015 -0.0106356
v 2.52951e-11 0.00291475 -0.010501
v 1.69656e-11 0.00250003 -0.01062
v 0.0024011 0.00342841 -0.00340405
v 0 0.0182626 -0.003175
v -0.000275139 0.0182626 -0.00317798
v -0.000550148 0.0182626 -0.00318692
v -0.000824899 0.0182626 -0.00320182
v -0.00109926 0.0182626 -0.00322266
v -0.00137311 0.0182626 -0.00324945
v -0.00164631 0.0182626 -0.00328216
v -0.00191875 0.0182626 -0.00332078
v -0.00219028 0.0182626 -0.0033653
v -0.00246078 0.0182626 -0.00341568
v -0.00273013 0.0182626 -0.00347192
v -0.00299819 0.0182626 -0.00353398
v -0.00326485 0.0182626 -0.00360183
v -0.00352997 0.0182626 -0.00367544
v -0.00379344 0.0182626 -0.00375478
v -0.00405513 0.0182626 -0.00383981
v -0.00431491 0.0182626 -0.00393048
v -0.00457267 0.0182626 -0.00402677
v -0.00482828 0.0182626 -0.00412861
v -0.00508163 0.0182626 -0.00423597
v -0.00533259 0.0182626 -0.00434879
v -0.00558105 0.0182626 -0.00446702
v -0.00582689 0.0182626 -0.00459061
v -0.00606999 0.0182626 -0.0047195
v -0.00631024 0.0182626 -0.00485362
v -0.00654753 0.0182626 -0.00499291
v -0.00678175 0.0182626 -0.00513732
v -0.00701279 0.0182626 -0.00528676
v -0.00724053 0.0182626 -0.00544117
v -0.00746487 0.0182626 -0.00560048
v -0.00768571 0.0182626 -0.00576462
v -0.00790295 0.0182626 -0.0059335
v -0.00811647 0.0182626 -0.00610704
v -0.00832618 0.0182626 -0.00628518
v -0.00853198 0.0182626 -0.00646781
v -0.00873378 0.0182626 -0.00665486
v -0.00893148 0.0182626 -0.00684623
v -0.00912499 0.0182626 -0.00704185
v -0.00931421 0.0182626 -0.00724161
v -0.00949906 0.0182626 -0.00744542
v -0.00967946 0.0182626 -0.00765319
v -0.00985531 0.0182626 -0.00786482
v -0.0100265 0.0182626 -0.00808021
v -0.010193 0.0182626 -0.00829926
v -0.0103548 0.0182626 -0.00852187
v -0.0105116 0.0182626 -0.00874792
v -0.0106636 0.0182626 -0.00897733
v -0.0108105 0.0182626 -0.00920997
v -0.0109524 0.0182626 -0.00944573
v -0.0110891 0.0182626 -0.00968452
v -0.0112206 0.0182626 -0.00992621
v -0.0113468 0.0182626 -0.0101707
v -0.0114678 0.0182626 -0.0104179
v -0.0115833 0.0182626 -0.0106676
v -0.0116934 0.0182626 -0.0109197
v -0.011798 0.0182626 -0.0111743
v -0.0118971 0.0182626 -0.0114309
v -0.0119906 0.0182626 -0.0116897
v -0.0120784 0.0182626 -0.0119505
v -0.0121606 0.0182626 -0.0122131
v -0.0122371 0.0182626 -0.0124774
v -0.0123078 0.0182626 -0.0127433
v -0.0123728 0.0182626 -0.0130107
v -0.0124319 0.0182626 -0.0132794
v -0.0124852 0.0182626 -0.0135493
v -0.0125327 0.0182626 -0.0138204
v -0.0125743 0.0182626 -0.0140924
v -0.0126099 0.0182626 -0.0143652
v -0.0126397 0.0182626 -0.0146387
v -0.0126635 0.0182626 -0.0149129
v -0.0126814 0.0182626 -0.0151874
v -0.0126933 0.0182626 -0.0154623
v -0.0126993 0.0182626 -0.0157374
v -0.0126993 0.0182626 -0.0160126
v -0.0126933 0.0182626 -0.0162877
v -0.0126814 0.0182626 -0.0165626
v -0.0126635 0.0182626 -0.0168371
v -0.0126397 0.0182626 -0.0171113
v -0.0126099 0.0182626 -0.0173848
v -0.0125743 0.0182626 -0.0176576
v -0.0125327 0.0182626 -0.0179296
v -0.0124852 0.0182626 -0.0182007
v -0.0124319 0.0182626 -0.0184706
v -0.0123728 0.0182626 -0.0187393
v -0.0123078 0.0182626 -0.0190067
v -0.0122371 0.0182626 -0.0192726
v -0.0121606 0.0182626 -0.0195369
v -0.0120784 0.0182626 -0.0197995
v -0.0119906 0.0182626 -0.0200603
v -0.0118971 0.0182626 -0.0203191
v -0.011798 0.0182626 -0.0205758
v -0.0116934 0.0182626 -0.0208302
v -0.0115833 0.0182626 -0.0210824
v -0.0114678 0.0182626 -0.0213321
v -0.0113468 0.0182626 -0.0215793
v -0.0112206 0.0182626 -0.0218238
v -0.0110891 0.0182626 -0.0220655
v -0.0109524 0.0182626 -0.0223043
v -0.0108105 0.0182626 -0.02254
v -0.0106636 0.0182626 -0.0227727
v -0.0105116 0.0182626 -0.0230021
v -0.0103548 0.0182626 -0.0232281
v -0.010193 0.0182626 -0.0234507
v -0.0100265 0.0182626 -0.0236698
v -0.00985531 0.0182626 -0.0238852
v -0.00967946 0.0182626 -0.0240968
v -0.00949906 0.0182626 -0.0243046
v -0.00931421 0.0182626 -0.0245084
v -0.00912499 0.0182626 -0.0247081
v -0.00893148 0.0182626 -0.0249038
v -0.00873378 0.0182626 -0.0250951
v -0.00853198 0.0182626 -0.0252822
v -0.00832618 0.0182626 -0.0254648
v -0.00811647 0.0182626 -0.025643
v -0.00790295 0.0182626 -0.0258165
v -0.00768571 0.0182626 -0.0259854
v -0.00746487 0.0182626 -0.0261495
v -0.00724053 0.0182626 -0.0263088
v -0.00701279 0.0182626 -0.0264632
v -0.00678175 0.0182626 -0.0266127
v -0.00654753 0.0182626 -0.0267571
v -0.00631024 0.0182626 -0.0268964
v -0.00606999 0.0182626 -0.0270305
v -0.00582689 0.0182626 -0.0271594
v -0.00558105 0.0182626 -0.027283
v -0.00533259 0.0182626 -0.0274012
v -0.00508163 0.0182626 -0.027514
v -0.00482828 0.0182626 -0.0276214
v -0.00457267 0.0182626 -0.0277232
v -0.00431491 0.0182626 -0.0278195
v -0.00405513 0.0182626 -0.0279102
v -0.00379344 0.0182626 -0.0279952
v -0.00352997 0.0182626 -0.0280746
v -0.00326485 0.0182626 -0.0281482
v -0.00299819 0.0182626 -0.028216
v -0.00273013 0.0182626 -0.0282781
v -0.00246078 0.0182626 -0.0283343
v -0.00219028 0.0182626 -0.0283847
v -0.00191875 0.0182626 -0.0284292
v -0.00164631 0.0182626 -0.0284678
v -0.00137311 0.0182626 -0.0285005
v -0.00109926 0.0182626 -0.0285273
v -0.000824899 0.0182626 -0.0285482
v -0.000550148 0.0182626 -0.0285631
v -0.000275139 0.0182626 -0.028572
v 1.25634e-16 0.0182626 -0.028575
v 0.000275139 0.0182626 -0.028572
v 0.000550148 0.0182626 -0.0285631
v 0.000824899 0.0182626 -0.0285482
v 0.00109926 0.0182626 -0.0285273
v 0.00137311 0.0182626 -0.0285005
v 0.00164631 0.0182626 -0.0284678
v 0.00191875 0.0182626 -0.0284292
v 0.00219028 0.0182626 -0.0283847
v 0.00246078 0.0182626 -0.0283343
v 0.00273013 0.0182626 -0.0282781
v 0.00299819 0.0182626 -0.028216
v 0.00326485 0.0182626 -0.0281482
v 0.00352997 0.0182626 -0.0280746
v 0.00379344 0.0182626 -0.0279952
v 0.00405513 0.0182626 -0.0279102
v 0.00431491 0.0182626 -0.0278195
v 0.00457267 0.0182626 -0.0277232
v 0.00482828 0.0182626 -0.0276214
v 0.00508163 0.0182626 -0.027514
v 0.00533259 0.0182626 -0.0274012
v 0.00558105 0.0182626 -0.027283
v 0.00582689 0.0182626 -0.0271594
v 0.00606999 0.0182626 -0.0270305
v 0.00631024 0.0182626 -0.0268964
v 0.00654753 0.0182626 -0.0267571
v 0.00678175 0.0182626 -0.0266127
v 0.00701279 0.0182626 -0.0264632
v 0.00724053 0.0182626 -0.0263088
v 0.00746487 0.0182626 -0.0261495
v 0.00768571 0.0182626 -0.0259854
v 0.00790295 0.0182626 -0.0258165
v 0.00811647 0.0182626 -0.025643
v 0.00832618 0.0182626 -0.0254648
v 0.00853198 0.0182626 -0.0252822
v 0.00873378 0.0182626 -0.0250951
v 0.00893148 0.0182626 -0.0249038
v 0.00912499 0.0182626 -0.0247081
v 0.00931421 0.0182626 -0.0245084
v 0.00949906 0.0182626 -0.0243046
v 0.00967946 0.0182626 -0.0240968
v 0.00985531 0.0182626 -0.0238852
v 0.0100265 0.0182626 -0.0236698
v 0.010193 0.0182626 -0.0234507
v 0.0103548 0.0182626 -0.0232281
v 0.0105116 0.0182626 -0.0230021
v 0.0106636 0.0182626 -0.0227727
v 0.0108105 0.0182626 -0.02254
v 0.0109524 0.0182626 -0.0223043
v 0.0110891 0.0182626 -0.0220655
v 0.0112206 0.0182626 -0.0218238
v 0.0113468 0.0182626 -0.0215793
v 0.0114678 0.0182626 -0.0213321
v 0.0115833 0.0182626 -0.0210824
v 0.0116934 0.0182626 -0.0208302
v 0.011798 0.0182626 -0.0205758
v 0.0118971 0.0182626 -0.0203191
v 0.0119906 0.0182626 -0.0200603
v 0.0120784 0.0182626 -0.0197995
v 0.0121606 0.0182626 -0.0195369
v 0.0122371 0.0182626 -0.0192726
v 0.0123078 0.0182626 -0.0190067
v 0.0123728 0.0182626 -0.0187393
v 0.0124319 0.0182626 -0.0184706
v 0.0124852 0.0182626 -0.0182007
v 0.0125327 0.0182626 -0.0179296
v 0.0125743 0.0182626 -0.0176576
v 0.0126099 0.0182626 -0.0173848
v 0.0126397 0.0182626 -0.0171113
v 0.0126635 0.0182626 -0.0168371
v 0.0126814 0.0182626 -0.0165626
v 0.0126933 0.0182626 -0.0162877
v 0.0126993 0.0182626 -0.0160126
v 0.0126993 0.0182626 -0.0157374
v 0.0126933 0.0182626 -0.0154623
v 0.0126814 0.0182626 -0.0151874
v 0.0126635 0.0182626 -0.0149129
v 0.0126397 0.0182626 -0.0146387
v 0.0126099 0.0182626 -0.0143652
v 0.0125743 0.0182626 -0.0140924
v 0.0125327 0.0182626 -0.0138204
v 0.0124852 0.0182626 -0.0135493
v 0.0124319 0.0182626 -0.0132794
v 0.0123728 0.0182626 -0.0130107
v 0.0123078 0.0182626 -0.0127433
v 0.0122371 0.0182626 -0.0124774
v 0.0121606 0.0182626 -0.0122131
v 0.0120784 0.0182626 -0.0119505
v 0.0119906 0.0182626 -0.0116897
v 0.0118971 0.0182626 -0.0114309
v 0.011798 0.0182626 -0.0111743
v 0.0116934 0.0182626 -0.0109197
v 0.0115833 0.0182626 -0.0106676
v 0.0114678 0.0182626 -0.0104179
v 0.0113468 0.0182626 -0.0101707
v 0.0112206 0.0182626 -0.00992621
v 0.0110891 0.0182626 -0.00968452
v 0.0109524 0.0182626 -0.00944573
v 0.0108105 0.0182626 -0.00920997
v 0.0106636 0.0182626 -0.00897733
v 0.0105116 0.0182626 -0.00874792
v 0.0103548 0.0182626 -0.00852187
v 0.010193 0.0182626 -0.00829926
v 0.0100265 0.0182626 -0.00808021
v 0.00985531 0.0182626 -0.00786482
v 0.00967946 0.0182626 -0.00765319
v 0.00949906 0.0182626 -0.00744542
v 0.00931421 0.0182626 -0.00724161
v 0.00912499 0.0182626 -0.00704185
v 0.00893148 0.0182626 -0.00684623
v 0.00873378 0.0182626 -0.00665486
v 0.00853198 0.0182626 -0.00646781
v 0.00832618 0.0182626 -0.00628518
v 0.00811647 0.0182626 -0.00610704
v 0.00790295 0.0182626 -0.0059335
v 0.00768571 0.0182626 -0.00576462
v 0.00746487 0.0182626 -0.00560048
v 0.00724053 0.0182626 -0.00544117
v 0.00701279 0.0182626 -0.00528676
v 0.00678175 0.0182626 -0.00513732
v 0.00654753 0.0182626 -0.00499291
v 0.00631024 0.0182626 -0.00485362
v 0.00606999 0.0182626 -0.0047195
v 0.00582689 0.0182626 -0.00459061
v 0.00558105 0.0182626 -0.00446702
v 0.00533259 0.0182626 -0.00434879
v 0.00508163 0.0182626 -0.00423597
v 0.00482828 0.0182626 -0.00412861
v 0.00457267 0.0182626 -0.00402677
v 0.00431491 0.0182626 -0.00393048
v 0.00405513 0.0182626 -0.00383981
v 0.00379344 0.0182626 -0.00375478
v 0.00352997 0.0182626 -0.00367544
v 0.00326485 0.0182626 -0.00360183
v 0.00299819 0.0182626 -0.00353398
v 0.00273013 0.0182626 -0.00347192
v 0.00246078 0.0182626 -0.00341568
v 0.00219028 0.0182626 -0.0033653
v 0.00191875 0.0182626 -0.00332078
v 0.00164631 0.0182626 -0.00328216
v 0.00137311 0.0182626 -0.00324945
v 0.00109926 0.0182626 -0.00322266
v 0.000824899 0.0182626 -0.00320182
v 0.000550148 0.0182626 -0.00318692
v 0.000275139 0.0182626 -0.00317798
v 0.00232231 0.0233068 -0.0860373
v 0.00237489 0.0228656 -0.0862583
v 0.00216834 0.0237285 -0.0858261
v 0.00191972 0.0241125 -0.0856338
v 0.0015873 0.0244419 -0.0854689
v 0.00118559 0.0247023 -0.0853385
v 0.00073213 0.0248824 -0.0852482
v 0.000246708 0.0249743 -0.0852022
v -0.000249484 0.0249741 -0.0852023
v -0.000734785 0.0248816 -0.0852486
v -0.00118801 0.0247011 -0.0853391
v -0.00158938 0.0244402 -0.0854697
v -0.00192136 0.0241105 -0.0856348
v -0.00216948 0.0237262 -0.0858272
v -0.00232289 0.0233043 -0.0860386
v -0.00237489 0.0228631 -0.0862595
v 0.00232369 0.0224238 -0.0864795
v 0.00217081 0.0220011 -0.0866912
v 0.00192295 0.0216162 -0.086884
v 0.00159093 0.0212857 -0.0870494
v 0.00118931 0.0210243 -0.0871804
v 0.000735638 0.0208433 -0.087271
v 0.000249782 0.0207506 -0.0873174
v -0.000247005 0.0207503 -0.0873175
v -0.000732984 0.0208425 -0.0872714
v -0.00118689 0.021023 -0.087181
v -0.00158886 0.0212841 -0.0870503
v -0.0019213 0.0216141 -0.086885
v -0.00216968 0.0219988 -0.0866923
v -0.00232312 0.0224213 -0.0864808
v 0.00231536 0.00677051 -0.0553073
v 0.0023749 0.00724304 -0.0550706
v 0.00213971 0.00632168 -0.055532
v 0.00185677 0.00591906 -0.0557337
v 0.00148073 0.00558282 -0.0559021
v 0.00103043 0.00532983 -0.0560287
v 0.000528465 0.00517278 -0.0561074
v 0 0.00511954 -0.0561341
v -0.000504821 0.00516806 -0.0561098
v -0.000986569 0.00531143 -0.056038
v -0.00142323 0.00554309 -0.0559219
v -0.00179483 0.00585244 -0.055767
v -0.0020844 0.00622535 -0.0555803
v -0.0022787 0.00664478 -0.0553702
v -0.00236885 0.00709155 -0.0551465
v -0.00235073 0.00754524 -0.0549193
v -0.00222516 0.00798513 -0.054699
v -0.00199789 0.00839109 -0.0544957
v -0.00167931 0.00874458 -0.0543187
v -0.00128397 0.00902944 -0.054176
v -0.000829943 0.00923265 -0.0540743
v -0.000337984 0.00934493 -0.054018
v 0.000169423 0.00936113 -0.0540099
v 0.000669087 0.00928052 -0.0540503
v 0.00113817 0.00910679 -0.0541373
v 0.00155523 0.00884787 -0.0542669
v 0.00190121 0.0085156 -0.0544333
v 0.00216028 0.00812517 -0.0546289
v 0.00232063 0.00769442 -0.0548446
v 0 0.0294986 -0.0969848
v -0.000247147 0.0294965 -0.0969866
v -0.000494169 0.0294892 -0.0969906
v -0.000740924 0.0294767 -0.0969973
v -0.000987255 0.0294588 -0.0970068
v -0.00123299 0.0294354 -0.0970193
v -0.00147793 0.0294063 -0.0970348
v -0.00172188 0.0293712 -0.0970535
v -0.00196459 0.02933 -0.0970754
v -0.00220578 0.0292823 -0.0971007
v -0.00244494 0.0292272 -0.0971298
v -0.00268158 0.0291641 -0.0971631
v -0.00291509 0.0290925 -0.0972008
v -0.00314443 0.0290109 -0.0972436
v -0.00336764 0.0289169 -0.0972927
v -0.0035822 0.0288082 -0.0973492
v -0.0037815 0.0286787 -0.0974161
v -0.00378651 0.0283152 -0.0975982
v -0.00358709 0.0281835 -0.0976621
v -0.00337237 0.0280725 -0.0977156
v -0.00314909 0.0279761 -0.0977619
v -0.00291952 0.0278924 -0.0978018
v -0.00268564 0.027819 -0.0978367
v -0.00244869 0.0277541 -0.0978675
v -0.00220946 0.0276964 -0.0978949
v -0.00196842 0.0276451 -0.0979191
v -0.00172549 0.0276018 -0.0979396
v -0.00148109 0.0275658 -0.0979565
v -0.00123559 0.0275366 -0.0979702
v -0.000989275 0.0275136 -0.0979809
v -0.000742385 0.0274964 -0.0979889
v -0.00049511 0.0274846 -0.0979944
v -0.000247607 0.0274778 -0.0979976
v 0 0.0274753 -0.097998
v 0.00024806 0.0274781 -0.0979974
v 0.000495995 0.0274856 -0.0979939
v 0.000743664 0.0274984 -0.0979879
v 0.000990909 0.0275168 -0.0979793
v 0.00123755 0.0275409 -0.097968
v 0.00148338 0.027571 -0.0979539
v 0.00172819 0.0276073 -0.0979368
v 0.00197171 0.0276501 -0.0979167
v 0.00221366 0.0276996 -0.0978933
v 0.00245358 0.0277566 -0.0978663
v 0.00269098 0.0278216 -0.0978355
v 0.00292523 0.0278953 -0.0978004
v 0.00315523 0.0279791 -0.0977604
v 0.00337894 0.0280757 -0.0977141
v 0.00359353 0.0281877 -0.0976601
v 0.00379201 0.0283211 -0.0975953
v 0.00378283 0.0286796 -0.0974157
v 0.00358296 0.0288085 -0.0973491
v 0.00336804 0.0289167 -0.0972928
v 0.00314521 0.0290115 -0.0972432
v 0.00291616 0.0290939 -0.0972001
v 0.00268259 0.0291655 -0.0971624
v 0.00244567 0.0292279 -0.0971294
v 0.00220621 0.0292821 -0.0971007
v 0.00196499 0.0293299 -0.0970754
v 0.00172223 0.0293711 -0.0970535
v 0.00147824 0.0294062 -0.0970348
v 0.00123324 0.0294354 -0.0970193
v 0.000987458 0.0294588 -0.0970068
v 0.000741076 0.0294766 -0.0969973
v 0.00049427 0.0294891 -0.0969906
v 0.000247198 0.0294965 -0.0969866
v 0.00378799 0.0283164 -0.0976006
v 0.00359078 0.0281825 -0.0976637
v 0.00337693 0.0280715 -0.0977163
v 0.00315397 0.0279761 -0.0977615
v 0.00291674 0.0278902 -0.0978022
v 0.00268361 0.0278175 -0.0978366
v 0.00244717 0.0277537 -0.0978668
v 0.00220837 0.0276978 -0.0978932
v 0.00196886 0.0276493 -0.0979159
v 0.0017251 0.027607 -0.0979358
v 0.00148155 0.0275712 -0.0979525
v 0.00123701 0.0275415 -0.0979664
v 0.000991701 0.0275175 -0.0979776
v 0.000739615 0.0274985 -0.0979865
v 0.000493303 0.0274854 -0.0979926
v 0.000246718 0.0274776 -0.0979962
v 0 0.027475 -0.0979974
v -0.000246732 0.0274775 -0.0979962
v -0.000493339 0.027485 -0.0979927
v -0.00073968 0.0274979 -0.0979868
v -0.000989522 0.0275165 -0.0979781
v -0.00123484 0.0275405 -0.0979669
v -0.00147936 0.0275704 -0.0979529
v -0.00172289 0.0276064 -0.0979361
v -0.00196519 0.0276486 -0.0979163
v -0.00220559 0.0276972 -0.0978934
v -0.00244504 0.027753 -0.0978672
v -0.00268149 0.0278169 -0.0978369
v -0.00291489 0.0278902 -0.0978022
v -0.00315176 0.027977 -0.0977611
v -0.00337403 0.0280734 -0.0977154
v -0.00358759 0.0281852 -0.0976624
v -0.00378556 0.0283181 -0.0975998
v -0.00377949 0.0286805 -0.097418
v -0.00358142 0.0288102 -0.0973492
v -0.00336443 0.0289198 -0.0972913
v -0.0031414 0.0290128 -0.0972422
v -0.00291249 0.029094 -0.0971993
v -0.00267953 0.0291652 -0.0971617
v -0.00244324 0.0292277 -0.0971286
v -0.00220458 0.0292822 -0.0970997
v -0.00196517 0.0293294 -0.0970746
v -0.00172152 0.0293705 -0.0970526
v -0.00147808 0.0294052 -0.0970341
v -0.00123367 0.029434 -0.0970186
v -0.000984962 0.0294576 -0.097006
v -0.000739205 0.0294755 -0.0969964
v -0.00049303 0.0294883 -0.0969896
v -0.000246582 0.0294958 -0.0969855
v 0 0.0294983 -0.0969841
v 0.000246085 0.0294959 -0.0969854
v 0.000492044 0.0294886 -0.0969894
v 0.000737741 0.0294763 -0.096996
v 0.00098302 0.0294586 -0.0970055
v 0.00123514 0.0294346 -0.0970183
v 0.00147902 0.0294056 -0.0970339
v 0.00172932 0.0293695 -0.0970531
v 0.00197095 0.0293283 -0.0970751
v 0.00221085 0.0292809 -0.0971004
v 0.00244938 0.0292265 -0.0971293
v 0.00268526 0.029164 -0.0971624
v 0.00291762 0.0290924 -0.0972002
v 0.00314575 0.0290108 -0.0972433
v 0.0033676 0.028917 -0.0972928
v 0.00358081 0.0288082 -0.0973503
v 0.0037787 0.0286791 -0.0974188
v 0.0011684 0 -0.0211201
v 0.0011684 0.000387255 -0.0211201
v 0.0011684 0.000848617 -0.0211201
v 0.0011684 0.00132099 -0.0211201
v 0.0011684 0.00173912 -0.0211201
v -0.0011684 0.00175231 -0.0211201
v -0.0011684 0.00135935 -0.0211201
v -0.0011684 0.000906346 -0.0211201
v -0.0011684 0.000453173 -0.0211201
v -0.0011684 0 -0.0211201
v -0.00107481 -0.000458204 -0.0211201
v -0.000809018 -0.000842999 -0.0211201
v -0.000413618 -0.00109274 -0.0211201
v 4.80467e-05 -0.00116741 -0.0211201
v 0.000502014 -0.00105505 -0.0211201
v 0.000845584 -0.000806317 -0.0211201
v 0.001039 -0.000534458 -0.0211201
v 0.00113216 -0.00028875 -0.0211201
v 0.0011684 0 -0.0219075
v 0.0011684 0.000386582 -0.0219075
v 0.0011684 0.000847699 -0.0219075
v 0.0011684 0.00132005 -0.0219075
v 0.0011684 0.00173675 -0.0219075
v -0.0023622 -0.000245278 -0.0231702
v -0.00230615 -0.00056695 -0.0231381
v -0.00222025 -0.000842866 -0.0230903
v -0.00210591 -0.00109787 -0.0230288
v -0.00198731 -0.00130029 -0.0229673
v -0.00185041 -0.00148867 -0.0228997
v -0.00169431 -0.00166419 -0.022827
v -0.00150365 -0.00183843 -0.0227456
v -0.00126393 -0.00201064 -0.0226547
v -0.00106056 -0.00212494 -0.0225885
v -0.000846001 -0.00221911 -0.0225302
v -0.000618965 -0.00229282 -0.0224824
v -0.000384368 -0.00234359 -0.0224481
v 0 -0.0023749 -0.0224258
v 0.000434605 -0.00233472 -0.0224542
v 0.000765323 -0.0022482 -0.0225116
v 0.00098988 -0.00215877 -0.022568
v 0.00120223 -0.00204812 -0.0226335
v 0.00140094 -0.00191768 -0.0227051
v 0.00158533 -0.0017683 -0.0227795
v 0.00175905 -0.00159559 -0.0228565
v 0.00191139 -0.00140951 -0.0229293
v 0.00204344 -0.00121017 -0.0229961
v 0.0021556 -0.000996773 -0.0230553
v 0.00224627 -0.000770975 -0.0231046
v 0.00231513 -0.000529423 -0.0231432
v 0.0023622 -0.000245278 -0.0231702
v -0.0011684 0.00175017 -0.0219075
v -0.0011684 0.00135881 -0.0219075
v -0.0011684 0.000905902 -0.0219075
v -0.0011684 0.000452951 -0.0219075
v -0.0011684 0 -0.0219075
v -0.00107481 -0.000458204 -0.0219075
v -0.000809018 -0.000842999 -0.0219075
v -0.000413618 -0.00109274 -0.0219075
v 4.80467e-05 -0.00116741 -0.0219075
v 0.000502014 -0.00105505 -0.0219075
v 0.000845584 -0.000806317 -0.0219075
v 0.001039 -0.000534458 -0.0219075
v 0.00113216 -0.00028875 -0.0219075
v -0.00202272 -0.00124481 -0.0151147
v -0.00188747 -0.00144202 -0.0151826
v -0.00169354 -0.00166511 -0.0152733
v -0.00151453 -0.00182939 -0.0153501
v -0.00132459 -0.00197164 -0.0154239
v -0.00112002 -0.00209456 -0.0154934
v -0.000852428 -0.00221664 -0.0155682
v -0.000620222 -0.00229264 -0.0156178
v -0.00037973 -0.00234455 -0.015653
v 0 -0.0023749 -0.0156742
v 0.000448148 -0.0023326 -0.0156445
v 0.00083297 -0.00222404 -0.0155729
v 0.00104896 -0.00213092 -0.0155151
v 0.00125293 -0.00201797 -0.0154494
v 0.00148349 -0.00185471 -0.0153627
v 0.00167342 -0.00168529 -0.0152822
v 0.00182969 -0.00151463 -0.0152104
v 0.00197855 -0.00131406 -0.0151373
v -0.00213875 -0.00103246 -0.0150537
v 0.0021241 -0.00106224 -0.0150615
v 0.0022195 -0.000845485 -0.01501
v 0.00229391 -0.000615877 -0.0149687
v -0.00224015 -0.00078922 -0.0149987
v 0.0023622 -0.000245278 -0.0149298
v -0.00231526 -0.000529733 -0.0149566
v -0.0023622 -0.000245278 -0.0149298
v 0.00226945 -0.000699807 -0.0198374
v 0.00209012 -0.00112764 -0.0198374
v 0.00183103 -0.00151244 -0.0198374
v 0.00150209 -0.00183954 -0.0198374
v 0.00111583 -0.00209645 -0.0198374
v 0.000686993 -0.00227337 -0.0198374
v 0.000231948 -0.00236355 -0.0198374
v -0.000231948 -0.00236355 -0.0198374
v -0.000686993 -0.00227337 -0.0198374
v -0.00111583 -0.00209645 -0.0198374
v -0.00150209 -0.00183954 -0.0198374
v -0.00183103 -0.00151244 -0.0198374
v -0.00209012 -0.00112764 -0.0198374
v -0.00226945 -0.000699807 -0.0198374
v -0.000681908 -0.0003937 -0.0198374
v -0.0003937 -0.000681908 -0.0198374
v 0.0003937 -0.000681908 -0.0198374
v 0.000681908 -0.0003937 -0.0198374
v 0.000681908 0.0003937 -0.0198374
v 0.0003937 0.000681908 -0.0198374
v -0.0003937 0.000681908 -0.0198374
v -0.000681908 0.0003937 -0.0198374
v -0.00226945 -0.000699807 -0.0182626
v 0.00226945 -0.000699807 -0.0182626
v 0.00209012 -0.00112764 -0.0182626
v 0.00183103 -0.00151244 -0.0182626
v 0.00150209 -0.00183954 -0.0182626
v 0.00111583 -0.00209645 -0.0182626
v 0.000686993 -0.00227337 -0.0182626
v 0.000231948 -0.00236355 -0.0182626
v -0.000231948 -0.00236355 -0.0182626
v -0.000686993 -0.00227337 -0.0182626
v -0.00111583 -0.00209645 -0.0182626
v -0.00150209 -0.00183954 -0.0182626
v -0.00183103 -0.00151244 -0.0182626
v -0.00209012 -0.00112764 -0.0182626
v -0.000681908 -0.0003937 -0.0182626
v -0.0003937 -0.000681908 -0.0182626
v 0.0003937 -0.000681908 -0.0182626
v 0.000681908 -0.0003937 -0.0182626
v 0.000681908 0.0003937 -0.0182626
v 0.0003937 0.000681908 -0.0182626
v -0.0003937 0.000681908 -0.0182626
v -0.000681908 0.0003937 -0.0182626
v -0.000250417 0.00257347 -0.0102552
v -0.00242384 0.00311597 -0.00517679
v -0.00238837 0.00311502 -0.00535935
v -0.00228522 0.0029568 -0.00515237
v -0.00201757 0.00286932 -0.00618243
v -0.00210412 0.00290033 -0.00588979
v -0.00193216 0.00285962 -0.00646446
v -0.00183614 0.00284639 -0.00675614
v -0.00164981 0.00281778 -0.00727075
v -0.00174486 0.00283955 -0.00701756
v -0.00137783 0.00275796 -0.00794751
v -0.0014756 0.00271602 -0.00773147
v -0.00126657 0.00276477 -0.00820022
v -0.000830053 0.00263207 -0.00918755
v -0.000937348 0.00265996 -0.00895052
v -0.000944796 0.00308206 -0.00917336
v -0.000819714 0.00309344 -0.00944205
v -0.000678218 0.00309455 -0.00970351
v -0.000553911 0.0031083 -0.00995646
v -0.00102732 0.00301895 -0.00887978
v -0.00116916 0.00303495 -0.00861459
v -0.00130511 0.00304966 -0.0083517
v -0.00142245 0.00304542 -0.00807878
v -0.00152207 0.00300983 -0.00777338
v -0.00168695 0.00306552 -0.007489
v -0.00179547 0.00307054 -0.00721853
v -0.00199811 0.003087 -0.00669238
v -0.00189388 0.00307593 -0.00696178
v -0.0020928 0.00309216 -0.00641108
v -0.00218038 0.00309658 -0.00612696
v -0.00155449 0.00279008 -0.00751505
v -0.00115137 0.00275156 -0.00845593
v -0.0010371 0.00272841 -0.00870498
v -0.000705881 0.00262863 -0.00942652
v -0.000584493 0.00260927 -0.00966808
v -0.0007469 0.00287309 -0.00928673
v -0.000856357 0.00285696 -0.00906866
v -0.000612364 0.00287477 -0.00953754
v -0.000348327 0.00296791 -0.0100555
v -0.000459928 0.00285965 -0.00980091
v -0.000462871 0.00313062 -0.0101746
v 0.000393138 0.00303557 -0.0100676
v 0.000311425 0.00309275 -0.0102975
v 0.000376255 0.00280163 -0.0099306
v 0.000200878 0.00287984 -0.0102205
v 0.000241691 0.00258948 -0.0102489
v 0.000451161 0.00254396 -0.00998729
v 0.00222106 0.00292585 -0.00541923
v 0.0021427 0.00289594 -0.0057279
v 0.00233634 0.00303807 -0.00516137
v 0.000915464 0.00262286 -0.00903029
v 0.000800307 0.00263198 -0.00924489
v 0.000684112 0.00261685 -0.00947929
v 0.00163492 0.00281346 -0.00730937
v 0.00151139 0.00280618 -0.00762308
v 0.0017465 0.00282727 -0.00700916
v 0.00204833 0.00287088 -0.0060729
v 0.00194739 0.00285551 -0.00641241
v 0.00191256 0.0030763 -0.00690911
v 0.00202299 0.00308504 -0.0066074
v 0.00212189 0.00308545 -0.00628348
v 0.00222613 0.00309366 -0.00593972
v 0.00168794 0.00307017 -0.00749967
v 0.0018111 0.00307658 -0.00719501
v 0.00158301 0.00308716 -0.0078108
v 0.00140321 0.00304485 -0.00812157
v 0.00127315 0.0030512 -0.00842495
v 0.00114668 0.00306124 -0.00871654
v 0.0010275 0.00307801 -0.00899982
v 0.000887394 0.00309126 -0.00930822
v 0.000724954 0.00308467 -0.00959434
v 0.000549089 0.00306665 -0.00986472
v 0.000559337 0.00258939 -0.00973647
v 0.00111029 0.00276642 -0.0085405
v 0.000979132 0.00277276 -0.00881253
v 0.00133485 0.00272609 -0.00805795
v 0.00122653 0.00277119 -0.00828813
v 0.00184538 0.0028421 -0.0067266
v 0.00143141 0.00268665 -0.00785656
v 0.00230664 0.00309893 -0.00563473
v 0.000843035 0.00286195 -0.00909668
v 0.00238814 0.00311812 -0.00538598
v 0.000553262 0.00285217 -0.00963525
v 0.00141883 0.00289691 -0.00788306
v 0.000702832 0.00287379 -0.00937015
v 0.000167926 0.0030747 -0.0104856
v -0.000189393 0.00309281 -0.0104871
v -0.000297298 0.00307839 -0.0102879
v -0.000194723 0.00283685 -0.0102164
v -0.000182845 0.00249795 -0.0104826
v -0.00250308 0.00311811 -0.00464558
v -0.00244855 0.00304312 -0.00426188
v 0.00245821 0.00327396 -0.00364482
v 0.00244855 0.00304312 -0.00426188
v 0.00245494 0.00311134 -0.00389792
v 0.00237682 0.00295369 -0.00444271
v 0.00252061 0.00311657 -0.00444183
v -0.00246545 0.00309519 -0.00398056
v -0.00246333 0.00331236 -0.00361287
v 0.000819344 0.00222909 -0.0211201
v 0.000416109 0.00233816 -0.0211201
v 0 0.0023749 -0.0211201
v -0.000424354 0.00233668 -0.0211201
v -0.00083505 0.00222325 -0.0211201
v 0.0011684 0.00206761 -0.0215259
v 0 0.0023749 -0.0219075
v -0.000424354 0.00233668 -0.0219075
v -0.00083505 0.00222325 -0.0219075
v -0.0011684 0.00206761 -0.0215259
v 0 0.0023749 -0.0198374
v -0.000439256 0.00233393 -0.0198374
v -0.000863355 0.00221241 -0.0198374
v -0.00125766 0.00201456 -0.0198374
v -0.00160857 0.00174718 -0.0198374
v -0.00190397 0.00141952 -0.0198374
v -0.00213367 0.00104287 -0.0198374
v -0.00228975 0.000630242 -0.0198374
v -0.00236681 0.000195861 -0.0198374
v 0.00236681 0.000195861 -0.0198374
v 0.00228975 0.000630242 -0.0198374
v 0.00213367 0.00104287 -0.0198374
v 0.00190397 0.00141952 -0.0198374
v 0.00160857 0.00174718 -0.0198374
v 0.00125766 0.00201456 -0.0198374
v 0.000863355 0.00221241 -0.0198374
v 0.000439256 0.00233393 -0.0198374
v 0.000819344 0.00222909 -0.0219075
v 0.000416109 0.00233816 -0.0219075
v -0.0023622 -0.00181492 -0.0227571
v -0.0023622 -0.00218683 -0.0225506
v -0.0023622 -0.00257985 -0.0222719
v -0.0023622 -0.00293771 -0.0219493
v -0.0023622 -0.00325555 -0.0215873
v -0.0023622 -0.00352903 -0.0211906
v -0.0023622 -0.00375443 -0.0207648
v -0.0023622 -0.00392867 -0.0203156
v -0.0023622 -0.00404939 -0.0198492
v -0.0023622 -0.00411493 -0.0193719
v -0.0023622 -0.0041244 -0.0188902
v -0.0023622 -0.00407768 -0.0184107
v -0.0023622 -0.0039754 -0.0179399
v -0.0023622 -0.00381896 -0.0174842
v -0.0023622 -0.00361048 -0.0170498
v -0.0023622 -0.00335281 -0.0166427
v -0.0023622 -0.00304945 -0.0162684
v -0.0023622 -0.00270455 -0.015932
v -0.0023622 -0.0023228 -0.0156381
v -0.0023622 -0.00194451 -0.0154092
v -0.0023622 -0.00152847 -0.0152159
v 0.0023622 -0.00145519 -0.0151875
v 0.0023622 -0.00185796 -0.0153643
v 0.0023622 -0.00222763 -0.0155752
v 0.0023622 -0.00261767 -0.0158588
v 0.0023622 -0.00297199 -0.0161858
v 0.0023622 -0.00328574 -0.016552
v 0.0023622 -0.00355465 -0.0169522
v 0.0023622 -0.00377505 -0.0173811
v 0.0023622 -0.00394392 -0.0178327
v 0.0023622 -0.00405897 -0.018301
v 0.0023622 -0.00411863 -0.0187795
v 0.0023622 -0.00412207 -0.0192617
v 0.0023622 -0.00406926 -0.019741
v 0.0023622 -0.0039609 -0.0202108
v 0.0023622 -0.0037985 -0.0206648
v 0.0023622 -0.00358424 -0.0210968
v 0.0023622 -0.00332108 -0.0215009
v 0.0023622 -0.00301259 -0.0218714
v 0.0023622 -0.00266298 -0.0222035
v 0.0023622 -0.00227703 -0.0224926
v 0.0023622 -0.00189552 -0.0227165
v 0.0023622 -0.00147588 -0.0229046
v -0.0023622 -0.000797617 -0.0230997
v -0.0023622 -0.00107543 -0.0230349
v -0.0023622 -0.00141259 -0.0229282
v -0.0023622 -0.00111615 -0.0150763
v -0.0023622 -0.000786285 -0.0149981
v 0.0023622 -0.000850733 -0.0150111
v 0.0023622 -0.00112191 -0.0150779
v 0.0023622 -0.00106339 -0.0230382
v 0.0023622 -0.00075201 -0.0231084
v -0.0023622 -0.000524562 -0.014956
v 0.0023622 -0.000508457 -0.0231461
v 0.0023622 -0.00060077 -0.0149665
v -0.0023622 -0.000535729 -0.0231426
v 0.0023622 -0.000245278 -0.0186563
v 0.0023622 -0.000245278 -0.01905
v 0.0023622 -0.000245278 -0.0194437
v -0.0023622 -0.000245278 -0.0194437
v -0.0023622 -0.000245278 -0.01905
v -0.0023622 -0.000245278 -0.0186563
v -0.00236681 0.000195861 -0.0182626
v -0.00228975 0.000630242 -0.0182626
v -0.00213367 0.00104287 -0.0182626
v -0.00190397 0.00141952 -0.0182626
v -0.00160857 0.00174718 -0.0182626
v -0.00125766 0.00201456 -0.0182626
v -0.000863355 0.00221241 -0.0182626
v -0.000439256 0.00233393 -0.0182626
v 0 0.0023749 -0.0182626
v 0.000439256 0.00233393 -0.0182626
v 0.000863355 0.00221241 -0.0182626
v 0.00125766 0.00201456 -0.0182626
v 0.00160857 0.00174718 -0.0182626
v 0.00190397 0.00141952 -0.0182626
v 0.00213367 0.00104287 -0.0182626
v 0.00228975 0.000630242 -0.0182626
v 0.00236681 0.000195861 -0.0182626
v 0.00289102 0.0247223 -0.0899797
v 0.00295114 0.024939 -0.090413
v 0.00301127 0.0251557 -0.0908464
v 0.00307139 0.0253724 -0.0912797
v 0.00313151 0.025589 -0.091713
v 0.00319164 0.0258057 -0.0921464
v 0.00325176 0.0260224 -0.0925797
v 0.00331188 0.0262391 -0.093013
v 0.00337201 0.0264557 -0.0934463
v 0.00343213 0.0266724 -0.0938797
v 0.00349225 0.0268891 -0.094313
v 0.00355238 0.0271058 -0.0947463
v 0.0036125 0.0273224 -0.0951796
v 0.00367262 0.0275391 -0.095613
v 0.00373275 0.0277558 -0.0960463
v 0.00379287 0.0279725 -0.0964796
v 0.0038523 0.0281866 -0.096908
v 0.00390358 0.0283714 -0.0972775
v -0.00390353 0.0283711 -0.0972773
v -0.00385222 0.028186 -0.0969075
v -0.00379541 0.0279811 -0.0964981
v -0.00373569 0.0277657 -0.0960679
v -0.00367905 0.0275614 -0.0956597
v -0.0036199 0.027348 -0.0952335
v -0.00356112 0.027136 -0.0948099
v -0.00350407 0.0269303 -0.0943989
v -0.00344627 0.0267218 -0.0939824
v -0.00338826 0.0265126 -0.0935644
v -0.00333135 0.0263072 -0.0931543
v -0.0032723 0.0260943 -0.0927288
v -0.00321225 0.0258777 -0.0922961
v -0.00315232 0.0256615 -0.0918643
v -0.00309288 0.0254471 -0.091436
v -0.00303509 0.0252386 -0.0910195
v -0.00297654 0.0250275 -0.0905977
v -0.00291941 0.0248214 -0.090186
v -0.00286179 0.0246136 -0.0897708
v -0.00280354 0.0244035 -0.0893511
v -0.00237097 0.00314467 -0.00339829
v -0.00237377 0.00289316 -0.0033987
v -0.00235352 0.00260277 -0.00339472
v -0.00231483 0.00235273 -0.0033876
v -0.00225685 0.00210978 -0.00337714
v -0.00214297 0.00178281 -0.00335702
v -0.00200899 0.00150662 -0.00333481
v -0.00187529 0.00129193 -0.00331419
v -0.00172248 0.00109352 -0.00329235
v -0.00153964 0.000901948 -0.00326867
v -0.00132811 0.000725509 -0.00324458
v -0.00109706 0.000575302 -0.00322237
v -0.000835742 0.000448752 -0.00320251
v -0.000415908 0.00032453 -0.00318193
v 0 0.000284913 -0.003175
v 0.0111771 0.003175 -0.0186874
v 0.0107321 0.003175 -0.0185538
v 0.0102774 0.003175 -0.0184234
v 0.00982114 0.003175 -0.0182986
v 0.00936337 0.003175 -0.0181795
v 0.00890415 0.003175 -0.0180661
v 0.00844356 0.003175 -0.0179585
v 0.00798167 0.003175 -0.0178565
v 0.00751855 0.003175 -0.0177603
v 0.00705427 0.003175 -0.0176698
v 0.0065889 0.003175 -0.0175851
v 0.00612252 0.003175 -0.0175062
v 0.00565519 0.003175 -0.0174331
v 0.00518699 0.003175 -0.0173658
v 0.004718 0.003175 -0.0173043
v 0.00424827 0.003175 -0.0172487
v 0.00377789 0.003175 -0.0171988
v 0.00330693 0.003175 -0.0171549
v 0.00283546 0.003175 -0.0171167
v 0.00236355 0.003175 -0.0170844
v 0.00189128 0.003175 -0.017058
v 0.00141871 0.003175 -0.0170375
v 0.00094593 0.003175 -0.0170228
v 0.000473002 0.003175 -0.017014
v 0 0.003175 -0.0170111
v -0.000491334 0.003175 -0.0170142
v -0.000982587 0.003175 -0.0170237
v -0.00147368 0.003175 -0.0170396
v -0.00196452 0.003175 -0.0170617
v -0.00245504 0.003175 -0.0170902
v -0.00294515 0.003175 -0.0171251
v -0.00343476 0.003175 -0.0171662
v -0.00392381 0.003175 -0.0172137
v -0.00441221 0.003175 -0.0172674
v -0.00489987 0.003175 -0.0173275
v -0.00538672 0.003175 -0.0173938
v -0.00587267 0.003175 -0.0174664
v -0.00635764 0.003175 -0.0175452
v -0.00684156 0.003175 -0.0176304
v -0.00732434 0.003175 -0.0177217
v -0.0078059 0.003175 -0.0178193
v -0.00828616 0.003175 -0.017923
v -0.00876504 0.003175 -0.018033
v -0.00924247 0.003175 -0.0181491
v -0.00971836 0.003175 -0.0182714
v -0.0101926 0.003175 -0.0183998
v -0.0106652 0.003175 -0.0185343
v -0.011136 0.003175 -0.0186748
v -0.0115472 0.003175 -0.018803
v 0.0115472 0.003175 -0.018803
v -0.00240111 0.0034284 -0.00340403
v -0.00249121 0.00369886 -0.00342173
v -0.0122967 0.00443317 -0.01905
v -0.0122967 0.00490394 -0.01905
v -0.0122967 0.00537472 -0.01905
v -0.0122967 0.00584549 -0.01905
v -0.0122967 0.00631626 -0.01905
v -0.0122967 0.00678703 -0.01905
v -0.0122967 0.0072578 -0.01905
v -0.0122967 0.00772857 -0.01905
v -0.0122967 0.00819935 -0.01905
v -0.0122967 0.00867012 -0.01905
v -0.0122967 0.00914089 -0.01905
v -0.0122967 0.00961166 -0.01905
v -0.0122967 0.0100824 -0.01905
v -0.0122967 0.0105532 -0.01905
v -0.0122967 0.011024 -0.01905
v -0.0122967 0.0114948 -0.01905
v -0.0122967 0.0119655 -0.01905
v -0.0122967 0.0124363 -0.01905
v -0.0122967 0.0129071 -0.01905
v -0.0122967 0.0133778 -0.01905
v -0.0122967 0.0138486 -0.01905
v -0.0122967 0.0143002 -0.01905
v -0.0122872 0.0147248 -0.019087
v -0.0122536 0.015175 -0.0192127
v -0.0121951 0.0155912 -0.0194205
v -0.0121096 0.0159561 -0.0197021
v -0.0119963 0.0162566 -0.0200438
v -0.0118545 0.0164792 -0.0204313
v -0.0116864 0.0166167 -0.0208468
v -0.0114959 0.0166624 -0.0212727
v -0.0112813 0.0166624 -0.0217078
v -0.0111348 0.0166624 -0.0219828
v -0.0110008 0.0166624 -0.022221
v -0.0108617 0.0166624 -0.0224562
v -0.010699 0.0166624 -0.0227176
v -0.0104349 0.0166624 -0.023114
v -0.0101448 0.0166624 -0.0235152
v -0.0099171 0.0166624 -0.0238086
v -0.00974408 0.0166624 -0.0240201
v -0.00956654 0.0166624 -0.0242279
v -0.00938458 0.0166624 -0.0244319
v -0.00912851 0.0166624 -0.0247045
v -0.00878068 0.0166624 -0.0250505
v -0.00846251 0.0166624 -0.0253447
v -0.00824672 0.0166624 -0.0255332
v -0.00803697 0.0166624 -0.0257085
v -0.0078235 0.0166624 -0.0258791
v -0.00754919 0.0166624 -0.0260877
v -0.00715816 0.0166624 -0.0263655
v -0.00678384 0.0166624 -0.0266114
v -0.00653832 0.0166624 -0.0267626
v -0.00630252 0.0166624 -0.0269008
v -0.00606379 0.0166624 -0.0270339
v -0.00576666 0.0166624 -0.0271903
v -0.00535372 0.0166624 -0.0273914
v -0.00489911 0.0166624 -0.027592
v -0.00460512 0.0166624 -0.0277107
v -0.00434936 0.0166624 -0.027807
v -0.00409159 0.0166624 -0.0278978
v -0.00379993 0.0166624 -0.0279932
v -0.00335092 0.0166624 -0.028125
v -0.00286916 0.0166624 -0.0282467
v -0.00243904 0.0166624 -0.0283386
v -0.00216184 0.0166624 -0.0283896
v -0.00189204 0.0166624 -0.0284333
v -0.0015149 0.0166624 -0.0284843
v -0.00102941 0.0166624 -0.0285332
v -0.000593987 0.0166624 -0.0285611
v -0.000260905 0.0166624 -0.0285723
v 1.23914e-05 0.0166624 -0.028575
v 0.000285682 0.0166624 -0.0285718
v 0.000604257 0.0166624 -0.0285606
v 0.00103074 0.0166624 -0.0285331
v 0.0015225 0.0166624 -0.0284834
v 0.00191553 0.0166624 -0.0284297
v 0.00218626 0.0166624 -0.0283854
v 0.00245496 0.0166624 -0.0283355
v 0.00286929 0.0166624 -0.0282466
v 0.00335092 0.0166624 -0.028125
v 0.00380974 0.0166624 -0.0279901
v 0.00411504 0.0166624 -0.0278898
v 0.00437264 0.0166624 -0.0277985
v 0.00462821 0.0166624 -0.0277016
v 0.00490551 0.0166624 -0.0275893
v 0.00535372 0.0166624 -0.0273914
v 0.00577581 0.0166624 -0.0271856
v 0.00608556 0.0166624 -0.027022
v 0.00632402 0.0166624 -0.0268885
v 0.00655956 0.0166624 -0.0267498
v 0.00679441 0.0166624 -0.0266047
v 0.00715816 0.0166624 -0.0263655
v 0.00755731 0.0166624 -0.0260817
v 0.00784301 0.0166624 -0.0258639
v 0.00805615 0.0166624 -0.0256928
v 0.00826555 0.0166624 -0.0255171
v 0.00847487 0.0166624 -0.0253337
v 0.00878087 0.0166624 -0.0250503
v 0.00913103 0.0166624 -0.0247019
v 0.00940126 0.0166624 -0.0244135
v 0.00958283 0.0166624 -0.0242092
v 0.00975995 0.0166624 -0.0240011
v 0.00993256 0.0166624 -0.0237892
v 0.0101491 0.0166624 -0.0235096
v 0.0104349 0.0166624 -0.023114
v 0.0107045 0.0166624 -0.022709
v 0.0108745 0.0166624 -0.0224351
v 0.0110132 0.0166624 -0.0221995
v 0.0111467 0.0166624 -0.0219611
v 0.011286 0.0166624 -0.0216987
v 0.0114959 0.0166624 -0.0212727
v 0.0116667 0.0166261 -0.0208927
v 0.0118203 0.0165165 -0.0205195
v 0.0119534 0.0163378 -0.0201654
v 0.0120641 0.0160949 -0.0198435
v 0.0121523 0.015796 -0.0195645
v 0.0122186 0.0154503 -0.0193387
v 0.012264 0.0150683 -0.0191743
v 0.0122896 0.0146679 -0.0190777
v 0.0122967 0.0143002 -0.01905
v 0.0122967 0.0138413 -0.01905
v 0.0122967 0.0133634 -0.01905
v 0.0122967 0.0128854 -0.01905
v 0.0122967 0.0124075 -0.01905
v 0.0122967 0.0119296 -0.01905
v 0.0122967 0.0114517 -0.01905
v 0.0122967 0.0109738 -0.01905
v 0.0122967 0.0104959 -0.01905
v 0.0122967 0.010018 -0.01905
v 0.0122967 0.00954005 -0.01905
v 0.0122967 0.00906213 -0.01905
v 0.0122967 0.00858422 -0.01905
v 0.0122967 0.0081063 -0.01905
v 0.0122967 0.00762839 -0.01905
v 0.0122967 0.00715048 -0.01905
v 0.0122967 0.00667256 -0.01905
v 0.0122967 0.00619465 -0.01905
v 0.0122967 0.00571673 -0.01905
v 0.0122967 0.00523882 -0.01905
v 0.0122967 0.00476091 -0.01905
v 0.00237097 0.00314467 -0.00339829
v 0.00236542 0.00272384 -0.00339716
v 0.00230589 0.00230807 -0.00338606
v 0.00223049 0.00202167 -0.0033724
v 0.0021429 0.00178173 -0.00335709
v 0.00202811 0.00154063 -0.00333798
v 0.00188369 0.00130393 -0.00331547
v 0.00172684 0.00109845 -0.00329295
v 0.00155298 0.000913611 -0.00327031
v 0.00135828 0.000747181 -0.00324784
v 0.00109913 0.000576279 -0.00322265
v 0.000871434 0.00046333 -0.00320493
v 0.000628582 0.000375327 -0.00319056
v 0.000361253 0.000313963 -0.00318014
v -0.0122967 0.0039624 -0.01905
v 0.0122967 0.00431336 -0.01905
v 0.0122967 0.0039624 -0.01905
v 0.00268335 0.00349681 -0.00361768
v -0.011899 0.00326676 -0.0189168
v 0.0122406 0.00366303 -0.0190308
v 0.0120815 0.00340975 -0.0189773
v 0.0118837 0.00325848 -0.0189113
# </points>

# <edges count="1145">
l 340 341
l 342 340
l 343 342
l 344 343
l 351 350
l 352 351
l 353 352
l 354 353
l 355 354
l 341 356
l 356 357
l 358 359
l 366 367
l 368 369
l 369 355
l 370 371
l 372 370
l 373 372
l 374 373
l 375 374
l 376 375
l 377 376
l 378 377
l 379 378
l 380 379
l 381 380
l 382 381
l 383 382
l 384 383
l 385 384
l 386 385
l 387 386
l 388 387
l 389 388
l 390 389
l 391 390
l 392 391
l 393 392
l 394 393
l 395 394
l 396 395
l 397 396
l 398 397
l 371 398
l 357 358
l 359 360
l 365 366
l 367 368
l 1 2
l 2 3
l 4 5
l 5 6
l 6 7
l 7 1
l 3 4
l 1 28
l 28 2
l 7 29
l 30 6
l 31 28
l 32 4
l 3 8
l 2 9
l 9 3
l 5 33
l 35 9
l 9 34
l 8 35
l 34 28
l 531 532
l 533 534
l 535 36
l 37 536
l 537 538
l 539 540
l 541 542
l 543 544
l 545 546
l 547 548
l 548 531
l 532 533
l 534 535
l 536 537
l 538 539
l 540 541
l 542 543
l 544 545
l 546 547
l 549 550
l 550 551
l 552 553
l 553 38
l 551 552
l 554 555
l 556 557
l 558 559
l 560 561
l 562 563
l 564 565
l 566 567
l 568 569
l 570 571
l 572 573
l 574 575
l 576 577
l 578 579
l 555 556
l 557 558
l 559 560
l 561 562
l 563 564
l 565 566
l 567 568
l 569 570
l 571 572
l 573 574
l 575 576
l 577 578
l 579 580
l 39 581
l 581 582
l 583 584
l 584 585
l 582 583
l 585 586
l 586 587
l 588 589
l 589 590
l 590 591
l 592 593
l 593 549
l 587 588
l 591 592
l 594 595
l 595 596
l 597 598
l 599 600
l 601 602
l 602 603
l 603 604
l 604 605
l 605 606
l 607 608
l 608 609
l 610 611
l 612 594
l 596 597
l 598 599
l 600 601
l 606 607
l 609 610
l 611 613
l 613 614
l 614 615
l 616 612
l 615 617
l 618 616
l 619 618
l 41 620
l 621 622
l 623 624
l 625 626
l 627 628
l 629 630
l 631 632
l 633 40
l 10 634
l 634 635
l 635 11
l 11 636
l 636 637
l 637 12
l 12 638
l 638 639
l 639 13
l 13 640
l 640 641
l 641 10
l 620 621
l 622 623
l 624 625
l 626 627
l 628 629
l 630 631
l 632 633
l 642 43
l 42 643
l 643 644
l 645 646
l 647 648
l 649 650
l 651 652
l 653 654
l 655 642
l 644 645
l 646 647
l 648 649
l 650 651
l 652 653
l 654 655
l 14 656
l 656 657
l 657 15
l 15 658
l 658 659
l 659 16
l 16 660
l 661 17
l 17 662
l 662 663
l 663 14
l 660 661
l 19 664
l 665 666
l 18 667
l 668 669
l 670 668
l 671 670
l 672 673
l 674 675
l 676 674
l 677 678
l 679 680
l 681 682
l 680 681
l 683 679
l 684 683
l 685 684
l 686 685
l 687 686
l 688 687
l 689 688
l 690 691
l 692 690
l 693 692
l 673 671
l 694 672
l 695 676
l 678 696
l 697 677
l 21 698
l 691 689
l 20 693
l 669 18
l 675 694
l 696 695
l 698 697
l 699 700
l 701 699
l 19 21
l 702 703
l 703 701
l 704 682
l 20 18
l 705 706
l 707 708
l 709 710
l 711 712
l 713 711
l 714 715
l 715 716
l 717 718
l 719 717
l 720 721
l 712 720
l 722 723
l 723 724
l 724 725
l 726 727
l 728 726
l 729 728
l 730 729
l 731 730
l 732 731
l 733 732
l 734 733
l 735 734
l 716 736
l 737 738
l 739 740
l 741 719
l 727 722
l 705 735
l 736 710
l 742 739
l 740 737
l 721 741
l 725 743
l 738 744
l 743 745
l 746 707
l 747 718
l 744 748
l 748 746
l 749 46
l 708 47
l 48 709
l 706 749
l 750 751
l 47 752
l 48 753
l 46 750
l 754 755
l 49 756
l 757 758
l 758 756
l 759 22
l 22 713
l 760 22
l 755 761
l 23 762
l 761 23
l 50 51
l 52 53
l 54 55
l 56 57
l 58 59
l 60 61
l 62 63
l 64 65
l 66 67
l 68 69
l 70 71
l 72 73
l 74 75
l 76 77
l 78 79
l 80 81
l 82 83
l 84 85
l 86 87
l 88 89
l 90 91
l 92 93
l 94 95
l 96 97
l 98 99
l 100 101
l 102 103
l 104 105
l 106 107
l 108 109
l 110 111
l 112 113
l 114 115
l 116 117
l 118 119
l 120 121
l 122 123
l 124 125
l 126 127
l 128 129
l 130 131
l 132 133
l 134 135
l 136 137
l 138 139
l 140 141
l 142 143
l 144 145
l 146 147
l 148 149
l 150 151
l 152 153
l 154 155
l 156 157
l 158 159
l 160 161
l 162 163
l 164 165
l 166 167
l 168 169
l 170 171
l 172 173
l 174 175
l 176 177
l 178 179
l 180 181
l 182 183
l 184 185
l 186 187
l 188 189
l 190 191
l 192 193
l 194 195
l 196 197
l 198 199
l 200 201
l 202 203
l 204 205
l 206 207
l 208 209
l 210 211
l 212 213
l 214 215
l 216 217
l 218 219
l 220 221
l 222 223
l 224 225
l 226 227
l 228 229
l 230 231
l 232 233
l 234 235
l 236 237
l 238 239
l 240 241
l 242 243
l 244 245
l 246 247
l 248 249
l 250 251
l 252 253
l 254 255
l 256 257
l 258 259
l 260 261
l 262 263
l 264 265
l 266 267
l 268 269
l 270 271
l 272 273
l 274 275
l 276 277
l 278 279
l 280 281
l 282 283
l 284 285
l 286 287
l 288 289
l 290 291
l 292 293
l 294 295
l 296 297
l 298 299
l 300 301
l 302 303
l 304 305
l 306 307
l 308 309
l 310 311
l 312 313
l 314 315
l 316 317
l 318 319
l 320 321
l 322 323
l 324 325
l 326 327
l 328 329
l 330 331
l 332 333
l 334 335
l 336 337
l 338 339
l 339 50
l 51 52
l 53 54
l 55 56
l 57 58
l 59 60
l 61 62
l 63 64
l 65 66
l 67 68
l 69 70
l 71 72
l 73 74
l 75 76
l 77 78
l 79 80
l 81 82
l 83 84
l 85 86
l 87 88
l 89 90
l 91 92
l 93 94
l 95 96
l 97 98
l 99 100
l 101 102
l 103 104
l 105 106
l 107 108
l 109 110
l 111 112
l 113 114
l 115 116
l 117 118
l 119 120
l 121 122
l 123 124
l 125 126
l 127 128
l 129 130
l 131 132
l 133 134
l 135 136
l 137 138
l 139 140
l 141 142
l 143 144
l 145 146
l 147 148
l 149 150
l 151 152
l 153 154
l 155 156
l 157 158
l 159 160
l 161 162
l 163 164
l 165 166
l 167 168
l 169 170
l 171 172
l 173 174
l 175 176
l 177 178
l 179 180
l 181 182
l 183 184
l 185 186
l 187 188
l 189 190
l 191 192
l 193 194
l 195 196
l 197 198
l 199 200
l 201 202
l 203 204
l 205 206
l 207 208
l 209 210
l 211 212
l 213 214
l 215 216
l 217 218
l 219 220
l 221 222
l 223 224
l 225 226
l 227 228
l 229 230
l 231 232
l 233 234
l 235 236
l 237 238
l 239 240
l 241 242
l 243 244
l 245 246
l 247 248
l 249 250
l 251 252
l 253 254
l 255 256
l 257 258
l 259 260
l 261 262
l 263 264
l 265 266
l 267 268
l 269 270
l 271 272
l 273 274
l 275 276
l 277 278
l 279 280
l 281 282
l 283 284
l 285 286
l 287 288
l 289 290
l 291 292
l 293 294
l 295 296
l 297 298
l 299 300
l 301 302
l 303 304
l 305 306
l 307 308
l 309 310
l 311 312
l 313 314
l 315 316
l 317 318
l 319 320
l 321 322
l 323 324
l 325 326
l 327 328
l 329 330
l 331 332
l 333 334
l 335 336
l 337 338
l 346 345
l 347 346
l 348 347
l 349 348
l 350 349
l 360 361
l 362 363
l 364 365
l 361 362
l 363 364
l 28 29
l 29 31
l 30 29
l 33 30
l 34 35
l 35 32
l 32 33
l 31 34
l 36 763
l 764 765
l 766 767
l 767 37
l 763 764
l 765 766
l 38 768
l 768 36
l 769 770
l 770 771
l 39 772
l 773 774
l 774 775
l 776 777
l 778 779
l 780 781
l 781 40
l 41 782
l 782 783
l 784 785
l 786 787
l 788 789
l 789 773
l 38 790
l 791 769
l 771 39
l 772 37
l 790 791
l 775 776
l 777 778
l 779 780
l 783 784
l 785 786
l 787 788
l 792 793
l 793 794
l 795 796
l 797 798
l 799 800
l 801 802
l 803 804
l 805 806
l 807 808
l 809 810
l 811 812
l 813 814
l 814 815
l 816 817
l 818 819
l 820 821
l 822 823
l 824 825
l 826 827
l 828 829
l 830 831
l 832 833
l 833 834
l 835 836
l 837 792
l 794 795
l 796 797
l 798 799
l 800 801
l 802 803
l 804 805
l 806 807
l 808 809
l 810 811
l 812 838
l 838 839
l 840 841
l 841 813
l 815 816
l 817 818
l 819 820
l 821 822
l 823 824
l 825 826
l 827 828
l 829 830
l 831 832
l 834 842
l 842 843
l 836 837
l 839 844
l 843 845
l 846 840
l 847 835
l 617 846
l 554 847
l 844 619
l 845 580
l 848 849
l 850 41
l 42 848
l 849 850
l 40 851
l 852 853
l 851 852
l 853 43
l 43 854
l 854 855
l 856 857
l 858 859
l 860 861
l 861 862
l 862 863
l 863 864
l 865 866
l 867 868
l 869 870
l 870 42
l 855 856
l 857 858
l 859 860
l 864 865
l 866 867
l 868 869
l 871 872
l 872 873
l 873 874
l 874 875
l 875 876
l 876 877
l 877 878
l 878 879
l 879 880
l 880 881
l 881 882
l 882 883
l 883 884
l 884 885
l 885 886
l 886 887
l 887 888
l 888 44
l 45 889
l 889 890
l 890 891
l 891 892
l 892 893
l 893 894
l 894 895
l 895 896
l 896 897
l 897 898
l 898 899
l 899 900
l 900 901
l 901 902
l 902 903
l 903 904
l 904 905
l 905 906
l 906 907
l 907 908
l 909 910
l 911 912
l 913 914
l 915 916
l 917 918
l 919 920
l 921 922
l 922 923
l 912 913
l 910 911
l 914 915
l 916 917
l 918 919
l 920 921
l 46 47
l 47 24
l 24 48
l 924 925
l 925 926
l 927 928
l 929 930
l 931 932
l 933 934
l 935 936
l 937 938
l 939 940
l 941 942
l 943 944
l 945 946
l 947 948
l 949 950
l 951 952
l 953 954
l 955 956
l 957 958
l 959 960
l 961 962
l 963 964
l 965 966
l 967 968
l 969 970
l 970 971
l 971 972
l 973 924
l 926 927
l 928 929
l 930 931
l 932 933
l 934 935
l 936 937
l 938 939
l 940 941
l 942 943
l 944 945
l 946 947
l 948 949
l 950 951
l 952 953
l 954 955
l 956 957
l 958 959
l 960 961
l 962 963
l 964 965
l 966 967
l 968 969
l 909 974
l 974 975
l 976 977
l 978 979
l 980 981
l 982 983
l 984 985
l 986 987
l 988 989
l 990 991
l 992 993
l 994 995
l 996 997
l 998 999
l 999 1000
l 1000 1001
l 1001 1002
l 1002 1003
l 1003 1004
l 1004 1005
l 1005 1006
l 1007 1008
l 1009 1010
l 1011 1012
l 1012 1013
l 1014 1015
l 1016 1017
l 1018 1019
l 1020 1021
l 1022 1023
l 1024 1025
l 1026 1027
l 1028 1029
l 1030 1031
l 1032 1033
l 1034 1035
l 1036 1037
l 1037 1038
l 1039 1040
l 1041 1042
l 1042 1043
l 1044 1045
l 1046 1047
l 1048 1049
l 1050 1051
l 1052 1053
l 1053 1054
l 1054 1055
l 1056 1057
l 1058 1059
l 1060 1061
l 1062 1063
l 1064 1065
l 1066 1067
l 1067 1068
l 1069 1070
l 1071 1072
l 1073 1074
l 1075 1076
l 1077 1078
l 1079 1080
l 1081 1082
l 1083 1084
l 1085 1086
l 1087 1088
l 1088 1089
l 1090 1091
l 1092 1093
l 1093 1094
l 1095 1096
l 1097 1098
l 1099 1100
l 1101 1102
l 1103 1104
l 1105 1106
l 1107 1108
l 1109 1110
l 1111 1112
l 1113 1114
l 49 1115
l 1115 1116
l 1116 1117
l 1118 1119
l 1120 1121
l 1122 1123
l 1124 1125
l 1126 1127
l 1128 923
l 1129 976
l 977 978
l 979 980
l 981 982
l 983 984
l 985 986
l 987 988
l 989 990
l 991 992
l 993 994
l 995 996
l 997 998
l 1006 1007
l 1008 1009
l 1010 1011
l 1013 1014
l 1015 1016
l 1017 1018
l 1019 1020
l 1021 1022
l 1023 1024
l 1025 1026
l 1027 1028
l 1029 1030
l 1031 1032
l 1033 1034
l 1035 1036
l 1038 1039
l 1040 1041
l 1043 1044
l 1045 1046
l 1047 1048
l 1049 1050
l 1051 1052
l 1055 1056
l 1057 1058
l 1059 1060
l 1061 1062
l 1063 1064
l 1065 1066
l 1068 1069
l 1070 1071
l 1072 1073
l 1074 1075
l 1076 1077
l 1078 1079
l 1080 1081
l 1082 1083
l 1084 1085
l 1086 1087
l 1089 1090
l 1091 1092
l 1094 1095
l 1096 1097
l 1098 1099
l 1100 1101
l 1102 1103
l 1104 1105
l 1106 1107
l 1108 1109
l 1110 1111
l 1112 1113
l 1130 1131
l 1114 1130
l 1117 1118
l 1119 1120
l 1121 1122
l 1123 1124
l 1125 1126
l 1127 1128
l 1132 49
l 1129 25
l 1133 972
l 25 1133
l 1131 1134
l 1134 1135
l 1135 1136
l 1136 973
l 345 344
l 399 400
l 401 402
l 403 404
l 405 406
l 407 408
l 409 410
l 411 412
l 413 414
l 414 415
l 415 26
l 26 416
l 416 417
l 417 418
l 418 419
l 420 421
l 422 423
l 424 425
l 426 427
l 428 429
l 430 431
l 432 433
l 434 435
l 436 437
l 438 439
l 440 441
l 442 443
l 444 445
l 446 447
l 447 448
l 448 27
l 27 449
l 449 450
l 450 451
l 451 452
l 453 454
l 455 456
l 457 458
l 459 460
l 461 462
l 463 464
l 464 399
l 400 401
l 402 403
l 404 405
l 406 407
l 408 409
l 410 411
l 412 413
l 419 420
l 421 422
l 423 424
l 425 426
l 427 428
l 429 430
l 431 432
l 433 434
l 435 436
l 437 438
l 439 440
l 441 442
l 443 444
l 445 446
l 452 453
l 454 455
l 456 457
l 458 459
l 460 461
l 462 463
l 44 465
l 466 467
l 468 469
l 470 471
l 472 473
l 474 475
l 476 477
l 478 479
l 480 481
l 482 483
l 484 485
l 486 487
l 488 489
l 490 491
l 492 493
l 494 495
l 496 497
l 497 45
l 465 466
l 467 468
l 469 470
l 471 472
l 473 474
l 475 476
l 477 478
l 479 480
l 481 482
l 483 484
l 485 486
l 487 488
l 489 490
l 491 492
l 493 494
l 495 496
l 45 498
l 498 499
l 500 501
l 502 503
l 504 505
l 506 507
l 508 509
l 510 511
l 512 513
l 514 515
l 516 517
l 518 519
l 520 521
l 522 523
l 524 525
l 526 527
l 528 529
l 530 44
l 529 530
l 499 500
l 501 502
l 503 504
l 505 506
l 507 508
l 509 510
l 511 512
l 513 514
l 515 516
l 517 518
l 519 520
l 521 522
l 523 524
l 525 526
l 527 528
# </edges>
