v 0 0.0294986 -0.0969848
v -0.000247147 0.0294965 -0.0969866
l 1 2
v -0.000494169 0.0294892 -0.0969906
v -0.000740924 0.0294767 -0.0969973
l 3 4
v -0.000987255 0.0294588 -0.0970068
v -0.00123299 0.0294354 -0.0970193
l 5 6
v -0.00147793 0.0294063 -0.0970348
v -0.00172188 0.0293712 -0.0970535
l 7 8
v -0.00196459 0.02933 -0.0970754
v -0.00220578 0.0292823 -0.0971007
l 9 10
v -0.00244494 0.0292272 -0.0971298
v -0.00268158 0.0291641 -0.0971631
l 11 12
v -0.00291509 0.0290925 -0.0972008
v -0.00314443 0.0290109 -0.0972436
l 13 14
v -0.00336764 0.0289169 -0.0972927
v -0.0035822 0.0288082 -0.0973492
l 15 16
v -0.0035822 0.0288082 -0.0973492
v -0.0037815 0.0286787 -0.0974161
l 17 18
v -0.0037815 0.0286787 -0.0974161
v -0.00393584 0.0285004 -0.0975117
l 19 20
v -0.00393584 0.0285004 -0.0975117
v -0.00378651 0.0283152 -0.0975982
l 21 22
v -0.00378651 0.0283152 -0.0975982
v -0.00358709 0.0281835 -0.0976621
l 23 24
v -0.00358709 0.0281835 -0.0976621
v -0.00337237 0.0280725 -0.0977156
l 25 26
v -0.00337237 0.0280725 -0.0977156
v -0.00314909 0.0279761 -0.0977619
l 27 28
v -0.00291952 0.0278924 -0.0978018
v -0.00268564 0.027819 -0.0978367
l 29 30
v -0.00244869 0.0277541 -0.0978675
v -0.00220946 0.0276964 -0.0978949
l 31 32
v -0.00196842 0.0276451 -0.0979191
v -0.00172549 0.0276018 -0.0979396
l 33 34
v -0.00148109 0.0275658 -0.0979565
v -0.00123559 0.0275366 -0.0979702
l 35 36
v -0.000989275 0.0275136 -0.0979809
v -0.000742385 0.0274964 -0.0979889
l 37 38
v -0.00049511 0.0274846 -0.0979944
v -0.000247607 0.0274778 -0.0979976
l 39 40
v 0 0.0274753 -0.097998
v 0.00024806 0.0274781 -0.0979974
l 41 42
v 0.000495995 0.0274856 -0.0979939
v 0.000743664 0.0274984 -0.0979879
l 43 44
v 0.000990909 0.0275168 -0.0979793
v 0.00123755 0.0275409 -0.097968
l 45 46
v 0.00148338 0.027571 -0.0979539
v 0.00172819 0.0276073 -0.0979368
l 47 48
v 0.00197171 0.0276501 -0.0979167
v 0.00221366 0.0276996 -0.0978933
l 49 50
v 0.00245358 0.0277566 -0.0978663
v 0.00269098 0.0278216 -0.0978355
l 51 52
v 0.00292523 0.0278953 -0.0978004
v 0.00315523 0.0279791 -0.0977604
l 53 54
v 0.00337894 0.0280757 -0.0977141
v 0.00359353 0.0281877 -0.0976601
l 55 56
v 0.00359353 0.0281877 -0.0976601
v 0.00379201 0.0283211 -0.0975953
l 57 58
v 0.00379201 0.0283211 -0.0975953
v 0.00393625 0.0285012 -0.0975118
l 59 60
v 0.00393625 0.0285012 -0.0975118
v 0.00378283 0.0286796 -0.0974157
l 61 62
v 0.00378283 0.0286796 -0.0974157
v 0.00358296 0.0288085 -0.0973491
l 63 64
v 0.00358296 0.0288085 -0.0973491
v 0.00336804 0.0289167 -0.0972928
l 65 66
v 0.00336804 0.0289167 -0.0972928
v 0.00314521 0.0290115 -0.0972432
l 67 68
v 0.00291616 0.0290939 -0.0972001
v 0.00268259 0.0291655 -0.0971624
l 69 70
v 0.00244567 0.0292279 -0.0971294
v 0.00220621 0.0292821 -0.0971007
l 71 72
v 0.00196499 0.0293299 -0.0970754
v 0.00172223 0.0293711 -0.0970535
l 73 74
v 0.00147824 0.0294062 -0.0970348
v 0.00123324 0.0294354 -0.0970193
l 75 76
v 0.000987458 0.0294588 -0.0970068
v 0.000741076 0.0294766 -0.0969973
l 77 78
v 0.00049427 0.0294891 -0.0969906
v 0.000247198 0.0294965 -0.0969866
l 79 80
v 0.000247198 0.0294965 -0.0969866
v 0 0.0294986 -0.0969848
l 81 82
v -0.000247147 0.0294965 -0.0969866
v -0.000494169 0.0294892 -0.0969906
l 83 84
v -0.000740924 0.0294767 -0.0969973
v -0.000987255 0.0294588 -0.0970068
l 85 86
v -0.00123299 0.0294354 -0.0970193
v -0.00147793 0.0294063 -0.0970348
l 87 88
v -0.00172188 0.0293712 -0.0970535
v -0.00196459 0.02933 -0.0970754
l 89 90
v -0.00220578 0.0292823 -0.0971007
v -0.00244494 0.0292272 -0.0971298
l 91 92
v -0.00268158 0.0291641 -0.0971631
v -0.00291509 0.0290925 -0.0972008
l 93 94
v -0.00314443 0.0290109 -0.0972436
v -0.00336764 0.0289169 -0.0972927
l 95 96
v -0.00314909 0.0279761 -0.0977619
v -0.00291952 0.0278924 -0.0978018
l 97 98
v -0.00268564 0.027819 -0.0978367
v -0.00244869 0.0277541 -0.0978675
l 99 100
v -0.00220946 0.0276964 -0.0978949
v -0.00196842 0.0276451 -0.0979191
l 101 102
v -0.00172549 0.0276018 -0.0979396
v -0.00148109 0.0275658 -0.0979565
l 103 104
v -0.00123559 0.0275366 -0.0979702
v -0.000989275 0.0275136 -0.0979809
l 105 106
v -0.000742385 0.0274964 -0.0979889
v -0.00049511 0.0274846 -0.0979944
l 107 108
v -0.000247607 0.0274778 -0.0979976
v 0 0.0274753 -0.097998
l 109 110
v 0.00024806 0.0274781 -0.0979974
v 0.000495995 0.0274856 -0.0979939
l 111 112
v 0.000743664 0.0274984 -0.0979879
v 0.000990909 0.0275168 -0.0979793
l 113 114
v 0.00123755 0.0275409 -0.097968
v 0.00148338 0.027571 -0.0979539
l 115 116
v 0.00172819 0.0276073 -0.0979368
v 0.00197171 0.0276501 -0.0979167
l 117 118
v 0.00221366 0.0276996 -0.0978933
v 0.00245358 0.0277566 -0.0978663
l 119 120
v 0.00269098 0.0278216 -0.0978355
v 0.00292523 0.0278953 -0.0978004
l 121 122
v 0.00315523 0.0279791 -0.0977604
v 0.00337894 0.0280757 -0.0977141
l 123 124
v 0.00314521 0.0290115 -0.0972432
v 0.00291616 0.0290939 -0.0972001
l 125 126
v 0.00268259 0.0291655 -0.0971624
v 0.00244567 0.0292279 -0.0971294
l 127 128
v 0.00220621 0.0292821 -0.0971007
v 0.00196499 0.0293299 -0.0970754
l 129 130
v 0.00172223 0.0293711 -0.0970535
v 0.00147824 0.0294062 -0.0970348
l 131 132
v 0.00123324 0.0294354 -0.0970193
v 0.000987458 0.0294588 -0.0970068
l 133 134
v 0.000741076 0.0294766 -0.0969973
v 0.00049427 0.0294891 -0.0969906
l 135 136
v 0.00393582 0.0285014 -0.0975137
v 0.00378799 0.0283164 -0.0976006
l 137 138
v 0.00359078 0.0281825 -0.0976637
v 0.00337693 0.0280715 -0.0977163
l 139 140
v 0.00315397 0.0279761 -0.0977615
v 0.00291674 0.0278902 -0.0978022
l 141 142
v 0.00268361 0.0278175 -0.0978366
v 0.00244717 0.0277537 -0.0978668
l 143 144
v 0.00220837 0.0276978 -0.0978932
v 0.00196886 0.0276493 -0.0979159
l 145 146
v 0.0017251 0.027607 -0.0979358
v 0.00148155 0.0275712 -0.0979525
l 147 148
v 0.00123701 0.0275415 -0.0979664
v 0.000991701 0.0275175 -0.0979776
l 149 150
v 0.000739615 0.0274985 -0.0979865
v 0.000493303 0.0274854 -0.0979926
l 151 152
v 0.000246718 0.0274776 -0.0979962
v 0 0.027475 -0.0979974
l 153 154
v -0.000246732 0.0274775 -0.0979962
v -0.000493339 0.027485 -0.0979927
l 155 156
v -0.00073968 0.0274979 -0.0979868
v -0.000989522 0.0275165 -0.0979781
l 157 158
v -0.00123484 0.0275405 -0.0979669
v -0.00147936 0.0275704 -0.0979529
l 159 160
v -0.00172289 0.0276064 -0.0979361
v -0.00196519 0.0276486 -0.0979163
l 161 162
v -0.00220559 0.0276972 -0.0978934
v -0.00244504 0.027753 -0.0978672
l 163 164
v -0.00268149 0.0278169 -0.0978369
v -0.00291489 0.0278902 -0.0978022
l 165 166
v -0.00315176 0.027977 -0.0977611
v -0.00337403 0.0280734 -0.0977154
l 167 168
v -0.00358759 0.0281852 -0.0976624
v -0.00378556 0.0283181 -0.0975998
l 169 170
v -0.00378556 0.0283181 -0.0975998
v -0.00393582 0.0285014 -0.0975137
l 171 172
v 0.00378799 0.0283164 -0.0976006
v 0.00359078 0.0281825 -0.0976637
l 173 174
v 0.00337693 0.0280715 -0.0977163
v 0.00315397 0.0279761 -0.0977615
l 175 176
v 0.00291674 0.0278902 -0.0978022
v 0.00268361 0.0278175 -0.0978366
l 177 178
v 0.00244717 0.0277537 -0.0978668
v 0.00220837 0.0276978 -0.0978932
l 179 180
v 0.00196886 0.0276493 -0.0979159
v 0.0017251 0.027607 -0.0979358
l 181 182
v 0.00148155 0.0275712 -0.0979525
v 0.00123701 0.0275415 -0.0979664
l 183 184
v 0.000991701 0.0275175 -0.0979776
v 0.000739615 0.0274985 -0.0979865
l 185 186
v 0.000493303 0.0274854 -0.0979926
v 0.000246718 0.0274776 -0.0979962
l 187 188
v 0 0.027475 -0.0979974
v -0.000246732 0.0274775 -0.0979962
l 189 190
v -0.000493339 0.027485 -0.0979927
v -0.00073968 0.0274979 -0.0979868
l 191 192
v -0.000989522 0.0275165 -0.0979781
v -0.00123484 0.0275405 -0.0979669
l 193 194
v -0.00147936 0.0275704 -0.0979529
v -0.00172289 0.0276064 -0.0979361
l 195 196
v -0.00196519 0.0276486 -0.0979163
v -0.00220559 0.0276972 -0.0978934
l 197 198
v -0.00244504 0.027753 -0.0978672
v -0.00268149 0.0278169 -0.0978369
l 199 200
v -0.00291489 0.0278902 -0.0978022
v -0.00315176 0.027977 -0.0977611
l 201 202
v -0.00337403 0.0280734 -0.0977154
v -0.00358759 0.0281852 -0.0976624
l 203 204
v -0.00393582 0.0285014 -0.0975137
v -0.00377949 0.0286805 -0.097418
l 205 206
v -0.00377949 0.0286805 -0.097418
v -0.00358142 0.0288102 -0.0973492
l 207 208
v -0.00336443 0.0289198 -0.0972913
v -0.0031414 0.0290128 -0.0972422
l 209 210
v -0.00291249 0.029094 -0.0971993
v -0.00267953 0.0291652 -0.0971617
l 211 212
v -0.00244324 0.0292277 -0.0971286
v -0.00220458 0.0292822 -0.0970997
l 213 214
v -0.00196517 0.0293294 -0.0970746
v -0.00172152 0.0293705 -0.0970526
l 215 216
v -0.00147808 0.0294052 -0.0970341
v -0.00123367 0.029434 -0.0970186
l 217 218
v -0.000984962 0.0294576 -0.097006
v -0.000739205 0.0294755 -0.0969964
l 219 220
v -0.00049303 0.0294883 -0.0969896
v -0.000246582 0.0294958 -0.0969855
l 221 222
v 0 0.0294983 -0.0969841
v 0.000246085 0.0294959 -0.0969854
l 223 224
v 0.000492044 0.0294886 -0.0969894
v 0.000737741 0.0294763 -0.096996
l 225 226
v 0.00098302 0.0294586 -0.0970055
v 0.00123514 0.0294346 -0.0970183
l 227 228
v 0.00147902 0.0294056 -0.0970339
v 0.00172932 0.0293695 -0.0970531
l 229 230
v 0.00197095 0.0293283 -0.0970751
v 0.00221085 0.0292809 -0.0971004
l 231 232
v 0.00244938 0.0292265 -0.0971293
v 0.00268526 0.029164 -0.0971624
l 233 234
v 0.00291762 0.0290924 -0.0972002
v 0.00314575 0.0290108 -0.0972433
l 235 236
v 0.0033676 0.028917 -0.0972928
v 0.00358081 0.0288082 -0.0973503
l 237 238
v 0.0037787 0.0286791 -0.0974188
v 0.00393582 0.0285014 -0.0975137
l 239 240
v 0.00358081 0.0288082 -0.0973503
v 0.0037787 0.0286791 -0.0974188
l 241 242
v -0.00358142 0.0288102 -0.0973492
v -0.00336443 0.0289198 -0.0972913
l 243 244
v -0.0031414 0.0290128 -0.0972422
v -0.00291249 0.029094 -0.0971993
l 245 246
v -0.00267953 0.0291652 -0.0971617
v -0.00244324 0.0292277 -0.0971286
l 247 248
v -0.00220458 0.0292822 -0.0970997
v -0.00196517 0.0293294 -0.0970746
l 249 250
v -0.00172152 0.0293705 -0.0970526
v -0.00147808 0.0294052 -0.0970341
l 251 252
v -0.00123367 0.029434 -0.0970186
v -0.000984962 0.0294576 -0.097006
l 253 254
v -0.000739205 0.0294755 -0.0969964
v -0.00049303 0.0294883 -0.0969896
l 255 256
v -0.000246582 0.0294958 -0.0969855
v 0 0.0294983 -0.0969841
l 257 258
v 0.000246085 0.0294959 -0.0969854
v 0.000492044 0.0294886 -0.0969894
l 259 260
v 0.000737741 0.0294763 -0.096996
v 0.00098302 0.0294586 -0.0970055
l 261 262
v 0.00123514 0.0294346 -0.0970183
v 0.00147902 0.0294056 -0.0970339
l 263 264
v 0.00172932 0.0293695 -0.0970531
v 0.00197095 0.0293283 -0.0970751
l 265 266
v 0.00221085 0.0292809 -0.0971004
v 0.00244938 0.0292265 -0.0971293
l 267 268
v 0.00268526 0.029164 -0.0971624
v 0.00291762 0.0290924 -0.0972002
l 269 270
v 0.00314575 0.0290108 -0.0972433
v 0.0033676 0.028917 -0.0972928
l 271 272
