v 0.034656718 -0.055462349 0.66000003
v 0.037529271 -0.053024732 0.66000003
l 1 2
v 0.037529271 -0.053024732 0.66000003
v 0.03847912 -0.051788539 0.66000003
l 3 4
v 0.03847912 -0.051788539 0.66000003
v 0.040127002 -0.048830882 0.66000003
l 5 6
v 0.040127002 -0.048830882 0.66000003
v 0.041456081 -0.044787109 0.66000003
l 7 8
v 0.041456081 -0.044787109 0.66000003
v 0.04241341 -0.037762381 0.66000003
l 9 10
v 0.04241341 -0.037762381 0.66000003
v 0.042335439 -0.03138458 0.66000003
l 11 12
v 0.042335439 -0.03138458 0.66000003
v 0.041776799 -0.02530713 0.66000003
l 13 14
v 0.041776799 -0.02530713 0.66000003
v 0.039550271 -0.01384538 0.66000003
l 15 16
v 0.039550271 -0.01384538 0.66000003
v 0.03645483 -0.0029265811 0.66000003
l 17 18
v 0.03645483 -0.0029265811 0.66000003
v 0.032693841 0.0075763371 0.66000003
l 19 20
v 0.032693841 0.0075763371 0.66000003
v 0.02824882 0.017651821 0.66000003
l 21 22
v 0.02824882 0.017651821 0.66000003
v 0.023082791 0.027276769 0.66000003
l 23 24
v 0.023082791 0.027276769 0.66000003
v 0.01732515 0.036532052 0.66000003
l 25 26
v 0.01732515 0.036532052 0.66000003
v 0.01103139 0.045452312 0.66000003
l 27 28
v 0.01103139 0.045452312 0.66000003
v 0.0042754309 0.054083761 0.66000003
l 29 30
v 0.0042754309 0.054083761 0.66000003
v -0.0028872469 0.062461071 0.66000003
l 31 32
v -0.0028872469 0.062461071 0.66000003
v -0.01045665 0.07058423 0.66000003
l 33 34
v -0.01045665 0.07058423 0.66000003
v -0.01837731 0.078487888 0.66000003
l 35 36
v -0.01837731 0.078487888 0.66000003
v -0.026612259 0.086195171 0.66000003
l 37 38
v -0.026612259 0.086195171 0.66000003
v -0.035050578 0.093775369 0.66000003
l 39 40
v -0.035050578 0.093775369 0.66000003
v -0.04369225 0.1012285 0.66000003
l 41 42
v -0.04369225 0.1012285 0.66000003
v -0.05248183 0.1085892 0.66000003
l 43 44
v -0.05248183 0.1085892 0.66000003
v -0.061400808 0.115869 0.66000003
l 45 46
v -0.061400808 0.115869 0.66000003
v -0.070393749 0.1231027 0.66000003
l 47 48
v -0.070393749 0.1231027 0.66000003
v -0.080643833 0.1295508 0.66000003
l 49 50
v -0.080643833 0.1295508 0.66000003
v -0.065788142 0.1099162 0.88300002
l 51 52
v 0.032093961 -0.056421079 0.66000003
v 0.034656718 -0.055462349 0.66000003
l 53 54
v 0.03097322 -0.05647875 0.66000003
v 0.032093961 -0.056421079 0.66000003
l 55 56
v 0.028609321 -0.056027919 0.66000003
v 0.03097322 -0.05647875 0.66000003
l 57 58
v 0.025649309 -0.054664269 0.66000003
v 0.028609321 -0.056027919 0.66000003
l 59 60
v 0.0207831 -0.051278502 0.66000003
v 0.025649309 -0.054664269 0.66000003
l 61 62
v 0.016730331 -0.04738443 0.66000003
v 0.0207831 -0.051278502 0.66000003
l 63 64
v 0.0130658 -0.043247759 0.66000003
v 0.016730331 -0.04738443 0.66000003
l 65 66
v 0.0063837902 -0.034570102 0.66000003
v 0.0130658 -0.043247759 0.66000003
l 67 68
v 0.0002009466 -0.02558052 0.66000003
v 0.0063837902 -0.034570102 0.66000003
l 69 70
v -0.0055936612 -0.016348351 0.66000003
v 0.0002009466 -0.02558052 0.66000003
l 71 72
v -0.01105549 -0.0069082389 0.66000003
v -0.0055936612 -0.016348351 0.66000003
l 73 74
v -0.01635094 0.0026358429 0.66000003
v -0.01105549 -0.0069082389 0.66000003
l 75 76
v -0.021572441 0.01222613 0.66000003
v -0.01635094 0.0026358429 0.66000003
l 77 78
v -0.026812419 0.021804869 0.66000003
v -0.021572441 0.01222613 0.66000003
l 79 80
v -0.032015432 0.031406719 0.66000003
v -0.026812419 0.021804869 0.66000003
l 81 82
v -0.037236929 0.04099701 0.66000003
v -0.032015432 0.031406719 0.66000003
l 83 84
v -0.042421449 0.050610401 0.66000003
v -0.037236929 0.04099701 0.66000003
l 85 86
v -0.04758748 0.060235351 0.66000003
v -0.042421449 0.050610401 0.66000003
l 87 88
v -0.052716538 0.069883414 0.66000003
v -0.04758748 0.060235351 0.66000003
l 89 90
v -0.057790142 0.079566114 0.66000003
v -0.052716538 0.069883414 0.66000003
l 91 92
v -0.06278979 0.08929503 0.66000003
v -0.057790142 0.079566114 0.66000003
l 93 94
v -0.067752458 0.099047057 0.66000003
v -0.06278979 0.08929503 0.66000003
l 95 96
v -0.072678164 0.1088222 0.66000003
v -0.067752458 0.099047057 0.66000003
l 97 98
v -0.077566877 0.1186204 0.66000003
v -0.072678164 0.1088222 0.66000003
l 99 100
v -0.080643833 0.1295508 0.66000003
v -0.077566877 0.1186204 0.66000003
l 101 102
v -0.065788142 0.1099162 0.88300002
v -0.1254648 0.2096217 1.008
l 103 104
v -0.1254648 0.2096217 1.008
v -0.2011787 0.47505859 1.258
l 105 106
v -0.2011787 0.47505859 1.258
v -0.14482591 0.47543159 1.522
l 107 108
v -0.14482591 0.47543159 1.522
v -0.1039122 0.4659546 1.798
l 109 110
v -0.1039122 0.4659546 1.798
v -0.076754741 0.4513205 2.075
l 111 112
v -0.076754741 0.4513205 2.075
v -0.05902946 0.43420649 2.352
l 113 114
v -0.05902946 0.43420649 2.352
v -0.046528671 0.41600671 2.628
l 115 116
v -0.046528671 0.41600671 2.628
v -0.036868252 0.3972936 2.905
l 117 118
v -0.036868252 0.3972936 2.905
v -0.02918501 0.37827641 3.181
l 119 120
v -0.02918501 0.37827641 3.181
v -0.022979241 0.35906601 3.4579999
l 121 122
v -0.022979241 0.35906601 3.4579999
v -0.01775597 0.33973679 3.7349999
l 123 124
v -0.01775597 0.33973679 3.7349999
v -0.01711598 0.33766699 3.7720001
l 125 126
v -0.01711598 0.33766699 3.7720001
v -0.01318449 0.32102981 4.0110002
l 127 128
v -0.01318449 0.32102981 4.0110002
v -0.009433371 0.30155289 4.2880001
l 129 130
v -0.009433371 0.30155289 4.2880001
v -0.006654975 0.28202191 4.5650001
l 131 132
v -0.006654975 0.28202191 4.5650001
v -0.0048642568 0.26245531 4.8410001
l 133 134
v 0.0079350574 -0.1057876 5.0300002
v 0.001863917 -0.1067837 5.0300002
l 135 136
v 0.01030436 -0.1048561 5.0300002
v 0.0079350574 -0.1057876 5.0300002
l 137 138
v 0.01509863 -0.102102 5.0300002
v 0.01030436 -0.1048561 5.0300002
l 139 140
v 0.020360149 -0.097559527 5.0300002
v 0.01509863 -0.102102 5.0300002
l 141 142
v 0.027608501 -0.088531651 5.0300002
v 0.020360149 -0.097559527 5.0300002
l 143 144
v 0.032863539 -0.079538569 5.0300002
v 0.027608501 -0.088531651 5.0300002
l 145 146
v 0.037193138 -0.07056164 5.0300002
v 0.032863539 -0.079538569 5.0300002
l 147 148
v 0.043716639 -0.052645061 5.0300002
v 0.037193138 -0.07056164 5.0300002
l 149 150
v 0.048567198 -0.034757681 5.0300002
v 0.043716639 -0.052645061 5.0300002
l 151 152
v 0.052136362 -0.01689267 5.0300002
v 0.048567198 -0.034757681 5.0300002
l 153 154
v 0.054388519 0.00094935508 5.0300002
v 0.052136362 -0.01689267 5.0300002
l 155 156
v 0.055252481 0.01876715 5.0300002
v 0.054388519 0.00094935508 5.0300002
l 157 158
v 0.054977428 0.036565062 5.0300002
v 0.055252481 0.01876715 5.0300002
l 159 160
v 0.053670119 0.054344948 5.0300002
v 0.054977428 0.036565062 5.0300002
l 161 162
v 0.051472958 0.072109312 5.0300002
v 0.053670119 0.054344948 5.0300002
l 163 164
v 0.048492711 0.08986 5.0300002
v 0.051472958 0.072109312 5.0300002
l 165 166
v 0.044729389 0.107597 5.0300002
v 0.048492711 0.08986 5.0300002
l 167 168
v 0.04028976 0.12532219 5.0300002
v 0.044729389 0.107597 5.0300002
l 169 170
v 0.035245031 0.1430369 5.0300002
v 0.04028976 0.12532219 5.0300002
l 171 172
v 0.02980876 0.1607447 5.0300002
v 0.035245031 0.1430369 5.0300002
l 173 174
v 0.023980949 0.1784457 5.0300002
v 0.02980876 0.1607447 5.0300002
l 175 176
v 0.017868379 0.1961417 5.0300002
v 0.023980949 0.1784457 5.0300002
l 177 178
v 0.01150665 0.21383341 5.0300002
v 0.017868379 0.1961417 5.0300002
l 179 180
v 0.0050025359 0.2315226 5.0300002
v 0.01150665 0.21383341 5.0300002
l 181 182
v -0.0048642568 0.26245531 4.8410001
v -0.0039220052 0.2491695 5.0300002
l 183 184
v -0.0039220052 0.2491695 5.0300002
v 0.0050025359 0.2315226 5.0300002
l 185 186
v 0.001863917 -0.1067837 5.0300002
v -0.0025297489 -0.1059703 5.0300002
l 187 188
v -0.0025297489 -0.1059703 5.0300002
v -0.0041470369 -0.1051084 5.0300002
l 189 190
v -0.0041470369 -0.1051084 5.0300002
v -0.0070767961 -0.1024891 5.0300002
l 191 192
v -0.0070767961 -0.1024891 5.0300002
v -0.01007321 -0.098090738 5.0300002
l 193 194
v -0.01007321 -0.098090738 5.0300002
v -0.01403716 -0.089258581 5.0300002
l 195 196
v -0.01403716 -0.089258581 5.0300002
v -0.016434951 -0.080399074 5.0300002
l 197 198
v -0.016434951 -0.080399074 5.0300002
v -0.018085239 -0.07152652 5.0300002
l 199 200
v -0.018085239 -0.07152652 5.0300002
v -0.020140029 -0.053759679 5.0300002
l 201 202
v -0.020140029 -0.053759679 5.0300002
v -0.021233769 -0.03597606 5.0300002
l 203 204
v -0.021233769 -0.03597606 5.0300002
v -0.021580011 -0.018179391 5.0300002
l 205 206
v -0.021580011 -0.018179391 5.0300002
v -0.02128556 -0.00037154081 5.0300002
l 207 208
v -0.02128556 -0.00037154081 5.0300002
v -0.020670749 0.0174419 5.0300002
l 209 210
v -0.020670749 0.0174419 5.0300002
v -0.019913569 0.035257831 5.0300002
l 211 212
v -0.019913569 0.035257831 5.0300002
v -0.01919198 0.053073142 5.0300002
l 213 214
v -0.01919198 0.053073142 5.0300002
v -0.018399199 0.070889689 5.0300002
l 215 216
v -0.018399199 0.070889689 5.0300002
v -0.01764201 0.088705607 5.0300002
l 217 218
v -0.01764201 0.088705607 5.0300002
v -0.01681364 0.1065228 5.0300002
l 219 220
v -0.01681364 0.1065228 5.0300002
v -0.01594967 0.1243406 5.0300002
l 221 222
v -0.01594967 0.1243406 5.0300002
v -0.01501451 0.1421596 5.0300002
l 223 224
v -0.01501451 0.1421596 5.0300002
v -0.01397257 0.15998051 5.0300002
l 225 226
v -0.01397257 0.15998051 5.0300002
v -0.01278825 0.1778039 5.0300002
l 227 228
v -0.01278825 0.1778039 5.0300002
v -0.01153274 0.19562849 5.0300002
l 229 230
v -0.01153274 0.19562849 5.0300002
v -0.01020605 0.2134544 5.0300002
l 231 232
v -0.01020605 0.2134544 5.0300002
v -0.0088081602 0.2312815 5.0300002
l 233 234
v -0.0088081602 0.2312815 5.0300002
v -0.0039220052 0.2491695 5.0300002
l 235 236
