v 0.0346567 0.055462301 -0.66000003
v 0.79713435 -0.59155225 -0.66000003
l 1 2
v 0.037529301 0.053024702 -0.66000003
v 0.64678727 -0.73994739 -0.66000003
l 3 4
v 0.038479101 0.051788501 -0.66000003
v 0.52520255 -0.82176761 -0.66000003
l 5 6
v 0.040127002 0.0488309 -0.66000003
v 0.35236958 -0.90117151 -0.66000003
l 7 8
v 0.0414561 0.044787101 -0.66000003
v 0.17648416 -0.94605467 -0.66000003
l 9 10
v 0.042413399 0.0377624 -0.66000003
v 0.030184373 -0.96216282 -0.66000003
l 11 12
v 0.042335398 0.031384598 -0.66000003
v -0.049191599 -0.964418 -0.66000003
l 13 14
v 0.041776799 0.0253071 -0.66000003
v -0.14891411 -0.95634303 -0.66000003
l 15 16
v 0.039550301 0.0138454 -0.66000003
v -0.2332019 -0.94823892 -0.66000003
l 17 18
v 0.036454801 0.0029265799 -0.66000003
v -0.30067313 -0.93853227 -0.66000003
l 19 20
v 0.0326938 -0.0075763399 -0.66000003
v -0.37094212 -0.92249603 -0.66000003
l 21 22
v 0.0282488 -0.0176518 -0.66000003
v -0.444666 -0.89875996 -0.66000003
l 23 24
v 0.0230828 -0.027276799 -0.66000003
v -0.5051428 -0.87638087 -0.66000003
l 25 26
v 0.0173251 -0.0365321 -0.66000003
v -0.55918001 -0.85362565 -0.66000003
l 27 28
v 0.0110314 -0.0454523 -0.66000003
v -0.60532679 -0.83291823 -0.66000003
l 29 30
v 0.00427543 -0.054083802 -0.66000003
v -0.64558124 -0.81414058 -0.66000003
l 31 32
v -0.0028872499 -0.062461101 -0.66000003
v -0.68461758 -0.79406465 -0.66000003
l 33 34
v -0.0104566 -0.0705842 -0.66000003
v -0.7183225 -0.77693104 -0.66000003
l 35 36
v -0.0183773 -0.078487903 -0.66000003
v -0.74848999 -0.76181466 -0.66000003
l 37 38
v -0.0266123 -0.086195201 -0.66000003
v -0.77053175 -0.75446449 -0.66000003
l 39 40
v -0.035050601 -0.093775399 -0.66000003
v -0.79233296 -0.74686301 -0.66000003
l 41 42
v -0.043692201 -0.101228 -0.66000003
v -0.81035248 -0.74328097 -0.66000003
l 43 44
v -0.0524818 -0.108589 -0.66000003
v -0.82717777 -0.74092289 -0.66000003
l 45 46
v -0.061400801 -0.115869 -0.66000003
v -0.84058955 -0.74265835 -0.66000003
l 47 48
v -0.070393696 -0.123103 -0.66000003
v -0.91684159 -0.65557457 -0.66000003
l 49 50
v -0.080643803 -0.12955099 -0.66000003
v -0.014428665 -0.042033527 -1.6539599
l 51 52
v 0.032094002 0.056421101 -0.66000003
v 0.96868863 -0.29399367 -0.66000003
l 53 54
v 0.0309732 0.056478702 -0.66000003
v 1.0296552 0.0051542728 -0.66000003
l 55 56
v 0.0286093 0.0560279 -0.66000003
v 1.010907 0.24335433 -0.66000003
l 57 58
v 0.0256493 0.054664299 -0.66000003
v 0.93390645 0.47307672 -0.66000003
l 59 60
v 0.0207831 0.051278502 -0.66000003
v 0.84163968 0.62241288 -0.66000003
l 61 62
v 0.016730299 0.0473844 -0.66000003
v 0.7378142 0.74023216 -0.66000003
l 63 64
v 0.0130658 0.0432478 -0.66000003
v 0.67616734 0.79177726 -0.66000003
l 65 66
v 0.0063837902 0.034570102 -0.66000003
v 0.61648782 0.82689142 -0.66000003
l 67 68
v 0.000200947 0.025580499 -0.66000003
v 0.56688483 0.8495158 -0.66000003
l 69 70
v -0.0055936598 0.016348399 -0.66000003
v 0.52602357 0.86333312 -0.66000003
l 71 72
v -0.0110555 0.0069082398 -0.66000003
v 0.48973937 0.87247424 -0.66000003
l 73 74
v -0.016350901 -0.0026358401 -0.66000003
v 0.46881125 0.87178836 -0.66000003
l 75 76
v -0.0215724 -0.0122261 -0.66000003
v 0.45660543 0.86603694 -0.66000003
l 77 78
v -0.026812401 -0.021804901 -0.66000003
v 0.45311233 0.85550477 -0.66000003
l 79 80
v -0.032015398 -0.031406701 -0.66000003
v 0.44441094 0.84780769 -0.66000003
l 81 82
v -0.037236899 -0.040996999 -0.66000003
v 0.4409396 0.83726676 -0.66000003
l 83 84
v -0.042421401 -0.050610401 -0.66000003
v 0.43224998 0.8295527 -0.66000003
l 85 86
v -0.047587499 -0.0602354 -0.66000003
v 0.42533432 0.82086899 -0.66000003
l 87 88
v -0.052716501 -0.069883399 -0.66000003
v 0.41668871 0.81309947 -0.66000003
l 89 90
v -0.057790101 -0.079566099 -0.66000003
v 0.40633957 0.80620117 -0.66000003
l 91 92
v -0.062789798 -0.089295 -0.66000003
v 0.39428797 0.80013174 -0.66000003
l 93 94
v -0.067752503 -0.099047102 -0.66000003
v 0.38578527 0.79218996 -0.66000003
l 95 96
v -0.072678201 -0.108822 -0.66000003
v 0.37732862 0.78420312 -0.66000003
l 97 98
v -0.077566899 -0.11862 -0.66000003
v 0.36889399 0.77618315 -0.66000003
l 99 100
v -0.080643803 -0.12955099 -0.66000003
v 0.19031083 0.83304113 -0.66000003
l 101 102
v -0.065788098 -0.109916 -0.88300002
v -0.41545443 -0.69412572 -1.6154155
l 103 104
v -0.12546501 -0.209622 -1.008
v -0.32877302 -0.92237625 -1.6793027
l 105 106
v -0.201179 -0.475059 -1.258
v 0.0075762539 -0.47644077 -2.235967
l 107 108
v -0.14482599 -0.47543201 -1.522
v 0.0017261775 -0.44148573 -2.5106203
l 109 110
v -0.103912 -0.46595499 -1.798
v -0.0064736319 -0.41344572 -2.7918554
l 111 112
v -0.076754697 -0.45131999 -2.075
v -0.013016457 -0.38977962 -3.0710674
l 113 114
v -0.059029501 -0.43420601 -2.352
v -0.01388098 -0.36847759 -3.3488156
l 115 116
v -0.046528701 -0.41600701 -2.628
v -0.011753958 -0.34864545 -3.6251224
l 117 118
v -0.0368683 -0.39729401 -2.905
v -0.0091068184 -0.32857763 -3.9022499
l 119 120
v -0.029185001 -0.37827599 -3.181
v -0.0068406443 -0.30910931 -4.1783548
l 121 122
v -0.0229792 -0.35906601 -3.4579999
v -0.0041719477 -0.28946775 -4.4553977
l 123 124
v -0.017756 -0.339737 -3.7349999
v -0.0004883872 -0.28388674 -4.7332897
l 125 126
v -0.017116001 -0.33766699 -3.7720001
v -0.00070813171 -0.26823354 -4.7694517
l 127 128
v -0.0131845 -0.32102999 -4.0110002
v 0.00032290252 -0.25089555 -5.0084463
l 129 130
v -0.0094333701 -0.30155301 -4.2880001
v 0.00057157922 -0.23122207 -5.2854736
l 131 132
v -0.0066549801 -0.282022 -4.5650001
v -0.00018324386 -0.21130601 -5.5624756
l 133 134
v 0.0079350602 0.105788 -5.0300002
v -0.9788736 0.26767892 -5.0300002
l 135 136
v 0.0103044 0.104856 -5.0300002
v -0.92028813 0.47091276 -5.0300002
l 137 138
v 0.0150986 0.102102 -5.0300002
v -0.8520157 0.60021122 -5.0300002
l 139 140
v 0.020360099 0.097559497 -5.0300002
v -0.73657124 0.75105391 -5.0300002
l 141 142
v 0.027608501 0.088531703 -5.0300002
v -0.59846368 0.86829681 -5.0300002
l 143 144
v 0.032863501 0.079538599 -5.0300002
v -0.47165374 0.94294022 -5.0300002
l 145 146
v 0.037193101 0.070561603 -5.0300002
v -0.39722046 0.97127513 -5.0300002
l 147 148
v 0.043716598 0.052645098 -5.0300002
v -0.29841576 0.99229687 -5.0300002
l 149 150
v 0.048567198 0.0347577 -5.0300002
v -0.21315471 0.99990103 -5.0300002
l 151 152
v 0.052136399 0.0168927 -5.0300002
v -0.1437792 0.99751346 -5.0300002
l 153 154
v 0.054388501 -0.00094935502 -5.0300002
v -0.070842176 0.9911783 -5.0300002
l 155 156
v 0.0552525 -0.0187672 -5.0300002
v 0.0068187461 0.9800592 -5.0300002
l 157 158
v 0.054977398 -0.036565099 -5.0300002
v 0.070432518 0.96331546 -5.0300002
l 159 160
v 0.053670101 -0.0543449 -5.0300002
v 0.12699927 0.94296289 -5.0300002
l 161 162
v 0.051472999 -0.072109297 -5.0300002
v 0.17421782 0.92032897 -5.0300002
l 163 164
v 0.0484927 -0.08986 -5.0300002
v 0.21407264 0.89633637 -5.0300002
l 165 166
v 0.0447294 -0.107597 -5.0300002
v 0.25228138 0.87062699 -5.0300002
l 167 168
v 0.040289801 -0.125322 -5.0300002
v 0.2832555 0.84471288 -5.0300002
l 169 170
v 0.035245001 -0.14303701 -5.0300002
v 0.30913124 0.81872509 -5.0300002
l 171 172
v 0.029808801 -0.16074499 -5.0300002
v 0.32328252 0.79522215 -5.0300002
l 173 174
v 0.023980901 -0.17844599 -5.0300002
v 0.3367084 0.77139689 -5.0300002
l 175 176
v 0.0178684 -0.196142 -5.0300002
v 0.3443569 0.74905917 -5.0300002
l 177 178
v 0.0115066 -0.213833 -5.0300002
v 0.34989826 0.72717236 -5.0300002
l 179 180
v 0.0050025401 -0.23152301 -5.0300002
v 0.35008607 0.70704897 -5.0300002
l 181 182
v -0.0048642601 -0.26245499 -4.8410001
v 0.00010885359 -0.19233276 -5.8385261
l 183 184
v -0.0039220098 -0.24916901 -5.0300002
v 0.4473952 0.64319458 -5.0300002
l 185 186
v 0.00186392 0.106784 -5.0300002
v -0.98140383 -0.075382215 -5.0300002
l 187 188
v -0.0025297501 0.10597 -5.0300002
v -0.8850078 -0.36438357 -5.0300002
l 189 190
v -0.0041470402 0.105108 -5.0300002
v -0.74968742 -0.56135246 -5.0300002
l 191 192
v -0.0070767999 0.102489 -5.0300002
v -0.57010038 -0.72395183 -5.0300002
l 193 194
v -0.0100732 0.098090701 -5.0300002
v -0.4195403 -0.81423418 -5.0300002
l 195 196
v -0.0140372 0.089258596 -5.0300002
v -0.27528548 -0.87601304 -5.0300002
l 197 198
v -0.016434999 0.080399103 -5.0300002
v -0.19928763 -0.90274123 -5.0300002
l 199 200
v -0.0180852 0.071526498 -5.0300002
v -0.1329733 -0.92185194 -5.0300002
l 201 202
v -0.02014 0.053759702 -5.0300002
v -0.081530156 -0.94435414 -5.0300002
l 203 204
v -0.021233801 0.035976101 -5.0300002
v -0.040683091 -0.96383474 -5.0300002
l 205 206
v -0.021579999 0.0181794 -5.0300002
v -0.0050502101 -0.98168397 -5.0300002
l 207 208
v -0.021285599 0.00037154101 -5.0300002
v 0.013212635 -0.99903322 -5.0300002
l 209 210
v -0.020670701 -0.0174419 -5.0300002
v 0.021786729 -1.0165402 -5.0300002
l 211 212
v -0.019913601 -0.035257801 -5.0300002
v 0.02055772 -1.0344385 -5.0300002
l 213 214
v -0.019192001 -0.053073101 -5.0300002
v 0.025261926 -1.0520845 -5.0300002
l 215 216
v -0.018399199 -0.070889696 -5.0300002
v 0.024063752 -1.0699877 -5.0300002
l 217 218
v -0.017642001 -0.088705599 -5.0300002
v 0.028801718 -1.0876265 -5.0300002
l 219 220
v -0.0168136 -0.106523 -5.0300002
v 0.031614203 -1.1053497 -5.0300002
l 221 222
v -0.0159497 -0.124341 -5.0300002
v 0.036461468 -1.1229666 -5.0300002
l 223 224
v -0.0150145 -0.14216 -5.0300002
v 0.043350591 -1.1404553 -5.0300002
l 225 226
v -0.0139726 -0.159981 -5.0300002
v 0.052329031 -1.1577806 -5.0300002
l 227 228
v -0.0127883 -0.17780399 -5.0300002
v 0.05748191 -1.175332 -5.0300002
l 229 230
v -0.0115327 -0.195628 -5.0300002
v 0.062681506 -1.1928703 -5.0300002
l 231 232
v -0.0102061 -0.21345399 -5.0300002
v 0.06796651 -1.2103938 -5.0300002
l 233 234
v -0.0088081602 -0.231282 -5.0300002
v 0.2547045 -1.1959379 -5.0300002
l 235 236
v -0.080643803 -0.12955099 -0.66000003
v -0.080643803 -0.12955099 -0.66000003
l 237 238
v 0.0346567 0.055462301 -0.66000003
v 0.0346567 0.055462301 -0.66000003
l 239 240
v -0.0039220098 -0.24916901 -5.0300002
v -0.0039220098 -0.24916901 -5.0300002
l 241 242
v 0.00186392 0.106784 -5.0300002
v 0.00186392 0.106784 -5.0300002
l 243 244
v 0.0346567 0.055462301 -0.66000003
v -0.43862331 -0.82544974 -0.66000003
l 245 246
v -0.00757688 -0.0231467 -0.66000003
v -0.57365304 -0.84749965 -0.66000003
l 247 248
v 0.00186392 0.106784 -5.0300002
v 0.049886762 -0.89206224 -5.0300002
l 249 250
v 0.0088620503 -0.0387729 -5.0300002
v -0.051787959 -1.036932 -5.0300002
l 251 252
