# Wavefront OBJ file written 2026-07-03T11:12:52
o blade2_edgeMesh

# points : 119
# lines  : 126

# <points count="119">
v -0.065788098 -0.109916 -0.88300002
v -0.201179 -0.475059 -1.258
v 0.0346567 0.055462301 -0.66000003
v -0.080643803 -0.12955099 -0.66000003
v 0.00186392 0.106784 -5.0300002
v -0.0039220098 -0.24916901 -5.0300002
v -0.00757688 -0.0231467 -0.66000003
v 0.0088620503 -0.0387729 -5.0300002
v 0.037529301 0.053024702 -0.66000003
v 0.038479101 0.051788501 -0.66000003
v 0.040127002 0.0488309 -0.66000003
v 0.0414561 0.044787101 -0.66000003
v 0.042413399 0.0377624 -0.66000003
v 0.042335398 0.031384598 -0.66000003
v 0.041776799 0.0253071 -0.66000003
v 0.039550301 0.0138454 -0.66000003
v 0.036454801 0.0029265799 -0.66000003
v 0.0326938 -0.0075763399 -0.66000003
v 0.0282488 -0.0176518 -0.66000003
v 0.0230828 -0.027276799 -0.66000003
v 0.0173251 -0.0365321 -0.66000003
v 0.0110314 -0.0454523 -0.66000003
v 0.00427543 -0.054083802 -0.66000003
v -0.0028872499 -0.062461101 -0.66000003
v -0.0104566 -0.0705842 -0.66000003
v -0.0183773 -0.078487903 -0.66000003
v -0.0266123 -0.086195201 -0.66000003
v -0.035050601 -0.093775399 -0.66000003
v -0.043692201 -0.101228 -0.66000003
v -0.0524818 -0.108589 -0.66000003
v -0.061400801 -0.115869 -0.66000003
v -0.070393696 -0.123103 -0.66000003
v 0.032094002 0.056421101 -0.66000003
v 0.0309732 0.056478702 -0.66000003
v 0.0286093 0.0560279 -0.66000003
v 0.0256493 0.054664299 -0.66000003
v 0.0207831 0.051278502 -0.66000003
v 0.016730299 0.0473844 -0.66000003
v 0.0130658 0.0432478 -0.66000003
v 0.0063837902 0.034570102 -0.66000003
v 0.000200947 0.025580499 -0.66000003
v -0.0055936598 0.016348399 -0.66000003
v -0.0110555 0.0069082398 -0.66000003
v -0.016350901 -0.0026358401 -0.66000003
v -0.0215724 -0.0122261 -0.66000003
v -0.026812401 -0.021804901 -0.66000003
v -0.032015398 -0.031406701 -0.66000003
v -0.037236899 -0.040996999 -0.66000003
v -0.042421401 -0.050610401 -0.66000003
v -0.047587499 -0.0602354 -0.66000003
v -0.052716501 -0.069883399 -0.66000003
v -0.057790101 -0.079566099 -0.66000003
v -0.062789798 -0.089295 -0.66000003
v -0.067752503 -0.099047102 -0.66000003
v -0.072678201 -0.108822 -0.66000003
v -0.077566899 -0.11862 -0.66000003
v -0.12546501 -0.209622 -1.008
v -0.14482599 -0.47543201 -1.522
v -0.103912 -0.46595499 -1.798
v -0.076754697 -0.45131999 -2.075
v -0.059029501 -0.43420601 -2.352
v -0.046528701 -0.41600701 -2.628
v -0.0368683 -0.39729401 -2.905
v -0.029185001 -0.37827599 -3.181
v -0.0229792 -0.35906601 -3.4579999
v -0.017756 -0.339737 -3.7349999
v -0.017116001 -0.33766699 -3.7720001
v -0.0131845 -0.32102999 -4.0110002
v -0.0094333701 -0.30155301 -4.2880001
v -0.0066549801 -0.282022 -4.5650001
v -0.0048642601 -0.26245499 -4.8410001
v 0.0079350602 0.105788 -5.0300002
v 0.0103044 0.104856 -5.0300002
v 0.0150986 0.102102 -5.0300002
v 0.020360099 0.097559497 -5.0300002
v 0.027608501 0.088531703 -5.0300002
v 0.032863501 0.079538599 -5.0300002
v 0.037193101 0.070561603 -5.0300002
v 0.043716598 0.052645098 -5.0300002
v 0.048567198 0.0347577 -5.0300002
v 0.052136399 0.0168927 -5.0300002
v 0.054388501 -0.00094935502 -5.0300002
v 0.0552525 -0.0187672 -5.0300002
v 0.054977398 -0.036565099 -5.0300002
v 0.053670101 -0.0543449 -5.0300002
v 0.051472999 -0.072109297 -5.0300002
v 0.0484927 -0.08986 -5.0300002
v 0.0447294 -0.107597 -5.0300002
v 0.040289801 -0.125322 -5.0300002
v 0.035245001 -0.14303701 -5.0300002
v 0.029808801 -0.16074499 -5.0300002
v 0.023980901 -0.17844599 -5.0300002
v 0.0178684 -0.196142 -5.0300002
v 0.0115066 -0.213833 -5.0300002
v 0.0050025401 -0.23152301 -5.0300002
v -0.0025297501 0.10597 -5.0300002
v -0.0041470402 0.105108 -5.0300002
v -0.0070767999 0.102489 -5.0300002
v -0.0100732 0.098090701 -5.0300002
v -0.0140372 0.089258596 -5.0300002
v -0.016434999 0.080399103 -5.0300002
v -0.0180852 0.071526498 -5.0300002
v -0.02014 0.053759702 -5.0300002
v -0.021233801 0.035976101 -5.0300002
v -0.021579999 0.0181794 -5.0300002
v -0.021285599 0.00037154101 -5.0300002
v -0.020670701 -0.0174419 -5.0300002
v -0.019913601 -0.035257801 -5.0300002
v -0.019192001 -0.053073101 -5.0300002
v -0.018399199 -0.070889696 -5.0300002
v -0.017642001 -0.088705599 -5.0300002
v -0.0168136 -0.106523 -5.0300002
v -0.0159497 -0.124341 -5.0300002
v -0.0150145 -0.14216 -5.0300002
v -0.0139726 -0.159981 -5.0300002
v -0.0127883 -0.17780399 -5.0300002
v -0.0115327 -0.195628 -5.0300002
v -0.0102061 -0.21345399 -5.0300002
v -0.0088081602 -0.231282 -5.0300002
# </points>

# <edges count="126">
l 3 9
l 9 10
l 10 11
l 11 12
l 12 13
l 13 14
l 14 15
l 15 16
l 16 17
l 17 18
l 18 19
l 19 20
l 20 21
l 21 22
l 22 23
l 23 24
l 24 25
l 25 26
l 26 27
l 27 28
l 28 29
l 29 30
l 30 31
l 31 32
l 32 4
l 4 1
l 33 3
l 34 33
l 35 34
l 36 35
l 37 36
l 38 37
l 39 38
l 40 39
l 41 40
l 42 41
l 43 42
l 44 43
l 45 44
l 46 45
l 47 46
l 48 47
l 49 48
l 50 49
l 51 50
l 52 51
l 53 52
l 54 53
l 55 54
l 56 55
l 4 56
l 1 57
l 57 2
l 2 58
l 58 59
l 59 60
l 60 61
l 61 62
l 62 63
l 63 64
l 64 65
l 65 66
l 66 67
l 67 68
l 68 69
l 69 70
l 70 71
l 72 5
l 73 72
l 74 73
l 75 74
l 76 75
l 77 76
l 78 77
l 79 78
l 80 79
l 81 80
l 82 81
l 83 82
l 84 83
l 85 84
l 86 85
l 87 86
l 88 87
l 89 88
l 90 89
l 91 90
l 92 91
l 93 92
l 94 93
l 95 94
l 71 6
l 6 95
l 5 96
l 96 97
l 97 98
l 98 99
l 99 100
l 100 101
l 101 102
l 102 103
l 103 104
l 104 105
l 105 106
l 106 107
l 107 108
l 108 109
l 109 110
l 110 111
l 111 112
l 112 113
l 113 114
l 114 115
l 115 116
l 116 117
l 117 118
l 118 119
l 119 6
l 4 4
l 3 3
l 6 6
l 5 5
l 3 7
l 7 4
l 5 8
l 8 6
# </edges>
