# Wavefront OBJ file written 2026-07-03T11:12:52
o blade_edgeMesh

# points : 119
# lines  : 126

# <points count="119">
v -0.065788142 0.1099162 0.88300002
v -0.2011787 0.47505859 1.258
v 0.034656718 -0.055462349 0.66000003
v -0.080643833 0.1295508 0.66000003
v 0.001863917 -0.1067837 5.0300002
v -0.0039220052 0.2491695 5.0300002
v -0.0075768791 0.023146659 0.66000003
v 0.0088620475 0.038772881 5.0300002
v 0.037529271 -0.053024732 0.66000003
v 0.03847912 -0.051788539 0.66000003
v 0.040127002 -0.048830882 0.66000003
v 0.041456081 -0.044787109 0.66000003
v 0.04241341 -0.037762381 0.66000003
v 0.042335439 -0.03138458 0.66000003
v 0.041776799 -0.02530713 0.66000003
v 0.039550271 -0.01384538 0.66000003
v 0.03645483 -0.0029265811 0.66000003
v 0.032693841 0.0075763371 0.66000003
v 0.02824882 0.017651821 0.66000003
v 0.023082791 0.027276769 0.66000003
v 0.01732515 0.036532052 0.66000003
v 0.01103139 0.045452312 0.66000003
v 0.0042754309 0.054083761 0.66000003
v -0.0028872469 0.062461071 0.66000003
v -0.01045665 0.07058423 0.66000003
v -0.01837731 0.078487888 0.66000003
v -0.026612259 0.086195171 0.66000003
v -0.035050578 0.093775369 0.66000003
v -0.04369225 0.1012285 0.66000003
v -0.05248183 0.1085892 0.66000003
v -0.061400808 0.115869 0.66000003
v -0.070393749 0.1231027 0.66000003
v 0.032093961 -0.056421079 0.66000003
v 0.03097322 -0.05647875 0.66000003
v 0.028609321 -0.056027919 0.66000003
v 0.025649309 -0.054664269 0.66000003
v 0.0207831 -0.051278502 0.66000003
v 0.016730331 -0.04738443 0.66000003
v 0.0130658 -0.043247759 0.66000003
v 0.0063837902 -0.034570102 0.66000003
v 0.0002009466 -0.02558052 0.66000003
v -0.0055936612 -0.016348351 0.66000003
v -0.01105549 -0.0069082389 0.66000003
v -0.01635094 0.0026358429 0.66000003
v -0.021572441 0.01222613 0.66000003
v -0.026812419 0.021804869 0.66000003
v -0.032015432 0.031406719 0.66000003
v -0.037236929 0.04099701 0.66000003
v -0.042421449 0.050610401 0.66000003
v -0.04758748 0.060235351 0.66000003
v -0.052716538 0.069883414 0.66000003
v -0.057790142 0.079566114 0.66000003
v -0.06278979 0.08929503 0.66000003
v -0.067752458 0.099047057 0.66000003
v -0.072678164 0.1088222 0.66000003
v -0.077566877 0.1186204 0.66000003
v -0.1254648 0.2096217 1.008
v -0.14482591 0.47543159 1.522
v -0.1039122 0.4659546 1.798
v -0.076754741 0.4513205 2.075
v -0.05902946 0.43420649 2.352
v -0.046528671 0.41600671 2.628
v -0.036868252 0.3972936 2.905
v -0.02918501 0.37827641 3.181
v -0.022979241 0.35906601 3.4579999
v -0.01775597 0.33973679 3.7349999
v -0.01711598 0.33766699 3.7720001
v -0.01318449 0.32102981 4.0110002
v -0.009433371 0.30155289 4.2880001
v -0.006654975 0.28202191 4.5650001
v -0.0048642568 0.26245531 4.8410001
v 0.0079350574 -0.1057876 5.0300002
v 0.01030436 -0.1048561 5.0300002
v 0.01509863 -0.102102 5.0300002
v 0.020360149 -0.097559527 5.0300002
v 0.027608501 -0.088531651 5.0300002
v 0.032863539 -0.079538569 5.0300002
v 0.037193138 -0.07056164 5.0300002
v 0.043716639 -0.052645061 5.0300002
v 0.048567198 -0.034757681 5.0300002
v 0.052136362 -0.01689267 5.0300002
v 0.054388519 0.00094935508 5.0300002
v 0.055252481 0.01876715 5.0300002
v 0.054977428 0.036565062 5.0300002
v 0.053670119 0.054344948 5.0300002
v 0.051472958 0.072109312 5.0300002
v 0.048492711 0.08986 5.0300002
v 0.044729389 0.107597 5.0300002
v 0.04028976 0.12532219 5.0300002
v 0.035245031 0.1430369 5.0300002
v 0.02980876 0.1607447 5.0300002
v 0.023980949 0.1784457 5.0300002
v 0.017868379 0.1961417 5.0300002
v 0.01150665 0.21383341 5.0300002
v 0.0050025359 0.2315226 5.0300002
v -0.0025297489 -0.1059703 5.0300002
v -0.0041470369 -0.1051084 5.0300002
v -0.0070767961 -0.1024891 5.0300002
v -0.01007321 -0.098090738 5.0300002
v -0.01403716 -0.089258581 5.0300002
v -0.016434951 -0.080399074 5.0300002
v -0.018085239 -0.07152652 5.0300002
v -0.020140029 -0.053759679 5.0300002
v -0.021233769 -0.03597606 5.0300002
v -0.021580011 -0.018179391 5.0300002
v -0.02128556 -0.00037154081 5.0300002
v -0.020670749 0.0174419 5.0300002
v -0.019913569 0.035257831 5.0300002
v -0.01919198 0.053073142 5.0300002
v -0.018399199 0.070889689 5.0300002
v -0.01764201 0.088705607 5.0300002
v -0.01681364 0.1065228 5.0300002
v -0.01594967 0.1243406 5.0300002
v -0.01501451 0.1421596 5.0300002
v -0.01397257 0.15998051 5.0300002
v -0.01278825 0.1778039 5.0300002
v -0.01153274 0.19562849 5.0300002
v -0.01020605 0.2134544 5.0300002
v -0.0088081602 0.2312815 5.0300002
# </points>

# <edges count="126">
l 3 9
l 9 10
l 10 11
l 11 12
l 12 13
l 13 14
l 14 15
l 15 16
l 16 17
l 17 18
l 18 19
l 19 20
l 20 21
l 21 22
l 22 23
l 23 24
l 24 25
l 25 26
l 26 27
l 27 28
l 28 29
l 29 30
l 30 31
l 31 32
l 32 4
l 4 1
l 33 3
l 34 33
l 35 34
l 36 35
l 37 36
l 38 37
l 39 38
l 40 39
l 41 40
l 42 41
l 43 42
l 44 43
l 45 44
l 46 45
l 47 46
l 48 47
l 49 48
l 50 49
l 51 50
l 52 51
l 53 52
l 54 53
l 55 54
l 56 55
l 4 56
l 1 57
l 57 2
l 2 58
l 58 59
l 59 60
l 60 61
l 61 62
l 62 63
l 63 64
l 64 65
l 65 66
l 66 67
l 67 68
l 68 69
l 69 70
l 70 71
l 72 5
l 73 72
l 74 73
l 75 74
l 76 75
l 77 76
l 78 77
l 79 78
l 80 79
l 81 80
l 82 81
l 83 82
l 84 83
l 85 84
l 86 85
l 87 86
l 88 87
l 89 88
l 90 89
l 91 90
l 92 91
l 93 92
l 94 93
l 95 94
l 71 6
l 6 95
l 5 96
l 96 97
l 97 98
l 98 99
l 99 100
l 100 101
l 101 102
l 102 103
l 103 104
l 104 105
l 105 106
l 106 107
l 107 108
l 108 109
l 109 110
l 110 111
l 111 112
l 112 113
l 113 114
l 114 115
l 115 116
l 116 117
l 117 118
l 118 119
l 119 6
l 4 4
l 3 3
l 6 6
l 5 5
l 3 7
l 7 4
l 5 8
l 8 6
# </edges>
