v 0.0346567 0.055462301 -0.66000003
v 0.037529301 0.053024702 -0.66000003
l 1 2
v 0.032094002 0.056421101 -0.66000003
v 0.0346567 0.055462301 -0.66000003
l 3 4
v 0.0346567 0.055462301 -0.66000003
v 0.0346567 0.055462301 -0.66000003
l 5 6
v 0.0346567 0.055462301 -0.66000003
v 0.0346567 0.055462301 -0.66000003
l 7 8
v 0.0346567 0.055462301 -0.66000003
v -0.00757688 -0.0231467 -0.66000003
l 9 10
v -0.070393696 -0.123103 -0.66000003
v -0.080643803 -0.12955099 -0.66000003
l 11 12
v -0.080643803 -0.12955099 -0.66000003
v -0.065788098 -0.109916 -0.88300002
l 13 14
v -0.080643803 -0.12955099 -0.66000003
v -0.077566899 -0.11862 -0.66000003
l 15 16
v -0.080643803 -0.12955099 -0.66000003
v -0.080643803 -0.12955099 -0.66000003
l 17 18
v -0.080643803 -0.12955099 -0.66000003
v -0.080643803 -0.12955099 -0.66000003
l 19 20
v -0.00757688 -0.0231467 -0.66000003
v -0.080643803 -0.12955099 -0.66000003
l 21 22
v 0.0079350602 0.105788 -5.0300002
v 0.00186392 0.106784 -5.0300002
l 23 24
v 0.00186392 0.106784 -5.0300002
v -0.0025297501 0.10597 -5.0300002
l 25 26
v 0.00186392 0.106784 -5.0300002
v 0.00186392 0.106784 -5.0300002
l 27 28
v 0.00186392 0.106784 -5.0300002
v 0.00186392 0.106784 -5.0300002
l 29 30
v 0.00186392 0.106784 -5.0300002
v 0.0088620503 -0.0387729 -5.0300002
l 31 32
v -0.0048642601 -0.26245499 -4.8410001
v -0.0039220098 -0.24916901 -5.0300002
l 33 34
v -0.0039220098 -0.24916901 -5.0300002
v 0.0050025401 -0.23152301 -5.0300002
l 35 36
v -0.0088081602 -0.231282 -5.0300002
v -0.0039220098 -0.24916901 -5.0300002
l 37 38
v -0.0039220098 -0.24916901 -5.0300002
v -0.0039220098 -0.24916901 -5.0300002
l 39 40
v -0.0039220098 -0.24916901 -5.0300002
v -0.0039220098 -0.24916901 -5.0300002
l 41 42
v 0.0088620503 -0.0387729 -5.0300002
v -0.0039220098 -0.24916901 -5.0300002
l 43 44
