v 0.034656718 -0.055462349 0.66000003
v 0.037529271 -0.053024732 0.66000003
l 1 2
v 0.032093961 -0.056421079 0.66000003
v 0.034656718 -0.055462349 0.66000003
l 3 4
v 0.034656718 -0.055462349 0.66000003
v 0.034656718 -0.055462349 0.66000003
l 5 6
v 0.034656718 -0.055462349 0.66000003
v 0.034656718 -0.055462349 0.66000003
l 7 8
v 0.034656718 -0.055462349 0.66000003
v -0.0075768791 0.023146659 0.66000003
l 9 10
v -0.070393749 0.1231027 0.66000003
v -0.080643833 0.1295508 0.66000003
l 11 12
v -0.080643833 0.1295508 0.66000003
v -0.065788142 0.1099162 0.88300002
l 13 14
v -0.080643833 0.1295508 0.66000003
v -0.077566877 0.1186204 0.66000003
l 15 16
v -0.080643833 0.1295508 0.66000003
v -0.080643833 0.1295508 0.66000003
l 17 18
v -0.080643833 0.1295508 0.66000003
v -0.080643833 0.1295508 0.66000003
l 19 20
v -0.0075768791 0.023146659 0.66000003
v -0.080643833 0.1295508 0.66000003
l 21 22
v 0.0079350574 -0.1057876 5.0300002
v 0.001863917 -0.1067837 5.0300002
l 23 24
v 0.001863917 -0.1067837 5.0300002
v -0.0025297489 -0.1059703 5.0300002
l 25 26
v 0.001863917 -0.1067837 5.0300002
v 0.001863917 -0.1067837 5.0300002
l 27 28
v 0.001863917 -0.1067837 5.0300002
v 0.001863917 -0.1067837 5.0300002
l 29 30
v 0.001863917 -0.1067837 5.0300002
v 0.0088620475 0.038772881 5.0300002
l 31 32
v -0.0048642568 0.26245531 4.8410001
v -0.0039220052 0.2491695 5.0300002
l 33 34
v -0.0039220052 0.2491695 5.0300002
v 0.0050025359 0.2315226 5.0300002
l 35 36
v -0.0088081602 0.2312815 5.0300002
v -0.0039220052 0.2491695 5.0300002
l 37 38
v -0.0039220052 0.2491695 5.0300002
v -0.0039220052 0.2491695 5.0300002
l 39 40
v -0.0039220052 0.2491695 5.0300002
v -0.0039220052 0.2491695 5.0300002
l 41 42
v 0.0088620475 0.038772881 5.0300002
v -0.0039220052 0.2491695 5.0300002
l 43 44
