v -0.00825 0.0164 -0.0194429
v -0.00825 0.0164072 -0.0193414
v -0.00834259 0.0164025 -0.0193445
v -0.00834375 0.0164 -0.0193955
v -0.00834375 0.0164 -0.0194429
v -0.00829688 0.0164 -0.0194429
v -0.00825 0.01645 -0.0194429
v -0.00824875 0.0164992 -0.0194416
v -0.00825 0.016491 -0.0193567
v -0.00829687 0.01645 -0.0194429
v -0.00829687 0.0164995 -0.019443
v -0.00834618 0.0164524 -0.0194407
v -0.00834268 0.0164977 -0.019442
v -0.00834619 0.0164521 -0.0193955
v -0.00834375 0.0164499 -0.0193508
v -0.00829688 0.0164925 -0.0193553
v -0.00833708 0.0164947 -0.0193533
v -0.00834041 0.0164964 -0.0193955
l 1 2
l 2 3
l 3 4
l 4 5
l 5 6
l 6 1
l 1 7
l 7 8
l 8 9
l 9 2
l 2 1
l 8 7
l 7 10
l 10 11
l 11 8
l 5 12
l 12 10
l 10 6
l 6 5
l 13 11
l 11 10
l 10 12
l 12 13
l 5 4
l 4 14
l 14 12
l 12 5
l 3 15
l 15 14
l 14 4
l 4 3
l 3 2
l 2 9
l 9 16
l 16 17
l 17 15
l 15 3
l 13 18
l 18 17
l 17 16
l 16 9
l 9 8
l 8 11
l 11 13
l 13 12
l 12 14
l 14 18
l 18 13
l 17 18
l 18 14
l 14 15
l 15 17
l 1 7
l 7 10
l 10 6
l 6 1
