v 0.00177484 0.0252307 -0.0934058
v 0.00116009 0.0248541 -0.0934566
v 0.00166837 0.0250203 -0.0934767
v 0.00181609 0.0251379 -0.0934577
v 0.00110333 0.0253928 -0.0941151
v 0.00112643 0.025307 -0.0941661
v 0.00115589 0.0252392 -0.0941436
v 0.0016103 0.0254543 -0.0939241
v 0.00180257 0.0253538 -0.0935903
v 0.0018437 0.0252675 -0.0936381
v 0.00164749 0.0253643 -0.0939748
v 0.0018365 0.0252114 -0.0936902
v 0.0017266 0.0253989 -0.0940937
l 1 2
l 2 3
l 3 4
l 4 1
l 2 5
l 5 6
l 6 7
l 7 2
l 8 9
l 9 10
l 10 11
l 11 8
l 11 10
l 10 12
l 12 13
l 13 11
l 5 8
l 8 11
l 11 6
l 6 5
l 6 11
l 11 13
l 13 7
l 7 6
l 9 1
l 1 4
l 4 10
l 10 9
l 10 4
l 4 3
l 3 12
l 12 10
l 7 13
l 13 12
l 12 3
l 3 2
l 2 7
l 5 8
l 8 9
l 9 1
l 1 2
l 2 5
