# Wavefront OBJ file written 2026-06-21T16:26:44
o combined_m_1

# points : 40
# faces  : 76
# zones  : 22
#   0  FRONT_PANEL  (nFaces: 0)
#   1  Fan_front_blades  (nFaces: 76)
#   2  Fan_front_frame  (nFaces: 0)
#   3  Fan_front_inlet  (nFaces: 0)
#   4  Fan_front_outlet  (nFaces: 0)
#   5  fan_rear1_blades  (nFaces: 0)
#   6  fan_rear1_frame  (nFaces: 0)
#   7  fan_rear1_inlet  (nFaces: 0)
#   8  fan_rear1_outlet  (nFaces: 0)
#   9  fan_rear2_blades  (nFaces: 0)
#   10  fan_rear2_frame  (nFaces: 0)
#   11  fan_rear2_inlet  (nFaces: 0)
#   12  fan_rear2_outlet  (nFaces: 0)
#   13  MINI_BOARD  (nFaces: 0)
#   14  SMALL_chip1  (nFaces: 0)
#   15  SMALL_chip2  (nFaces: 0)
#   16  SMALL_chip3  (nFaces: 0)
#   17  SMALL_PCB  (nFaces: 0)
#   18  TIM  (nFaces: 0)
#   19  Motherboard  (nFaces: 0)
#   20  CPU  (nFaces: 0)
#   21  Heatsink  (nFaces: 0)

# <points count="40">
v 0.106425 0.064 0.16439
v 0.109724 0.0637113 0.16439
v 0.106425 0.045 0.16439
v 0.0918702 0.057213 0.16439
v 0.096925 0.0614545 0.16439
v 0.103126 0.0637113 0.16439
v 0.0885708 0.0385016 0.16439
v 0.087425 0.045 0.16439
v 0.0885708 0.0514984 0.16439
v 0.103126 0.0262887 0.16439
v 0.096925 0.0285455 0.16439
v 0.0918702 0.032787 0.16439
v 0.12098 0.032787 0.16439
v 0.115925 0.0285455 0.16439
v 0.109724 0.0262887 0.16439
v 0.124279 0.0514984 0.16439
v 0.125425 0.045 0.16439
v 0.124279 0.0385016 0.16439
v 0.115925 0.0614545 0.16439
v 0.12098 0.057213 0.16439
v 0.103126 0.0637113 0.17702
v 0.096925 0.0614545 0.17702
v 0.0918702 0.057213 0.17702
v 0.0885708 0.0514984 0.17702
v 0.087425 0.045 0.17702
v 0.0885708 0.0385016 0.17702
v 0.0918702 0.032787 0.17702
v 0.096925 0.0285455 0.17702
v 0.103126 0.0262887 0.17702
v 0.106425 0.026 0.17702
v 0.109724 0.0262887 0.17702
v 0.115925 0.0285455 0.17702
v 0.12098 0.032787 0.17702
v 0.124279 0.0385016 0.17702
v 0.125425 0.045 0.17702
v 0.124279 0.0514984 0.17702
v 0.12098 0.057213 0.17702
v 0.115925 0.0614545 0.17702
v 0.109724 0.0637113 0.17702
v 0.106425 0.045 0.17702
# </points>

# <faces count="76">
g FRONT_PANEL
g Fan_front_blades
f 1 2 3
f 4 5 3
f 5 6 3
f 3 6 1
f 7 8 3
f 8 9 3
f 3 9 4
f 10 11 3
f 11 12 3
f 3 12 7
f 13 14 3
f 14 15 3
f 3 15 10
f 16 17 3
f 17 18 3
f 3 18 13
f 2 19 3
f 19 20 3
f 3 20 16
f 21 5 22
f 5 4 22
f 22 4 23
f 4 9 23
f 23 9 24
f 9 8 24
f 24 8 25
f 8 7 25
f 25 7 26
f 7 12 26
f 26 12 27
f 12 11 27
f 27 11 28
f 11 10 28
f 28 10 29
f 29 10 30
f 10 15 30
f 30 15 31
f 15 14 31
f 31 14 32
f 14 13 32
f 32 13 33
f 13 18 33
f 33 18 34
f 18 17 34
f 34 17 35
f 17 16 35
f 35 16 36
f 16 20 36
f 36 20 37
f 20 19 37
f 37 19 38
f 19 2 38
f 38 2 39
f 2 1 39
f 39 1 21
f 1 6 21
f 21 6 5
f 30 31 40
f 27 28 40
f 28 29 40
f 40 29 30
f 24 25 40
f 25 26 40
f 40 26 27
f 21 22 40
f 22 23 40
f 40 23 24
f 37 38 40
f 38 39 40
f 40 39 21
f 34 35 40
f 35 36 40
f 40 36 37
f 31 32 40
f 32 33 40
f 40 33 34
g Fan_front_frame
g Fan_front_inlet
g Fan_front_outlet
g fan_rear1_blades
g fan_rear1_frame
g fan_rear1_inlet
g fan_rear1_outlet
g fan_rear2_blades
g fan_rear2_frame
g fan_rear2_inlet
g fan_rear2_outlet
g MINI_BOARD
g SMALL_chip1
g SMALL_chip2
g SMALL_chip3
g SMALL_PCB
g TIM
g Motherboard
g CPU
g Heatsink
# </faces>
