# Wavefront OBJ file written 2026-06-21T16:26:44
o combined_m_6

# points : 46
# faces  : 92
# zones  : 22
#   0  FRONT_PANEL  (nFaces: 0)
#   1  Fan_front_blades  (nFaces: 0)
#   2  Fan_front_frame  (nFaces: 0)
#   3  Fan_front_inlet  (nFaces: 0)
#   4  Fan_front_outlet  (nFaces: 0)
#   5  fan_rear1_blades  (nFaces: 0)
#   6  fan_rear1_frame  (nFaces: 92)
#   7  fan_rear1_inlet  (nFaces: 0)
#   8  fan_rear1_outlet  (nFaces: 0)
#   9  fan_rear2_blades  (nFaces: 0)
#   10  fan_rear2_frame  (nFaces: 0)
#   11  fan_rear2_inlet  (nFaces: 0)
#   12  fan_rear2_outlet  (nFaces: 0)
#   13  MINI_BOARD  (nFaces: 0)
#   14  SMALL_chip1  (nFaces: 0)
#   15  SMALL_chip2  (nFaces: 0)
#   16  SMALL_chip3  (nFaces: 0)
#   17  SMALL_PCB  (nFaces: 0)
#   18  TIM  (nFaces: 0)
#   19  Motherboard  (nFaces: 0)
#   20  CPU  (nFaces: 0)
#   21  Heatsink  (nFaces: 0)

# <points count="46">
v 0.0998264 0.0824227 -0.16292
v 0.087425 0.077909 -0.16292
v 0.087425 0.077909 -0.17555
v 0.0773153 0.0694259 -0.17555
v 0.0773153 0.0694259 -0.16292
v 0.0707167 0.0579968 -0.17555
v 0.0707167 0.0579968 -0.16292
v 0.068425 0.045 -0.17555
v 0.068425 0.045 -0.16292
v 0.0707167 0.0320032 -0.17555
v 0.0707167 0.0320032 -0.16292
v 0.0773153 0.0205741 -0.17555
v 0.0773153 0.0205741 -0.16292
v 0.087425 0.012091 -0.17555
v 0.087425 0.012091 -0.16292
v 0.0998264 0.00757731 -0.17555
v 0.0998264 0.00757731 -0.16292
v 0.106425 0.007 -0.16292
v 0.113024 0.00757731 -0.17555
v 0.113024 0.00757731 -0.16292
v 0.125425 0.012091 -0.17555
v 0.125425 0.012091 -0.16292
v 0.135535 0.0205741 -0.17555
v 0.135535 0.0205741 -0.16292
v 0.142133 0.0320032 -0.17555
v 0.142133 0.0320032 -0.16292
v 0.144425 0.045 -0.17555
v 0.144425 0.045 -0.16292
v 0.142133 0.0579968 -0.17555
v 0.142133 0.0579968 -0.16292
v 0.135535 0.0694259 -0.17555
v 0.135535 0.0694259 -0.16292
v 0.125425 0.077909 -0.17555
v 0.125425 0.077909 -0.16292
v 0.113024 0.0824227 -0.17555
v 0.113024 0.0824227 -0.16292
v 0.106425 0.083 -0.17555
v 0.0998264 0.0824227 -0.17555
v 0.066525 0.0849 -0.17555
v 0.066525 0.0051 -0.17555
v 0.146325 0.0051 -0.17555
v 0.146325 0.0849 -0.17555
v 0.146325 0.0051 -0.16292
v 0.066525 0.0051 -0.16292
v 0.146325 0.0849 -0.16292
v 0.066525 0.0849 -0.16292
# </points>

# <faces count="92">
g FRONT_PANEL
g Fan_front_blades
g Fan_front_frame
g Fan_front_inlet
g Fan_front_outlet
g fan_rear1_blades
g fan_rear1_frame
f 1 2 3
f 3 2 4
f 2 5 4
f 4 5 6
f 5 7 6
f 6 7 8
f 7 9 8
f 8 9 10
f 9 11 10
f 10 11 12
f 11 13 12
f 12 13 14
f 13 15 14
f 14 15 16
f 15 17 16
f 17 18 16
f 16 18 19
f 18 20 19
f 19 20 21
f 20 22 21
f 21 22 23
f 22 24 23
f 23 24 25
f 24 26 25
f 25 26 27
f 26 28 27
f 27 28 29
f 28 30 29
f 29 30 31
f 30 32 31
f 31 32 33
f 32 34 33
f 33 34 35
f 34 36 35
f 35 36 37
f 36 1 37
f 37 1 38
f 1 3 38
f 39 3 4
f 4 6 39
f 6 8 39
f 39 8 40
f 8 10 40
f 10 12 40
f 40 12 14
f 14 16 40
f 16 19 40
f 40 19 41
f 19 21 41
f 41 21 23
f 31 33 42
f 23 25 41
f 25 27 41
f 41 27 42
f 27 29 42
f 42 29 31
f 33 35 42
f 35 37 42
f 42 37 39
f 37 38 39
f 39 38 3
f 24 22 43
f 15 13 44
f 45 34 32
f 13 11 44
f 11 9 44
f 44 9 46
f 9 7 46
f 46 7 5
f 5 2 46
f 2 1 46
f 46 1 45
f 1 36 45
f 45 36 34
f 22 20 43
f 20 18 43
f 43 18 44
f 18 17 44
f 44 17 15
f 32 30 45
f 30 28 45
f 45 28 43
f 28 26 43
f 43 26 24
f 45 43 42
f 43 41 42
f 45 42 46
f 42 39 46
f 46 39 44
f 39 40 44
f 44 40 43
f 40 41 43
g fan_rear1_inlet
g fan_rear1_outlet
g fan_rear2_blades
g fan_rear2_frame
g fan_rear2_inlet
g fan_rear2_outlet
g MINI_BOARD
g SMALL_chip1
g SMALL_chip2
g SMALL_chip3
g SMALL_PCB
g TIM
g Motherboard
g CPU
g Heatsink
# </faces>
