v -0.00393584 0.0285004 -0.0975117
v 0.00393625 0.0285012 -0.0975118
v -0.000335763 -0.00020558 -0.0209186
v -0.000312982 0.000238834 -0.0211201
v -9.78192e-05 0.000381354 -0.0211201
v -0.0003937 0 -0.0211201
v 0.0003937 0 -0.0211201
v 0.000237628 0.000313899 -0.0211201
v -0.000216142 -0.000329063 -0.0211201
v 0.000189115 -0.000345304 -0.0211201
v 0.0011684 0.00206761 -0.0211201
v -0.0011684 0.00206761 -0.0211201
v 0.0011684 0.00206761 -0.0219075
v -0.0011684 0.00206761 -0.0219075
v -0.0023622 -0.000245278 -0.0198374
v 0.0023622 -0.000245278 -0.0198374
v 0.0023622 -0.000245278 -0.0182626
v -0.0023622 -0.000245278 -0.0182626
v 0.00393582 0.0285014 -0.0975137
v -0.00393582 0.0285014 -0.0975137
v 1.5875e-11 0.00310015 -0.0106356
v 2.52951e-11 0.00291475 -0.010501
v 1.69656e-11 0.00250003 -0.01062
v 0.0024011 0.00342841 -0.00340405
