# Wavefront OBJ file written 2026-06-20T01:53:56
o combined_1

# points : 222
# faces  : 374
# zones  : 4
#   0  Inlet  (nFaces: 0)
#   1  Outlet  (nFaces: 374)
#   2  PipeHandle  (nFaces: 0)
#   3  Walls  (nFaces: 0)

# <points count="222">
v 0 0.0294986 -0.0969848
v -0.000247147 0.0294965 -0.0969866
v -9.13703e-05 0.0292541 -0.097108
v -0.000494169 0.0294892 -0.0969906
v -0.000740924 0.0294767 -0.0969973
v -0.000591967 0.0292646 -0.0971032
v -0.000987255 0.0294588 -0.0970068
v -0.00123299 0.0294354 -0.0970193
v -0.00107184 0.0292154 -0.097129
v -0.00147793 0.0294063 -0.0970348
v -0.00172188 0.0293712 -0.0970535
v -0.00155528 0.0291387 -0.0971692
v -0.00196459 0.02933 -0.0970754
v -0.00220578 0.0292823 -0.0971007
v -0.00204372 0.0291188 -0.0971816
v -0.00244494 0.0292272 -0.0971298
v -0.00268158 0.0291641 -0.0971631
v -0.00250358 0.0290022 -0.097243
v -0.00291509 0.0290925 -0.0972008
v -0.00314443 0.0290109 -0.0972436
v -0.00296813 0.0288493 -0.0973231
v -0.00336764 0.0289169 -0.0972927
v -0.0035822 0.0288082 -0.0973492
v -0.00341896 0.0286459 -0.0974289
v -0.0037815 0.0286787 -0.0974161
v -0.00365205 0.0285376 -0.0974855
v -0.00393584 0.0285004 -0.0975117
v -0.00378651 0.0283152 -0.0975982
v -0.00358709 0.0281835 -0.0976621
v -0.00346601 0.0283698 -0.0975677
v -0.00337237 0.0280725 -0.0977156
v -0.00314909 0.0279761 -0.0977619
v -0.00320874 0.0282266 -0.097637
v -0.00291952 0.0278924 -0.0978018
v -0.00268564 0.027819 -0.0978367
v -0.00272534 0.0280833 -0.0977047
v -0.00244869 0.0277541 -0.0978675
v -0.00220946 0.0276964 -0.0978949
v -0.00226739 0.0279172 -0.0977847
v -0.00196842 0.0276451 -0.0979191
v -0.00172549 0.0276018 -0.0979396
v -0.00180923 0.0278031 -0.0978392
v -0.00148109 0.0275658 -0.0979565
v -0.00123559 0.0275366 -0.0979702
v -0.00132844 0.0277634 -0.097857
v -0.000989275 0.0275136 -0.0979809
v -0.000742385 0.0274964 -0.0979889
v -0.000853307 0.0277463 -0.0978641
v -0.00049511 0.0274846 -0.0979944
v -0.000247607 0.0274778 -0.0979976
v -0.000359817 0.0277178 -0.0978775
v 0 0.0274753 -0.097998
v 0.00024806 0.0274781 -0.0979974
v 0.000120251 0.0276944 -0.0978891
v 0.000495995 0.0274856 -0.0979939
v 0.000743664 0.0274984 -0.0979879
v 0.000594636 0.0277112 -0.0978812
v 0.000990909 0.0275168 -0.0979793
v 0.00123755 0.0275409 -0.097968
v 0.00108496 0.027747 -0.0978644
v 0.00148338 0.027571 -0.0979539
v 0.00172819 0.0276073 -0.0979368
v 0.00155537 0.0278023 -0.0978384
v 0.00197171 0.0276501 -0.0979167
v 0.00221366 0.0276996 -0.0978933
v 0.00205278 0.0278914 -0.0977963
v 0.00245358 0.0277566 -0.0978663
v 0.00269098 0.0278216 -0.0978355
v 0.00252812 0.0280116 -0.0977392
v 0.00292523 0.0278953 -0.0978004
v 0.00315523 0.0279791 -0.0977604
v 0.00299039 0.028096 -0.0977005
v 0.00337894 0.0280757 -0.0977141
v 0.00359353 0.0281877 -0.0976601
v 0.00340395 0.0283523 -0.0975758
v 0.00379201 0.0283211 -0.0975953
v 0.00364856 0.0284588 -0.0975249
v 0.00393625 0.0285012 -0.0975118
v 0.00378283 0.0286796 -0.0974157
v 0.00358296 0.0288085 -0.0973491
v 0.00344219 0.0286251 -0.0974395
v 0.00336804 0.0289167 -0.0972928
v 0.00314521 0.0290115 -0.0972432
v 0.00318012 0.0287459 -0.0973766
v 0.00291616 0.0290939 -0.0972001
v 0.00268259 0.0291655 -0.0971624
v 0.00274991 0.0289128 -0.0972895
v 0.00244567 0.0292279 -0.0971294
v 0.00220621 0.0292821 -0.0971007
v 0.00227897 0.0290598 -0.0972126
v 0.00196499 0.0293299 -0.0970754
v 0.00172223 0.0293711 -0.0970535
v 0.00181018 0.0291333 -0.0971731
v 0.00147824 0.0294062 -0.0970348
v 0.00123324 0.0294354 -0.0970193
v 0.00132384 0.0291928 -0.0971411
v 0.000987458 0.0294588 -0.0970068
v 0.000741076 0.0294766 -0.0969973
v 0.000822668 0.0292384 -0.0971168
v 0.00049427 0.0294891 -0.0969906
v 0.000247198 0.0294965 -0.0969866
v 0.000392849 0.029254 -0.0971083
v 0.000147749 0.0292455 -0.0971124
v -0.000341652 0.0292709 -0.0970998
v -0.000828993 0.0292468 -0.0971126
v -0.00130841 0.0291683 -0.0971534
v -0.00180615 0.0291318 -0.0971738
v -0.00226981 0.0290823 -0.0972013
v -0.00273232 0.0289278 -0.0972819
v -0.00319398 0.0287509 -0.0973743
v -0.00297093 0.0281398 -0.0976784
v -0.00249204 0.0279958 -0.0977468
v -0.00203804 0.0278474 -0.0978182
v -0.00157081 0.0277797 -0.0978498
v -0.00109942 0.0277545 -0.0978606
v -0.000601256 0.0277378 -0.0978678
v -0.000132596 0.0276975 -0.0978875
v 0.000353091 0.0276999 -0.0978865
v 0.000839839 0.0277327 -0.0978709
v 0.00132557 0.0277696 -0.0978538
v 0.0018152 0.0278446 -0.0978185
v 0.00229025 0.027944 -0.0977714
v 0.0027722 0.0280781 -0.0977077
v 0.00316915 0.0282199 -0.09764
v 0.00297475 0.0288736 -0.0973109
v 0.00251669 0.0289836 -0.0972523
v 0.00204785 0.029104 -0.097189
v 0.00157783 0.0291668 -0.0971552
v 0.00107591 0.029208 -0.0971327
v 0.000608633 0.0292977 -0.0970867
v -0.00254031 0.0287597 -0.0973646
v -0.00211027 0.0289246 -0.0972793
v -0.0030003 0.0285844 -0.097456
v -0.00279207 0.0283645 -0.0975644
v -0.00207372 0.0280966 -0.0976937
v -0.00277592 0.0286752 -0.0974087
v -0.00323612 0.0284913 -0.0975047
v 0.00139385 0.0280262 -0.0977257
v -0.00303582 0.0283599 -0.0975687
v -8.82916e-06 0.0279136 -0.0977794
v -0.00229677 0.0281388 -0.097674
v -0.00022269 0.0279792 -0.0977466
v 0.000690271 0.0279575 -0.097758
v 0.00288656 0.0286142 -0.0974401
v 0.00116345 0.0280125 -0.0977317
v 0.000447076 0.02798 -0.0977464
v 0.000936189 0.0279727 -0.0977509
v 0.00211768 0.0281364 -0.097674
v 0.00263833 0.0283484 -0.0975713
v 0.00293086 0.0283157 -0.09759
v 0.00316746 0.02848 -0.0975097
v 0.00212727 0.028894 -0.0972947
v 0.00232859 0.0287893 -0.0973484
v 0.00259264 0.0286878 -0.097401
v 0.00165157 0.0289037 -0.0972873
v -0.00058707 0.0283517 -0.0975605
v -0.000893712 0.028479 -0.0974974
v -0.000838728 0.0282157 -0.097629
v 0.00190133 0.028888 -0.0972964
v 0.00118335 0.0289257 -0.0972744
v 0.00142911 0.0289586 -0.0972589
v 0.000605434 0.0290327 -0.0972194
v 0.00188251 0.0281038 -0.0976891
v -0.00231382 0.0288294 -0.0973282
v -0.000661521 0.0290085 -0.0972316
v -0.00115436 0.0289554 -0.0972595
v -0.00165128 0.0288836 -0.0972974
v -0.000968831 0.0279834 -0.0977457
v -0.00248535 0.0282787 -0.0976051
v 0.000207072 0.027967 -0.0977526
v -0.00167457 0.0279953 -0.0977423
v -0.00120219 0.0279981 -0.0977391
v 0.00236143 0.0282091 -0.0976391
v 0.00163729 0.028065 -0.0977073
v 0.000912298 0.0289723 -0.0972503
v -0.000708327 0.02799 -0.0977418
v 0.000316924 0.0289725 -0.0972492
v -0.00188028 0.0280001 -0.0977409
v -0.0014302 0.0279959 -0.097741
v -0.000210855 0.0289881 -0.0972413
v -0.00091166 0.0289967 -0.0972381
v -0.00139411 0.0289117 -0.0972822
v -0.00190179 0.0288914 -0.0972947
v -0.000463492 0.0280116 -0.0977306
v -0.000447908 0.0290551 -0.097208
v 4.53225e-05 0.0289694 -0.0972506
v 0.00207772 0.0286399 -0.0974217
v 0.0012325 0.0283156 -0.0975802
v 0.00048092 0.0286218 -0.0974251
v -0.00107829 0.028262 -0.0976065
v -0.00211799 0.0283704 -0.0975569
v -1.87325e-06 0.0282509 -0.0976105
v -0.00133691 0.0283054 -0.0975857
v -0.00148653 0.0286349 -0.0974212
v -0.00161109 0.0284091 -0.0975349
v -0.00184228 0.0282403 -0.0976205
v 0.00105574 0.0286195 -0.0974274
v 0.000758861 0.0287409 -0.0973658
v 0.00194367 0.0283715 -0.0975553
v -0.00120429 0.0286123 -0.0974315
v -0.00181695 0.0285912 -0.0974446
v 0.00147793 0.0282701 -0.0976039
v 0.000171713 0.0286255 -0.0974229
v -0.000425837 0.0287267 -0.0973724
v 0.00238145 0.0285118 -0.0974877
v -0.000122862 0.0286469 -0.0974122
v -0.00157092 0.0281886 -0.0976451
v 0.00169888 0.0283414 -0.0975691
v 0.000554456 0.0282569 -0.0976079
v 0.0010007 0.0282697 -0.0976024
v 0.000291047 0.0282869 -0.0975926
v -0.0025795 0.0285217 -0.0974841
v 0.00176912 0.0286338 -0.0974231
v -0.002079 0.0286859 -0.0973986
v -0.000298499 0.0283262 -0.0975729
v 0.00142139 0.0286378 -0.0974195
v -0.00233352 0.0285662 -0.0974602
v -0.000982733 0.0287517 -0.097361
v -0.000710989 0.0287147 -0.0973789
v 0.00217189 0.0283721 -0.0975563
v 0.000787475 0.028188 -0.0976428
v 0.000771328 0.0284603 -0.0975064
# </points>

# <faces count="374">
g Inlet
g Outlet
f 1 2 3
f 4 5 6
f 7 8 9
f 10 11 12
f 13 14 15
f 16 17 18
f 19 20 21
f 22 23 24
f 23 25 26
f 24 23 26
f 25 27 26
f 27 28 26
f 28 29 30
f 26 28 30
f 29 31 30
f 31 32 33
f 34 35 36
f 37 38 39
f 40 41 42
f 43 44 45
f 46 47 48
f 49 50 51
f 52 53 54
f 55 56 57
f 58 59 60
f 61 62 63
f 64 65 66
f 67 68 69
f 70 71 72
f 73 74 75
f 74 76 77
f 75 74 77
f 76 78 77
f 78 79 77
f 79 80 81
f 77 79 81
f 80 82 81
f 82 83 84
f 85 86 87
f 88 89 90
f 91 92 93
f 94 95 96
f 97 98 99
f 100 101 102
f 101 1 103
f 102 101 103
f 1 3 103
f 2 4 104
f 3 2 104
f 4 6 104
f 5 7 105
f 6 5 105
f 7 9 105
f 8 10 106
f 9 8 106
f 10 12 106
f 11 13 107
f 12 11 107
f 13 15 107
f 14 16 108
f 17 19 109
f 20 22 110
f 30 31 33
f 32 34 111
f 35 37 112
f 38 40 113
f 41 43 114
f 42 41 114
f 43 45 114
f 44 46 115
f 45 44 115
f 46 48 115
f 47 49 116
f 48 47 116
f 49 51 116
f 50 52 117
f 53 55 118
f 56 58 119
f 59 61 120
f 62 64 121
f 65 67 122
f 68 70 123
f 71 73 124
f 81 82 84
f 83 85 125
f 86 88 126
f 89 91 127
f 92 94 128
f 95 97 129
f 98 100 130
f 108 16 18
f 15 14 108
f 18 17 109
f 21 20 110
f 39 38 113
f 117 52 54
f 51 50 117
f 54 53 118
f 57 56 119
f 60 59 120
f 63 62 121
f 66 65 122
f 69 68 123
f 72 71 124
f 90 89 127
f 96 95 129
f 99 98 130
f 121 64 66
f 122 67 69
f 123 70 72
f 124 73 75
f 126 88 90
f 127 91 93
f 128 94 96
f 129 97 99
f 130 100 102
f 113 40 42
f 112 37 39
f 110 22 24
f 109 19 21
f 111 34 36
f 32 111 33
f 35 112 36
f 120 61 63
f 119 58 60
f 118 55 57
f 125 85 87
f 83 125 84
f 86 126 87
f 92 128 93
f 18 109 131
f 15 108 132
f 21 110 133
f 111 36 134
f 39 113 135
f 109 21 136
f 21 133 136
f 30 33 137
f 120 63 138
f 33 111 139
f 137 33 139
f 111 134 139
f 110 24 137
f 117 54 140
f 112 39 141
f 39 135 141
f 51 117 142
f 117 140 142
f 57 119 143
f 125 87 144
f 60 120 145
f 120 138 145
f 118 57 146
f 57 143 146
f 119 60 147
f 143 119 147
f 60 145 147
f 66 122 148
f 69 123 149
f 123 72 150
f 149 123 150
f 72 124 150
f 124 75 151
f 90 127 152
f 126 90 153
f 90 152 153
f 81 84 151
f 75 77 81
f 87 126 154
f 144 87 154
f 126 153 154
f 93 128 155
f 84 125 144
f 151 84 144
f 156 157 158
f 127 93 159
f 152 127 159
f 93 155 159
f 96 129 160
f 128 96 161
f 155 128 161
f 96 160 161
f 99 130 162
f 130 102 162
f 121 66 163
f 66 148 163
f 108 18 164
f 132 108 164
f 18 131 164
f 75 81 151
f 6 105 165
f 9 106 166
f 12 107 167
f 150 124 151
f 109 136 131
f 24 26 30
f 115 48 168
f 36 112 169
f 134 36 169
f 112 141 169
f 140 54 170
f 54 118 170
f 42 114 171
f 45 115 172
f 115 168 172
f 148 122 173
f 122 69 173
f 63 121 174
f 138 63 174
f 121 163 174
f 69 149 173
f 160 129 175
f 129 99 175
f 99 162 175
f 170 118 146
f 168 48 176
f 48 116 176
f 24 30 137
f 162 102 177
f 113 42 178
f 102 103 177
f 114 45 179
f 171 114 179
f 45 172 179
f 3 104 180
f 105 9 181
f 165 105 181
f 9 166 181
f 106 12 182
f 166 106 182
f 12 167 182
f 107 15 183
f 167 107 183
f 15 132 183
f 116 51 184
f 176 116 184
f 51 142 184
f 104 6 185
f 180 104 185
f 6 165 185
f 103 3 186
f 3 180 186
f 178 42 171
f 113 178 135
f 153 152 187
f 150 151 144
f 145 138 188
f 110 137 133
f 162 177 189
f 172 168 190
f 141 135 191
f 140 170 192
f 142 140 192
f 193 194 195
f 178 171 196
f 160 175 197
f 135 178 196
f 149 150 144
f 175 162 198
f 197 175 198
f 162 189 198
f 163 148 199
f 177 103 186
f 133 137 139
f 166 182 200
f 167 183 201
f 188 138 202
f 138 174 202
f 189 177 203
f 180 185 204
f 173 149 205
f 186 180 206
f 180 204 206
f 196 171 207
f 171 179 207
f 135 196 191
f 136 133 134
f 153 187 205
f 174 163 208
f 163 199 208
f 146 143 209
f 147 145 210
f 145 188 210
f 170 146 211
f 131 136 212
f 182 167 194
f 200 182 194
f 167 201 194
f 159 155 213
f 183 132 214
f 201 183 214
f 132 164 214
f 154 153 205
f 184 142 215
f 142 192 215
f 170 211 192
f 146 209 211
f 161 160 216
f 160 197 216
f 155 161 216
f 213 155 216
f 212 169 217
f 190 168 158
f 168 176 158
f 177 186 203
f 164 131 217
f 214 164 217
f 131 212 217
f 179 172 193
f 207 179 193
f 172 190 193
f 181 166 218
f 166 200 218
f 165 181 219
f 181 218 219
f 205 149 154
f 148 173 220
f 173 205 220
f 134 133 139
f 209 143 221
f 143 147 221
f 148 220 199
f 169 212 134
f 176 184 156
f 184 215 156
f 191 196 201
f 169 141 191
f 203 186 206
f 165 219 204
f 197 222 210
f 205 187 220
f 152 159 187
f 203 211 189
f 136 134 212
f 201 196 195
f 194 201 195
f 196 207 195
f 204 219 156
f 149 144 154
f 187 159 213
f 198 189 222
f 187 213 199
f 199 213 208
f 187 199 220
f 158 176 156
f 203 206 192
f 165 204 185
f 202 208 216
f 191 201 214
f 174 208 202
f 189 209 222
f 221 147 210
f 200 194 193
f 213 216 208
f 191 214 217
f 193 190 200
f 218 200 157
f 157 200 190
f 157 190 158
f 188 202 216
f 197 198 222
f 169 191 217
f 221 210 222
f 209 189 211
f 192 211 203
f 188 216 197
f 219 218 157
f 188 197 210
f 219 157 156
f 204 215 206
f 204 156 215
f 209 221 222
f 207 193 195
f 192 206 215
g PipeHandle
g Walls
# </faces>
