solid CPU
   facet normal 0 1 0
      outer loop
         vertex 153.91500089407 15.5999998003244 -22.5000008940698
         vertex 108.91499910593 15.5999998003244 -22.5000008940698
         vertex 153.91500089407 15.5999998003244 22.5000008940696
      endloop
   endfacet
   facet normal 0 1 0
      outer loop
         vertex 108.91499910593 15.5999998003244 -22.5000008940698
         vertex 108.91499910593 15.5999998003244 22.5000008940696
         vertex 153.91500089407 15.5999998003244 22.5000008940696
      endloop
   endfacet
   facet normal 0 0 -1
      outer loop
         vertex 108.91499910593 15.5999998003244 -22.5000008940698
         vertex 153.91500089407 15.5999998003244 -22.5000008940698
         vertex 108.91499910593 11.5999999595806 -22.5000008940698
      endloop
   endfacet
   facet normal 0 0 -1
      outer loop
         vertex 153.91500089407 15.5999998003244 -22.5000008940698
         vertex 153.91500089407 11.5999999595806 -22.5000008940698
         vertex 108.91499910593 11.5999999595806 -22.5000008940698
      endloop
   endfacet
   facet normal -1 0 0
      outer loop
         vertex 108.91499910593 15.5999998003244 22.5000008940696
         vertex 108.91499910593 15.5999998003244 -22.5000008940698
         vertex 108.91499910593 11.5999999595806 22.5000008940696
      endloop
   endfacet
   facet normal -1 0 0
      outer loop
         vertex 108.91499910593 15.5999998003244 -22.5000008940698
         vertex 108.91499910593 11.5999999595806 -22.5000008940698
         vertex 108.91499910593 11.5999999595806 22.5000008940696
      endloop
   endfacet
   facet normal 0 0 1
      outer loop
         vertex 153.91500089407 15.5999998003244 22.5000008940696
         vertex 108.91499910593 15.5999998003244 22.5000008940696
         vertex 153.91500089407 11.5999999595806 22.5000008940696
      endloop
   endfacet
   facet normal 0 0 1
      outer loop
         vertex 108.91499910593 15.5999998003244 22.5000008940696
         vertex 108.91499910593 11.5999999595806 22.5000008940696
         vertex 153.91500089407 11.5999999595806 22.5000008940696
      endloop
   endfacet
   facet normal 1 0 0
      outer loop
         vertex 153.91500089407 15.5999998003244 -22.5000008940698
         vertex 153.91500089407 15.5999998003244 22.5000008940696
         vertex 153.91500089407 11.5999999595806 -22.5000008940698
      endloop
   endfacet
   facet normal 1 0 0
      outer loop
         vertex 153.91500089407 15.5999998003244 22.5000008940696
         vertex 153.91500089407 11.5999999595806 22.5000008940696
         vertex 153.91500089407 11.5999999595806 -22.5000008940698
      endloop
   endfacet
   facet normal 0 -1 0
      outer loop
         vertex 108.91499910593 11.5999999595806 22.5000008940696
         vertex 108.91499910593 11.5999999595806 -22.5000008940698
         vertex 153.91500089407 11.5999999595806 22.5000008940696
      endloop
   endfacet
   facet normal 0 -1 0
      outer loop
         vertex 108.91499910593 11.5999999595806 -22.5000008940698
         vertex 153.91500089407 11.5999999595806 -22.5000008940698
         vertex 153.91500089407 11.5999999595806 22.5000008940696
      endloop
   endfacet
endsolid CPU
