solid Fan_front_outlet
   facet normal 0 0 -1
      outer loop
         vertex 81.9990705877543 74.1096903383726 164.389999999996
         vertex 93.4282342150808 80.70831939578 164.389999999996
         vertex 106.424996506055 45.0000003728546 164.389999999996
      endloop
   endfacet
   facet normal 0 0 -1
      outer loop
         vertex 93.4282342150808 80.70831939578 164.389999999996
         vertex 106.425 82.9999987781042 164.389999999996
         vertex 106.424996506055 45.0000003728546 164.389999999996
      endloop
   endfacet
   facet normal 0 0 -1
      outer loop
         vertex 106.424996506055 45.0000003728546 164.389999999996
         vertex 106.425 82.9999987781042 164.389999999996
         vertex 119.421764853597 80.70831939578 164.389999999996
      endloop
   endfacet
   facet normal 0 0 -1
      outer loop
         vertex 69.0023020088673 38.4013732708985 164.389999999996
         vertex 69.0023020088673 51.5986346453423 164.389999999996
         vertex 106.424996506055 45.0000003728546 164.389999999996
      endloop
   endfacet
   facet normal 0 0 -1
      outer loop
         vertex 69.0023020088673 51.5986346453423 164.389999999996
         vertex 73.5160313725472 64.0000031143421 164.389999999996
         vertex 106.424996506055 45.0000003728546 164.389999999996
      endloop
   endfacet
   facet normal 0 0 -1
      outer loop
         vertex 106.424996506055 45.0000003728546 164.389999999996
         vertex 73.5160313725472 64.0000031143421 164.389999999996
         vertex 81.9990705877543 74.1096903383726 164.389999999996
      endloop
   endfacet
   facet normal 0 0 -1
      outer loop
         vertex 93.4282276958228 9.29168060421889 164.389999999996
         vertex 81.9990649998188 15.8903133869166 164.389999999996
         vertex 106.424996506055 45.0000003728546 164.389999999996
      endloop
   endfacet
   facet normal 0 0 -1
      outer loop
         vertex 81.9990649998188 15.8903133869166 164.389999999996
         vertex 73.5160313725472 26.0000043362374 164.389999999996
         vertex 106.424996506055 45.0000003728546 164.389999999996
      endloop
   endfacet
   facet normal 0 0 -1
      outer loop
         vertex 106.424996506055 45.0000003728546 164.389999999996
         vertex 73.5160313725472 26.0000043362374 164.389999999996
         vertex 69.0023020088673 38.4013732708985 164.389999999996
      endloop
   endfacet
   facet normal 0 0 -1
      outer loop
         vertex 130.850921961665 15.8903096616263 164.389999999996
         vertex 119.421758334339 9.29168060421889 164.389999999996
         vertex 106.424996506055 45.0000003728546 164.389999999996
      endloop
   endfacet
   facet normal 0 0 -1
      outer loop
         vertex 119.421758334339 9.29168060421889 164.389999999996
         vertex 106.424993012111 7.00000122189468 164.389999999996
         vertex 106.424996506055 45.0000003728546 164.389999999996
      endloop
   endfacet
   facet normal 0 0 -1
      outer loop
         vertex 106.424996506055 45.0000003728546 164.389999999996
         vertex 106.424993012111 7.00000122189468 164.389999999996
         vertex 93.4282276958228 9.29168060421889 164.389999999996
      endloop
   endfacet
   facet normal 0 0 -1
      outer loop
         vertex 143.847690540552 51.598627660423 164.389999999996
         vertex 143.847690540552 38.4013662859792 164.389999999996
         vertex 106.424996506055 45.0000003728546 164.389999999996
      endloop
   endfacet
   facet normal 0 0 -1
      outer loop
         vertex 143.847690540552 38.4013662859792 164.389999999996
         vertex 139.333961176872 25.9999968856568 164.389999999996
         vertex 106.424996506055 45.0000003728546 164.389999999996
      endloop
   endfacet
   facet normal 0 0 -1
      outer loop
         vertex 106.424996506055 45.0000003728546 164.389999999996
         vertex 139.333961176872 25.9999968856568 164.389999999996
         vertex 130.850921961665 15.8903096616263 164.389999999996
      endloop
   endfacet
   facet normal 0 0 -1
      outer loop
         vertex 119.421764853597 80.70831939578 164.389999999996
         vertex 130.850927549601 74.1096866130823 164.389999999996
         vertex 106.424996506055 45.0000003728546 164.389999999996
      endloop
   endfacet
   facet normal 0 0 -1
      outer loop
         vertex 130.850927549601 74.1096866130823 164.389999999996
         vertex 139.333964902163 63.9999975264067 164.389999999996
         vertex 106.424996506055 45.0000003728546 164.389999999996
      endloop
   endfacet
   facet normal 0 0 -1
      outer loop
         vertex 106.424996506055 45.0000003728546 164.389999999996
         vertex 139.333964902163 63.9999975264067 164.389999999996
         vertex 143.847690540552 51.598627660423 164.389999999996
      endloop
   endfacet
endsolid Fan_front_outlet
