solid fan_rear1_inlet
   facet normal 1.5259103927887E-16 -3.94196846547197E-15 1
      outer loop
         vertex 81.9990705877543 15.8903096616274 -162.920000220837
         vertex 93.4282342150808 9.29168060422003 -162.920000220837
         vertex 106.424996506055 44.9999996271454 -162.920000220836
      endloop
   endfacet
   facet normal -6.43954580054366E-16 -3.65204963558405E-15 1
      outer loop
         vertex 93.4282342150808 9.29168060422003 -162.920000220837
         vertex 106.425 7.00000122189581 -162.920000220837
         vertex 106.424996506055 44.9999996271454 -162.920000220836
      endloop
   endfacet
   facet normal 6.43954605318605E-16 -3.65204951716606E-15 1
      outer loop
         vertex 106.424996506055 44.9999996271454 -162.920000220836
         vertex 106.425 7.00000122189581 -162.920000220837
         vertex 119.421764853597 9.29168060422003 -162.920000220837
      endloop
   endfacet
   facet normal 4.02979280994318E-22 -4.20626292503034E-15 1
      outer loop
         vertex 69.0023020088673 51.5986267291015 -162.920000220836
         vertex 69.0023020088673 38.4013653546578 -162.920000220837
         vertex 106.424996506055 44.9999996271454 -162.920000220836
      endloop
   endfacet
   facet normal -3.26109950484388E-16 -2.35680019894414E-15 1
      outer loop
         vertex 69.0023020088673 38.4013653546578 -162.920000220837
         vertex 73.5160313725472 25.9999968856579 -162.920000220837
         vertex 106.424996506055 44.9999996271454 -162.920000220836
      endloop
   endfacet
   facet normal 9.99260011207623E-16 -4.65240796552E-15 1
      outer loop
         vertex 106.424996506055 44.9999996271454 -162.920000220836
         vertex 73.5160313725472 25.9999968856579 -162.920000220837
         vertex 81.9990705877543 15.8903096616274 -162.920000220837
      endloop
   endfacet
   facet normal -1.52590013784152E-16 -3.94196803775921E-15 1
      outer loop
         vertex 93.4282276958228 80.7083193957812 -162.920000220836
         vertex 81.9990649998188 74.1096866130835 -162.920000220836
         vertex 106.424996506055 44.9999996271454 -162.920000220836
      endloop
   endfacet
   facet normal -9.9925892071931E-16 -4.65240771851732E-15 1
      outer loop
         vertex 81.9990649998188 74.1096866130835 -162.920000220836
         vertex 73.5160313725472 63.9999956637627 -162.920000220836
         vertex 106.424996506055 44.9999996271454 -162.920000220836
      endloop
   endfacet
   facet normal 3.2611038949822E-16 -2.35680027023619E-15 1
      outer loop
         vertex 106.424996506055 44.9999996271454 -162.920000220836
         vertex 73.5160313725472 63.9999956637627 -162.920000220836
         vertex 69.0023020088673 51.5986267291015 -162.920000220836
      endloop
   endfacet
   facet normal 1.5259107949736E-16 -3.94196839581148E-15 1
      outer loop
         vertex 130.850921961665 74.1096903383738 -162.920000220836
         vertex 119.421758334339 80.7083193957812 -162.920000220836
         vertex 106.424996506055 44.9999996271454 -162.920000220836
      endloop
   endfacet
   facet normal -6.43954590342528E-16 -3.65204956391639E-15 1
      outer loop
         vertex 119.421758334339 80.7083193957812 -162.920000220836
         vertex 106.424993012111 82.9999987781054 -162.920000220836
         vertex 106.424996506055 44.9999996271454 -162.920000220836
      endloop
   endfacet
   facet normal 6.43954569756569E-16 -3.6520494454984E-15 1
      outer loop
         vertex 106.424996506055 44.9999996271454 -162.920000220836
         vertex 106.424993012111 82.9999987781054 -162.920000220836
         vertex 93.4282276958228 80.7083193957812 -162.920000220836
      endloop
   endfacet
   facet normal 3.82116706826024E-22 -4.20626292503034E-15 1
      outer loop
         vertex 143.847690540552 38.4013723395771 -162.920000220837
         vertex 143.847690540552 51.5986337140208 -162.920000220836
         vertex 106.424996506055 44.9999996271454 -162.920000220836
      endloop
   endfacet
   facet normal -3.26109994584075E-16 -2.35680003800327E-15 1
      outer loop
         vertex 143.847690540552 51.5986337140208 -162.920000220836
         vertex 139.333961176872 64.0000031143433 -162.920000220836
         vertex 106.424996506055 44.9999996271454 -162.920000220836
      endloop
   endfacet
   facet normal 9.99260091689651E-16 -4.65240789798753E-15 1
      outer loop
         vertex 106.424996506055 44.9999996271454 -162.920000220836
         vertex 139.333961176872 64.0000031143433 -162.920000220836
         vertex 130.850921961665 74.1096903383738 -162.920000220836
      endloop
   endfacet
   facet normal -1.52589975452264E-16 -3.94196810415196E-15 1
      outer loop
         vertex 119.421764853597 9.29168060422003 -162.920000220837
         vertex 130.850927549601 15.8903133869177 -162.920000220837
         vertex 106.424996506055 44.9999996271454 -162.920000220836
      endloop
   endfacet
   facet normal -9.99259150527015E-16 -4.65240801464787E-15 1
      outer loop
         vertex 130.850927549601 15.8903133869177 -162.920000220837
         vertex 139.333964902163 26.0000024735934 -162.920000220837
         vertex 106.424996506055 44.9999996271454 -162.920000220836
      endloop
   endfacet
   facet normal 3.26110427860423E-16 -2.35680000924561E-15 1
      outer loop
         vertex 106.424996506055 44.9999996271454 -162.920000220836
         vertex 139.333964902163 26.0000024735934 -162.920000220837
         vertex 143.847690540552 38.4013723395771 -162.920000220837
      endloop
   endfacet
endsolid fan_rear1_inlet
