solid fan_rear2_blades
   facet normal -1.76196472649828E-16 4.75524697265531E-15 -1
      outer loop
         vertex -74.8901557621359 57.2129647061238 -175.550000000001
         vertex -71.5908403021096 51.4983828924606 -175.550000000002
         vertex -89.4449999999999 45.0000000000009 -175.550000000002
      endloop
   endfacet
   facet normal 1.55984556238033E-30 4.27115115790342E-15 -1
      outer loop
         vertex -71.5908403021096 51.4983828924606 -175.550000000002
         vertex -70.4450006109475 45.0000000000009 -175.550000000002
         vertex -89.4449999999999 45.0000000000009 -175.550000000002
      endloop
   endfacet
   facet normal 1.55984556238035E-30 4.27115115790348E-15 -1
      outer loop
         vertex -89.4449999999999 45.0000000000009 -175.550000000002
         vertex -70.4450006109475 45.0000000000009 -175.550000000002
         vertex -71.5908403021096 38.5016171075413 -175.550000000002
      endloop
   endfacet
   facet normal 0 2.96671056535475E-15 -1
      outer loop
         vertex -92.7443154600261 63.7113471329222 -175.550000000001
         vertex -86.1456845399736 63.7113471329222 -175.550000000001
         vertex -89.4449999999999 45.0000000000009 -175.550000000002
      endloop
   endfacet
   facet normal 1.01467485022851E-15 2.78779600637205E-15 -1
      outer loop
         vertex -86.1456845399736 63.7113471329222 -175.550000000001
         vertex -79.9450003054737 61.4544824510822 -175.550000000001
         vertex -89.4449999999999 45.0000000000009 -175.550000000002
      endloop
   endfacet
   facet normal 1.90696467703591E-15 2.27263224432118E-15 -1
      outer loop
         vertex -89.4449999999999 45.0000000000009 -175.550000000002
         vertex -79.9450003054737 61.4544824510822 -175.550000000001
         vertex -74.8901557621359 57.2129647061238 -175.550000000001
      endloop
   endfacet
   facet normal 1.76196472649828E-16 4.75524697265531E-15 -1
      outer loop
         vertex -107.29915969789 51.4983828924606 -175.550000000002
         vertex -103.999844237864 57.2129647061238 -175.550000000001
         vertex -89.4449999999999 45.0000000000009 -175.550000000002
      endloop
   endfacet
   facet normal -1.90696467703591E-15 2.27263224432118E-15 -1
      outer loop
         vertex -103.999844237864 57.2129647061238 -175.550000000001
         vertex -98.9449996945261 61.4544824510822 -175.550000000001
         vertex -89.4449999999999 45.0000000000009 -175.550000000002
      endloop
   endfacet
   facet normal -1.01467485022851E-15 2.78779600637205E-15 -1
      outer loop
         vertex -89.4449999999999 45.0000000000009 -175.550000000002
         vertex -98.9449996945261 61.4544824510822 -175.550000000001
         vertex -92.7443154600261 63.7113471329222 -175.550000000001
      endloop
   endfacet
   facet normal -1.76196472649812E-16 4.75524697265532E-15 -1
      outer loop
         vertex -103.999844237864 32.7870352938781 -175.550000000002
         vertex -107.29915969789 38.5016171075413 -175.550000000002
         vertex -89.4449999999999 45.0000000000009 -175.550000000002
      endloop
   endfacet
   facet normal 3.11969112476069E-30 4.27115115790346E-15 -1
      outer loop
         vertex -107.29915969789 38.5016171075413 -175.550000000002
         vertex -108.444999389052 45.000000000001 -175.550000000002
         vertex -89.4449999999999 45.0000000000009 -175.550000000002
      endloop
   endfacet
   facet normal 3.11969112476067E-30 4.27115115790343E-15 -1
      outer loop
         vertex -89.4449999999999 45.0000000000009 -175.550000000002
         vertex -108.444999389052 45.000000000001 -175.550000000002
         vertex -107.29915969789 51.4983828924606 -175.550000000002
      endloop
   endfacet
   facet normal 0 2.96671056535476E-15 -1
      outer loop
         vertex -86.1456845399736 26.2886528670798 -175.550000000002
         vertex -92.7443154600261 26.2886528670798 -175.550000000002
         vertex -89.4449999999999 45.0000000000009 -175.550000000002
      endloop
   endfacet
   facet normal 1.01467485022852E-15 2.78779600637206E-15 -1
      outer loop
         vertex -92.7443154600261 26.2886528670798 -175.550000000002
         vertex -98.9449996945261 28.5455175489197 -175.550000000002
         vertex -89.4449999999999 45.0000000000009 -175.550000000002
      endloop
   endfacet
   facet normal 1.90696467703591E-15 2.27263224432119E-15 -1
      outer loop
         vertex -89.4449999999999 45.0000000000009 -175.550000000002
         vertex -98.9449996945261 28.5455175489197 -175.550000000002
         vertex -103.999844237864 32.7870352938781 -175.550000000002
      endloop
   endfacet
   facet normal 1.76196472649812E-16 4.75524697265532E-15 -1
      outer loop
         vertex -71.5908403021096 38.5016171075413 -175.550000000002
         vertex -74.8901557621359 32.7870352938781 -175.550000000002
         vertex -89.4449999999999 45.0000000000009 -175.550000000002
      endloop
   endfacet
   facet normal -1.90696467703591E-15 2.27263224432119E-15 -1
      outer loop
         vertex -74.8901557621359 32.7870352938781 -175.550000000002
         vertex -79.9450003054737 28.5455175489197 -175.550000000002
         vertex -89.4449999999999 45.0000000000009 -175.550000000002
      endloop
   endfacet
   facet normal -1.01467485022852E-15 2.78779600637206E-15 -1
      outer loop
         vertex -89.4449999999999 45.0000000000009 -175.550000000002
         vertex -79.9450003054737 28.5455175489197 -175.550000000002
         vertex -86.1456845399736 26.2886528670798 -175.550000000002
      endloop
   endfacet
   facet normal 0.9848077671041 0.173648097747822 4.7700940140757E-16
      outer loop
         vertex -70.4450006109475 45.0000000000009 -162.920000220837
         vertex -70.4450006109475 45.0000000000009 -175.550000000002
         vertex -71.5908403021096 51.4983828924606 -175.550000000002
      endloop
   endfacet
   facet normal 0.9848077671041 0.173648097747822 5.69155786814725E-16
      outer loop
         vertex -70.4450006109475 45.0000000000009 -162.920000220837
         vertex -71.5908403021096 51.4983828924606 -175.550000000002
         vertex -71.5908403021096 51.4983828924606 -162.920000220837
      endloop
   endfacet
   facet normal 0.86602539646096 0.500000012684637 1.64819339697582E-15
      outer loop
         vertex -71.5908403021096 51.4983828924606 -175.550000000002
         vertex -74.8901557621359 57.2129647061238 -175.550000000001
         vertex -71.5908403021096 51.4983828924606 -162.920000220837
      endloop
   endfacet
   facet normal 0.86602539646096 0.500000012684637 1.66681339490841E-15
      outer loop
         vertex -71.5908403021096 51.4983828924606 -162.920000220837
         vertex -74.8901557621359 57.2129647061238 -175.550000000001
         vertex -74.8901557621359 57.2129647061238 -162.920000220836
      endloop
   endfacet
   facet normal 0.642787569932975 0.766044476476178 2.52517883177372E-15
      outer loop
         vertex -74.8901557621359 57.2129647061238 -175.550000000001
         vertex -79.9450003054737 61.4544824510822 -175.550000000001
         vertex -74.8901557621359 57.2129647061238 -162.920000220836
      endloop
   endfacet
   facet normal 0.642787569932975 0.766044476476178 2.52054713336927E-15
      outer loop
         vertex -74.8901557621359 57.2129647061238 -162.920000220836
         vertex -79.9450003054737 61.4544824510822 -175.550000000001
         vertex -79.9450003054737 61.4544824510822 -162.920000220836
      endloop
   endfacet
   facet normal 0.342020168536938 0.939692611609757 3.09759023670071E-15
      outer loop
         vertex -79.9450003054737 61.4544824510822 -175.550000000001
         vertex -86.1456845399736 63.7113471329222 -175.550000000001
         vertex -79.9450003054737 61.4544824510822 -162.920000220836
      endloop
   endfacet
   facet normal 0.342020168536938 0.939692611609757 3.08970304305285E-15
      outer loop
         vertex -79.9450003054737 61.4544824510822 -162.920000220836
         vertex -86.1456845399736 63.7113471329222 -175.550000000001
         vertex -86.1456845399736 63.7113471329221 -162.920000220836
      endloop
   endfacet
   facet normal 0 1 3.2963867103247E-15
      outer loop
         vertex -86.1456845399736 63.7113471329222 -175.550000000001
         vertex -92.7443154600261 63.7113471329222 -175.550000000001
         vertex -86.1456845399736 63.7113471329221 -162.920000220836
      endloop
   endfacet
   facet normal 0 1 3.2963867103247E-15
      outer loop
         vertex -86.1456845399736 63.7113471329221 -162.920000220836
         vertex -92.7443154600261 63.7113471329222 -175.550000000001
         vertex -92.7443154600261 63.7113471329221 -162.920000220836
      endloop
   endfacet
   facet normal -0.342020168536938 0.939692611609757 3.09759023670071E-15
      outer loop
         vertex -92.7443154600261 63.7113471329222 -175.550000000001
         vertex -98.9449996945261 61.4544824510822 -175.550000000001
         vertex -92.7443154600261 63.7113471329221 -162.920000220836
      endloop
   endfacet
   facet normal -0.342020168536938 0.939692611609757 3.08970304305285E-15
      outer loop
         vertex -92.7443154600261 63.7113471329221 -162.920000220836
         vertex -98.9449996945261 61.4544824510822 -175.550000000001
         vertex -98.9449996945261 61.4544824510822 -162.920000220836
      endloop
   endfacet
   facet normal -0.642787569932975 0.766044476476178 2.52517883177372E-15
      outer loop
         vertex -98.9449996945261 61.4544824510822 -175.550000000001
         vertex -103.999844237864 57.2129647061238 -175.550000000001
         vertex -98.9449996945261 61.4544824510822 -162.920000220836
      endloop
   endfacet
   facet normal -0.642787569932975 0.766044476476178 2.52054713336927E-15
      outer loop
         vertex -98.9449996945261 61.4544824510822 -162.920000220836
         vertex -103.999844237864 57.2129647061238 -175.550000000001
         vertex -103.999844237864 57.2129647061238 -162.920000220836
      endloop
   endfacet
   facet normal -0.86602539646096 0.500000012684637 1.64819339697582E-15
      outer loop
         vertex -103.999844237864 57.2129647061238 -175.550000000001
         vertex -107.29915969789 51.4983828924606 -175.550000000002
         vertex -103.999844237864 57.2129647061238 -162.920000220836
      endloop
   endfacet
   facet normal -0.86602539646096 0.500000012684637 1.66681339490841E-15
      outer loop
         vertex -103.999844237864 57.2129647061238 -162.920000220836
         vertex -107.29915969789 51.4983828924606 -175.550000000002
         vertex -107.29915969789 51.4983828924606 -162.920000220837
      endloop
   endfacet
   facet normal -0.9848077671041 0.173648097747822 5.72411281689085E-16
      outer loop
         vertex -107.29915969789 51.4983828924606 -175.550000000002
         vertex -108.444999389052 45.000000000001 -175.550000000002
         vertex -107.29915969789 51.4983828924606 -162.920000220837
      endloop
   endfacet
   facet normal -0.9848077671041 0.173648097747822 6.70790748745927E-16
      outer loop
         vertex -107.29915969789 51.4983828924606 -162.920000220837
         vertex -108.444999389052 45.000000000001 -175.550000000002
         vertex -108.444999389052 45.0000000000009 -162.920000220837
      endloop
   endfacet
   facet normal -0.9848077671041 -0.173648097747823 -6.67813161970604E-16
      outer loop
         vertex -108.444999389052 45.000000000001 -175.550000000002
         vertex -107.29915969789 38.5016171075413 -175.550000000002
         vertex -108.444999389052 45.0000000000009 -162.920000220837
      endloop
   endfacet
   facet normal -0.9848077671041 -0.173648097747823 -5.69155786814731E-16
      outer loop
         vertex -108.444999389052 45.0000000000009 -162.920000220837
         vertex -107.29915969789 38.5016171075413 -175.550000000002
         vertex -107.29915969789 38.5016171075413 -162.920000220837
      endloop
   endfacet
   facet normal -0.86602539646096 -0.500000012684637 -1.64819339697582E-15
      outer loop
         vertex -107.29915969789 38.5016171075413 -175.550000000002
         vertex -103.999844237864 32.7870352938781 -175.550000000002
         vertex -107.29915969789 38.5016171075413 -162.920000220837
      endloop
   endfacet
   facet normal -0.86602539646096 -0.500000012684637 -1.66681339490841E-15
      outer loop
         vertex -107.29915969789 38.5016171075413 -162.920000220837
         vertex -103.999844237864 32.7870352938781 -175.550000000002
         vertex -103.999844237864 32.7870352938781 -162.920000220837
      endloop
   endfacet
   facet normal -0.642787569932975 -0.766044476476178 -2.52517883177372E-15
      outer loop
         vertex -103.999844237864 32.7870352938781 -175.550000000002
         vertex -98.9449996945261 28.5455175489197 -175.550000000002
         vertex -103.999844237864 32.7870352938781 -162.920000220837
      endloop
   endfacet
   facet normal -0.642787569932975 -0.766044476476177 -2.72381706347969E-15
      outer loop
         vertex -103.999844237864 32.7870352938781 -162.920000220837
         vertex -98.9449996945261 28.5455175489197 -175.550000000002
         vertex -98.9449996945261 28.5455175489196 -162.920000220837
      endloop
   endfacet
   facet normal -0.342020168536938 -0.939692611609757 -3.35572275642577E-15
      outer loop
         vertex -98.9449996945261 28.5455175489197 -175.550000000002
         vertex -92.7443154600261 26.2886528670798 -175.550000000002
         vertex -98.9449996945261 28.5455175489196 -162.920000220837
      endloop
   endfacet
   facet normal -0.342020168536938 -0.939692611609757 -3.35395396120868E-15
      outer loop
         vertex -98.9449996945261 28.5455175489196 -162.920000220837
         vertex -92.7443154600261 26.2886528670798 -175.550000000002
         vertex -92.7443154600261 26.2886528670797 -162.920000220837
      endloop
   endfacet
   facet normal 0 -1 -3.57108560285176E-15
      outer loop
         vertex -92.7443154600261 26.2886528670798 -175.550000000002
         vertex -86.1456845399736 26.2886528670798 -175.550000000002
         vertex -92.7443154600261 26.2886528670797 -162.920000220837
      endloop
   endfacet
   facet normal 0 -1 -3.57108560285176E-15
      outer loop
         vertex -92.7443154600261 26.2886528670797 -162.920000220837
         vertex -86.1456845399736 26.2886528670798 -175.550000000002
         vertex -86.1456845399736 26.2886528670797 -162.920000220837
      endloop
   endfacet
   facet normal 0.342020168536938 -0.939692611609757 -3.35572275642577E-15
      outer loop
         vertex -86.1456845399736 26.2886528670798 -175.550000000002
         vertex -79.9450003054737 28.5455175489197 -175.550000000002
         vertex -86.1456845399736 26.2886528670797 -162.920000220837
      endloop
   endfacet
   facet normal 0.342020168536938 -0.939692611609757 -3.35395396120868E-15
      outer loop
         vertex -86.1456845399736 26.2886528670797 -162.920000220837
         vertex -79.9450003054737 28.5455175489197 -175.550000000002
         vertex -79.9450003054737 28.5455175489196 -162.920000220837
      endloop
   endfacet
   facet normal 0.642787569932975 -0.766044476476178 -2.73561040108819E-15
      outer loop
         vertex -79.9450003054737 28.5455175489197 -175.550000000002
         vertex -74.8901557621359 32.7870352938781 -175.550000000002
         vertex -79.9450003054737 28.5455175489196 -162.920000220837
      endloop
   endfacet
   facet normal 0.642787569932975 -0.766044476476177 -2.52054713336927E-15
      outer loop
         vertex -79.9450003054737 28.5455175489196 -162.920000220837
         vertex -74.8901557621359 32.7870352938781 -175.550000000002
         vertex -74.8901557621359 32.7870352938781 -162.920000220837
      endloop
   endfacet
   facet normal 0.86602539646096 -0.500000012684637 -1.64819339697582E-15
      outer loop
         vertex -74.8901557621359 32.7870352938781 -175.550000000002
         vertex -71.5908403021096 38.5016171075413 -175.550000000002
         vertex -74.8901557621359 32.7870352938781 -162.920000220837
      endloop
   endfacet
   facet normal 0.86602539646096 -0.500000012684637 -1.66681339490841E-15
      outer loop
         vertex -74.8901557621359 32.7870352938781 -162.920000220837
         vertex -71.5908403021096 38.5016171075413 -175.550000000002
         vertex -71.5908403021096 38.5016171075413 -162.920000220837
      endloop
   endfacet
   facet normal 0.9848077671041 -0.173648097747824 -5.72411281689091E-16
      outer loop
         vertex -71.5908403021096 38.5016171075413 -175.550000000002
         vertex -70.4450006109475 45.0000000000009 -175.550000000002
         vertex -71.5908403021096 38.5016171075413 -162.920000220837
      endloop
   endfacet
   facet normal 0.9848077671041 -0.173648097747823 -4.77684321076649E-16
      outer loop
         vertex -71.5908403021096 38.5016171075413 -162.920000220837
         vertex -70.4450006109475 45.0000000000009 -175.550000000002
         vertex -70.4450006109475 45.0000000000009 -162.920000220837
      endloop
   endfacet
   facet normal -1.76196472649812E-16 -4.75524697265532E-15 1
      outer loop
         vertex -74.8901557621359 32.7870352938781 -162.920000220837
         vertex -71.5908403021096 38.5016171075413 -162.920000220837
         vertex -89.4449999999999 45.0000000000009 -162.920000220837
      endloop
   endfacet
   facet normal 0 -4.27115115790347E-15 1
      outer loop
         vertex -71.5908403021096 38.5016171075413 -162.920000220837
         vertex -70.4450006109475 45.0000000000009 -162.920000220837
         vertex -89.4449999999999 45.0000000000009 -162.920000220837
      endloop
   endfacet
   facet normal 0 -4.27115115790343E-15 1
      outer loop
         vertex -89.4449999999999 45.0000000000009 -162.920000220837
         vertex -70.4450006109475 45.0000000000009 -162.920000220837
         vertex -71.5908403021096 51.4983828924606 -162.920000220837
      endloop
   endfacet
   facet normal 0 -2.96671056535476E-15 1
      outer loop
         vertex -92.7443154600261 26.2886528670797 -162.920000220837
         vertex -86.1456845399736 26.2886528670797 -162.920000220837
         vertex -89.4449999999999 45.0000000000009 -162.920000220837
      endloop
   endfacet
   facet normal 1.01467485022852E-15 -2.78779600637206E-15 1
      outer loop
         vertex -86.1456845399736 26.2886528670797 -162.920000220837
         vertex -79.9450003054737 28.5455175489196 -162.920000220837
         vertex -89.4449999999999 45.0000000000009 -162.920000220837
      endloop
   endfacet
   facet normal 1.90696467703592E-15 -2.27263224432119E-15 1
      outer loop
         vertex -89.4449999999999 45.0000000000009 -162.920000220837
         vertex -79.9450003054737 28.5455175489196 -162.920000220837
         vertex -74.8901557621359 32.7870352938781 -162.920000220837
      endloop
   endfacet
   facet normal 1.76196472649812E-16 -4.75524697265532E-15 1
      outer loop
         vertex -107.29915969789 38.5016171075413 -162.920000220837
         vertex -103.999844237864 32.7870352938781 -162.920000220837
         vertex -89.4449999999999 45.0000000000009 -162.920000220837
      endloop
   endfacet
   facet normal -1.90696467703591E-15 -2.27263224432119E-15 1
      outer loop
         vertex -103.999844237864 32.7870352938781 -162.920000220837
         vertex -98.9449996945261 28.5455175489196 -162.920000220837
         vertex -89.4449999999999 45.0000000000009 -162.920000220837
      endloop
   endfacet
   facet normal -1.01467485022852E-15 -2.78779600637206E-15 1
      outer loop
         vertex -89.4449999999999 45.0000000000009 -162.920000220837
         vertex -98.9449996945261 28.5455175489196 -162.920000220837
         vertex -92.7443154600261 26.2886528670797 -162.920000220837
      endloop
   endfacet
   facet normal -1.76196472649828E-16 -4.75524697265531E-15 1
      outer loop
         vertex -103.999844237864 57.2129647061238 -162.920000220836
         vertex -107.29915969789 51.4983828924606 -162.920000220837
         vertex -89.4449999999999 45.0000000000009 -162.920000220837
      endloop
   endfacet
   facet normal -1.55984556238033E-30 -4.27115115790343E-15 1
      outer loop
         vertex -107.29915969789 51.4983828924606 -162.920000220837
         vertex -108.444999389052 45.0000000000009 -162.920000220837
         vertex -89.4449999999999 45.0000000000009 -162.920000220837
      endloop
   endfacet
   facet normal -1.55984556238035E-30 -4.27115115790347E-15 1
      outer loop
         vertex -89.4449999999999 45.0000000000009 -162.920000220837
         vertex -108.444999389052 45.0000000000009 -162.920000220837
         vertex -107.29915969789 38.5016171075413 -162.920000220837
      endloop
   endfacet
   facet normal 0 -2.96671056535475E-15 1
      outer loop
         vertex -86.1456845399736 63.7113471329221 -162.920000220836
         vertex -92.7443154600261 63.7113471329221 -162.920000220836
         vertex -89.4449999999999 45.0000000000009 -162.920000220837
      endloop
   endfacet
   facet normal 1.01467485022851E-15 -2.78779600637205E-15 1
      outer loop
         vertex -92.7443154600261 63.7113471329221 -162.920000220836
         vertex -98.9449996945261 61.4544824510822 -162.920000220836
         vertex -89.4449999999999 45.0000000000009 -162.920000220837
      endloop
   endfacet
   facet normal 1.90696467703591E-15 -2.27263224432118E-15 1
      outer loop
         vertex -89.4449999999999 45.0000000000009 -162.920000220837
         vertex -98.9449996945261 61.4544824510822 -162.920000220836
         vertex -103.999844237864 57.2129647061238 -162.920000220836
      endloop
   endfacet
   facet normal 1.76196472649828E-16 -4.75524697265531E-15 1
      outer loop
         vertex -71.5908403021096 51.4983828924606 -162.920000220837
         vertex -74.8901557621359 57.2129647061238 -162.920000220836
         vertex -89.4449999999999 45.0000000000009 -162.920000220837
      endloop
   endfacet
   facet normal -1.90696467703591E-15 -2.27263224432118E-15 1
      outer loop
         vertex -74.8901557621359 57.2129647061238 -162.920000220836
         vertex -79.9450003054737 61.4544824510822 -162.920000220836
         vertex -89.4449999999999 45.0000000000009 -162.920000220837
      endloop
   endfacet
   facet normal -1.01467485022851E-15 -2.78779600637205E-15 1
      outer loop
         vertex -89.4449999999999 45.0000000000009 -162.920000220837
         vertex -79.9450003054737 61.4544824510822 -162.920000220836
         vertex -86.1456845399736 63.7113471329221 -162.920000220836
      endloop
   endfacet
endsolid fan_rear2_blades
