solid fan_rear2_frame
   facet normal -0.9848077671041 -0.173648097747822 -7.63215042252114E-16
      outer loop
         vertex -51.4450012218951 45.0000000000009 -175.550000000002
         vertex -51.4450012218951 45.0000000000009 -162.920000220837
         vertex -53.7366806042193 57.9967657849202 -175.550000000001
      endloop
   endfacet
   facet normal -0.9848077671041 -0.173648097747822 -5.69155786814726E-16
      outer loop
         vertex -51.4450012218951 45.0000000000009 -162.920000220837
         vertex -53.7366806042193 57.9967657849202 -162.920000220836
         vertex -53.7366806042193 57.9967657849202 -175.550000000001
      endloop
   endfacet
   facet normal -0.86602539646096 -0.500000012684637 -1.64819339697582E-15
      outer loop
         vertex -53.7366806042193 57.9967657849202 -175.550000000001
         vertex -53.7366806042193 57.9967657849202 -162.920000220836
         vertex -60.3353115242719 69.4259294122467 -175.550000000001
      endloop
   endfacet
   facet normal -0.86602539646096 -0.500000012684637 -1.62615940966674E-15
      outer loop
         vertex -53.7366806042193 57.9967657849202 -162.920000220836
         vertex -60.3353115242719 69.4259294122467 -162.920000220836
         vertex -60.3353115242719 69.4259294122467 -175.550000000001
      endloop
   endfacet
   facet normal -0.642787569932975 -0.766044476476178 -2.52517883177372E-15
      outer loop
         vertex -60.3353115242719 69.4259294122467 -175.550000000001
         vertex -60.3353115242719 69.4259294122467 -162.920000220836
         vertex -70.4450006109475 77.9089649021635 -175.550000000001
      endloop
   endfacet
   facet normal -0.642787569932975 -0.766044476476178 -2.52054713336927E-15
      outer loop
         vertex -60.3353115242719 69.4259294122467 -162.920000220836
         vertex -70.4450006109475 77.9089649021635 -162.920000220836
         vertex -70.4450006109475 77.9089649021635 -175.550000000001
      endloop
   endfacet
   facet normal -0.342020168536938 -0.939692611609757 -3.09759023670071E-15
      outer loop
         vertex -70.4450006109475 77.9089649021635 -175.550000000001
         vertex -70.4450006109475 77.9089649021635 -162.920000220836
         vertex -82.8463690799474 82.4226942658434 -175.550000000001
      endloop
   endfacet
   facet normal -0.342020168536938 -0.939692611609757 -3.08970304305285E-15
      outer loop
         vertex -70.4450006109475 77.9089649021635 -162.920000220836
         vertex -82.8463690799474 82.4226942658434 -162.920000220836
         vertex -82.8463690799474 82.4226942658434 -175.550000000001
      endloop
   endfacet
   facet normal 0 -1 -3.2963867103247E-15
      outer loop
         vertex -82.8463690799474 82.4226942658434 -175.550000000001
         vertex -82.8463690799474 82.4226942658434 -162.920000220836
         vertex -96.0436309200524 82.4226942658434 -175.550000000001
      endloop
   endfacet
   facet normal 0 -1 -3.2963867103247E-15
      outer loop
         vertex -82.8463690799474 82.4226942658434 -162.920000220836
         vertex -96.0436309200524 82.4226942658434 -162.920000220836
         vertex -96.0436309200524 82.4226942658434 -175.550000000001
      endloop
   endfacet
   facet normal 0.342020168536938 -0.939692611609757 -3.09759023670071E-15
      outer loop
         vertex -96.0436309200524 82.4226942658434 -175.550000000001
         vertex -96.0436309200524 82.4226942658434 -162.920000220836
         vertex -108.444999389052 77.9089649021635 -175.550000000001
      endloop
   endfacet
   facet normal 0.342020168536938 -0.939692611609757 -3.08970304305285E-15
      outer loop
         vertex -96.0436309200524 82.4226942658434 -162.920000220836
         vertex -108.444999389052 77.9089649021635 -162.920000220836
         vertex -108.444999389052 77.9089649021635 -175.550000000001
      endloop
   endfacet
   facet normal 0.642787569932975 -0.766044476476178 -2.52517883177372E-15
      outer loop
         vertex -108.444999389052 77.9089649021635 -175.550000000001
         vertex -108.444999389052 77.9089649021635 -162.920000220836
         vertex -118.554688475728 69.4259294122467 -175.550000000001
      endloop
   endfacet
   facet normal 0.642787569932975 -0.766044476476178 -2.52054713336927E-15
      outer loop
         vertex -108.444999389052 77.9089649021635 -162.920000220836
         vertex -118.554688475728 69.4259294122467 -162.920000220836
         vertex -118.554688475728 69.4259294122467 -175.550000000001
      endloop
   endfacet
   facet normal 0.86602539646096 -0.500000012684637 -1.64819339697582E-15
      outer loop
         vertex -118.554688475728 69.4259294122467 -175.550000000001
         vertex -118.554688475728 69.4259294122467 -162.920000220836
         vertex -125.15331939578 57.9967657849202 -175.550000000001
      endloop
   endfacet
   facet normal 0.86602539646096 -0.500000012684637 -1.62615940966674E-15
      outer loop
         vertex -118.554688475728 69.4259294122467 -162.920000220836
         vertex -125.15331939578 57.9967657849202 -162.920000220836
         vertex -125.15331939578 57.9967657849202 -175.550000000001
      endloop
   endfacet
   facet normal 0.9848077671041 -0.173648097747822 -5.72411281689087E-16
      outer loop
         vertex -125.15331939578 57.9967657849202 -175.550000000001
         vertex -125.15331939578 57.9967657849202 -162.920000220836
         vertex -127.444998778105 45.000000000001 -175.550000000002
      endloop
   endfacet
   facet normal 0.9848077671041 -0.173648097747822 -5.69155786814728E-16
      outer loop
         vertex -125.15331939578 57.9967657849202 -162.920000220836
         vertex -127.444998778105 45.0000000000009 -162.920000220837
         vertex -127.444998778105 45.000000000001 -175.550000000002
      endloop
   endfacet
   facet normal 0.9848077671041 0.173648097747823 5.72411281689088E-16
      outer loop
         vertex -127.444998778105 45.000000000001 -175.550000000002
         vertex -127.444998778105 45.0000000000009 -162.920000220837
         vertex -125.15331939578 32.0032342150817 -175.550000000002
      endloop
   endfacet
   facet normal 0.9848077671041 0.173648097747823 5.89482779200969E-16
      outer loop
         vertex -127.444998778105 45.0000000000009 -162.920000220837
         vertex -125.15331939578 32.0032342150817 -162.920000220837
         vertex -125.15331939578 32.0032342150817 -175.550000000002
      endloop
   endfacet
   facet normal 0.86602539646096 0.500000012684637 1.64819339697582E-15
      outer loop
         vertex -125.15331939578 32.0032342150817 -175.550000000002
         vertex -125.15331939578 32.0032342150817 -162.920000220837
         vertex -118.554688475728 20.5740705877552 -175.550000000002
      endloop
   endfacet
   facet normal 0.86602539646096 0.500000012684637 1.78877535063342E-15
      outer loop
         vertex -125.15331939578 32.0032342150817 -162.920000220837
         vertex -118.554688475728 20.5740705877552 -162.920000220837
         vertex -118.554688475728 20.5740705877552 -175.550000000002
      endloop
   endfacet
   facet normal 0.642787569932975 0.766044476476178 2.73561040108819E-15
      outer loop
         vertex -118.554688475728 20.5740705877552 -175.550000000002
         vertex -118.554688475728 20.5740705877552 -162.920000220837
         vertex -108.444999389052 12.0910350978384 -175.550000000002
      endloop
   endfacet
   facet normal 0.642787569932975 0.766044476476178 2.52054713336927E-15
      outer loop
         vertex -118.554688475728 20.5740705877552 -162.920000220837
         vertex -108.444999389052 12.0910350978384 -162.920000220837
         vertex -108.444999389052 12.0910350978384 -175.550000000002
      endloop
   endfacet
   facet normal 0.342020168536938 0.939692611609757 3.09759023670071E-15
      outer loop
         vertex -108.444999389052 12.0910350978384 -175.550000000002
         vertex -108.444999389052 12.0910350978384 -162.920000220837
         vertex -96.0436309200524 7.57730573415853 -175.550000000002
      endloop
   endfacet
   facet normal 0.342020168536938 0.939692611609757 3.08970304305285E-15
      outer loop
         vertex -108.444999389052 12.0910350978384 -162.920000220837
         vertex -96.0436309200524 7.57730573415849 -162.920000220837
         vertex -96.0436309200524 7.57730573415853 -175.550000000002
      endloop
   endfacet
   facet normal 0 1 3.2963867103247E-15
      outer loop
         vertex -96.0436309200524 7.57730573415853 -175.550000000002
         vertex -96.0436309200524 7.57730573415849 -162.920000220837
         vertex -82.8463690799474 7.57730573415853 -175.550000000002
      endloop
   endfacet
   facet normal 0 1 3.2963867103247E-15
      outer loop
         vertex -96.0436309200524 7.57730573415849 -162.920000220837
         vertex -82.8463690799474 7.57730573415849 -162.920000220837
         vertex -82.8463690799474 7.57730573415853 -175.550000000002
      endloop
   endfacet
   facet normal -0.342020168536938 0.939692611609757 3.09759023670071E-15
      outer loop
         vertex -82.8463690799474 7.57730573415853 -175.550000000002
         vertex -82.8463690799474 7.57730573415849 -162.920000220837
         vertex -70.4450006109475 12.0910350978384 -175.550000000002
      endloop
   endfacet
   facet normal -0.342020168536938 0.939692611609757 3.08970304305285E-15
      outer loop
         vertex -82.8463690799474 7.57730573415849 -162.920000220837
         vertex -70.4450006109475 12.0910350978384 -162.920000220837
         vertex -70.4450006109475 12.0910350978384 -175.550000000002
      endloop
   endfacet
   facet normal -0.642787569932975 0.766044476476178 2.52517883177372E-15
      outer loop
         vertex -70.4450006109475 12.0910350978384 -175.550000000002
         vertex -70.4450006109475 12.0910350978384 -162.920000220837
         vertex -60.3353115242719 20.5740705877552 -175.550000000002
      endloop
   endfacet
   facet normal -0.642787569932975 0.766044476476178 2.76447104950178E-15
      outer loop
         vertex -70.4450006109475 12.0910350978384 -162.920000220837
         vertex -60.3353115242719 20.5740705877552 -162.920000220837
         vertex -60.3353115242719 20.5740705877552 -175.550000000002
      endloop
   endfacet
   facet normal -0.86602539646096 0.500000012684637 1.78554284672381E-15
      outer loop
         vertex -60.3353115242719 20.5740705877552 -175.550000000002
         vertex -60.3353115242719 20.5740705877552 -162.920000220837
         vertex -53.7366806042193 32.0032342150817 -175.550000000002
      endloop
   endfacet
   facet normal -0.86602539646096 0.500000012684637 1.62615940966674E-15
      outer loop
         vertex -60.3353115242719 20.5740705877552 -162.920000220837
         vertex -53.7366806042193 32.0032342150817 -162.920000220837
         vertex -53.7366806042193 32.0032342150817 -175.550000000002
      endloop
   endfacet
   facet normal -0.9848077671041 0.173648097747823 5.72411281689089E-16
      outer loop
         vertex -53.7366806042193 32.0032342150817 -175.550000000002
         vertex -53.7366806042193 32.0032342150817 -162.920000220837
         vertex -51.4450012218951 45.0000000000009 -175.550000000002
      endloop
   endfacet
   facet normal -0.9848077671041 0.173648097747823 7.72425710677134E-16
      outer loop
         vertex -53.7366806042193 32.0032342150817 -162.920000220837
         vertex -51.4450012218951 45.0000000000009 -162.920000220837
         vertex -51.4450012218951 45.0000000000009 -175.550000000002
      endloop
   endfacet
   facet normal 1.66999451535644E-16 3.47091417727741E-15 -1
      outer loop
         vertex -60.3353115242719 69.4259294122467 -175.550000000001
         vertex -70.4450006109475 77.9089649021635 -175.550000000001
         vertex -49.5449988615512 84.9000011384497 -175.550000000001
      endloop
   endfacet
   facet normal -9.09162496066498E-16 2.95339225810186E-15 -1
      outer loop
         vertex -60.3353115242719 20.5740705877552 -175.550000000002
         vertex -53.7366806042193 32.0032342150817 -175.550000000002
         vertex -49.5449988615512 5.09999886155225 -175.550000000002
      endloop
   endfacet
   facet normal 3.54107213678492E-15 3.64676489585287E-15 -1
      outer loop
         vertex -53.7366806042193 32.0032342150817 -175.550000000002
         vertex -51.4450012218951 45.0000000000009 -175.550000000002
         vertex -49.5449988615512 5.09999886155225 -175.550000000002
      endloop
   endfacet
   facet normal -6.09711910370317E-29 3.47814220848266E-15 -1
      outer loop
         vertex -49.5449988615512 5.09999886155225 -175.550000000002
         vertex -51.4450012218951 45.0000000000009 -175.550000000002
         vertex -49.5449988615512 84.9000011384497 -175.550000000001
      endloop
   endfacet
   facet normal -3.54107213678486E-15 3.64676489585286E-15 -1
      outer loop
         vertex -51.4450012218951 45.0000000000009 -175.550000000002
         vertex -53.7366806042193 57.9967657849202 -175.550000000001
         vertex -49.5449988615512 84.9000011384497 -175.550000000001
      endloop
   endfacet
   facet normal 9.09162496066498E-16 2.95339225810186E-15 -1
      outer loop
         vertex -49.5449988615512 84.9000011384497 -175.550000000001
         vertex -53.7366806042193 57.9967657849202 -175.550000000001
         vertex -60.3353115242719 69.4259294122467 -175.550000000001
      endloop
   endfacet
   facet normal -3.79810194034517E-16 5.10562499306259E-15 -1
      outer loop
         vertex -70.4450006109475 77.9089649021635 -175.550000000001
         vertex -82.8463690799474 82.4226942658434 -175.550000000001
         vertex -49.5449988615512 84.9000011384497 -175.550000000001
      endloop
   endfacet
   facet normal 0 0 -1
      outer loop
         vertex -82.8463690799474 82.4226942658434 -175.550000000001
         vertex -96.0436309200524 82.4226942658434 -175.550000000001
         vertex -49.5449988615512 84.9000011384497 -175.550000000001
      endloop
   endfacet
   facet normal 0 0 -1
      outer loop
         vertex -49.5449988615512 84.9000011384497 -175.550000000001
         vertex -96.0436309200524 82.4226942658434 -175.550000000001
         vertex -129.345001138449 84.9000011384497 -175.550000000001
      endloop
   endfacet
   facet normal 3.79810194034517E-16 5.10562499306259E-15 -1
      outer loop
         vertex -96.0436309200524 82.4226942658434 -175.550000000001
         vertex -108.444999389052 77.9089649021635 -175.550000000001
         vertex -129.345001138449 84.9000011384497 -175.550000000001
      endloop
   endfacet
   facet normal -1.66999451535644E-16 3.47091417727741E-15 -1
      outer loop
         vertex -129.345001138449 84.9000011384497 -175.550000000001
         vertex -108.444999389052 77.9089649021635 -175.550000000001
         vertex -118.554688475728 69.4259294122467 -175.550000000001
      endloop
   endfacet
   facet normal -9.09162496066498E-16 2.95339225810186E-15 -1
      outer loop
         vertex -118.554688475728 69.4259294122467 -175.550000000001
         vertex -125.15331939578 57.9967657849202 -175.550000000001
         vertex -129.345001138449 84.9000011384497 -175.550000000001
      endloop
   endfacet
   facet normal 3.54107213678488E-15 3.64676489585286E-15 -1
      outer loop
         vertex -125.15331939578 57.9967657849202 -175.550000000001
         vertex -127.444998778105 45.000000000001 -175.550000000002
         vertex -129.345001138449 84.9000011384497 -175.550000000001
      endloop
   endfacet
   facet normal 2.03237303456772E-29 3.47814220848266E-15 -1
      outer loop
         vertex -129.345001138449 84.9000011384497 -175.550000000001
         vertex -127.444998778105 45.000000000001 -175.550000000002
         vertex -129.345001138449 5.09999886155225 -175.550000000002
      endloop
   endfacet
   facet normal -3.5410721367849E-15 3.64676489585286E-15 -1
      outer loop
         vertex -127.444998778105 45.000000000001 -175.550000000002
         vertex -125.15331939578 32.0032342150817 -175.550000000002
         vertex -129.345001138449 5.09999886155225 -175.550000000002
      endloop
   endfacet
   facet normal 9.09162496066498E-16 2.95339225810186E-15 -1
      outer loop
         vertex -125.15331939578 32.0032342150817 -175.550000000002
         vertex -118.554688475728 20.5740705877552 -175.550000000002
         vertex -129.345001138449 5.09999886155225 -175.550000000002
      endloop
   endfacet
   facet normal 1.66999451535644E-16 3.47091417727741E-15 -1
      outer loop
         vertex -129.345001138449 5.09999886155225 -175.550000000002
         vertex -118.554688475728 20.5740705877552 -175.550000000002
         vertex -108.444999389052 12.0910350978384 -175.550000000002
      endloop
   endfacet
   facet normal -3.79810194034517E-16 5.10562499306259E-15 -1
      outer loop
         vertex -108.444999389052 12.0910350978384 -175.550000000002
         vertex -96.0436309200524 7.57730573415853 -175.550000000002
         vertex -129.345001138449 5.09999886155225 -175.550000000002
      endloop
   endfacet
   facet normal 0 0 -1
      outer loop
         vertex -96.0436309200524 7.57730573415853 -175.550000000002
         vertex -82.8463690799474 7.57730573415853 -175.550000000002
         vertex -129.345001138449 5.09999886155225 -175.550000000002
      endloop
   endfacet
   facet normal 0 0 -1
      outer loop
         vertex -129.345001138449 5.09999886155225 -175.550000000002
         vertex -82.8463690799474 7.57730573415853 -175.550000000002
         vertex -49.5449988615512 5.09999886155225 -175.550000000002
      endloop
   endfacet
   facet normal 3.79810194034517E-16 5.10562499306259E-15 -1
      outer loop
         vertex -82.8463690799474 7.57730573415853 -175.550000000002
         vertex -70.4450006109475 12.0910350978384 -175.550000000002
         vertex -49.5449988615512 5.09999886155225 -175.550000000002
      endloop
   endfacet
   facet normal -1.66999451535644E-16 3.47091417727741E-15 -1
      outer loop
         vertex -49.5449988615512 5.09999886155225 -175.550000000002
         vertex -70.4450006109475 12.0910350978384 -175.550000000002
         vertex -60.3353115242719 20.5740705877552 -175.550000000002
      endloop
   endfacet
   facet normal -1.66999451535643E-16 -3.47091417727741E-15 1
      outer loop
         vertex -108.444999389052 12.0910350978384 -162.920000220837
         vertex -118.554688475728 20.5740705877552 -162.920000220837
         vertex -129.345001138449 5.09999886155221 -162.920000220837
      endloop
   endfacet
   facet normal 1.66999451535643E-16 -3.47091417727741E-15 1
      outer loop
         vertex -60.3353115242719 20.5740705877552 -162.920000220837
         vertex -70.4450006109475 12.0910350978384 -162.920000220837
         vertex -49.5449988615512 5.09999886155221 -162.920000220837
      endloop
   endfacet
   facet normal -3.79810194034517E-16 -5.10562499306259E-15 1
      outer loop
         vertex -70.4450006109475 12.0910350978384 -162.920000220837
         vertex -82.8463690799474 7.57730573415849 -162.920000220837
         vertex -49.5449988615512 5.09999886155221 -162.920000220837
      endloop
   endfacet
   facet normal 0 0 1
      outer loop
         vertex -49.5449988615512 5.09999886155221 -162.920000220837
         vertex -82.8463690799474 7.57730573415849 -162.920000220837
         vertex -129.345001138449 5.09999886155221 -162.920000220837
      endloop
   endfacet
   facet normal 0 0 1
      outer loop
         vertex -82.8463690799474 7.57730573415849 -162.920000220837
         vertex -96.0436309200524 7.57730573415849 -162.920000220837
         vertex -129.345001138449 5.09999886155221 -162.920000220837
      endloop
   endfacet
   facet normal 3.79810194034517E-16 -5.10562499306259E-15 1
      outer loop
         vertex -129.345001138449 5.09999886155221 -162.920000220837
         vertex -96.0436309200524 7.57730573415849 -162.920000220837
         vertex -108.444999389052 12.0910350978384 -162.920000220837
      endloop
   endfacet
   facet normal 1.66999451535644E-16 -3.47091417727741E-15 1
      outer loop
         vertex -118.554688475728 69.4259294122467 -162.920000220836
         vertex -108.444999389052 77.9089649021635 -162.920000220836
         vertex -129.345001138449 84.9000011384496 -162.920000220836
      endloop
   endfacet
   facet normal -3.79810194034517E-16 -5.10562499306259E-15 1
      outer loop
         vertex -108.444999389052 77.9089649021635 -162.920000220836
         vertex -96.0436309200524 82.4226942658434 -162.920000220836
         vertex -129.345001138449 84.9000011384496 -162.920000220836
      endloop
   endfacet
   facet normal 0 0 1
      outer loop
         vertex -129.345001138449 84.9000011384496 -162.920000220836
         vertex -96.0436309200524 82.4226942658434 -162.920000220836
         vertex -49.5449988615512 84.9000011384496 -162.920000220836
      endloop
   endfacet
   facet normal 0 0 1
      outer loop
         vertex -96.0436309200524 82.4226942658434 -162.920000220836
         vertex -82.8463690799474 82.4226942658434 -162.920000220836
         vertex -49.5449988615512 84.9000011384496 -162.920000220836
      endloop
   endfacet
   facet normal 3.79810194034517E-16 -5.10562499306259E-15 1
      outer loop
         vertex -82.8463690799474 82.4226942658434 -162.920000220836
         vertex -70.4450006109475 77.9089649021635 -162.920000220836
         vertex -49.5449988615512 84.9000011384496 -162.920000220836
      endloop
   endfacet
   facet normal -1.66999451535644E-16 -3.47091417727741E-15 1
      outer loop
         vertex -49.5449988615512 84.9000011384496 -162.920000220836
         vertex -70.4450006109475 77.9089649021635 -162.920000220836
         vertex -60.3353115242719 69.4259294122467 -162.920000220836
      endloop
   endfacet
   facet normal -9.091624960665E-16 -2.95339225810186E-15 1
      outer loop
         vertex -118.554688475728 20.5740705877552 -162.920000220837
         vertex -125.15331939578 32.0032342150817 -162.920000220837
         vertex -129.345001138449 5.09999886155221 -162.920000220837
      endloop
   endfacet
   facet normal 3.5410721367849E-15 -3.64676489585286E-15 1
      outer loop
         vertex -125.15331939578 32.0032342150817 -162.920000220837
         vertex -127.444998778105 45.0000000000009 -162.920000220837
         vertex -129.345001138449 5.09999886155221 -162.920000220837
      endloop
   endfacet
   facet normal -2.03237303456772E-29 -3.47814220848266E-15 1
      outer loop
         vertex -129.345001138449 5.09999886155221 -162.920000220837
         vertex -127.444998778105 45.0000000000009 -162.920000220837
         vertex -129.345001138449 84.9000011384496 -162.920000220836
      endloop
   endfacet
   facet normal -3.54107213678488E-15 -3.64676489585286E-15 1
      outer loop
         vertex -127.444998778105 45.0000000000009 -162.920000220837
         vertex -125.15331939578 57.9967657849202 -162.920000220836
         vertex -129.345001138449 84.9000011384496 -162.920000220836
      endloop
   endfacet
   facet normal 9.09162496066498E-16 -2.95339225810186E-15 1
      outer loop
         vertex -129.345001138449 84.9000011384496 -162.920000220836
         vertex -125.15331939578 57.9967657849202 -162.920000220836
         vertex -118.554688475728 69.4259294122467 -162.920000220836
      endloop
   endfacet
   facet normal -9.09162496066498E-16 -2.95339225810186E-15 1
      outer loop
         vertex -60.3353115242719 69.4259294122467 -162.920000220836
         vertex -53.7366806042193 57.9967657849202 -162.920000220836
         vertex -49.5449988615512 84.9000011384496 -162.920000220836
      endloop
   endfacet
   facet normal 3.54107213678485E-15 -3.64676489585286E-15 1
      outer loop
         vertex -53.7366806042193 57.9967657849202 -162.920000220836
         vertex -51.4450012218951 45.0000000000009 -162.920000220837
         vertex -49.5449988615512 84.9000011384496 -162.920000220836
      endloop
   endfacet
   facet normal 9.14567865555476E-29 -3.47814220848266E-15 1
      outer loop
         vertex -49.5449988615512 84.9000011384496 -162.920000220836
         vertex -51.4450012218951 45.0000000000009 -162.920000220837
         vertex -49.5449988615512 5.09999886155221 -162.920000220837
      endloop
   endfacet
   facet normal -3.54107213678493E-15 -3.64676489585287E-15 1
      outer loop
         vertex -51.4450012218951 45.0000000000009 -162.920000220837
         vertex -53.7366806042193 32.0032342150817 -162.920000220837
         vertex -49.5449988615512 5.09999886155221 -162.920000220837
      endloop
   endfacet
   facet normal 9.091624960665E-16 -2.95339225810186E-15 1
      outer loop
         vertex -49.5449988615512 5.09999886155221 -162.920000220837
         vertex -53.7366806042193 32.0032342150817 -162.920000220837
         vertex -60.3353115242719 20.5740705877552 -162.920000220837
      endloop
   endfacet
   facet normal 0 -1 -3.2963867103247E-15
      outer loop
         vertex -49.5449988615512 5.09999886155221 -162.920000220837
         vertex -129.345001138449 5.09999886155221 -162.920000220837
         vertex -49.5449988615512 5.09999886155225 -175.550000000002
      endloop
   endfacet
   facet normal 0 -1 -3.2963867103247E-15
      outer loop
         vertex -129.345001138449 5.09999886155221 -162.920000220837
         vertex -129.345001138449 5.09999886155225 -175.550000000002
         vertex -49.5449988615512 5.09999886155225 -175.550000000002
      endloop
   endfacet
   facet normal -1 0 0
      outer loop
         vertex -129.345001138449 5.09999886155221 -162.920000220837
         vertex -129.345001138449 84.9000011384496 -162.920000220836
         vertex -129.345001138449 5.09999886155225 -175.550000000002
      endloop
   endfacet
   facet normal -1 0 0
      outer loop
         vertex -129.345001138449 84.9000011384496 -162.920000220836
         vertex -129.345001138449 84.9000011384497 -175.550000000001
         vertex -129.345001138449 5.09999886155225 -175.550000000002
      endloop
   endfacet
   facet normal 0 1 3.2963867103247E-15
      outer loop
         vertex -129.345001138449 84.9000011384497 -175.550000000001
         vertex -129.345001138449 84.9000011384496 -162.920000220836
         vertex -49.5449988615512 84.9000011384497 -175.550000000001
      endloop
   endfacet
   facet normal 0 1 3.2963867103247E-15
      outer loop
         vertex -129.345001138449 84.9000011384496 -162.920000220836
         vertex -49.5449988615512 84.9000011384496 -162.920000220836
         vertex -49.5449988615512 84.9000011384497 -175.550000000001
      endloop
   endfacet
   facet normal 1 0 0
      outer loop
         vertex -49.5449988615512 5.09999886155221 -162.920000220837
         vertex -49.5449988615512 5.09999886155225 -175.550000000002
         vertex -49.5449988615512 84.9000011384496 -162.920000220836
      endloop
   endfacet
   facet normal 1 0 0
      outer loop
         vertex -49.5449988615512 5.09999886155225 -175.550000000002
         vertex -49.5449988615512 84.9000011384497 -175.550000000001
         vertex -49.5449988615512 84.9000011384496 -162.920000220836
      endloop
   endfacet
endsolid fan_rear2_frame
