solid fan_rear2_inlet
   facet normal 5.54213179978588E-16 2.74846248226231E-15 -1
      outer loop
         vertex -60.335313386917 69.4259275496015 -162.920000220836
         vertex -53.7366806042193 57.9967648535976 -162.920000220836
         vertex -89.4449996271447 44.999996506056 -162.920000220837
      endloop
   endfacet
   facet normal -3.92714951539882E-22 4.2711513947195E-15 -1
      outer loop
         vertex -53.7366806042193 57.9967648535976 -162.920000220836
         vertex -51.4450012218951 45.0000000000009 -162.920000220837
         vertex -89.4449996271447 44.999996506056 -162.920000220837
      endloop
   endfacet
   facet normal -3.92714936132519E-22 4.27115122714967E-15 -1
      outer loop
         vertex -89.4449996271447 44.999996506056 -162.920000220837
         vertex -51.4450012218951 45.0000000000009 -162.920000220837
         vertex -53.7366806042193 32.0032342150817 -162.920000220837
      endloop
   endfacet
   facet normal 0 3.70838822961853E-15 -1
      outer loop
         vertex -96.0436337140201 82.4226905405531 -162.920000220836
         vertex -82.8463723395764 82.4226905405531 -162.920000220836
         vertex -89.4449996271447 44.999996506056 -162.920000220837
      endloop
   endfacet
   facet normal -8.3478901604203E-16 3.8555839813605E-15 -1
      outer loop
         vertex -82.8463723395764 82.4226905405531 -162.920000220836
         vertex -70.4450024735926 77.9089649021635 -162.920000220836
         vertex -89.4449996271447 44.999996506056 -162.920000220837
      endloop
   endfacet
   facet normal 5.75021126002704E-17 3.34041958300309E-15 -1
      outer loop
         vertex -89.4449996271447 44.999996506056 -162.920000220837
         vertex -70.4450024735926 77.9089649021635 -162.920000220836
         vertex -60.335313386917 69.4259275496015 -162.920000220836
      endloop
   endfacet
   facet normal -5.5421370675871E-16 2.74846238179271E-15 -1
      outer loop
         vertex -125.15331939578 57.9967583343396 -162.920000220836
         vertex -118.554690338373 69.4259219616661 -162.920000220836
         vertex -89.4449996271447 44.999996506056 -162.920000220837
      endloop
   endfacet
   facet normal -5.75027418227354E-17 3.34041958678947E-15 -1
      outer loop
         vertex -118.554690338373 69.4259219616661 -162.920000220836
         vertex -108.445003114343 77.9089611768732 -162.920000220836
         vertex -89.4449996271447 44.999996506056 -162.920000220837
      endloop
   endfacet
   facet normal 8.34787905277662E-16 3.85558393717499E-15 -1
      outer loop
         vertex -89.4449996271447 44.999996506056 -162.920000220837
         vertex -108.445003114343 77.9089611768732 -162.920000220836
         vertex -96.0436337140201 82.4226905405531 -162.920000220836
      endloop
   endfacet
   facet normal 5.54213140985477E-16 2.74846245974962E-15 -1
      outer loop
         vertex -118.554686613083 20.5740649998197 -162.920000220837
         vertex -125.15331939578 32.0032276958236 -162.920000220837
         vertex -89.4449996271447 44.999996506056 -162.920000220837
      endloop
   endfacet
   facet normal -3.92714883836973E-22 4.27115124266444E-15 -1
      outer loop
         vertex -125.15331939578 32.0032276958236 -162.920000220837
         vertex -127.444998778105 44.9999930121116 -162.920000220837
         vertex -89.4449996271447 44.999996506056 -162.920000220837
      endloop
   endfacet
   facet normal -3.92714896391294E-22 4.27115137920472E-15 -1
      outer loop
         vertex -89.4449996271447 44.999996506056 -162.920000220837
         vertex -127.444998778105 44.9999930121116 -162.920000220837
         vertex -125.15331939578 57.9967583343396 -162.920000220836
      endloop
   endfacet
   facet normal 0 3.70838818376836E-15 -1
      outer loop
         vertex -82.8463653546571 7.57730200886819 -162.920000220837
         vertex -96.0436267291008 7.57730200886819 -162.920000220837
         vertex -89.4449996271447 44.999996506056 -162.920000220837
      endloop
   endfacet
   facet normal -8.34788004328069E-16 3.85558375115758E-15 -1
      outer loop
         vertex -96.0436267291008 7.57730200886819 -162.920000220837
         vertex -108.444995663762 12.0910313725481 -162.920000220837
         vertex -89.4449996271447 44.999996506056 -162.920000220837
      endloop
   endfacet
   facet normal 5.75014645681129E-17 3.34042029026586E-15 -1
      outer loop
         vertex -89.4449996271447 44.999996506056 -162.920000220837
         vertex -108.444995663762 12.0910313725481 -162.920000220837
         vertex -118.554686613083 20.5740649998197 -162.920000220837
      endloop
   endfacet
   facet normal -5.54213686893737E-16 2.74846237032367E-15 -1
      outer loop
         vertex -53.7366806042193 32.0032342150817 -162.920000220837
         vertex -60.3353096616267 20.5740705877552 -162.920000220837
         vertex -89.4449996271447 44.999996506056 -162.920000220837
      endloop
   endfacet
   facet normal -5.75027160117168E-17 3.34041955602911E-15 -1
      outer loop
         vertex -60.3353096616267 20.5740705877552 -162.920000220837
         vertex -70.4449968856572 12.0910313725481 -162.920000220837
         vertex -89.4449996271447 44.999996506056 -162.920000220837
      endloop
   endfacet
   facet normal 8.34787979076143E-16 3.85558390665802E-15 -1
      outer loop
         vertex -89.4449996271447 44.999996506056 -162.920000220837
         vertex -70.4449968856572 12.0910313725481 -162.920000220837
         vertex -82.8463653546571 7.57730200886819 -162.920000220837
      endloop
   endfacet
endsolid fan_rear2_inlet
