solid fan_rear1_frame
   facet normal 0.342020168536938 -0.939692611609757 -3.08970304305285E-15
      outer loop
         vertex 99.8263690799475 82.422694265843 -162.920000220836
         vertex 87.4250006109476 77.9089649021631 -162.920000220836
         vertex 87.4250006109476 77.9089649021632 -175.550000000001
      endloop
   endfacet
   facet normal 0.642787569932975 -0.766044476476178 -2.52517883177372E-15
      outer loop
         vertex 87.4250006109476 77.9089649021632 -175.550000000001
         vertex 87.4250006109476 77.9089649021631 -162.920000220836
         vertex 77.315311524272 69.4259294122464 -175.550000000001
      endloop
   endfacet
   facet normal 0.642787569932975 -0.766044476476178 -2.52054713336928E-15
      outer loop
         vertex 87.4250006109476 77.9089649021631 -162.920000220836
         vertex 77.315311524272 69.4259294122463 -162.920000220836
         vertex 77.315311524272 69.4259294122464 -175.550000000001
      endloop
   endfacet
   facet normal 0.86602539646096 -0.500000012684637 -1.64819339697583E-15
      outer loop
         vertex 77.315311524272 69.4259294122464 -175.550000000001
         vertex 77.315311524272 69.4259294122463 -162.920000220836
         vertex 70.7166806042195 57.9967657849199 -175.550000000001
      endloop
   endfacet
   facet normal 0.86602539646096 -0.500000012684637 -1.62615940966675E-15
      outer loop
         vertex 77.315311524272 69.4259294122463 -162.920000220836
         vertex 70.7166806042195 57.9967657849199 -162.920000220836
         vertex 70.7166806042195 57.9967657849199 -175.550000000001
      endloop
   endfacet
   facet normal 0.9848077671041 -0.173648097747822 -5.7241128168909E-16
      outer loop
         vertex 70.7166806042195 57.9967657849199 -175.550000000001
         vertex 70.7166806042195 57.9967657849199 -162.920000220836
         vertex 68.4250012218953 45.0000000000006 -175.550000000001
      endloop
   endfacet
   facet normal 0.9848077671041 -0.173648097747823 0
      outer loop
         vertex 70.7166806042195 57.9967657849199 -162.920000220836
         vertex 68.4250012218953 45.0000000000006 -162.920000220836
         vertex 68.4250012218953 45.0000000000006 -175.550000000001
      endloop
   endfacet
   facet normal 0.9848077671041 0.173648097747823 0
      outer loop
         vertex 68.4250012218953 45.0000000000006 -175.550000000001
         vertex 68.4250012218953 45.0000000000006 -162.920000220836
         vertex 70.7166806042195 32.0032342150814 -175.550000000001
      endloop
   endfacet
   facet normal 0.9848077671041 0.173648097747822 5.69155786814736E-16
      outer loop
         vertex 68.4250012218953 45.0000000000006 -162.920000220836
         vertex 70.7166806042195 32.0032342150813 -162.920000220837
         vertex 70.7166806042195 32.0032342150814 -175.550000000001
      endloop
   endfacet
   facet normal 0.86602539646096 0.500000012684637 1.64819339697585E-15
      outer loop
         vertex 70.7166806042195 32.0032342150814 -175.550000000001
         vertex 70.7166806042195 32.0032342150813 -162.920000220837
         vertex 77.315311524272 20.5740705877549 -175.550000000001
      endloop
   endfacet
   facet normal 0.86602539646096 0.500000012684637 1.78877535063345E-15
      outer loop
         vertex 70.7166806042195 32.0032342150813 -162.920000220837
         vertex 77.315311524272 20.5740705877548 -162.920000220837
         vertex 77.315311524272 20.5740705877549 -175.550000000001
      endloop
   endfacet
   facet normal 0.642787569932975 0.766044476476178 2.73561040108824E-15
      outer loop
         vertex 77.315311524272 20.5740705877549 -175.550000000001
         vertex 77.315311524272 20.5740705877548 -162.920000220837
         vertex 87.4250006109476 12.0910350978381 -175.550000000001
      endloop
   endfacet
   facet normal 0.642787569932975 0.766044476476178 2.52054713336932E-15
      outer loop
         vertex 77.315311524272 20.5740705877548 -162.920000220837
         vertex 87.4250006109476 12.091035097838 -162.920000220837
         vertex 87.4250006109476 12.0910350978381 -175.550000000001
      endloop
   endfacet
   facet normal 0.342020168536938 0.939692611609757 3.09759023670077E-15
      outer loop
         vertex 87.4250006109476 12.0910350978381 -175.550000000001
         vertex 87.4250006109476 12.091035097838 -162.920000220837
         vertex 99.8263690799475 7.5773057341582 -175.550000000001
      endloop
   endfacet
   facet normal 0.342020168536938 0.939692611609757 3.08970304305291E-15
      outer loop
         vertex 87.4250006109476 12.091035097838 -162.920000220837
         vertex 99.8263690799475 7.57730573415816 -162.920000220837
         vertex 99.8263690799475 7.5773057341582 -175.550000000001
      endloop
   endfacet
   facet normal 0.0871556096996469 0.996194709731929 3.28384300205618E-15
      outer loop
         vertex 99.8263690799475 7.57730573415816 -162.920000220837
         vertex 106.425 7.00000122189581 -162.920000220837
         vertex 99.8263690799475 7.5773057341582 -175.550000000001
      endloop
   endfacet
   facet normal 0 0.998956978307567 0.0456613128437519
      outer loop
         vertex 99.8263690799475 7.5773057341582 -175.550000000001
         vertex 106.425 7.00000122189581 -162.920000220837
         vertex 113.023630920053 7.5773057341582 -175.550000000001
      endloop
   endfacet
   facet normal -0.0871556096996466 0.996194709731929 3.28550441448649E-15
      outer loop
         vertex 106.425 7.00000122189581 -162.920000220837
         vertex 113.023630920053 7.57730573415816 -162.920000220837
         vertex 113.023630920053 7.5773057341582 -175.550000000001
      endloop
   endfacet
   facet normal -0.342020168536937 0.939692611609757 3.09759023670078E-15
      outer loop
         vertex 113.023630920053 7.5773057341582 -175.550000000001
         vertex 113.023630920053 7.57730573415816 -162.920000220837
         vertex 125.424999389052 12.0910350978381 -175.550000000001
      endloop
   endfacet
   facet normal -0.342020168536937 0.939692611609757 3.08970304305291E-15
      outer loop
         vertex 113.023630920053 7.57730573415816 -162.920000220837
         vertex 125.424999389052 12.091035097838 -162.920000220837
         vertex 125.424999389052 12.0910350978381 -175.550000000001
      endloop
   endfacet
   facet normal -0.642787569932975 0.766044476476178 2.52517883177377E-15
      outer loop
         vertex 125.424999389052 12.0910350978381 -175.550000000001
         vertex 125.424999389052 12.091035097838 -162.920000220837
         vertex 135.534688475728 20.5740705877549 -175.550000000001
      endloop
   endfacet
   facet normal -0.642787569932975 0.766044476476178 2.76447104950183E-15
      outer loop
         vertex 125.424999389052 12.091035097838 -162.920000220837
         vertex 135.534688475728 20.5740705877548 -162.920000220837
         vertex 135.534688475728 20.5740705877549 -175.550000000001
      endloop
   endfacet
   facet normal -0.86602539646096 0.500000012684637 1.78554284672384E-15
      outer loop
         vertex 135.534688475728 20.5740705877549 -175.550000000001
         vertex 135.534688475728 20.5740705877548 -162.920000220837
         vertex 142.133319395781 32.0032342150814 -175.550000000001
      endloop
   endfacet
   facet normal -0.86602539646096 0.500000012684637 1.62615940966677E-15
      outer loop
         vertex 135.534688475728 20.5740705877548 -162.920000220837
         vertex 142.133319395781 32.0032342150813 -162.920000220837
         vertex 142.133319395781 32.0032342150814 -175.550000000001
      endloop
   endfacet
   facet normal -0.9848077671041 0.173648097747823 5.72411281689098E-16
      outer loop
         vertex 142.133319395781 32.0032342150814 -175.550000000001
         vertex 142.133319395781 32.0032342150813 -162.920000220837
         vertex 144.424998778105 45.0000000000006 -175.550000000001
      endloop
   endfacet
   facet normal -0.9848077671041 0.173648097747823 -1.01634961931203E-16
      outer loop
         vertex 142.133319395781 32.0032342150813 -162.920000220837
         vertex 144.424998778105 45.0000000000006 -162.920000220836
         vertex 144.424998778105 45.0000000000006 -175.550000000001
      endloop
   endfacet
   facet normal -0.9848077671041 -0.173648097747822 9.54018802815153E-17
      outer loop
         vertex 144.424998778105 45.0000000000006 -175.550000000001
         vertex 144.424998778105 45.0000000000006 -162.920000220836
         vertex 142.133319395781 57.9967657849199 -175.550000000001
      endloop
   endfacet
   facet normal -0.9848077671041 -0.173648097747823 -5.69155786814732E-16
      outer loop
         vertex 144.424998778105 45.0000000000006 -162.920000220836
         vertex 142.133319395781 57.9967657849199 -162.920000220836
         vertex 142.133319395781 57.9967657849199 -175.550000000001
      endloop
   endfacet
   facet normal -0.86602539646096 -0.500000012684637 -1.64819339697583E-15
      outer loop
         vertex 142.133319395781 57.9967657849199 -175.550000000001
         vertex 142.133319395781 57.9967657849199 -162.920000220836
         vertex 135.534688475728 69.4259294122464 -175.550000000001
      endloop
   endfacet
   facet normal -0.86602539646096 -0.500000012684637 -1.62615940966675E-15
      outer loop
         vertex 142.133319395781 57.9967657849199 -162.920000220836
         vertex 135.534688475728 69.4259294122463 -162.920000220836
         vertex 135.534688475728 69.4259294122464 -175.550000000001
      endloop
   endfacet
   facet normal -0.642787569932975 -0.766044476476178 -2.52517883177373E-15
      outer loop
         vertex 135.534688475728 69.4259294122464 -175.550000000001
         vertex 135.534688475728 69.4259294122463 -162.920000220836
         vertex 125.424999389052 77.9089649021632 -175.550000000001
      endloop
   endfacet
   facet normal -0.642787569932975 -0.766044476476178 -2.52054713336927E-15
      outer loop
         vertex 135.534688475728 69.4259294122463 -162.920000220836
         vertex 125.424999389052 77.9089649021631 -162.920000220836
         vertex 125.424999389052 77.9089649021632 -175.550000000001
      endloop
   endfacet
   facet normal -0.342020168536937 -0.939692611609757 -3.09759023670072E-15
      outer loop
         vertex 125.424999389052 77.9089649021632 -175.550000000001
         vertex 125.424999389052 77.9089649021631 -162.920000220836
         vertex 113.023630920053 82.4226942658431 -175.550000000001
      endloop
   endfacet
   facet normal -0.342020168536937 -0.939692611609757 -3.08970304305284E-15
      outer loop
         vertex 125.424999389052 77.9089649021631 -162.920000220836
         vertex 113.023630920053 82.422694265843 -162.920000220836
         vertex 113.023630920053 82.4226942658431 -175.550000000001
      endloop
   endfacet
   facet normal -0.0871556096996469 -0.996194709731929 -3.28384300205611E-15
      outer loop
         vertex 113.023630920053 82.4226942658431 -175.550000000001
         vertex 113.023630920053 82.422694265843 -162.920000220836
         vertex 106.425 82.9999987781054 -175.550000000001
      endloop
   endfacet
   facet normal 0 -0.998956978307567 -0.0456613128437509
      outer loop
         vertex 113.023630920053 82.422694265843 -162.920000220836
         vertex 99.8263690799475 82.422694265843 -162.920000220836
         vertex 106.425 82.9999987781054 -175.550000000001
      endloop
   endfacet
   facet normal 0.0871556096996466 -0.996194709731929 -3.28550441448642E-15
      outer loop
         vertex 106.425 82.9999987781054 -175.550000000001
         vertex 99.8263690799475 82.422694265843 -162.920000220836
         vertex 99.8263690799475 82.4226942658431 -175.550000000001
      endloop
   endfacet
   facet normal 0.342020168536938 -0.939692611609757 -3.09759023670071E-15
      outer loop
         vertex 99.8263690799475 82.422694265843 -162.920000220836
         vertex 87.4250006109476 77.9089649021632 -175.550000000001
         vertex 99.8263690799475 82.4226942658431 -175.550000000001
      endloop
   endfacet
   facet normal 0 0 -1
      outer loop
         vertex 66.5249988615513 84.9000011384494 -175.550000000001
         vertex 87.4250006109476 77.9089649021632 -175.550000000001
         vertex 77.315311524272 69.4259294122464 -175.550000000001
      endloop
   endfacet
   facet normal 0 0 -1
      outer loop
         vertex 77.315311524272 69.4259294122464 -175.550000000001
         vertex 70.7166806042195 57.9967657849199 -175.550000000001
         vertex 66.5249988615513 84.9000011384494 -175.550000000001
      endloop
   endfacet
   facet normal 0 0 -1
      outer loop
         vertex 70.7166806042195 57.9967657849199 -175.550000000001
         vertex 68.4250012218953 45.0000000000006 -175.550000000001
         vertex 66.5249988615513 84.9000011384494 -175.550000000001
      endloop
   endfacet
   facet normal 0 0 -1
      outer loop
         vertex 66.5249988615513 84.9000011384494 -175.550000000001
         vertex 68.4250012218953 45.0000000000006 -175.550000000001
         vertex 66.5249988615513 5.09999886155192 -175.550000000001
      endloop
   endfacet
   facet normal 0 0 -1
      outer loop
         vertex 68.4250012218953 45.0000000000006 -175.550000000001
         vertex 70.7166806042195 32.0032342150814 -175.550000000001
         vertex 66.5249988615513 5.09999886155192 -175.550000000001
      endloop
   endfacet
   facet normal 0 0 -1
      outer loop
         vertex 70.7166806042195 32.0032342150814 -175.550000000001
         vertex 77.315311524272 20.5740705877549 -175.550000000001
         vertex 66.5249988615513 5.09999886155192 -175.550000000001
      endloop
   endfacet
   facet normal 0 0 -1
      outer loop
         vertex 66.5249988615513 5.09999886155192 -175.550000000001
         vertex 77.315311524272 20.5740705877549 -175.550000000001
         vertex 87.4250006109476 12.0910350978381 -175.550000000001
      endloop
   endfacet
   facet normal 0 0 -1
      outer loop
         vertex 87.4250006109476 12.0910350978381 -175.550000000001
         vertex 99.8263690799475 7.5773057341582 -175.550000000001
         vertex 66.5249988615513 5.09999886155192 -175.550000000001
      endloop
   endfacet
   facet normal 0 0 -1
      outer loop
         vertex 99.8263690799475 7.5773057341582 -175.550000000001
         vertex 113.023630920053 7.5773057341582 -175.550000000001
         vertex 66.5249988615513 5.09999886155192 -175.550000000001
      endloop
   endfacet
   facet normal 0 0 -1
      outer loop
         vertex 66.5249988615513 5.09999886155192 -175.550000000001
         vertex 113.023630920053 7.5773057341582 -175.550000000001
         vertex 146.325001138449 5.09999886155192 -175.550000000001
      endloop
   endfacet
   facet normal 0 0 -1
      outer loop
         vertex 113.023630920053 7.5773057341582 -175.550000000001
         vertex 125.424999389052 12.0910350978381 -175.550000000001
         vertex 146.325001138449 5.09999886155192 -175.550000000001
      endloop
   endfacet
   facet normal 0 0 -1
      outer loop
         vertex 146.325001138449 5.09999886155192 -175.550000000001
         vertex 125.424999389052 12.0910350978381 -175.550000000001
         vertex 135.534688475728 20.5740705877549 -175.550000000001
      endloop
   endfacet
   facet normal 0 0 -1
      outer loop
         vertex 135.534688475728 69.4259294122464 -175.550000000001
         vertex 125.424999389052 77.9089649021632 -175.550000000001
         vertex 146.325001138449 84.9000011384494 -175.550000000001
      endloop
   endfacet
   facet normal 0 0 -1
      outer loop
         vertex 135.534688475728 20.5740705877549 -175.550000000001
         vertex 142.133319395781 32.0032342150814 -175.550000000001
         vertex 146.325001138449 5.09999886155192 -175.550000000001
      endloop
   endfacet
   facet normal 0 0 -1
      outer loop
         vertex 142.133319395781 32.0032342150814 -175.550000000001
         vertex 144.424998778105 45.0000000000006 -175.550000000001
         vertex 146.325001138449 5.09999886155192 -175.550000000001
      endloop
   endfacet
   facet normal 0 0 -1
      outer loop
         vertex 146.325001138449 5.09999886155192 -175.550000000001
         vertex 144.424998778105 45.0000000000006 -175.550000000001
         vertex 146.325001138449 84.9000011384494 -175.550000000001
      endloop
   endfacet
   facet normal 0 0 -1
      outer loop
         vertex 144.424998778105 45.0000000000006 -175.550000000001
         vertex 142.133319395781 57.9967657849199 -175.550000000001
         vertex 146.325001138449 84.9000011384494 -175.550000000001
      endloop
   endfacet
   facet normal 0 0 -1
      outer loop
         vertex 146.325001138449 84.9000011384494 -175.550000000001
         vertex 142.133319395781 57.9967657849199 -175.550000000001
         vertex 135.534688475728 69.4259294122464 -175.550000000001
      endloop
   endfacet
   facet normal 0 0 -1
      outer loop
         vertex 125.424999389052 77.9089649021632 -175.550000000001
         vertex 113.023630920053 82.4226942658431 -175.550000000001
         vertex 146.325001138449 84.9000011384494 -175.550000000001
      endloop
   endfacet
   facet normal 0 0 -1
      outer loop
         vertex 113.023630920053 82.4226942658431 -175.550000000001
         vertex 106.425 82.9999987781054 -175.550000000001
         vertex 146.325001138449 84.9000011384494 -175.550000000001
      endloop
   endfacet
   facet normal 0 0 -1
      outer loop
         vertex 146.325001138449 84.9000011384494 -175.550000000001
         vertex 106.425 82.9999987781054 -175.550000000001
         vertex 66.5249988615513 84.9000011384494 -175.550000000001
      endloop
   endfacet
   facet normal 0 0 -1
      outer loop
         vertex 106.425 82.9999987781054 -175.550000000001
         vertex 99.8263690799475 82.4226942658431 -175.550000000001
         vertex 66.5249988615513 84.9000011384494 -175.550000000001
      endloop
   endfacet
   facet normal 0 0 -1
      outer loop
         vertex 66.5249988615513 84.9000011384494 -175.550000000001
         vertex 99.8263690799475 82.4226942658431 -175.550000000001
         vertex 87.4250006109476 77.9089649021632 -175.550000000001
      endloop
   endfacet
   facet normal 1.66999451535643E-16 -3.47091417727741E-15 1
      outer loop
         vertex 135.534688475728 20.5740705877548 -162.920000220837
         vertex 125.424999389052 12.091035097838 -162.920000220837
         vertex 146.325001138449 5.09999886155188 -162.920000220837
      endloop
   endfacet
   facet normal -1.66999451535643E-16 -3.47091417727741E-15 1
      outer loop
         vertex 87.4250006109476 12.091035097838 -162.920000220837
         vertex 77.315311524272 20.5740705877548 -162.920000220837
         vertex 66.5249988615513 5.09999886155188 -162.920000220837
      endloop
   endfacet
   facet normal -1.66999451535644E-16 -3.47091417727741E-15 1
      outer loop
         vertex 146.325001138449 84.9000011384493 -162.920000220836
         vertex 125.424999389052 77.9089649021631 -162.920000220836
         vertex 135.534688475728 69.4259294122463 -162.920000220836
      endloop
   endfacet
   facet normal -9.091624960665E-16 -2.95339225810186E-15 1
      outer loop
         vertex 77.315311524272 20.5740705877548 -162.920000220837
         vertex 70.7166806042195 32.0032342150813 -162.920000220837
         vertex 66.5249988615513 5.09999886155188 -162.920000220837
      endloop
   endfacet
   facet normal 3.54107213678487E-15 -3.64676489585286E-15 1
      outer loop
         vertex 70.7166806042195 32.0032342150813 -162.920000220837
         vertex 68.4250012218953 45.0000000000006 -162.920000220836
         vertex 66.5249988615513 5.09999886155188 -162.920000220837
      endloop
   endfacet
   facet normal 5.08093258641931E-29 -3.47814220848266E-15 1
      outer loop
         vertex 66.5249988615513 5.09999886155188 -162.920000220837
         vertex 68.4250012218953 45.0000000000006 -162.920000220836
         vertex 66.5249988615513 84.9000011384493 -162.920000220836
      endloop
   endfacet
   facet normal -3.54107213678491E-15 -3.64676489585287E-15 1
      outer loop
         vertex 68.4250012218953 45.0000000000006 -162.920000220836
         vertex 70.7166806042195 57.9967657849199 -162.920000220836
         vertex 66.5249988615513 84.9000011384493 -162.920000220836
      endloop
   endfacet
   facet normal 9.09162496066498E-16 -2.95339225810186E-15 1
      outer loop
         vertex 66.5249988615513 84.9000011384493 -162.920000220836
         vertex 70.7166806042195 57.9967657849199 -162.920000220836
         vertex 77.315311524272 69.4259294122463 -162.920000220836
      endloop
   endfacet
   facet normal 1.66999451535644E-16 -3.47091417727741E-15 1
      outer loop
         vertex 77.315311524272 69.4259294122463 -162.920000220836
         vertex 87.4250006109476 77.9089649021631 -162.920000220836
         vertex 66.5249988615513 84.9000011384493 -162.920000220836
      endloop
   endfacet
   facet normal -3.79810194034517E-16 -5.10562499306259E-15 1
      outer loop
         vertex 87.4250006109476 77.9089649021631 -162.920000220836
         vertex 99.8263690799475 82.422694265843 -162.920000220836
         vertex 66.5249988615513 84.9000011384493 -162.920000220836
      endloop
   endfacet
   facet normal 0 0 1
      outer loop
         vertex 66.5249988615513 84.9000011384493 -162.920000220836
         vertex 99.8263690799475 82.422694265843 -162.920000220836
         vertex 146.325001138449 84.9000011384493 -162.920000220836
      endloop
   endfacet
   facet normal 0 0 1
      outer loop
         vertex 99.8263690799475 82.422694265843 -162.920000220836
         vertex 113.023630920053 82.422694265843 -162.920000220836
         vertex 146.325001138449 84.9000011384493 -162.920000220836
      endloop
   endfacet
   facet normal 3.79810194034517E-16 -5.10562499306259E-15 1
      outer loop
         vertex 146.325001138449 84.9000011384493 -162.920000220836
         vertex 113.023630920053 82.422694265843 -162.920000220836
         vertex 125.424999389052 77.9089649021631 -162.920000220836
      endloop
   endfacet
   facet normal -3.79810194034517E-16 -5.10562499306259E-15 1
      outer loop
         vertex 125.424999389052 12.091035097838 -162.920000220837
         vertex 113.023630920053 7.57730573415816 -162.920000220837
         vertex 146.325001138449 5.09999886155188 -162.920000220837
      endloop
   endfacet
   facet normal 0 0 1
      outer loop
         vertex 113.023630920053 7.57730573415816 -162.920000220837
         vertex 106.425 7.00000122189581 -162.920000220837
         vertex 146.325001138449 5.09999886155188 -162.920000220837
      endloop
   endfacet
   facet normal 0 0 1
      outer loop
         vertex 146.325001138449 5.09999886155188 -162.920000220837
         vertex 106.425 7.00000122189581 -162.920000220837
         vertex 66.5249988615513 5.09999886155188 -162.920000220837
      endloop
   endfacet
   facet normal 0 0 1
      outer loop
         vertex 106.425 7.00000122189581 -162.920000220837
         vertex 99.8263690799475 7.57730573415816 -162.920000220837
         vertex 66.5249988615513 5.09999886155188 -162.920000220837
      endloop
   endfacet
   facet normal 3.79810194034517E-16 -5.10562499306259E-15 1
      outer loop
         vertex 66.5249988615513 5.09999886155188 -162.920000220837
         vertex 99.8263690799475 7.57730573415816 -162.920000220837
         vertex 87.4250006109476 12.091035097838 -162.920000220837
      endloop
   endfacet
   facet normal -9.09162496066498E-16 -2.95339225810186E-15 1
      outer loop
         vertex 135.534688475728 69.4259294122463 -162.920000220836
         vertex 142.133319395781 57.9967657849199 -162.920000220836
         vertex 146.325001138449 84.9000011384493 -162.920000220836
      endloop
   endfacet
   facet normal 3.5410721367849E-15 -3.64676489585286E-15 1
      outer loop
         vertex 142.133319395781 57.9967657849199 -162.920000220836
         vertex 144.424998778105 45.0000000000006 -162.920000220836
         vertex 146.325001138449 84.9000011384493 -162.920000220836
      endloop
   endfacet
   facet normal -1.01618651728386E-29 -3.47814220848266E-15 1
      outer loop
         vertex 146.325001138449 84.9000011384493 -162.920000220836
         vertex 144.424998778105 45.0000000000006 -162.920000220836
         vertex 146.325001138449 5.09999886155188 -162.920000220837
      endloop
   endfacet
   facet normal -3.54107213678489E-15 -3.64676489585286E-15 1
      outer loop
         vertex 144.424998778105 45.0000000000006 -162.920000220836
         vertex 142.133319395781 32.0032342150813 -162.920000220837
         vertex 146.325001138449 5.09999886155188 -162.920000220837
      endloop
   endfacet
   facet normal 9.091624960665E-16 -2.95339225810186E-15 1
      outer loop
         vertex 146.325001138449 5.09999886155188 -162.920000220837
         vertex 142.133319395781 32.0032342150813 -162.920000220837
         vertex 135.534688475728 20.5740705877548 -162.920000220837
      endloop
   endfacet
   facet normal 1 0 0
      outer loop
         vertex 146.325001138449 84.9000011384493 -162.920000220836
         vertex 146.325001138449 5.09999886155188 -162.920000220837
         vertex 146.325001138449 84.9000011384494 -175.550000000001
      endloop
   endfacet
   facet normal 1 0 0
      outer loop
         vertex 146.325001138449 5.09999886155188 -162.920000220837
         vertex 146.325001138449 5.09999886155192 -175.550000000001
         vertex 146.325001138449 84.9000011384494 -175.550000000001
      endloop
   endfacet
   facet normal 0 1 3.2963867103247E-15
      outer loop
         vertex 146.325001138449 84.9000011384493 -162.920000220836
         vertex 146.325001138449 84.9000011384494 -175.550000000001
         vertex 66.5249988615513 84.9000011384493 -162.920000220836
      endloop
   endfacet
   facet normal 0 1 3.2963867103247E-15
      outer loop
         vertex 146.325001138449 84.9000011384494 -175.550000000001
         vertex 66.5249988615513 84.9000011384494 -175.550000000001
         vertex 66.5249988615513 84.9000011384493 -162.920000220836
      endloop
   endfacet
   facet normal -1 0 0
      outer loop
         vertex 66.5249988615513 84.9000011384493 -162.920000220836
         vertex 66.5249988615513 84.9000011384494 -175.550000000001
         vertex 66.5249988615513 5.09999886155188 -162.920000220837
      endloop
   endfacet
   facet normal -1 0 0
      outer loop
         vertex 66.5249988615513 84.9000011384494 -175.550000000001
         vertex 66.5249988615513 5.09999886155192 -175.550000000001
         vertex 66.5249988615513 5.09999886155188 -162.920000220837
      endloop
   endfacet
   facet normal 0 -1 -3.29638671032477E-15
      outer loop
         vertex 66.5249988615513 5.09999886155188 -162.920000220837
         vertex 66.5249988615513 5.09999886155192 -175.550000000001
         vertex 146.325001138449 5.09999886155188 -162.920000220837
      endloop
   endfacet
   facet normal 0 -1 -3.29638671032477E-15
      outer loop
         vertex 66.5249988615513 5.09999886155192 -175.550000000001
         vertex 146.325001138449 5.09999886155192 -175.550000000001
         vertex 146.325001138449 5.09999886155188 -162.920000220837
      endloop
   endfacet
endsolid fan_rear1_frame
