solid Fan_front_blades
   facet normal 0 0 -1
      outer loop
         vertex 106.425 63.9999993890519 164.389999999996
         vertex 109.724315460026 63.7113471329207 164.389999999996
         vertex 106.425 44.9999999999994 164.389999999996
      endloop
   endfacet
   facet normal 0 0 -1
      outer loop
         vertex 91.870155762136 57.2129647061223 164.389999999996
         vertex 96.9250003054738 61.4544824510807 164.389999999996
         vertex 106.425 44.9999999999994 164.389999999996
      endloop
   endfacet
   facet normal 0 0 -1
      outer loop
         vertex 96.9250003054738 61.4544824510807 164.389999999996
         vertex 103.125684539974 63.7113471329207 164.389999999996
         vertex 106.425 44.9999999999994 164.389999999996
      endloop
   endfacet
   facet normal 0 0 -1
      outer loop
         vertex 106.425 44.9999999999994 164.389999999996
         vertex 103.125684539974 63.7113471329207 164.389999999996
         vertex 106.425 63.9999993890519 164.389999999996
      endloop
   endfacet
   facet normal 0 0 -1
      outer loop
         vertex 88.5708403021098 38.5016171075398 164.389999999996
         vertex 87.4250006109476 44.9999999999994 164.389999999996
         vertex 106.425 44.9999999999994 164.389999999996
      endloop
   endfacet
   facet normal 0 0 -1
      outer loop
         vertex 87.4250006109476 44.9999999999994 164.389999999996
         vertex 88.5708403021098 51.4983828924591 164.389999999996
         vertex 106.425 44.9999999999994 164.389999999996
      endloop
   endfacet
   facet normal 0 0 -1
      outer loop
         vertex 106.425 44.9999999999994 164.389999999996
         vertex 88.5708403021098 51.4983828924591 164.389999999996
         vertex 91.870155762136 57.2129647061223 164.389999999996
      endloop
   endfacet
   facet normal 0 0 -1
      outer loop
         vertex 103.125684539974 26.2886528670782 164.389999999996
         vertex 96.9250003054738 28.5455175489182 164.389999999996
         vertex 106.425 44.9999999999994 164.389999999996
      endloop
   endfacet
   facet normal 0 0 -1
      outer loop
         vertex 96.9250003054738 28.5455175489182 164.389999999996
         vertex 91.870155762136 32.7870352938766 164.389999999996
         vertex 106.425 44.9999999999994 164.389999999996
      endloop
   endfacet
   facet normal 0 0 -1
      outer loop
         vertex 106.425 44.9999999999994 164.389999999996
         vertex 91.870155762136 32.7870352938766 164.389999999996
         vertex 88.5708403021098 38.5016171075398 164.389999999996
      endloop
   endfacet
   facet normal 0 0 -1
      outer loop
         vertex 120.979844237864 32.7870352938766 164.389999999996
         vertex 115.924999694526 28.5455175489182 164.389999999996
         vertex 106.425 44.9999999999994 164.389999999996
      endloop
   endfacet
   facet normal 0 0 -1
      outer loop
         vertex 115.924999694526 28.5455175489182 164.389999999996
         vertex 109.724315460026 26.2886528670782 164.389999999996
         vertex 106.425 44.9999999999994 164.389999999996
      endloop
   endfacet
   facet normal 0 0 -1
      outer loop
         vertex 106.425 44.9999999999994 164.389999999996
         vertex 109.724315460026 26.2886528670782 164.389999999996
         vertex 103.125684539974 26.2886528670782 164.389999999996
      endloop
   endfacet
   facet normal 0 0 -1
      outer loop
         vertex 124.27915969789 51.4983828924591 164.389999999996
         vertex 125.424999389052 44.9999999999994 164.389999999996
         vertex 106.425 44.9999999999994 164.389999999996
      endloop
   endfacet
   facet normal 0 0 -1
      outer loop
         vertex 125.424999389052 44.9999999999994 164.389999999996
         vertex 124.27915969789 38.5016171075398 164.389999999996
         vertex 106.425 44.9999999999994 164.389999999996
      endloop
   endfacet
   facet normal 0 0 -1
      outer loop
         vertex 106.425 44.9999999999994 164.389999999996
         vertex 124.27915969789 38.5016171075398 164.389999999996
         vertex 120.979844237864 32.7870352938766 164.389999999996
      endloop
   endfacet
   facet normal 0 0 -1
      outer loop
         vertex 109.724315460026 63.7113471329207 164.389999999996
         vertex 115.924999694526 61.4544824510807 164.389999999996
         vertex 106.425 44.9999999999994 164.389999999996
      endloop
   endfacet
   facet normal 0 0 -1
      outer loop
         vertex 115.924999694526 61.4544824510807 164.389999999996
         vertex 120.979844237864 57.2129647061223 164.389999999996
         vertex 106.425 44.9999999999994 164.389999999996
      endloop
   endfacet
   facet normal 0 0 -1
      outer loop
         vertex 106.425 44.9999999999994 164.389999999996
         vertex 120.979844237864 57.2129647061223 164.389999999996
         vertex 124.27915969789 51.4983828924591 164.389999999996
      endloop
   endfacet
   facet normal -0.342020168536938 0.939692611609757 3.08970304305285E-15
      outer loop
         vertex 103.125684539974 63.7113471329206 177.019999779161
         vertex 96.9250003054738 61.4544824510807 164.389999999996
         vertex 96.9250003054738 61.4544824510807 177.019999779161
      endloop
   endfacet
   facet normal -0.642787569932975 0.766044476476178 2.52517883177372E-15
      outer loop
         vertex 96.9250003054738 61.4544824510807 164.389999999996
         vertex 91.870155762136 57.2129647061223 164.389999999996
         vertex 96.9250003054738 61.4544824510807 177.019999779161
      endloop
   endfacet
   facet normal -0.642787569932975 0.766044476476178 2.52054713336927E-15
      outer loop
         vertex 96.9250003054738 61.4544824510807 177.019999779161
         vertex 91.870155762136 57.2129647061223 164.389999999996
         vertex 91.870155762136 57.2129647061223 177.019999779161
      endloop
   endfacet
   facet normal -0.86602539646096 0.500000012684637 1.64819339697582E-15
      outer loop
         vertex 91.870155762136 57.2129647061223 164.389999999996
         vertex 88.5708403021098 51.4983828924591 164.389999999996
         vertex 91.870155762136 57.2129647061223 177.019999779161
      endloop
   endfacet
   facet normal -0.86602539646096 0.500000012684637 1.66681339490842E-15
      outer loop
         vertex 91.870155762136 57.2129647061223 177.019999779161
         vertex 88.5708403021098 51.4983828924591 164.389999999996
         vertex 88.5708403021098 51.498382892459 177.019999779161
      endloop
   endfacet
   facet normal -0.9848077671041 0.173648097747821 5.72411281689085E-16
      outer loop
         vertex 88.5708403021098 51.4983828924591 164.389999999996
         vertex 87.4250006109476 44.9999999999994 164.389999999996
         vertex 88.5708403021098 51.498382892459 177.019999779161
      endloop
   endfacet
   facet normal -0.9848077671041 0.173648097747822 0
      outer loop
         vertex 88.5708403021098 51.498382892459 177.019999779161
         vertex 87.4250006109476 44.9999999999994 164.389999999996
         vertex 87.4250006109476 44.9999999999994 177.019999779161
      endloop
   endfacet
   facet normal -0.984807767104099 -0.173648097747824 0
      outer loop
         vertex 87.4250006109476 44.9999999999994 164.389999999996
         vertex 88.5708403021098 38.5016171075398 164.389999999996
         vertex 87.4250006109476 44.9999999999994 177.019999779161
      endloop
   endfacet
   facet normal -0.9848077671041 -0.173648097747823 -5.69155786814735E-16
      outer loop
         vertex 87.4250006109476 44.9999999999994 177.019999779161
         vertex 88.5708403021098 38.5016171075398 164.389999999996
         vertex 88.5708403021098 38.5016171075398 177.019999779161
      endloop
   endfacet
   facet normal -0.86602539646096 -0.500000012684637 -1.64819339697583E-15
      outer loop
         vertex 88.5708403021098 38.5016171075398 164.389999999996
         vertex 91.870155762136 32.7870352938766 164.389999999996
         vertex 88.5708403021098 38.5016171075398 177.019999779161
      endloop
   endfacet
   facet normal -0.86602539646096 -0.500000012684637 -1.66681339490843E-15
      outer loop
         vertex 88.5708403021098 38.5016171075398 177.019999779161
         vertex 91.870155762136 32.7870352938766 164.389999999996
         vertex 91.870155762136 32.7870352938765 177.019999779161
      endloop
   endfacet
   facet normal -0.642787569932975 -0.766044476476178 -2.52517883177374E-15
      outer loop
         vertex 91.870155762136 32.7870352938766 164.389999999996
         vertex 96.9250003054738 28.5455175489182 164.389999999996
         vertex 91.870155762136 32.7870352938765 177.019999779161
      endloop
   endfacet
   facet normal -0.642787569932975 -0.766044476476177 -2.72381706347972E-15
      outer loop
         vertex 91.870155762136 32.7870352938765 177.019999779161
         vertex 96.9250003054738 28.5455175489182 164.389999999996
         vertex 96.9250003054738 28.5455175489181 177.019999779161
      endloop
   endfacet
   facet normal -0.342020168536938 -0.939692611609757 -3.35572275642581E-15
      outer loop
         vertex 96.9250003054738 28.5455175489182 164.389999999996
         vertex 103.125684539974 26.2886528670782 164.389999999996
         vertex 96.9250003054738 28.5455175489181 177.019999779161
      endloop
   endfacet
   facet normal -0.342020168536938 -0.939692611609757 -3.35395396120872E-15
      outer loop
         vertex 96.9250003054738 28.5455175489181 177.019999779161
         vertex 103.125684539974 26.2886528670782 164.389999999996
         vertex 103.125684539974 26.2886528670782 177.019999779161
      endloop
   endfacet
   facet normal -0.0871556096996464 -0.996194709731929 -3.55749658556082E-15
      outer loop
         vertex 103.125684539974 26.2886528670782 177.019999779161
         vertex 103.125684539974 26.2886528670782 164.389999999996
         vertex 106.425 26.000000610947 177.019999779161
      endloop
   endfacet
   facet normal 0 -0.99973893831386 -0.0228485277222709
      outer loop
         vertex 103.125684539974 26.2886528670782 164.389999999996
         vertex 109.724315460026 26.2886528670782 164.389999999996
         vertex 106.425 26.000000610947 177.019999779161
      endloop
   endfacet
   facet normal 0.0871556096996471 -0.996194709731929 -3.55887458148535E-15
      outer loop
         vertex 106.425 26.000000610947 177.019999779161
         vertex 109.724315460026 26.2886528670782 164.389999999996
         vertex 109.724315460026 26.2886528670782 177.019999779161
      endloop
   endfacet
   facet normal 0.342020168536938 -0.939692611609757 -3.35572275642581E-15
      outer loop
         vertex 109.724315460026 26.2886528670782 164.389999999996
         vertex 115.924999694526 28.5455175489182 164.389999999996
         vertex 109.724315460026 26.2886528670782 177.019999779161
      endloop
   endfacet
   facet normal 0.342020168536938 -0.939692611609757 -3.35395396120872E-15
      outer loop
         vertex 109.724315460026 26.2886528670782 177.019999779161
         vertex 115.924999694526 28.5455175489182 164.389999999996
         vertex 115.924999694526 28.5455175489181 177.019999779161
      endloop
   endfacet
   facet normal 0.642787569932975 -0.766044476476178 -2.73561040108822E-15
      outer loop
         vertex 115.924999694526 28.5455175489182 164.389999999996
         vertex 120.979844237864 32.7870352938766 164.389999999996
         vertex 115.924999694526 28.5455175489181 177.019999779161
      endloop
   endfacet
   facet normal 0.642787569932975 -0.766044476476177 -2.52054713336929E-15
      outer loop
         vertex 115.924999694526 28.5455175489181 177.019999779161
         vertex 120.979844237864 32.7870352938766 164.389999999996
         vertex 120.979844237864 32.7870352938765 177.019999779161
      endloop
   endfacet
   facet normal 0.86602539646096 -0.500000012684637 -1.64819339697584E-15
      outer loop
         vertex 120.979844237864 32.7870352938766 164.389999999996
         vertex 124.27915969789 38.5016171075398 164.389999999996
         vertex 120.979844237864 32.7870352938765 177.019999779161
      endloop
   endfacet
   facet normal 0.86602539646096 -0.500000012684637 -1.66681339490843E-15
      outer loop
         vertex 120.979844237864 32.7870352938765 177.019999779161
         vertex 124.27915969789 38.5016171075398 164.389999999996
         vertex 124.27915969789 38.5016171075398 177.019999779161
      endloop
   endfacet
   facet normal 0.984807767104099 -0.173648097747827 -5.72411281689105E-16
      outer loop
         vertex 124.27915969789 38.5016171075398 164.389999999996
         vertex 125.424999389052 44.9999999999994 164.389999999996
         vertex 124.27915969789 38.5016171075398 177.019999779161
      endloop
   endfacet
   facet normal 0.984807767104099 -0.173648097747826 0
      outer loop
         vertex 124.27915969789 38.5016171075398 177.019999779161
         vertex 125.424999389052 44.9999999999994 164.389999999996
         vertex 125.424999389052 44.9999999999994 177.019999779161
      endloop
   endfacet
   facet normal 0.9848077671041 0.173648097747823 0
      outer loop
         vertex 125.424999389052 44.9999999999994 164.389999999996
         vertex 124.27915969789 51.4983828924591 164.389999999996
         vertex 125.424999389052 44.9999999999994 177.019999779161
      endloop
   endfacet
   facet normal 0.9848077671041 0.173648097747824 5.79319283007848E-16
      outer loop
         vertex 125.424999389052 44.9999999999994 177.019999779161
         vertex 124.27915969789 51.4983828924591 164.389999999996
         vertex 124.27915969789 51.498382892459 177.019999779161
      endloop
   endfacet
   facet normal 0.86602539646096 0.500000012684637 1.64819339697583E-15
      outer loop
         vertex 124.27915969789 51.4983828924591 164.389999999996
         vertex 120.979844237864 57.2129647061223 164.389999999996
         vertex 124.27915969789 51.498382892459 177.019999779161
      endloop
   endfacet
   facet normal 0.86602539646096 0.500000012684637 1.66681339490841E-15
      outer loop
         vertex 124.27915969789 51.498382892459 177.019999779161
         vertex 120.979844237864 57.2129647061223 164.389999999996
         vertex 120.979844237864 57.2129647061223 177.019999779161
      endloop
   endfacet
   facet normal 0.642787569932975 0.766044476476178 2.52517883177372E-15
      outer loop
         vertex 120.979844237864 57.2129647061223 164.389999999996
         vertex 115.924999694526 61.4544824510807 164.389999999996
         vertex 120.979844237864 57.2129647061223 177.019999779161
      endloop
   endfacet
   facet normal 0.642787569932975 0.766044476476178 2.52054713336927E-15
      outer loop
         vertex 120.979844237864 57.2129647061223 177.019999779161
         vertex 115.924999694526 61.4544824510807 164.389999999996
         vertex 115.924999694526 61.4544824510807 177.019999779161
      endloop
   endfacet
   facet normal 0.342020168536938 0.939692611609757 3.09759023670072E-15
      outer loop
         vertex 115.924999694526 61.4544824510807 164.389999999996
         vertex 109.724315460026 63.7113471329207 164.389999999996
         vertex 115.924999694526 61.4544824510807 177.019999779161
      endloop
   endfacet
   facet normal 0.342020168536938 0.939692611609757 3.08970304305285E-15
      outer loop
         vertex 115.924999694526 61.4544824510807 177.019999779161
         vertex 109.724315460026 63.7113471329207 164.389999999996
         vertex 109.724315460026 63.7113471329206 177.019999779161
      endloop
   endfacet
   facet normal 0.0871556096996471 0.996194709731929 3.28384300205611E-15
      outer loop
         vertex 109.724315460026 63.7113471329207 164.389999999996
         vertex 106.425 63.9999993890519 164.389999999996
         vertex 109.724315460026 63.7113471329206 177.019999779161
      endloop
   endfacet
   facet normal 0 0.99973893831386 0.0228485277222704
      outer loop
         vertex 109.724315460026 63.7113471329206 177.019999779161
         vertex 106.425 63.9999993890519 164.389999999996
         vertex 103.125684539974 63.7113471329206 177.019999779161
      endloop
   endfacet
   facet normal -0.0871556096996464 0.996194709731929 3.28297320923643E-15
      outer loop
         vertex 106.425 63.9999993890519 164.389999999996
         vertex 103.125684539974 63.7113471329207 164.389999999996
         vertex 103.125684539974 63.7113471329206 177.019999779161
      endloop
   endfacet
   facet normal -0.342020168536938 0.939692611609757 3.09759023670072E-15
      outer loop
         vertex 103.125684539974 63.7113471329206 177.019999779161
         vertex 103.125684539974 63.7113471329207 164.389999999996
         vertex 96.9250003054738 61.4544824510807 164.389999999996
      endloop
   endfacet
   facet normal 2.55609953556038E-16 -2.92163963243298E-15 1
      outer loop
         vertex 106.425 26.000000610947 177.019999779161
         vertex 109.724315460026 26.2886528670782 177.019999779161
         vertex 106.425 44.9999999999994 177.019999779161
      endloop
   endfacet
   facet normal -1.90696467703591E-15 -2.27263224432119E-15 1
      outer loop
         vertex 91.870155762136 32.7870352938765 177.019999779161
         vertex 96.9250003054738 28.5455175489181 177.019999779161
         vertex 106.425 44.9999999999994 177.019999779161
      endloop
   endfacet
   facet normal -1.01467485022852E-15 -2.78779600637206E-15 1
      outer loop
         vertex 96.9250003054738 28.5455175489181 177.019999779161
         vertex 103.125684539974 26.2886528670782 177.019999779161
         vertex 106.425 44.9999999999994 177.019999779161
      endloop
   endfacet
   facet normal -2.55609953556036E-16 -2.92163963243298E-15 1
      outer loop
         vertex 106.425 44.9999999999994 177.019999779161
         vertex 103.125684539974 26.2886528670782 177.019999779161
         vertex 106.425 26.000000610947 177.019999779161
      endloop
   endfacet
   facet normal -3.11969112476067E-30 -4.27115115790344E-15 1
      outer loop
         vertex 88.5708403021098 51.498382892459 177.019999779161
         vertex 87.4250006109476 44.9999999999994 177.019999779161
         vertex 106.425 44.9999999999994 177.019999779161
      endloop
   endfacet
   facet normal -3.11969112476068E-30 -4.27115115790346E-15 1
      outer loop
         vertex 87.4250006109476 44.9999999999994 177.019999779161
         vertex 88.5708403021098 38.5016171075398 177.019999779161
         vertex 106.425 44.9999999999994 177.019999779161
      endloop
   endfacet
   facet normal 1.76196472649814E-16 -4.75524697265532E-15 1
      outer loop
         vertex 106.425 44.9999999999994 177.019999779161
         vertex 88.5708403021098 38.5016171075398 177.019999779161
         vertex 91.870155762136 32.7870352938765 177.019999779161
      endloop
   endfacet
   facet normal 1.01467485022851E-15 -2.78779600637205E-15 1
      outer loop
         vertex 103.125684539974 63.7113471329206 177.019999779161
         vertex 96.9250003054738 61.4544824510807 177.019999779161
         vertex 106.425 44.9999999999994 177.019999779161
      endloop
   endfacet
   facet normal 1.90696467703591E-15 -2.27263224432118E-15 1
      outer loop
         vertex 96.9250003054738 61.4544824510807 177.019999779161
         vertex 91.870155762136 57.2129647061223 177.019999779161
         vertex 106.425 44.9999999999994 177.019999779161
      endloop
   endfacet
   facet normal -1.76196472649826E-16 -4.75524697265531E-15 1
      outer loop
         vertex 106.425 44.9999999999994 177.019999779161
         vertex 91.870155762136 57.2129647061223 177.019999779161
         vertex 88.5708403021098 51.498382892459 177.019999779161
      endloop
   endfacet
   facet normal -1.90696467703591E-15 -2.27263224432119E-15 1
      outer loop
         vertex 120.979844237864 57.2129647061223 177.019999779161
         vertex 115.924999694526 61.4544824510807 177.019999779161
         vertex 106.425 44.9999999999994 177.019999779161
      endloop
   endfacet
   facet normal -1.01467485022852E-15 -2.78779600637206E-15 1
      outer loop
         vertex 115.924999694526 61.4544824510807 177.019999779161
         vertex 109.724315460026 63.7113471329206 177.019999779161
         vertex 106.425 44.9999999999994 177.019999779161
      endloop
   endfacet
   facet normal 0 -2.96671056535475E-15 1
      outer loop
         vertex 106.425 44.9999999999994 177.019999779161
         vertex 109.724315460026 63.7113471329206 177.019999779161
         vertex 103.125684539974 63.7113471329206 177.019999779161
      endloop
   endfacet
   facet normal -1.55984556238035E-30 -4.27115115790347E-15 1
      outer loop
         vertex 124.27915969789 38.5016171075398 177.019999779161
         vertex 125.424999389052 44.9999999999994 177.019999779161
         vertex 106.425 44.9999999999994 177.019999779161
      endloop
   endfacet
   facet normal -1.55984556238033E-30 -4.27115115790343E-15 1
      outer loop
         vertex 125.424999389052 44.9999999999994 177.019999779161
         vertex 124.27915969789 51.498382892459 177.019999779161
         vertex 106.425 44.9999999999994 177.019999779161
      endloop
   endfacet
   facet normal 1.76196472649826E-16 -4.75524697265531E-15 1
      outer loop
         vertex 106.425 44.9999999999994 177.019999779161
         vertex 124.27915969789 51.498382892459 177.019999779161
         vertex 120.979844237864 57.2129647061223 177.019999779161
      endloop
   endfacet
   facet normal 1.01467485022852E-15 -2.78779600637206E-15 1
      outer loop
         vertex 109.724315460026 26.2886528670782 177.019999779161
         vertex 115.924999694526 28.5455175489181 177.019999779161
         vertex 106.425 44.9999999999994 177.019999779161
      endloop
   endfacet
   facet normal 1.90696467703592E-15 -2.27263224432119E-15 1
      outer loop
         vertex 115.924999694526 28.5455175489181 177.019999779161
         vertex 120.979844237864 32.7870352938765 177.019999779161
         vertex 106.425 44.9999999999994 177.019999779161
      endloop
   endfacet
   facet normal -1.76196472649814E-16 -4.75524697265532E-15 1
      outer loop
         vertex 106.425 44.9999999999994 177.019999779161
         vertex 120.979844237864 32.7870352938765 177.019999779161
         vertex 124.27915969789 38.5016171075398 177.019999779161
      endloop
   endfacet
endsolid Fan_front_blades
