solid fan_rear1_outlet
   facet normal 0 0 -1
      outer loop
         vertex 81.9990705877543 74.1096903383738 -175.550000000001
         vertex 93.4282342150808 80.7083193957812 -175.550000000001
         vertex 106.424996506055 45.0000003728558 -175.550000000001
      endloop
   endfacet
   facet normal 0 0 -1
      outer loop
         vertex 93.4282342150808 80.7083193957812 -175.550000000001
         vertex 106.425 82.9999987781054 -175.550000000001
         vertex 106.424996506055 45.0000003728558 -175.550000000001
      endloop
   endfacet
   facet normal 0 0 -1
      outer loop
         vertex 106.424996506055 45.0000003728558 -175.550000000001
         vertex 106.425 82.9999987781054 -175.550000000001
         vertex 119.421764853597 80.7083193957812 -175.550000000001
      endloop
   endfacet
   facet normal 0 0 -1
      outer loop
         vertex 69.0023020088673 38.4013732708997 -175.550000000001
         vertex 69.0023020088673 51.5986346453435 -175.550000000001
         vertex 106.424996506055 45.0000003728558 -175.550000000001
      endloop
   endfacet
   facet normal 0 0 -1
      outer loop
         vertex 69.0023020088673 51.5986346453435 -175.550000000001
         vertex 73.5160313725472 64.0000031143433 -175.550000000001
         vertex 106.424996506055 45.0000003728558 -175.550000000001
      endloop
   endfacet
   facet normal 0 0 -1
      outer loop
         vertex 106.424996506055 45.0000003728558 -175.550000000001
         vertex 73.5160313725472 64.0000031143433 -175.550000000001
         vertex 81.9990705877543 74.1096903383738 -175.550000000001
      endloop
   endfacet
   facet normal 0 0 -1
      outer loop
         vertex 93.4282276958228 9.29168060422007 -175.550000000001
         vertex 81.9990649998188 15.8903133869178 -175.550000000001
         vertex 106.424996506055 45.0000003728558 -175.550000000001
      endloop
   endfacet
   facet normal 0 0 -1
      outer loop
         vertex 81.9990649998188 15.8903133869178 -175.550000000001
         vertex 73.5160313725472 26.0000043362385 -175.550000000001
         vertex 106.424996506055 45.0000003728558 -175.550000000001
      endloop
   endfacet
   facet normal 0 0 -1
      outer loop
         vertex 106.424996506055 45.0000003728558 -175.550000000001
         vertex 73.5160313725472 26.0000043362385 -175.550000000001
         vertex 69.0023020088673 38.4013732708997 -175.550000000001
      endloop
   endfacet
   facet normal 0 0 -1
      outer loop
         vertex 130.850921961665 15.8903096616275 -175.550000000001
         vertex 119.421758334339 9.29168060422007 -175.550000000001
         vertex 106.424996506055 45.0000003728558 -175.550000000001
      endloop
   endfacet
   facet normal 0 0 -1
      outer loop
         vertex 119.421758334339 9.29168060422007 -175.550000000001
         vertex 106.424993012111 7.00000122189585 -175.550000000001
         vertex 106.424996506055 45.0000003728558 -175.550000000001
      endloop
   endfacet
   facet normal 0 0 -1
      outer loop
         vertex 106.424996506055 45.0000003728558 -175.550000000001
         vertex 106.424993012111 7.00000122189585 -175.550000000001
         vertex 93.4282276958228 9.29168060422007 -175.550000000001
      endloop
   endfacet
   facet normal 0 0 -1
      outer loop
         vertex 143.847690540552 51.5986276604242 -175.550000000001
         vertex 143.847690540552 38.4013662859804 -175.550000000001
         vertex 106.424996506055 45.0000003728558 -175.550000000001
      endloop
   endfacet
   facet normal 0 0 -1
      outer loop
         vertex 143.847690540552 38.4013662859804 -175.550000000001
         vertex 139.333961176872 25.9999968856579 -175.550000000001
         vertex 106.424996506055 45.0000003728558 -175.550000000001
      endloop
   endfacet
   facet normal 0 0 -1
      outer loop
         vertex 106.424996506055 45.0000003728558 -175.550000000001
         vertex 139.333961176872 25.9999968856579 -175.550000000001
         vertex 130.850921961665 15.8903096616275 -175.550000000001
      endloop
   endfacet
   facet normal 0 0 -1
      outer loop
         vertex 119.421764853597 80.7083193957812 -175.550000000001
         vertex 130.850927549601 74.1096866130835 -175.550000000001
         vertex 106.424996506055 45.0000003728558 -175.550000000001
      endloop
   endfacet
   facet normal 0 0 -1
      outer loop
         vertex 130.850927549601 74.1096866130835 -175.550000000001
         vertex 139.333964902163 63.9999975264079 -175.550000000001
         vertex 106.424996506055 45.0000003728558 -175.550000000001
      endloop
   endfacet
   facet normal 0 0 -1
      outer loop
         vertex 106.424996506055 45.0000003728558 -175.550000000001
         vertex 139.333964902163 63.9999975264079 -175.550000000001
         vertex 143.847690540552 51.5986276604242 -175.550000000001
      endloop
   endfacet
endsolid fan_rear1_outlet
