solid fan_rear2_outlet
   facet normal 5.54213179978602E-16 -2.74846248226232E-15 1
      outer loop
         vertex -60.335313386917 20.5740724504004 -175.550000000002
         vertex -53.7366806042193 32.0032351464043 -175.550000000002
         vertex -89.4449996271447 45.0000034939457 -175.550000000002
      endloop
   endfacet
   facet normal -3.92714934381582E-22 -4.27115139471953E-15 1
      outer loop
         vertex -53.7366806042193 32.0032351464043 -175.550000000002
         vertex -51.4450012218951 45.0000000000009 -175.550000000002
         vertex -89.4449996271447 45.0000034939457 -175.550000000002
      endloop
   endfacet
   facet normal -3.92714918974215E-22 -4.27115122714964E-15 1
      outer loop
         vertex -89.4449996271447 45.0000034939457 -175.550000000002
         vertex -51.4450012218951 45.0000000000009 -175.550000000002
         vertex -53.7366806042193 57.9967657849202 -175.550000000001
      endloop
   endfacet
   facet normal 0 -3.70838822961856E-15 1
      outer loop
         vertex -96.0436337140201 7.57730945944883 -175.550000000002
         vertex -82.8463723395764 7.57730945944883 -175.550000000002
         vertex -89.4449996271447 45.0000034939457 -175.550000000002
      endloop
   endfacet
   facet normal -8.34789016042023E-16 -3.85558398136052E-15 1
      outer loop
         vertex -82.8463723395764 7.57730945944883 -175.550000000002
         vertex -70.4450024735926 12.0910350978384 -175.550000000002
         vertex -89.4449996271447 45.0000034939457 -175.550000000002
      endloop
   endfacet
   facet normal 5.75021126002831E-17 -3.34041958300311E-15 1
      outer loop
         vertex -89.4449996271447 45.0000034939457 -175.550000000002
         vertex -70.4450024735926 12.0910350978384 -175.550000000002
         vertex -60.335313386917 20.5740724504004 -175.550000000002
      endloop
   endfacet
   facet normal -5.54213706758724E-16 -2.74846238179272E-15 1
      outer loop
         vertex -125.15331939578 32.0032416656623 -175.550000000002
         vertex -118.554690338373 20.5740780383358 -175.550000000002
         vertex -89.4449996271447 45.0000034939457 -175.550000000002
      endloop
   endfacet
   facet normal -5.75027418227481E-17 -3.34041958678948E-15 1
      outer loop
         vertex -118.554690338373 20.5740780383358 -175.550000000002
         vertex -108.445003114343 12.0910388231287 -175.550000000002
         vertex -89.4449996271447 45.0000034939457 -175.550000000002
      endloop
   endfacet
   facet normal 8.34787905277654E-16 -3.85558393717501E-15 1
      outer loop
         vertex -89.4449996271447 45.0000034939457 -175.550000000002
         vertex -108.445003114343 12.0910388231287 -175.550000000002
         vertex -96.0436337140201 7.57730945944883 -175.550000000002
      endloop
   endfacet
   facet normal 5.54213140985462E-16 -2.74846245974961E-15 1
      outer loop
         vertex -118.554686613083 69.4259350001822 -175.550000000001
         vertex -125.15331939578 57.9967723041783 -175.550000000001
         vertex -89.4449996271447 45.0000034939457 -175.550000000002
      endloop
   endfacet
   facet normal -3.92714908794502E-22 -4.27115124266444E-15 1
      outer loop
         vertex -125.15331939578 57.9967723041783 -175.550000000001
         vertex -127.444998778105 45.0000069878903 -175.550000000002
         vertex -89.4449996271447 45.0000034939457 -175.550000000002
      endloop
   endfacet
   facet normal -3.92714921348824E-22 -4.27115137920473E-15 1
      outer loop
         vertex -89.4449996271447 45.0000034939457 -175.550000000002
         vertex -127.444998778105 45.0000069878903 -175.550000000002
         vertex -125.15331939578 32.0032416656623 -175.550000000002
      endloop
   endfacet
   facet normal 0 -3.70838818376834E-15 1
      outer loop
         vertex -82.8463653546571 82.4226979911337 -175.550000000001
         vertex -96.0436267291008 82.4226979911337 -175.550000000001
         vertex -89.4449996271447 45.0000034939457 -175.550000000002
      endloop
   endfacet
   facet normal -8.34788004328077E-16 -3.85558375115756E-15 1
      outer loop
         vertex -96.0436267291008 82.4226979911337 -175.550000000001
         vertex -108.444995663762 77.9089686274538 -175.550000000001
         vertex -89.4449996271447 45.0000034939457 -175.550000000002
      endloop
   endfacet
   facet normal 5.75014645681009E-17 -3.34042029026585E-15 1
      outer loop
         vertex -89.4449996271447 45.0000034939457 -175.550000000002
         vertex -108.444995663762 77.9089686274538 -175.550000000001
         vertex -118.554686613083 69.4259350001822 -175.550000000001
      endloop
   endfacet
   facet normal -5.54213686893722E-16 -2.74846237032366E-15 1
      outer loop
         vertex -53.7366806042193 57.9967657849202 -175.550000000001
         vertex -60.3353096616267 69.4259294122467 -175.550000000001
         vertex -89.4449996271447 45.0000034939457 -175.550000000002
      endloop
   endfacet
   facet normal -5.75027160117048E-17 -3.34041955602909E-15 1
      outer loop
         vertex -60.3353096616267 69.4259294122467 -175.550000000001
         vertex -70.4449968856572 77.9089686274538 -175.550000000001
         vertex -89.4449996271447 45.0000034939457 -175.550000000002
      endloop
   endfacet
   facet normal 8.3478797907615E-16 -3.855583906658E-15 1
      outer loop
         vertex -89.4449996271447 45.0000034939457 -175.550000000002
         vertex -70.4449968856572 77.9089686274538 -175.550000000001
         vertex -82.8463653546571 82.4226979911337 -175.550000000001
      endloop
   endfacet
endsolid fan_rear2_outlet
