solid Heatsink
   facet normal 0 -1 0
      outer loop
         vertex 74.9150008940697 15.7000000961125 -59.9999986588956
         vertex 187.914998927116 15.7000000961125 -59.9999986588956
         vertex 74.9150008940697 15.7000000961125 59.9999986588954
      endloop
   endfacet
   facet normal 0 -1 0
      outer loop
         vertex 187.914998927116 15.7000000961125 -59.9999986588956
         vertex 187.914998927116 15.7000000961125 59.9999986588954
         vertex 74.9150008940697 15.7000000961125 59.9999986588954
      endloop
   endfacet
   facet normal -1 0 0
      outer loop
         vertex 74.9150008940697 55.6999987363815 -59.9999986588956
         vertex 74.9150008940697 15.7000000961125 -59.9999986588956
         vertex 74.9150008940697 55.6999987363815 59.9999986588954
      endloop
   endfacet
   facet normal -1 0 0
      outer loop
         vertex 74.9150008940697 15.7000000961125 -59.9999986588956
         vertex 74.9150008940697 15.7000000961125 59.9999986588954
         vertex 74.9150008940697 55.6999987363815 59.9999986588954
      endloop
   endfacet
   facet normal 1 0 0
      outer loop
         vertex 187.914998927116 55.6999987363815 59.9999986588954
         vertex 187.914998927116 15.7000000961125 59.9999986588954
         vertex 187.914998927116 55.6999987363815 -59.9999986588956
      endloop
   endfacet
   facet normal 1 0 0
      outer loop
         vertex 187.914998927116 15.7000000961125 59.9999986588954
         vertex 187.914998927116 15.7000000961125 -59.9999986588956
         vertex 187.914998927116 55.6999987363815 -59.9999986588956
      endloop
   endfacet
   facet normal 0 1 0
      outer loop
         vertex 186.914996900559 55.6999987363815 -59.9999986588956
         vertex 186.914996900559 55.6999987363815 59.9999986588954
         vertex 187.914998927116 55.6999987363815 -59.9999986588956
      endloop
   endfacet
   facet normal 0 1 0
      outer loop
         vertex 186.914996900559 55.6999987363815 59.9999986588954
         vertex 187.914998927116 55.6999987363815 59.9999986588954
         vertex 187.914998927116 55.6999987363815 -59.9999986588956
      endloop
   endfacet
   facet normal -1 0 0
      outer loop
         vertex 186.914996900559 55.6999987363815 59.9999986588954
         vertex 186.914996900559 55.6999987363815 -59.9999986588956
         vertex 186.914996900559 20.7000004500151 59.9999986588954
      endloop
   endfacet
   facet normal -1 0 0
      outer loop
         vertex 186.914996900559 55.6999987363815 -59.9999986588956
         vertex 186.914996900559 20.7000004500151 -59.9999986588956
         vertex 186.914996900559 20.7000004500151 59.9999986588954
      endloop
   endfacet
   facet normal 0 1 0
      outer loop
         vertex 179.914997615814 20.7000004500151 59.9999986588954
         vertex 186.914996900559 20.7000004500151 59.9999986588954
         vertex 179.914997615814 20.7000004500151 -59.9999986588956
      endloop
   endfacet
   facet normal 0 1 0
      outer loop
         vertex 186.914996900559 20.7000004500151 59.9999986588954
         vertex 186.914996900559 20.7000004500151 -59.9999986588956
         vertex 179.914997615814 20.7000004500151 -59.9999986588956
      endloop
   endfacet
   facet normal 1 0 0
      outer loop
         vertex 179.914997615814 55.6999987363815 -59.9999986588956
         vertex 179.914997615814 55.6999987363815 59.9999986588954
         vertex 179.914997615814 20.7000004500151 -59.9999986588956
      endloop
   endfacet
   facet normal 1 0 0
      outer loop
         vertex 179.914997615814 55.6999987363815 59.9999986588954
         vertex 179.914997615814 20.7000004500151 59.9999986588954
         vertex 179.914997615814 20.7000004500151 -59.9999986588956
      endloop
   endfacet
   facet normal 0 1 0
      outer loop
         vertex 178.915003039837 55.6999987363815 -59.9999986588956
         vertex 178.915003039837 55.6999987363815 59.9999986588954
         vertex 179.914997615814 55.6999987363815 -59.9999986588956
      endloop
   endfacet
   facet normal 0 1 0
      outer loop
         vertex 178.915003039837 55.6999987363815 59.9999986588954
         vertex 179.914997615814 55.6999987363815 59.9999986588954
         vertex 179.914997615814 55.6999987363815 -59.9999986588956
      endloop
   endfacet
   facet normal -1 0 0
      outer loop
         vertex 178.915003039837 55.6999987363815 59.9999986588954
         vertex 178.915003039837 55.6999987363815 -59.9999986588956
         vertex 178.915003039837 20.7000004500151 59.9999986588954
      endloop
   endfacet
   facet normal -1 0 0
      outer loop
         vertex 178.915003039837 55.6999987363815 -59.9999986588956
         vertex 178.915003039837 20.7000004500151 -59.9999986588956
         vertex 178.915003039837 20.7000004500151 59.9999986588954
      endloop
   endfacet
   facet normal 0 1 0
      outer loop
         vertex 171.915000029802 20.7000004500151 59.9999986588954
         vertex 178.915003039837 20.7000004500151 59.9999986588954
         vertex 171.915000029802 20.7000004500151 -59.9999986588956
      endloop
   endfacet
   facet normal 0 1 0
      outer loop
         vertex 178.915003039837 20.7000004500151 59.9999986588954
         vertex 178.915003039837 20.7000004500151 -59.9999986588956
         vertex 171.915000029802 20.7000004500151 -59.9999986588956
      endloop
   endfacet
   facet normal 1 0 0
      outer loop
         vertex 171.915000029802 55.6999987363815 -59.9999986588956
         vertex 171.915000029802 55.6999987363815 59.9999986588954
         vertex 171.915000029802 20.7000004500151 -59.9999986588956
      endloop
   endfacet
   facet normal 1 0 0
      outer loop
         vertex 171.915000029802 55.6999987363815 59.9999986588954
         vertex 171.915000029802 20.7000004500151 59.9999986588954
         vertex 171.915000029802 20.7000004500151 -59.9999986588956
      endloop
   endfacet
   facet normal 0 1 0
      outer loop
         vertex 170.915001728535 55.6999987363815 -59.9999986588956
         vertex 170.915001728535 55.6999987363815 59.9999986588954
         vertex 171.915000029802 55.6999987363815 -59.9999986588956
      endloop
   endfacet
   facet normal 0 1 0
      outer loop
         vertex 170.915001728535 55.6999987363815 59.9999986588954
         vertex 171.915000029802 55.6999987363815 59.9999986588954
         vertex 171.915000029802 55.6999987363815 -59.9999986588956
      endloop
   endfacet
   facet normal -1 0 0
      outer loop
         vertex 170.915001728535 55.6999987363815 59.9999986588954
         vertex 170.915001728535 55.6999987363815 -59.9999986588956
         vertex 170.915001728535 20.7000004500151 59.9999986588954
      endloop
   endfacet
   facet normal -1 0 0
      outer loop
         vertex 170.915001728535 55.6999987363815 -59.9999986588956
         vertex 170.915001728535 20.7000004500151 -59.9999986588956
         vertex 170.915001728535 20.7000004500151 59.9999986588954
      endloop
   endfacet
   facet normal 0 1 0
      outer loop
         vertex 163.9149987185 20.7000004500151 59.9999986588954
         vertex 170.915001728535 20.7000004500151 59.9999986588954
         vertex 163.9149987185 20.7000004500151 -59.9999986588956
      endloop
   endfacet
   facet normal 0 1 0
      outer loop
         vertex 170.915001728535 20.7000004500151 59.9999986588954
         vertex 170.915001728535 20.7000004500151 -59.9999986588956
         vertex 163.9149987185 20.7000004500151 -59.9999986588956
      endloop
   endfacet
   facet normal 1 0 0
      outer loop
         vertex 163.9149987185 55.6999987363815 -59.9999986588956
         vertex 163.9149987185 55.6999987363815 59.9999986588954
         vertex 163.9149987185 20.7000004500151 -59.9999986588956
      endloop
   endfacet
   facet normal 1 0 0
      outer loop
         vertex 163.9149987185 55.6999987363815 59.9999986588954
         vertex 163.9149987185 20.7000004500151 59.9999986588954
         vertex 163.9149987185 20.7000004500151 -59.9999986588956
      endloop
   endfacet
   facet normal 0 1 0
      outer loop
         vertex 162.915000417233 55.6999987363815 -59.9999986588956
         vertex 162.915000417233 55.6999987363815 59.9999986588954
         vertex 163.9149987185 55.6999987363815 -59.9999986588956
      endloop
   endfacet
   facet normal 0 1 0
      outer loop
         vertex 162.915000417233 55.6999987363815 59.9999986588954
         vertex 163.9149987185 55.6999987363815 59.9999986588954
         vertex 163.9149987185 55.6999987363815 -59.9999986588956
      endloop
   endfacet
   facet normal -1 0 0
      outer loop
         vertex 162.915000417233 55.6999987363815 59.9999986588954
         vertex 162.915000417233 55.6999987363815 -59.9999986588956
         vertex 162.915000417233 20.7000004500151 59.9999986588954
      endloop
   endfacet
   facet normal -1 0 0
      outer loop
         vertex 162.915000417233 55.6999987363815 -59.9999986588956
         vertex 162.915000417233 20.7000004500151 -59.9999986588956
         vertex 162.915000417233 20.7000004500151 59.9999986588954
      endloop
   endfacet
   facet normal 0 1 0
      outer loop
         vertex 155.915001132488 20.7000004500151 59.9999986588954
         vertex 162.915000417233 20.7000004500151 59.9999986588954
         vertex 155.915001132488 20.7000004500151 -59.9999986588956
      endloop
   endfacet
   facet normal 0 1 0
      outer loop
         vertex 162.915000417233 20.7000004500151 59.9999986588954
         vertex 162.915000417233 20.7000004500151 -59.9999986588956
         vertex 155.915001132488 20.7000004500151 -59.9999986588956
      endloop
   endfacet
   facet normal 1 0 0
      outer loop
         vertex 155.915001132488 55.6999987363815 -59.9999986588956
         vertex 155.915001132488 55.6999987363815 59.9999986588954
         vertex 155.915001132488 20.7000004500151 -59.9999986588956
      endloop
   endfacet
   facet normal 1 0 0
      outer loop
         vertex 155.915001132488 55.6999987363815 59.9999986588954
         vertex 155.915001132488 20.7000004500151 59.9999986588954
         vertex 155.915001132488 20.7000004500151 -59.9999986588956
      endloop
   endfacet
   facet normal 0 1 0
      outer loop
         vertex 154.91499910593 55.6999987363815 -59.9999986588956
         vertex 154.91499910593 55.6999987363815 59.9999986588954
         vertex 155.915001132488 55.6999987363815 -59.9999986588956
      endloop
   endfacet
   facet normal 0 1 0
      outer loop
         vertex 154.91499910593 55.6999987363815 59.9999986588954
         vertex 155.915001132488 55.6999987363815 59.9999986588954
         vertex 155.915001132488 55.6999987363815 -59.9999986588956
      endloop
   endfacet
   facet normal -1 0 0
      outer loop
         vertex 154.91499910593 55.6999987363815 59.9999986588954
         vertex 154.91499910593 55.6999987363815 -59.9999986588956
         vertex 154.91499910593 20.7000004500151 59.9999986588954
      endloop
   endfacet
   facet normal -1 0 0
      outer loop
         vertex 154.91499910593 55.6999987363815 -59.9999986588956
         vertex 154.91499910593 20.7000004500151 -59.9999986588956
         vertex 154.91499910593 20.7000004500151 59.9999986588954
      endloop
   endfacet
   facet normal 0 1 0
      outer loop
         vertex 147.914999821186 20.7000004500151 59.9999986588954
         vertex 154.91499910593 20.7000004500151 59.9999986588954
         vertex 147.914999821186 20.7000004500151 -59.9999986588956
      endloop
   endfacet
   facet normal 0 1 0
      outer loop
         vertex 154.91499910593 20.7000004500151 59.9999986588954
         vertex 154.91499910593 20.7000004500151 -59.9999986588956
         vertex 147.914999821186 20.7000004500151 -59.9999986588956
      endloop
   endfacet
   facet normal 1 0 0
      outer loop
         vertex 147.914999821186 55.6999987363815 -59.9999986588956
         vertex 147.914999821186 55.6999987363815 59.9999986588954
         vertex 147.914999821186 20.7000004500151 -59.9999986588956
      endloop
   endfacet
   facet normal 1 0 0
      outer loop
         vertex 147.914999821186 55.6999987363815 59.9999986588954
         vertex 147.914999821186 20.7000004500151 59.9999986588954
         vertex 147.914999821186 20.7000004500151 -59.9999986588956
      endloop
   endfacet
   facet normal 0 1 0
      outer loop
         vertex 146.915001519918 55.6999987363815 -59.9999986588956
         vertex 146.915001519918 55.6999987363815 59.9999986588954
         vertex 147.914999821186 55.6999987363815 -59.9999986588956
      endloop
   endfacet
   facet normal 0 1 0
      outer loop
         vertex 146.915001519918 55.6999987363815 59.9999986588954
         vertex 147.914999821186 55.6999987363815 59.9999986588954
         vertex 147.914999821186 55.6999987363815 -59.9999986588956
      endloop
   endfacet
   facet normal -1 0 0
      outer loop
         vertex 146.915001519918 55.6999987363815 59.9999986588954
         vertex 146.915001519918 55.6999987363815 -59.9999986588956
         vertex 146.915001519918 20.7000004500151 59.9999986588954
      endloop
   endfacet
   facet normal -1 0 0
      outer loop
         vertex 146.915001519918 55.6999987363815 -59.9999986588956
         vertex 146.915001519918 20.7000004500151 -59.9999986588956
         vertex 146.915001519918 20.7000004500151 59.9999986588954
      endloop
   endfacet
   facet normal 0 1 0
      outer loop
         vertex 139.915000372529 20.7000004500151 59.9999986588954
         vertex 146.915001519918 20.7000004500151 59.9999986588954
         vertex 139.915000372529 20.7000004500151 -59.9999986588956
      endloop
   endfacet
   facet normal 0 1 0
      outer loop
         vertex 146.915001519918 20.7000004500151 59.9999986588954
         vertex 146.915001519918 20.7000004500151 -59.9999986588956
         vertex 139.915000372529 20.7000004500151 -59.9999986588956
      endloop
   endfacet
   facet normal 1 0 0
      outer loop
         vertex 139.915000372529 55.6999987363815 -59.9999986588956
         vertex 139.915000372529 55.6999987363815 59.9999986588954
         vertex 139.915000372529 20.7000004500151 -59.9999986588956
      endloop
   endfacet
   facet normal 1 0 0
      outer loop
         vertex 139.915000372529 55.6999987363815 59.9999986588954
         vertex 139.915000372529 20.7000004500151 59.9999986588954
         vertex 139.915000372529 20.7000004500151 -59.9999986588956
      endloop
   endfacet
   facet normal 0 1 0
      outer loop
         vertex 138.915000208616 55.6999987363815 -59.9999986588956
         vertex 138.915000208616 55.6999987363815 59.9999986588954
         vertex 139.915000372529 55.6999987363815 -59.9999986588956
      endloop
   endfacet
   facet normal 0 1 0
      outer loop
         vertex 138.915000208616 55.6999987363815 59.9999986588954
         vertex 139.915000372529 55.6999987363815 59.9999986588954
         vertex 139.915000372529 55.6999987363815 -59.9999986588956
      endloop
   endfacet
   facet normal -1 0 0
      outer loop
         vertex 138.915000208616 55.6999987363815 59.9999986588954
         vertex 138.915000208616 55.6999987363815 -59.9999986588956
         vertex 138.915000208616 20.7000004500151 59.9999986588954
      endloop
   endfacet
   facet normal -1 0 0
      outer loop
         vertex 138.915000208616 55.6999987363815 -59.9999986588956
         vertex 138.915000208616 20.7000004500151 -59.9999986588956
         vertex 138.915000208616 20.7000004500151 59.9999986588954
      endloop
   endfacet
   facet normal 0 1 0
      outer loop
         vertex 131.915000923872 20.7000004500151 59.9999986588954
         vertex 138.915000208616 20.7000004500151 59.9999986588954
         vertex 131.915000923872 20.7000004500151 -59.9999986588956
      endloop
   endfacet
   facet normal 0 1 0
      outer loop
         vertex 138.915000208616 20.7000004500151 59.9999986588954
         vertex 138.915000208616 20.7000004500151 -59.9999986588956
         vertex 131.915000923872 20.7000004500151 -59.9999986588956
      endloop
   endfacet
   facet normal 1 0 0
      outer loop
         vertex 131.915000923872 55.6999987363815 -59.9999986588956
         vertex 131.915000923872 55.6999987363815 59.9999986588954
         vertex 131.915000923872 20.7000004500151 -59.9999986588956
      endloop
   endfacet
   facet normal 1 0 0
      outer loop
         vertex 131.915000923872 55.6999987363815 59.9999986588954
         vertex 131.915000923872 20.7000004500151 59.9999986588954
         vertex 131.915000923872 20.7000004500151 -59.9999986588956
      endloop
   endfacet
   facet normal 0 1 0
      outer loop
         vertex 130.915000759959 55.6999987363815 -59.9999986588956
         vertex 130.915000759959 55.6999987363815 59.9999986588954
         vertex 131.915000923872 55.6999987363815 -59.9999986588956
      endloop
   endfacet
   facet normal 0 1 0
      outer loop
         vertex 130.915000759959 55.6999987363815 59.9999986588954
         vertex 131.915000923872 55.6999987363815 59.9999986588954
         vertex 131.915000923872 55.6999987363815 -59.9999986588956
      endloop
   endfacet
   facet normal -1 0 0
      outer loop
         vertex 130.915000759959 55.6999987363815 59.9999986588954
         vertex 130.915000759959 55.6999987363815 -59.9999986588956
         vertex 130.915000759959 20.7000004500151 59.9999986588954
      endloop
   endfacet
   facet normal -1 0 0
      outer loop
         vertex 130.915000759959 55.6999987363815 -59.9999986588956
         vertex 130.915000759959 20.7000004500151 -59.9999986588956
         vertex 130.915000759959 20.7000004500151 59.9999986588954
      endloop
   endfacet
   facet normal 0 1 0
      outer loop
         vertex 123.91499961257 20.7000004500151 59.9999986588954
         vertex 130.915000759959 20.7000004500151 59.9999986588954
         vertex 123.91499961257 20.7000004500151 -59.9999986588956
      endloop
   endfacet
   facet normal 0 1 0
      outer loop
         vertex 130.915000759959 20.7000004500151 59.9999986588954
         vertex 130.915000759959 20.7000004500151 -59.9999986588956
         vertex 123.91499961257 20.7000004500151 -59.9999986588956
      endloop
   endfacet
   facet normal 1 0 0
      outer loop
         vertex 123.91499961257 55.6999987363815 -59.9999986588956
         vertex 123.91499961257 55.6999987363815 59.9999986588954
         vertex 123.91499961257 20.7000004500151 -59.9999986588956
      endloop
   endfacet
   facet normal 1 0 0
      outer loop
         vertex 123.91499961257 55.6999987363815 59.9999986588954
         vertex 123.91499961257 20.7000004500151 59.9999986588954
         vertex 123.91499961257 20.7000004500151 -59.9999986588956
      endloop
   endfacet
   facet normal 0 1 0
      outer loop
         vertex 122.91500037998 55.6999987363815 -59.9999986588956
         vertex 122.91500037998 55.6999987363815 59.9999986588954
         vertex 123.91499961257 55.6999987363815 -59.9999986588956
      endloop
   endfacet
   facet normal 0 1 0
      outer loop
         vertex 122.91500037998 55.6999987363815 59.9999986588954
         vertex 123.91499961257 55.6999987363815 59.9999986588954
         vertex 123.91499961257 55.6999987363815 -59.9999986588956
      endloop
   endfacet
   facet normal -1 0 0
      outer loop
         vertex 122.91500037998 55.6999987363815 59.9999986588954
         vertex 122.91500037998 55.6999987363815 -59.9999986588956
         vertex 122.91500037998 20.7000004500151 59.9999986588954
      endloop
   endfacet
   facet normal -1 0 0
      outer loop
         vertex 122.91500037998 55.6999987363815 -59.9999986588956
         vertex 122.91500037998 20.7000004500151 -59.9999986588956
         vertex 122.91500037998 20.7000004500151 59.9999986588954
      endloop
   endfacet
   facet normal 0 1 0
      outer loop
         vertex 115.915000047497 20.7000004500151 59.9999986588954
         vertex 122.91500037998 20.7000004500151 59.9999986588954
         vertex 115.915000047497 20.7000004500151 -59.9999986588956
      endloop
   endfacet
   facet normal 0 1 0
      outer loop
         vertex 122.91500037998 20.7000004500151 59.9999986588954
         vertex 122.91500037998 20.7000004500151 -59.9999986588956
         vertex 115.915000047497 20.7000004500151 -59.9999986588956
      endloop
   endfacet
   facet normal 1 0 0
      outer loop
         vertex 115.915000047497 55.6999987363815 -59.9999986588956
         vertex 115.915000047497 55.6999987363815 59.9999986588954
         vertex 115.915000047497 20.7000004500151 -59.9999986588956
      endloop
   endfacet
   facet normal 1 0 0
      outer loop
         vertex 115.915000047497 55.6999987363815 59.9999986588954
         vertex 115.915000047497 20.7000004500151 59.9999986588954
         vertex 115.915000047497 20.7000004500151 -59.9999986588956
      endloop
   endfacet
   facet normal 0 1 0
      outer loop
         vertex 114.915 55.6999987363815 -59.9999986588956
         vertex 114.915 55.6999987363815 59.9999986588954
         vertex 115.915000047497 55.6999987363815 -59.9999986588956
      endloop
   endfacet
   facet normal 0 1 0
      outer loop
         vertex 114.915 55.6999987363815 59.9999986588954
         vertex 115.915000047497 55.6999987363815 59.9999986588954
         vertex 115.915000047497 55.6999987363815 -59.9999986588956
      endloop
   endfacet
   facet normal -1 0 0
      outer loop
         vertex 114.915 55.6999987363815 59.9999986588954
         vertex 114.915 55.6999987363815 -59.9999986588956
         vertex 114.915 20.7000004500151 59.9999986588954
      endloop
   endfacet
   facet normal -1 0 0
      outer loop
         vertex 114.915 55.6999987363815 -59.9999986588956
         vertex 114.915 20.7000004500151 -59.9999986588956
         vertex 114.915 20.7000004500151 59.9999986588954
      endloop
   endfacet
   facet normal 0 1 0
      outer loop
         vertex 107.914999783933 20.7000004500151 59.9999986588954
         vertex 114.915 20.7000004500151 59.9999986588954
         vertex 107.914999783933 20.7000004500151 -59.9999986588956
      endloop
   endfacet
   facet normal 0 1 0
      outer loop
         vertex 114.915 20.7000004500151 59.9999986588954
         vertex 114.915 20.7000004500151 -59.9999986588956
         vertex 107.914999783933 20.7000004500151 -59.9999986588956
      endloop
   endfacet
   facet normal 1 0 0
      outer loop
         vertex 107.914999783933 55.6999987363815 -59.9999986588956
         vertex 107.914999783933 55.6999987363815 59.9999986588954
         vertex 107.914999783933 20.7000004500151 -59.9999986588956
      endloop
   endfacet
   facet normal 1 0 0
      outer loop
         vertex 107.914999783933 55.6999987363815 59.9999986588954
         vertex 107.914999783933 20.7000004500151 59.9999986588954
         vertex 107.914999783933 20.7000004500151 -59.9999986588956
      endloop
   endfacet
   facet normal 0 1 0
      outer loop
         vertex 106.91499962002 55.6999987363815 -59.9999986588956
         vertex 106.91499962002 55.6999987363815 59.9999986588954
         vertex 107.914999783933 55.6999987363815 -59.9999986588956
      endloop
   endfacet
   facet normal 0 1 0
      outer loop
         vertex 106.91499962002 55.6999987363815 59.9999986588954
         vertex 107.914999783933 55.6999987363815 59.9999986588954
         vertex 107.914999783933 55.6999987363815 -59.9999986588956
      endloop
   endfacet
   facet normal -1 0 0
      outer loop
         vertex 106.91499962002 55.6999987363815 59.9999986588954
         vertex 106.91499962002 55.6999987363815 -59.9999986588956
         vertex 106.91499962002 20.7000004500151 59.9999986588954
      endloop
   endfacet
   facet normal -1 0 0
      outer loop
         vertex 106.91499962002 55.6999987363815 -59.9999986588956
         vertex 106.91499962002 20.7000004500151 -59.9999986588956
         vertex 106.91499962002 20.7000004500151 59.9999986588954
      endloop
   endfacet
   facet normal 0 1 0
      outer loop
         vertex 99.9150003352762 20.7000004500151 59.9999986588954
         vertex 106.91499962002 20.7000004500151 59.9999986588954
         vertex 99.9150003352762 20.7000004500151 -59.9999986588956
      endloop
   endfacet
   facet normal 0 1 0
      outer loop
         vertex 106.91499962002 20.7000004500151 59.9999986588954
         vertex 106.91499962002 20.7000004500151 -59.9999986588956
         vertex 99.9150003352762 20.7000004500151 -59.9999986588956
      endloop
   endfacet
   facet normal 1 0 0
      outer loop
         vertex 99.9150003352762 55.6999987363815 -59.9999986588956
         vertex 99.9150003352762 55.6999987363815 59.9999986588954
         vertex 99.9150003352762 20.7000004500151 -59.9999986588956
      endloop
   endfacet
   facet normal 1 0 0
      outer loop
         vertex 99.9150003352762 55.6999987363815 59.9999986588954
         vertex 99.9150003352762 20.7000004500151 59.9999986588954
         vertex 99.9150003352762 20.7000004500151 -59.9999986588956
      endloop
   endfacet
   facet normal 0 1 0
      outer loop
         vertex 98.9149992400408 55.6999987363815 -59.9999986588956
         vertex 98.9149992400408 55.6999987363815 59.9999986588954
         vertex 99.9150003352762 55.6999987363815 -59.9999986588956
      endloop
   endfacet
   facet normal 0 1 0
      outer loop
         vertex 98.9149992400408 55.6999987363815 59.9999986588954
         vertex 99.9150003352762 55.6999987363815 59.9999986588954
         vertex 99.9150003352762 55.6999987363815 -59.9999986588956
      endloop
   endfacet
   facet normal -1 0 0
      outer loop
         vertex 98.9149992400408 55.6999987363815 59.9999986588954
         vertex 98.9149992400408 55.6999987363815 -59.9999986588956
         vertex 98.9149992400408 20.7000004500151 59.9999986588954
      endloop
   endfacet
   facet normal -1 0 0
      outer loop
         vertex 98.9149992400408 55.6999987363815 -59.9999986588956
         vertex 98.9149992400408 20.7000004500151 -59.9999986588956
         vertex 98.9149992400408 20.7000004500151 59.9999986588954
      endloop
   endfacet
   facet normal 0 1 0
      outer loop
         vertex 91.9149999552966 20.7000004500151 59.9999986588954
         vertex 98.9149992400408 20.7000004500151 59.9999986588954
         vertex 91.9149999552966 20.7000004500151 -59.9999986588956
      endloop
   endfacet
   facet normal 0 1 0
      outer loop
         vertex 98.9149992400408 20.7000004500151 59.9999986588954
         vertex 98.9149992400408 20.7000004500151 -59.9999986588956
         vertex 91.9149999552966 20.7000004500151 -59.9999986588956
      endloop
   endfacet
   facet normal 1 0 0
      outer loop
         vertex 91.9149999552966 55.6999987363815 -59.9999986588956
         vertex 91.9149999552966 55.6999987363815 59.9999986588954
         vertex 91.9149999552966 20.7000004500151 -59.9999986588956
      endloop
   endfacet
   facet normal 1 0 0
      outer loop
         vertex 91.9149999552966 55.6999987363815 59.9999986588954
         vertex 91.9149999552966 20.7000004500151 59.9999986588954
         vertex 91.9149999552966 20.7000004500151 -59.9999986588956
      endloop
   endfacet
   facet normal 0 1 0
      outer loop
         vertex 90.9149997913838 55.6999987363815 -59.9999986588956
         vertex 90.9149997913838 55.6999987363815 59.9999986588954
         vertex 91.9149999552966 55.6999987363815 -59.9999986588956
      endloop
   endfacet
   facet normal 0 1 0
      outer loop
         vertex 90.9149997913838 55.6999987363815 59.9999986588954
         vertex 91.9149999552966 55.6999987363815 59.9999986588954
         vertex 91.9149999552966 55.6999987363815 -59.9999986588956
      endloop
   endfacet
   facet normal -1 0 0
      outer loop
         vertex 90.9149997913838 55.6999987363815 59.9999986588954
         vertex 90.9149997913838 55.6999987363815 -59.9999986588956
         vertex 90.9149997913838 20.7000004500151 59.9999986588954
      endloop
   endfacet
   facet normal -1 0 0
      outer loop
         vertex 90.9149997913838 55.6999987363815 -59.9999986588956
         vertex 90.9149997913838 20.7000004500151 -59.9999986588956
         vertex 90.9149997913838 20.7000004500151 59.9999986588954
      endloop
   endfacet
   facet normal 0 1 0
      outer loop
         vertex 83.9150005066395 20.7000004500151 59.9999986588954
         vertex 90.9149997913838 20.7000004500151 59.9999986588954
         vertex 83.9150005066395 20.7000004500151 -59.9999986588956
      endloop
   endfacet
   facet normal 0 1 0
      outer loop
         vertex 90.9149997913838 20.7000004500151 59.9999986588954
         vertex 90.9149997913838 20.7000004500151 -59.9999986588956
         vertex 83.9150005066395 20.7000004500151 -59.9999986588956
      endloop
   endfacet
   facet normal 1 0 0
      outer loop
         vertex 83.9150005066395 55.6999987363815 -59.9999986588956
         vertex 83.9150005066395 55.6999987363815 59.9999986588954
         vertex 83.9150005066395 20.7000004500151 -59.9999986588956
      endloop
   endfacet
   facet normal 1 0 0
      outer loop
         vertex 83.9150005066395 55.6999987363815 59.9999986588954
         vertex 83.9150005066395 20.7000004500151 59.9999986588954
         vertex 83.9150005066395 20.7000004500151 -59.9999986588956
      endloop
   endfacet
   facet normal 0 1 0
      outer loop
         vertex 82.9149984800816 55.6999987363815 -59.9999986588956
         vertex 82.9149984800816 55.6999987363815 59.9999986588954
         vertex 83.9150005066395 55.6999987363815 -59.9999986588956
      endloop
   endfacet
   facet normal 0 1 0
      outer loop
         vertex 82.9149984800816 55.6999987363815 59.9999986588954
         vertex 83.9150005066395 55.6999987363815 59.9999986588954
         vertex 83.9150005066395 55.6999987363815 -59.9999986588956
      endloop
   endfacet
   facet normal -1 0 0
      outer loop
         vertex 82.9149984800816 55.6999987363815 59.9999986588954
         vertex 82.9149984800816 55.6999987363815 -59.9999986588956
         vertex 82.9149984800816 20.7000004500151 59.9999986588954
      endloop
   endfacet
   facet normal -1 0 0
      outer loop
         vertex 82.9149984800816 55.6999987363815 -59.9999986588956
         vertex 82.9149984800816 20.7000004500151 -59.9999986588956
         vertex 82.9149984800816 20.7000004500151 59.9999986588954
      endloop
   endfacet
   facet normal 0 0 1
      outer loop
         vertex 187.914998927116 55.6999987363815 59.9999986588954
         vertex 186.914996900559 55.6999987363815 59.9999986588954
         vertex 186.914996900559 20.7000004500151 59.9999986588954
      endloop
   endfacet
   facet normal 0 0 1
      outer loop
         vertex 187.914998927116 55.6999987363815 59.9999986588954
         vertex 186.914996900559 20.7000004500151 59.9999986588954
         vertex 187.914998927116 15.7000000961125 59.9999986588954
      endloop
   endfacet
   facet normal 0 0 1
      outer loop
         vertex 186.914996900559 20.7000004500151 59.9999986588954
         vertex 179.914997615814 20.7000004500151 59.9999986588954
         vertex 187.914998927116 15.7000000961125 59.9999986588954
      endloop
   endfacet
   facet normal 0 0 1
      outer loop
         vertex 187.914998927116 15.7000000961125 59.9999986588954
         vertex 179.914997615814 20.7000004500151 59.9999986588954
         vertex 74.9150008940697 15.7000000961125 59.9999986588954
      endloop
   endfacet
   facet normal 0 0 1
      outer loop
         vertex 171.915000029802 20.7000004500151 59.9999986588954
         vertex 171.915000029802 55.6999987363815 59.9999986588954
         vertex 170.915001728535 55.6999987363815 59.9999986588954
      endloop
   endfacet
   facet normal 0 0 1
      outer loop
         vertex 170.915001728535 20.7000004500151 59.9999986588954
         vertex 163.9149987185 20.7000004500151 59.9999986588954
         vertex 74.9150008940697 15.7000000961125 59.9999986588954
      endloop
   endfacet
   facet normal 0 0 1
      outer loop
         vertex 170.915001728535 55.6999987363815 59.9999986588954
         vertex 170.915001728535 20.7000004500151 59.9999986588954
         vertex 171.915000029802 20.7000004500151 59.9999986588954
      endloop
   endfacet
   facet normal 0 0 1
      outer loop
         vertex 170.915001728535 20.7000004500151 59.9999986588954
         vertex 74.9150008940697 15.7000000961125 59.9999986588954
         vertex 171.915000029802 20.7000004500151 59.9999986588954
      endloop
   endfacet
   facet normal 0 0 1
      outer loop
         vertex 171.915000029802 20.7000004500151 59.9999986588954
         vertex 74.9150008940697 15.7000000961125 59.9999986588954
         vertex 178.915003039837 20.7000004500151 59.9999986588954
      endloop
   endfacet
   facet normal 0 0 1
      outer loop
         vertex 74.9150008940697 15.7000000961125 59.9999986588954
         vertex 179.914997615814 20.7000004500151 59.9999986588954
         vertex 178.915003039837 20.7000004500151 59.9999986588954
      endloop
   endfacet
   facet normal 0 0 1
      outer loop
         vertex 178.915003039837 20.7000004500151 59.9999986588954
         vertex 179.914997615814 20.7000004500151 59.9999986588954
         vertex 178.915003039837 55.6999987363815 59.9999986588954
      endloop
   endfacet
   facet normal 0 0 1
      outer loop
         vertex 179.914997615814 20.7000004500151 59.9999986588954
         vertex 179.914997615814 55.6999987363815 59.9999986588954
         vertex 178.915003039837 55.6999987363815 59.9999986588954
      endloop
   endfacet
   facet normal 0 0 1
      outer loop
         vertex 155.915001132488 20.7000004500151 59.9999986588954
         vertex 155.915001132488 55.6999987363815 59.9999986588954
         vertex 154.91499910593 55.6999987363815 59.9999986588954
      endloop
   endfacet
   facet normal 0 0 1
      outer loop
         vertex 154.91499910593 20.7000004500151 59.9999986588954
         vertex 147.914999821186 20.7000004500151 59.9999986588954
         vertex 74.9150008940697 15.7000000961125 59.9999986588954
      endloop
   endfacet
   facet normal 0 0 1
      outer loop
         vertex 154.91499910593 55.6999987363815 59.9999986588954
         vertex 154.91499910593 20.7000004500151 59.9999986588954
         vertex 155.915001132488 20.7000004500151 59.9999986588954
      endloop
   endfacet
   facet normal 0 0 1
      outer loop
         vertex 154.91499910593 20.7000004500151 59.9999986588954
         vertex 74.9150008940697 15.7000000961125 59.9999986588954
         vertex 155.915001132488 20.7000004500151 59.9999986588954
      endloop
   endfacet
   facet normal 0 0 1
      outer loop
         vertex 155.915001132488 20.7000004500151 59.9999986588954
         vertex 74.9150008940697 15.7000000961125 59.9999986588954
         vertex 162.915000417233 20.7000004500151 59.9999986588954
      endloop
   endfacet
   facet normal 0 0 1
      outer loop
         vertex 74.9150008940697 15.7000000961125 59.9999986588954
         vertex 163.9149987185 20.7000004500151 59.9999986588954
         vertex 162.915000417233 20.7000004500151 59.9999986588954
      endloop
   endfacet
   facet normal 0 0 1
      outer loop
         vertex 162.915000417233 20.7000004500151 59.9999986588954
         vertex 163.9149987185 20.7000004500151 59.9999986588954
         vertex 162.915000417233 55.6999987363815 59.9999986588954
      endloop
   endfacet
   facet normal 0 0 1
      outer loop
         vertex 163.9149987185 20.7000004500151 59.9999986588954
         vertex 163.9149987185 55.6999987363815 59.9999986588954
         vertex 162.915000417233 55.6999987363815 59.9999986588954
      endloop
   endfacet
   facet normal 0 0 1
      outer loop
         vertex 139.915000372529 20.7000004500151 59.9999986588954
         vertex 139.915000372529 55.6999987363815 59.9999986588954
         vertex 138.915000208616 55.6999987363815 59.9999986588954
      endloop
   endfacet
   facet normal 0 0 1
      outer loop
         vertex 138.915000208616 20.7000004500151 59.9999986588954
         vertex 131.915000923872 20.7000004500151 59.9999986588954
         vertex 74.9150008940697 15.7000000961125 59.9999986588954
      endloop
   endfacet
   facet normal 0 0 1
      outer loop
         vertex 138.915000208616 55.6999987363815 59.9999986588954
         vertex 138.915000208616 20.7000004500151 59.9999986588954
         vertex 139.915000372529 20.7000004500151 59.9999986588954
      endloop
   endfacet
   facet normal 0 0 1
      outer loop
         vertex 138.915000208616 20.7000004500151 59.9999986588954
         vertex 74.9150008940697 15.7000000961125 59.9999986588954
         vertex 139.915000372529 20.7000004500151 59.9999986588954
      endloop
   endfacet
   facet normal 0 0 1
      outer loop
         vertex 139.915000372529 20.7000004500151 59.9999986588954
         vertex 74.9150008940697 15.7000000961125 59.9999986588954
         vertex 146.915001519918 20.7000004500151 59.9999986588954
      endloop
   endfacet
   facet normal 0 0 1
      outer loop
         vertex 74.9150008940697 15.7000000961125 59.9999986588954
         vertex 147.914999821186 20.7000004500151 59.9999986588954
         vertex 146.915001519918 20.7000004500151 59.9999986588954
      endloop
   endfacet
   facet normal 0 0 1
      outer loop
         vertex 146.915001519918 20.7000004500151 59.9999986588954
         vertex 147.914999821186 20.7000004500151 59.9999986588954
         vertex 146.915001519918 55.6999987363815 59.9999986588954
      endloop
   endfacet
   facet normal 0 0 1
      outer loop
         vertex 147.914999821186 20.7000004500151 59.9999986588954
         vertex 147.914999821186 55.6999987363815 59.9999986588954
         vertex 146.915001519918 55.6999987363815 59.9999986588954
      endloop
   endfacet
   facet normal 0 0 1
      outer loop
         vertex 123.91499961257 20.7000004500151 59.9999986588954
         vertex 123.91499961257 55.6999987363815 59.9999986588954
         vertex 122.91500037998 55.6999987363815 59.9999986588954
      endloop
   endfacet
   facet normal 0 0 1
      outer loop
         vertex 122.91500037998 20.7000004500151 59.9999986588954
         vertex 115.915000047497 20.7000004500151 59.9999986588954
         vertex 74.9150008940697 15.7000000961125 59.9999986588954
      endloop
   endfacet
   facet normal 0 0 1
      outer loop
         vertex 122.91500037998 55.6999987363815 59.9999986588954
         vertex 122.91500037998 20.7000004500151 59.9999986588954
         vertex 123.91499961257 20.7000004500151 59.9999986588954
      endloop
   endfacet
   facet normal 0 0 1
      outer loop
         vertex 122.91500037998 20.7000004500151 59.9999986588954
         vertex 74.9150008940697 15.7000000961125 59.9999986588954
         vertex 123.91499961257 20.7000004500151 59.9999986588954
      endloop
   endfacet
   facet normal 0 0 1
      outer loop
         vertex 123.91499961257 20.7000004500151 59.9999986588954
         vertex 74.9150008940697 15.7000000961125 59.9999986588954
         vertex 130.915000759959 20.7000004500151 59.9999986588954
      endloop
   endfacet
   facet normal 0 0 1
      outer loop
         vertex 74.9150008940697 15.7000000961125 59.9999986588954
         vertex 131.915000923872 20.7000004500151 59.9999986588954
         vertex 130.915000759959 20.7000004500151 59.9999986588954
      endloop
   endfacet
   facet normal 0 0 1
      outer loop
         vertex 130.915000759959 20.7000004500151 59.9999986588954
         vertex 131.915000923872 20.7000004500151 59.9999986588954
         vertex 130.915000759959 55.6999987363815 59.9999986588954
      endloop
   endfacet
   facet normal 0 0 1
      outer loop
         vertex 131.915000923872 20.7000004500151 59.9999986588954
         vertex 131.915000923872 55.6999987363815 59.9999986588954
         vertex 130.915000759959 55.6999987363815 59.9999986588954
      endloop
   endfacet
   facet normal 0 0 1
      outer loop
         vertex 107.914999783933 20.7000004500151 59.9999986588954
         vertex 107.914999783933 55.6999987363815 59.9999986588954
         vertex 106.91499962002 55.6999987363815 59.9999986588954
      endloop
   endfacet
   facet normal 0 0 1
      outer loop
         vertex 106.91499962002 20.7000004500151 59.9999986588954
         vertex 99.9150003352762 20.7000004500151 59.9999986588954
         vertex 74.9150008940697 15.7000000961125 59.9999986588954
      endloop
   endfacet
   facet normal 0 0 1
      outer loop
         vertex 106.91499962002 55.6999987363815 59.9999986588954
         vertex 106.91499962002 20.7000004500151 59.9999986588954
         vertex 107.914999783933 20.7000004500151 59.9999986588954
      endloop
   endfacet
   facet normal 0 0 1
      outer loop
         vertex 106.91499962002 20.7000004500151 59.9999986588954
         vertex 74.9150008940697 15.7000000961125 59.9999986588954
         vertex 107.914999783933 20.7000004500151 59.9999986588954
      endloop
   endfacet
   facet normal 0 0 1
      outer loop
         vertex 107.914999783933 20.7000004500151 59.9999986588954
         vertex 74.9150008940697 15.7000000961125 59.9999986588954
         vertex 114.915 20.7000004500151 59.9999986588954
      endloop
   endfacet
   facet normal 0 0 1
      outer loop
         vertex 74.9150008940697 15.7000000961125 59.9999986588954
         vertex 115.915000047497 20.7000004500151 59.9999986588954
         vertex 114.915 20.7000004500151 59.9999986588954
      endloop
   endfacet
   facet normal 0 0 1
      outer loop
         vertex 114.915 20.7000004500151 59.9999986588954
         vertex 115.915000047497 20.7000004500151 59.9999986588954
         vertex 114.915 55.6999987363815 59.9999986588954
      endloop
   endfacet
   facet normal 0 0 1
      outer loop
         vertex 115.915000047497 20.7000004500151 59.9999986588954
         vertex 115.915000047497 55.6999987363815 59.9999986588954
         vertex 114.915 55.6999987363815 59.9999986588954
      endloop
   endfacet
   facet normal 0 0 1
      outer loop
         vertex 91.9149999552966 20.7000004500151 59.9999986588954
         vertex 91.9149999552966 55.6999987363815 59.9999986588954
         vertex 90.9149997913838 55.6999987363815 59.9999986588954
      endloop
   endfacet
   facet normal 0 0 1
      outer loop
         vertex 90.9149997913838 20.7000004500151 59.9999986588954
         vertex 83.9150005066395 20.7000004500151 59.9999986588954
         vertex 74.9150008940697 15.7000000961125 59.9999986588954
      endloop
   endfacet
   facet normal 0 0 1
      outer loop
         vertex 90.9149997913838 55.6999987363815 59.9999986588954
         vertex 90.9149997913838 20.7000004500151 59.9999986588954
         vertex 91.9149999552966 20.7000004500151 59.9999986588954
      endloop
   endfacet
   facet normal 0 0 1
      outer loop
         vertex 90.9149997913838 20.7000004500151 59.9999986588954
         vertex 74.9150008940697 15.7000000961125 59.9999986588954
         vertex 91.9149999552966 20.7000004500151 59.9999986588954
      endloop
   endfacet
   facet normal 0 0 1
      outer loop
         vertex 91.9149999552966 20.7000004500151 59.9999986588954
         vertex 74.9150008940697 15.7000000961125 59.9999986588954
         vertex 98.9149992400408 20.7000004500151 59.9999986588954
      endloop
   endfacet
   facet normal 0 0 1
      outer loop
         vertex 74.9150008940697 15.7000000961125 59.9999986588954
         vertex 99.9150003352762 20.7000004500151 59.9999986588954
         vertex 98.9149992400408 20.7000004500151 59.9999986588954
      endloop
   endfacet
   facet normal 0 0 1
      outer loop
         vertex 98.9149992400408 20.7000004500151 59.9999986588954
         vertex 99.9150003352762 20.7000004500151 59.9999986588954
         vertex 98.9149992400408 55.6999987363815 59.9999986588954
      endloop
   endfacet
   facet normal 0 0 1
      outer loop
         vertex 99.9150003352762 20.7000004500151 59.9999986588954
         vertex 99.9150003352762 55.6999987363815 59.9999986588954
         vertex 98.9149992400408 55.6999987363815 59.9999986588954
      endloop
   endfacet
   facet normal 0 0 1
      outer loop
         vertex 75.9149991953373 55.6999987363815 59.9999986588954
         vertex 74.9150008940697 55.6999987363815 59.9999986588954
         vertex 75.9149991953373 20.7000004500151 59.9999986588954
      endloop
   endfacet
   facet normal 0 0 1
      outer loop
         vertex 74.9150008940697 55.6999987363815 59.9999986588954
         vertex 74.9150008940697 15.7000000961125 59.9999986588954
         vertex 75.9149991953373 20.7000004500151 59.9999986588954
      endloop
   endfacet
   facet normal 0 0 1
      outer loop
         vertex 75.9149991953373 20.7000004500151 59.9999986588954
         vertex 74.9150008940697 15.7000000961125 59.9999986588954
         vertex 82.9149984800816 20.7000004500151 59.9999986588954
      endloop
   endfacet
   facet normal 0 0 1
      outer loop
         vertex 74.9150008940697 15.7000000961125 59.9999986588954
         vertex 83.9150005066395 20.7000004500151 59.9999986588954
         vertex 82.9149984800816 20.7000004500151 59.9999986588954
      endloop
   endfacet
   facet normal 0 0 1
      outer loop
         vertex 82.9149984800816 20.7000004500151 59.9999986588954
         vertex 83.9150005066395 20.7000004500151 59.9999986588954
         vertex 82.9149984800816 55.6999987363815 59.9999986588954
      endloop
   endfacet
   facet normal 0 0 1
      outer loop
         vertex 83.9150005066395 20.7000004500151 59.9999986588954
         vertex 83.9150005066395 55.6999987363815 59.9999986588954
         vertex 82.9149984800816 55.6999987363815 59.9999986588954
      endloop
   endfacet
   facet normal 0 0 -1
      outer loop
         vertex 74.9150008940697 55.6999987363815 -59.9999986588956
         vertex 75.9149991953373 55.6999987363815 -59.9999986588956
         vertex 75.9149991953373 20.7000004500151 -59.9999986588956
      endloop
   endfacet
   facet normal 0 0 -1
      outer loop
         vertex 74.9150008940697 55.6999987363815 -59.9999986588956
         vertex 75.9149991953373 20.7000004500151 -59.9999986588956
         vertex 74.9150008940697 15.7000000961125 -59.9999986588956
      endloop
   endfacet
   facet normal 0 0 -1
      outer loop
         vertex 75.9149991953373 20.7000004500151 -59.9999986588956
         vertex 82.9149984800816 20.7000004500151 -59.9999986588956
         vertex 74.9150008940697 15.7000000961125 -59.9999986588956
      endloop
   endfacet
   facet normal 0 0 -1
      outer loop
         vertex 74.9150008940697 15.7000000961125 -59.9999986588956
         vertex 82.9149984800816 20.7000004500151 -59.9999986588956
         vertex 187.914998927116 15.7000000961125 -59.9999986588956
      endloop
   endfacet
   facet normal 0 0 -1
      outer loop
         vertex 90.9149997913838 20.7000004500151 -59.9999986588956
         vertex 90.9149997913838 55.6999987363815 -59.9999986588956
         vertex 91.9149999552966 55.6999987363815 -59.9999986588956
      endloop
   endfacet
   facet normal 0 0 -1
      outer loop
         vertex 91.9149999552966 20.7000004500151 -59.9999986588956
         vertex 98.9149992400408 20.7000004500151 -59.9999986588956
         vertex 187.914998927116 15.7000000961125 -59.9999986588956
      endloop
   endfacet
   facet normal 0 0 -1
      outer loop
         vertex 91.9149999552966 55.6999987363815 -59.9999986588956
         vertex 91.9149999552966 20.7000004500151 -59.9999986588956
         vertex 90.9149997913838 20.7000004500151 -59.9999986588956
      endloop
   endfacet
   facet normal 0 0 -1
      outer loop
         vertex 91.9149999552966 20.7000004500151 -59.9999986588956
         vertex 187.914998927116 15.7000000961125 -59.9999986588956
         vertex 90.9149997913838 20.7000004500151 -59.9999986588956
      endloop
   endfacet
   facet normal 0 0 -1
      outer loop
         vertex 90.9149997913838 20.7000004500151 -59.9999986588956
         vertex 187.914998927116 15.7000000961125 -59.9999986588956
         vertex 83.9150005066395 20.7000004500151 -59.9999986588956
      endloop
   endfacet
   facet normal 0 0 -1
      outer loop
         vertex 187.914998927116 15.7000000961125 -59.9999986588956
         vertex 82.9149984800816 20.7000004500151 -59.9999986588956
         vertex 83.9150005066395 20.7000004500151 -59.9999986588956
      endloop
   endfacet
   facet normal 0 0 -1
      outer loop
         vertex 83.9150005066395 20.7000004500151 -59.9999986588956
         vertex 82.9149984800816 20.7000004500151 -59.9999986588956
         vertex 83.9150005066395 55.6999987363815 -59.9999986588956
      endloop
   endfacet
   facet normal 0 0 -1
      outer loop
         vertex 82.9149984800816 20.7000004500151 -59.9999986588956
         vertex 82.9149984800816 55.6999987363815 -59.9999986588956
         vertex 83.9150005066395 55.6999987363815 -59.9999986588956
      endloop
   endfacet
   facet normal 0 0 -1
      outer loop
         vertex 106.91499962002 20.7000004500151 -59.9999986588956
         vertex 106.91499962002 55.6999987363815 -59.9999986588956
         vertex 107.914999783933 55.6999987363815 -59.9999986588956
      endloop
   endfacet
   facet normal 0 0 -1
      outer loop
         vertex 107.914999783933 20.7000004500151 -59.9999986588956
         vertex 114.915 20.7000004500151 -59.9999986588956
         vertex 187.914998927116 15.7000000961125 -59.9999986588956
      endloop
   endfacet
   facet normal 0 0 -1
      outer loop
         vertex 107.914999783933 55.6999987363815 -59.9999986588956
         vertex 107.914999783933 20.7000004500151 -59.9999986588956
         vertex 106.91499962002 20.7000004500151 -59.9999986588956
      endloop
   endfacet
   facet normal 0 0 -1
      outer loop
         vertex 107.914999783933 20.7000004500151 -59.9999986588956
         vertex 187.914998927116 15.7000000961125 -59.9999986588956
         vertex 106.91499962002 20.7000004500151 -59.9999986588956
      endloop
   endfacet
   facet normal 0 0 -1
      outer loop
         vertex 106.91499962002 20.7000004500151 -59.9999986588956
         vertex 187.914998927116 15.7000000961125 -59.9999986588956
         vertex 99.9150003352762 20.7000004500151 -59.9999986588956
      endloop
   endfacet
   facet normal 0 0 -1
      outer loop
         vertex 187.914998927116 15.7000000961125 -59.9999986588956
         vertex 98.9149992400408 20.7000004500151 -59.9999986588956
         vertex 99.9150003352762 20.7000004500151 -59.9999986588956
      endloop
   endfacet
   facet normal 0 0 -1
      outer loop
         vertex 99.9150003352762 20.7000004500151 -59.9999986588956
         vertex 98.9149992400408 20.7000004500151 -59.9999986588956
         vertex 99.9150003352762 55.6999987363815 -59.9999986588956
      endloop
   endfacet
   facet normal 0 0 -1
      outer loop
         vertex 98.9149992400408 20.7000004500151 -59.9999986588956
         vertex 98.9149992400408 55.6999987363815 -59.9999986588956
         vertex 99.9150003352762 55.6999987363815 -59.9999986588956
      endloop
   endfacet
   facet normal 0 0 -1
      outer loop
         vertex 122.91500037998 20.7000004500151 -59.9999986588956
         vertex 122.91500037998 55.6999987363815 -59.9999986588956
         vertex 123.91499961257 55.6999987363815 -59.9999986588956
      endloop
   endfacet
   facet normal 0 0 -1
      outer loop
         vertex 123.91499961257 20.7000004500151 -59.9999986588956
         vertex 130.915000759959 20.7000004500151 -59.9999986588956
         vertex 187.914998927116 15.7000000961125 -59.9999986588956
      endloop
   endfacet
   facet normal 0 0 -1
      outer loop
         vertex 123.91499961257 55.6999987363815 -59.9999986588956
         vertex 123.91499961257 20.7000004500151 -59.9999986588956
         vertex 122.91500037998 20.7000004500151 -59.9999986588956
      endloop
   endfacet
   facet normal 0 0 -1
      outer loop
         vertex 123.91499961257 20.7000004500151 -59.9999986588956
         vertex 187.914998927116 15.7000000961125 -59.9999986588956
         vertex 122.91500037998 20.7000004500151 -59.9999986588956
      endloop
   endfacet
   facet normal 0 0 -1
      outer loop
         vertex 122.91500037998 20.7000004500151 -59.9999986588956
         vertex 187.914998927116 15.7000000961125 -59.9999986588956
         vertex 115.915000047497 20.7000004500151 -59.9999986588956
      endloop
   endfacet
   facet normal 0 0 -1
      outer loop
         vertex 187.914998927116 15.7000000961125 -59.9999986588956
         vertex 114.915 20.7000004500151 -59.9999986588956
         vertex 115.915000047497 20.7000004500151 -59.9999986588956
      endloop
   endfacet
   facet normal 0 0 -1
      outer loop
         vertex 115.915000047497 20.7000004500151 -59.9999986588956
         vertex 114.915 20.7000004500151 -59.9999986588956
         vertex 115.915000047497 55.6999987363815 -59.9999986588956
      endloop
   endfacet
   facet normal 0 0 -1
      outer loop
         vertex 114.915 20.7000004500151 -59.9999986588956
         vertex 114.915 55.6999987363815 -59.9999986588956
         vertex 115.915000047497 55.6999987363815 -59.9999986588956
      endloop
   endfacet
   facet normal 0 0 -1
      outer loop
         vertex 138.915000208616 20.7000004500151 -59.9999986588956
         vertex 138.915000208616 55.6999987363815 -59.9999986588956
         vertex 139.915000372529 55.6999987363815 -59.9999986588956
      endloop
   endfacet
   facet normal 0 0 -1
      outer loop
         vertex 139.915000372529 20.7000004500151 -59.9999986588956
         vertex 146.915001519918 20.7000004500151 -59.9999986588956
         vertex 187.914998927116 15.7000000961125 -59.9999986588956
      endloop
   endfacet
   facet normal 0 0 -1
      outer loop
         vertex 139.915000372529 55.6999987363815 -59.9999986588956
         vertex 139.915000372529 20.7000004500151 -59.9999986588956
         vertex 138.915000208616 20.7000004500151 -59.9999986588956
      endloop
   endfacet
   facet normal 0 0 -1
      outer loop
         vertex 139.915000372529 20.7000004500151 -59.9999986588956
         vertex 187.914998927116 15.7000000961125 -59.9999986588956
         vertex 138.915000208616 20.7000004500151 -59.9999986588956
      endloop
   endfacet
   facet normal 0 0 -1
      outer loop
         vertex 138.915000208616 20.7000004500151 -59.9999986588956
         vertex 187.914998927116 15.7000000961125 -59.9999986588956
         vertex 131.915000923872 20.7000004500151 -59.9999986588956
      endloop
   endfacet
   facet normal 0 0 -1
      outer loop
         vertex 187.914998927116 15.7000000961125 -59.9999986588956
         vertex 130.915000759959 20.7000004500151 -59.9999986588956
         vertex 131.915000923872 20.7000004500151 -59.9999986588956
      endloop
   endfacet
   facet normal 0 0 -1
      outer loop
         vertex 131.915000923872 20.7000004500151 -59.9999986588956
         vertex 130.915000759959 20.7000004500151 -59.9999986588956
         vertex 131.915000923872 55.6999987363815 -59.9999986588956
      endloop
   endfacet
   facet normal 0 0 -1
      outer loop
         vertex 130.915000759959 20.7000004500151 -59.9999986588956
         vertex 130.915000759959 55.6999987363815 -59.9999986588956
         vertex 131.915000923872 55.6999987363815 -59.9999986588956
      endloop
   endfacet
   facet normal 0 0 -1
      outer loop
         vertex 154.91499910593 20.7000004500151 -59.9999986588956
         vertex 154.91499910593 55.6999987363815 -59.9999986588956
         vertex 155.915001132488 55.6999987363815 -59.9999986588956
      endloop
   endfacet
   facet normal 0 0 -1
      outer loop
         vertex 155.915001132488 20.7000004500151 -59.9999986588956
         vertex 162.915000417233 20.7000004500151 -59.9999986588956
         vertex 187.914998927116 15.7000000961125 -59.9999986588956
      endloop
   endfacet
   facet normal 0 0 -1
      outer loop
         vertex 155.915001132488 55.6999987363815 -59.9999986588956
         vertex 155.915001132488 20.7000004500151 -59.9999986588956
         vertex 154.91499910593 20.7000004500151 -59.9999986588956
      endloop
   endfacet
   facet normal 0 0 -1
      outer loop
         vertex 155.915001132488 20.7000004500151 -59.9999986588956
         vertex 187.914998927116 15.7000000961125 -59.9999986588956
         vertex 154.91499910593 20.7000004500151 -59.9999986588956
      endloop
   endfacet
   facet normal 0 0 -1
      outer loop
         vertex 154.91499910593 20.7000004500151 -59.9999986588956
         vertex 187.914998927116 15.7000000961125 -59.9999986588956
         vertex 147.914999821186 20.7000004500151 -59.9999986588956
      endloop
   endfacet
   facet normal 0 0 -1
      outer loop
         vertex 187.914998927116 15.7000000961125 -59.9999986588956
         vertex 146.915001519918 20.7000004500151 -59.9999986588956
         vertex 147.914999821186 20.7000004500151 -59.9999986588956
      endloop
   endfacet
   facet normal 0 0 -1
      outer loop
         vertex 147.914999821186 20.7000004500151 -59.9999986588956
         vertex 146.915001519918 20.7000004500151 -59.9999986588956
         vertex 147.914999821186 55.6999987363815 -59.9999986588956
      endloop
   endfacet
   facet normal 0 0 -1
      outer loop
         vertex 146.915001519918 20.7000004500151 -59.9999986588956
         vertex 146.915001519918 55.6999987363815 -59.9999986588956
         vertex 147.914999821186 55.6999987363815 -59.9999986588956
      endloop
   endfacet
   facet normal 0 0 -1
      outer loop
         vertex 170.915001728535 20.7000004500151 -59.9999986588956
         vertex 170.915001728535 55.6999987363815 -59.9999986588956
         vertex 171.915000029802 55.6999987363815 -59.9999986588956
      endloop
   endfacet
   facet normal 0 0 -1
      outer loop
         vertex 171.915000029802 20.7000004500151 -59.9999986588956
         vertex 178.915003039837 20.7000004500151 -59.9999986588956
         vertex 187.914998927116 15.7000000961125 -59.9999986588956
      endloop
   endfacet
   facet normal 0 0 -1
      outer loop
         vertex 171.915000029802 55.6999987363815 -59.9999986588956
         vertex 171.915000029802 20.7000004500151 -59.9999986588956
         vertex 170.915001728535 20.7000004500151 -59.9999986588956
      endloop
   endfacet
   facet normal 0 0 -1
      outer loop
         vertex 171.915000029802 20.7000004500151 -59.9999986588956
         vertex 187.914998927116 15.7000000961125 -59.9999986588956
         vertex 170.915001728535 20.7000004500151 -59.9999986588956
      endloop
   endfacet
   facet normal 0 0 -1
      outer loop
         vertex 170.915001728535 20.7000004500151 -59.9999986588956
         vertex 187.914998927116 15.7000000961125 -59.9999986588956
         vertex 163.9149987185 20.7000004500151 -59.9999986588956
      endloop
   endfacet
   facet normal 0 0 -1
      outer loop
         vertex 187.914998927116 15.7000000961125 -59.9999986588956
         vertex 162.915000417233 20.7000004500151 -59.9999986588956
         vertex 163.9149987185 20.7000004500151 -59.9999986588956
      endloop
   endfacet
   facet normal 0 0 -1
      outer loop
         vertex 163.9149987185 20.7000004500151 -59.9999986588956
         vertex 162.915000417233 20.7000004500151 -59.9999986588956
         vertex 163.9149987185 55.6999987363815 -59.9999986588956
      endloop
   endfacet
   facet normal 0 0 -1
      outer loop
         vertex 162.915000417233 20.7000004500151 -59.9999986588956
         vertex 162.915000417233 55.6999987363815 -59.9999986588956
         vertex 163.9149987185 55.6999987363815 -59.9999986588956
      endloop
   endfacet
   facet normal 0 0 -1
      outer loop
         vertex 186.914996900559 55.6999987363815 -59.9999986588956
         vertex 187.914998927116 55.6999987363815 -59.9999986588956
         vertex 186.914996900559 20.7000004500151 -59.9999986588956
      endloop
   endfacet
   facet normal 0 0 -1
      outer loop
         vertex 187.914998927116 55.6999987363815 -59.9999986588956
         vertex 187.914998927116 15.7000000961125 -59.9999986588956
         vertex 186.914996900559 20.7000004500151 -59.9999986588956
      endloop
   endfacet
   facet normal 0 0 -1
      outer loop
         vertex 186.914996900559 20.7000004500151 -59.9999986588956
         vertex 187.914998927116 15.7000000961125 -59.9999986588956
         vertex 179.914997615814 20.7000004500151 -59.9999986588956
      endloop
   endfacet
   facet normal 0 0 -1
      outer loop
         vertex 187.914998927116 15.7000000961125 -59.9999986588956
         vertex 178.915003039837 20.7000004500151 -59.9999986588956
         vertex 179.914997615814 20.7000004500151 -59.9999986588956
      endloop
   endfacet
   facet normal 0 0 -1
      outer loop
         vertex 179.914997615814 20.7000004500151 -59.9999986588956
         vertex 178.915003039837 20.7000004500151 -59.9999986588956
         vertex 179.914997615814 55.6999987363815 -59.9999986588956
      endloop
   endfacet
   facet normal 0 0 -1
      outer loop
         vertex 178.915003039837 20.7000004500151 -59.9999986588956
         vertex 178.915003039837 55.6999987363815 -59.9999986588956
         vertex 179.914997615814 55.6999987363815 -59.9999986588956
      endloop
   endfacet
   facet normal 0 1 0
      outer loop
         vertex 75.9149991953373 20.7000004500151 59.9999986588954
         vertex 82.9149984800816 20.7000004500151 59.9999986588954
         vertex 75.9149991953373 20.7000004500151 -59.9999986588956
      endloop
   endfacet
   facet normal 0 1 0
      outer loop
         vertex 82.9149984800816 20.7000004500151 59.9999986588954
         vertex 82.9149984800816 20.7000004500151 -59.9999986588956
         vertex 75.9149991953373 20.7000004500151 -59.9999986588956
      endloop
   endfacet
   facet normal 0 1 0
      outer loop
         vertex 74.9150008940697 55.6999987363815 -59.9999986588956
         vertex 74.9150008940697 55.6999987363815 59.9999986588954
         vertex 75.9149991953373 55.6999987363815 -59.9999986588956
      endloop
   endfacet
   facet normal 0 1 0
      outer loop
         vertex 74.9150008940697 55.6999987363815 59.9999986588954
         vertex 75.9149991953373 55.6999987363815 59.9999986588954
         vertex 75.9149991953373 55.6999987363815 -59.9999986588956
      endloop
   endfacet
   facet normal 1 0 0
      outer loop
         vertex 75.9149991953373 55.6999987363815 -59.9999986588956
         vertex 75.9149991953373 55.6999987363815 59.9999986588954
         vertex 75.9149991953373 20.7000004500151 -59.9999986588956
      endloop
   endfacet
   facet normal 1 0 0
      outer loop
         vertex 75.9149991953373 55.6999987363815 59.9999986588954
         vertex 75.9149991953373 20.7000004500151 59.9999986588954
         vertex 75.9149991953373 20.7000004500151 -59.9999986588956
      endloop
   endfacet
endsolid Heatsink
