solid MINI_BOARD
   facet normal -7.00898377929934E-17 -1 4.86345868469348E-31
      outer loop
         vertex -148.230000134112 21.6100000357256 -171.549999928475
         vertex -197.729999865891 21.6100000357256 -171.549999928474
         vertex -148.230000134112 21.6100000357256 -175.550000584126
      endloop
   endfacet
   facet normal -7.00898377929934E-17 -1 4.86345868469348E-31
      outer loop
         vertex -197.729999865891 21.6100000357256 -171.549999928474
         vertex -197.729999865891 21.6100000357256 -175.550000584126
         vertex -148.230000134112 21.6100000357256 -175.550000584126
      endloop
   endfacet
   facet normal -6.72862442812737E-15 0 -1
      outer loop
         vertex -197.729999865891 21.5999999595807 -171.549999928474
         vertex -197.729999865891 21.6100000357256 -171.549999928474
         vertex -148.230000134112 21.5999999595807 -171.549999928475
      endloop
   endfacet
   facet normal -6.72862442812737E-15 0 -1
      outer loop
         vertex -197.729999865891 21.6100000357256 -171.549999928474
         vertex -148.230000134112 21.6100000357256 -171.549999928475
         vertex -148.230000134112 21.5999999595807 -171.549999928475
      endloop
   endfacet
   facet normal -7.40148653672573E-15 -1.85037086827345E-15 -1
      outer loop
         vertex -161.729999552966 49.899999499321 -175.550000584126
         vertex -148.230000134112 40.8999998867512 -175.550000584126
         vertex -184.230000447036 49.899999499321 -175.550000584126
      endloop
   endfacet
   facet normal -6.93889384359198E-15 0 -1
      outer loop
         vertex -148.230000134112 40.8999998867512 -175.550000584126
         vertex -148.230000134112 21.6100000357256 -175.550000584126
         vertex -184.230000447036 49.899999499321 -175.550000584126
      endloop
   endfacet
   facet normal -7.63409570694068E-15 -8.84668355342493E-16 -1
      outer loop
         vertex -184.230000447036 49.899999499321 -175.550000584126
         vertex -148.230000134112 21.6100000357256 -175.550000584126
         vertex -197.729999865891 40.8999998867512 -175.550000584126
      endloop
   endfacet
   facet normal -6.72862442812737E-15 1.43885825971912E-15 -1
      outer loop
         vertex -148.230000134112 21.6100000357256 -175.550000584126
         vertex -197.729999865891 21.6100000357256 -175.550000584126
         vertex -197.729999865891 40.8999998867512 -175.550000584126
      endloop
   endfacet
   facet normal 0 1 0
      outer loop
         vertex -184.230000447036 49.899999499321 -172.69999704361
         vertex -161.729999552966 49.899999499321 -172.69999704361
         vertex -184.230000447036 49.899999499321 -175.550000584126
      endloop
   endfacet
   facet normal 0 1 0
      outer loop
         vertex -161.729999552966 49.899999499321 -172.69999704361
         vertex -161.729999552966 49.899999499321 -175.550000584126
         vertex -184.230000447036 49.899999499321 -175.550000584126
      endloop
   endfacet
   facet normal 0.554700196225229 0.832050294337843 -5.40210670669785E-15
      outer loop
         vertex -161.729999552966 49.899999499321 -172.69999704361
         vertex -148.230000134112 40.8999998867512 -172.69999704361
         vertex -161.729999552966 49.899999499321 -175.550000584126
      endloop
   endfacet
   facet normal 0.554700196225229 0.832050294337843 -5.40210670669785E-15
      outer loop
         vertex -148.230000134112 40.8999998867512 -172.69999704361
         vertex -148.230000134112 40.8999998867512 -175.550000584126
         vertex -161.729999552966 49.899999499321 -175.550000584126
      endloop
   endfacet
   facet normal -0.554700196225229 0.832050294337844 5.40210670669784E-15
      outer loop
         vertex -184.230000447036 49.899999499321 -175.550000584126
         vertex -197.729999865891 40.8999998867512 -175.550000584126
         vertex -184.230000447036 49.899999499321 -172.69999704361
      endloop
   endfacet
   facet normal -0.554700196225229 0.832050294337844 5.40210670669784E-15
      outer loop
         vertex -197.729999865891 40.8999998867512 -175.550000584126
         vertex -197.729999865891 40.8999998867512 -172.69999704361
         vertex -184.230000447036 49.899999499321 -172.69999704361
      endloop
   endfacet
   facet normal -1 -1.71079510377111E-29 9.73878636326349E-15
      outer loop
         vertex -197.729999865891 40.8999998867512 -172.69999704361
         vertex -197.729999865891 40.8999998867512 -175.550000584126
         vertex -197.729999865891 25.1000001840294 -172.69999704361
      endloop
   endfacet
   facet normal -1 -1.40127331984217E-29 9.73878636326351E-15
      outer loop
         vertex -197.729999865891 40.8999998867512 -175.550000584126
         vertex -197.729999865891 21.6100000357256 -175.550000584126
         vertex -197.729999865891 25.1000001840294 -172.69999704361
      endloop
   endfacet
   facet normal -1 1.78533236035731E-15 7.55253988537641E-15
      outer loop
         vertex -197.729999865891 25.1000001840294 -172.69999704361
         vertex -197.729999865891 21.6100000357256 -175.550000584126
         vertex -197.729999865891 25.1000001840294 -165.349999284744
      endloop
   endfacet
   facet normal -1 3.57879973673994E-15 6.93889276653407E-15
      outer loop
         vertex -197.729999865891 21.6100000357256 -175.550000584126
         vertex -197.729999865891 21.6100000357256 -171.549999928474
         vertex -197.729999865891 25.1000001840294 -165.349999284744
      endloop
   endfacet
   facet normal -1 0 8.9534105593028E-15
      outer loop
         vertex -197.729999865891 25.1000001840294 -165.349999284744
         vertex -197.729999865891 21.6100000357256 -171.549999928474
         vertex -197.729999865891 21.5999999595807 -165.349999284744
      endloop
   endfacet
   facet normal -1 0 8.9534105593028E-15
      outer loop
         vertex -197.729999865891 21.6100000357256 -171.549999928474
         vertex -197.729999865891 21.5999999595807 -171.549999928474
         vertex -197.729999865891 21.5999999595807 -165.349999284744
      endloop
   endfacet
   facet normal -0.70710670371071 0 0.707106858662377
      outer loop
         vertex -197.729999865891 21.5999999595807 -165.349999284744
         vertex -189.229999403955 21.5999999595807 -156.850000685453
         vertex -197.729999865891 25.1000001840294 -165.349999284744
      endloop
   endfacet
   facet normal -0.70710670371071 0 0.707106858662377
      outer loop
         vertex -189.229999403955 21.5999999595807 -156.850000685453
         vertex -189.229999403955 25.1000001840294 -156.850000685453
         vertex -197.729999865891 25.1000001840294 -165.349999284744
      endloop
   endfacet
   facet normal 4.08252384686485E-30 1 4.08170296903703E-16
      outer loop
         vertex -189.229999403955 25.1000001840294 -156.850000685453
         vertex -186.454999926985 25.1000001840294 -156.850000685454
         vertex -197.729999865891 25.1000001840294 -165.349999284744
      endloop
   endfacet
   facet normal 1.42692695901883E-16 1 2.18892602468534E-16
      outer loop
         vertex -186.454999926985 25.1000001840294 -156.850000685454
         vertex -186.454999926986 25.1000001840294 -172.69999704361
         vertex -197.729999865891 25.1000001840294 -165.349999284744
      endloop
   endfacet
   facet normal 0 1 0
      outer loop
         vertex -197.729999865891 25.1000001840294 -165.349999284744
         vertex -186.454999926986 25.1000001840294 -172.69999704361
         vertex -197.729999865891 25.1000001840294 -172.69999704361
      endloop
   endfacet
   facet normal -1 0 7.00456327899312E-15
      outer loop
         vertex -186.454999926986 41.330000832677 -172.69999704361
         vertex -186.454999926986 25.1000001840294 -172.69999704361
         vertex -186.454999926985 41.3300008326769 -156.850000685454
      endloop
   endfacet
   facet normal -1 0 7.00456327899312E-15
      outer loop
         vertex -186.454999926986 25.1000001840294 -172.69999704361
         vertex -186.454999926985 25.1000001840294 -156.850000685454
         vertex -186.454999926985 41.3300008326769 -156.850000685454
      endloop
   endfacet
   facet normal -0.707106726307833 0.707106836065258 5.26253472056412E-15
      outer loop
         vertex -180.454999874832 47.3299999535084 -172.69999704361
         vertex -186.454999926986 41.330000832677 -172.69999704361
         vertex -180.454999874831 47.3299999535084 -156.850000685454
      endloop
   endfacet
   facet normal -0.707106726307833 0.707106836065258 5.26253472056412E-15
      outer loop
         vertex -186.454999926986 41.330000832677 -172.69999704361
         vertex -186.454999926985 41.3300008326769 -156.850000685454
         vertex -180.454999874831 47.3299999535084 -156.850000685454
      endloop
   endfacet
   facet normal 2.43832385869647E-30 1 4.37785204937071E-16
      outer loop
         vertex -165.505000125171 47.3299999535084 -172.69999704361
         vertex -180.454999874832 47.3299999535084 -172.69999704361
         vertex -165.505000125171 47.3299999535084 -156.850000685454
      endloop
   endfacet
   facet normal 3.25109847826195E-30 1 4.3778520493707E-16
      outer loop
         vertex -180.454999874832 47.3299999535084 -172.69999704361
         vertex -180.454999874831 47.3299999535084 -156.850000685454
         vertex -165.505000125171 47.3299999535084 -156.850000685454
      endloop
   endfacet
   facet normal 0.707106726307833 0.707106836065258 -4.64341289828565E-15
      outer loop
         vertex -159.505000073017 41.330000832677 -172.69999704361
         vertex -165.505000125171 47.3299999535084 -172.69999704361
         vertex -159.505000073017 41.3300008326769 -156.850000685454
      endloop
   endfacet
   facet normal 0.707106726307833 0.707106836065258 -4.64341289828566E-15
      outer loop
         vertex -165.505000125171 47.3299999535084 -172.69999704361
         vertex -165.505000125171 47.3299999535084 -156.850000685454
         vertex -159.505000073017 41.3300008326769 -156.850000685454
      endloop
   endfacet
   facet normal 7.38507559184711E-15 0 1
      outer loop
         vertex -159.505000073017 25.1000001840294 -172.69999704361
         vertex -148.230000134112 25.1000001840294 -172.69999704361
         vertex -159.505000073017 41.330000832677 -172.69999704361
      endloop
   endfacet
   facet normal 7.38507559184711E-15 0 1
      outer loop
         vertex -148.230000134112 25.1000001840294 -172.69999704361
         vertex -148.230000134112 40.8999998867512 -172.69999704361
         vertex -159.505000073017 41.330000832677 -172.69999704361
      endloop
   endfacet
   facet normal 7.31105820112217E-15 -1.94080055825236E-15 1
      outer loop
         vertex -159.505000073017 41.330000832677 -172.69999704361
         vertex -148.230000134112 40.8999998867512 -172.69999704361
         vertex -165.505000125171 47.3299999535084 -172.69999704361
      endloop
   endfacet
   facet normal 1.03916678414524E-14 6.33564282536346E-15 1
      outer loop
         vertex -148.230000134112 40.8999998867512 -172.69999704361
         vertex -161.729999552966 49.899999499321 -172.69999704361
         vertex -165.505000125171 47.3299999535084 -172.69999704361
      endloop
   endfacet
   facet normal 5.56968081880922E-15 1.34185249213155E-14 1
      outer loop
         vertex -165.505000125171 47.3299999535084 -172.69999704361
         vertex -161.729999552966 49.899999499321 -172.69999704361
         vertex -180.454999874832 47.3299999535084 -172.69999704361
      endloop
   endfacet
   facet normal 7.40148653672573E-15 7.20001277730825E-17 1
      outer loop
         vertex -161.729999552966 49.899999499321 -172.69999704361
         vertex -184.230000447036 49.899999499321 -172.69999704361
         vertex -180.454999874832 47.3299999535084 -172.69999704361
      endloop
   endfacet
   facet normal 6.24810248207763E-15 -1.62217350481078E-15 1
      outer loop
         vertex -180.454999874832 47.3299999535084 -172.69999704361
         vertex -184.230000447036 49.899999499321 -172.69999704361
         vertex -186.454999926986 41.330000832677 -172.69999704361
      endloop
   endfacet
   facet normal 9.94524048812513E-15 -2.58204881643418E-15 1
      outer loop
         vertex -184.230000447036 49.899999499321 -172.69999704361
         vertex -197.729999865891 40.8999998867512 -172.69999704361
         vertex -186.454999926986 41.330000832677 -172.69999704361
      endloop
   endfacet
   facet normal 9.84676745579615E-15 0 1
      outer loop
         vertex -186.454999926986 41.330000832677 -172.69999704361
         vertex -197.729999865891 40.8999998867512 -172.69999704361
         vertex -186.454999926986 25.1000001840294 -172.69999704361
      endloop
   endfacet
   facet normal 7.38507559184711E-15 -1.75668203404127E-15 1
      outer loop
         vertex -197.729999865891 40.8999998867512 -172.69999704361
         vertex -197.729999865891 25.1000001840294 -172.69999704361
         vertex -186.454999926986 25.1000001840294 -172.69999704361
      endloop
   endfacet
   facet normal 1 0 -7.00456327899312E-15
      outer loop
         vertex -159.505000073017 41.3300008326769 -156.850000685454
         vertex -159.505000073017 25.1000001840294 -156.850000685454
         vertex -159.505000073017 41.330000832677 -172.69999704361
      endloop
   endfacet
   facet normal 1 0 -7.00456327899312E-15
      outer loop
         vertex -159.505000073017 25.1000001840294 -156.850000685454
         vertex -159.505000073017 25.1000001840294 -172.69999704361
         vertex -159.505000073017 41.330000832677 -172.69999704361
      endloop
   endfacet
   facet normal 1.00020111160318E-14 0 1
      outer loop
         vertex -156.730000596048 21.5999999595807 -156.850000685454
         vertex -156.730000596048 25.1000001840294 -156.850000685454
         vertex -159.505000073017 25.1000001840294 -156.850000685454
      endloop
   endfacet
   facet normal 6.17934896460677E-15 0 1
      outer loop
         vertex -186.454999926985 25.1000001840294 -156.850000685454
         vertex -159.505000073017 25.1000001840294 -156.850000685454
         vertex -159.505000073017 41.3300008326769 -156.850000685454
      endloop
   endfacet
   facet normal 6.83214194060244E-15 -2.5132527827946E-15 1
      outer loop
         vertex -156.730000596048 21.5999999595807 -156.850000685454
         vertex -159.505000073017 25.1000001840294 -156.850000685454
         vertex -189.229999403955 21.5999999595807 -156.850000685453
      endloop
   endfacet
   facet normal 6.17934896460677E-15 3.03082422587715E-15 1
      outer loop
         vertex -159.505000073017 25.1000001840294 -156.850000685454
         vertex -186.454999926985 25.1000001840294 -156.850000685454
         vertex -189.229999403955 21.5999999595807 -156.850000685453
      endloop
   endfacet
   facet normal 1.00020111160318E-14 0 1
      outer loop
         vertex -189.229999403955 21.5999999595807 -156.850000685453
         vertex -186.454999926985 25.1000001840294 -156.850000685454
         vertex -189.229999403955 25.1000001840294 -156.850000685453
      endloop
   endfacet
   facet normal 5.59546741146772E-15 9.69538332898558E-16 1
      outer loop
         vertex -159.505000073017 41.3300008326769 -156.850000685454
         vertex -165.505000125171 47.3299999535084 -156.850000685454
         vertex -186.454999926985 25.1000001840294 -156.850000685454
      endloop
   endfacet
   facet normal 7.42624109174563E-15 -7.55819680449204E-16 1
      outer loop
         vertex -165.505000125171 47.3299999535084 -156.850000685454
         vertex -180.454999874831 47.3299999535084 -156.850000685454
         vertex -186.454999926985 25.1000001840294 -156.850000685454
      endloop
   endfacet
   facet normal 4.62592922906132E-15 0 1
      outer loop
         vertex -186.454999926985 25.1000001840294 -156.850000685454
         vertex -180.454999874831 47.3299999535084 -156.850000685454
         vertex -186.454999926985 41.3300008326769 -156.850000685454
      endloop
   endfacet
   facet normal 1 0 -9.73878636326349E-15
      outer loop
         vertex -148.230000134112 40.8999998867512 -175.550000584126
         vertex -148.230000134112 40.8999998867512 -172.69999704361
         vertex -148.230000134112 21.6100000357256 -175.550000584126
      endloop
   endfacet
   facet normal 1 0 -9.73878636326349E-15
      outer loop
         vertex -148.230000134112 40.8999998867512 -172.69999704361
         vertex -148.230000134112 25.1000001840294 -172.69999704361
         vertex -148.230000134112 21.6100000357256 -175.550000584126
      endloop
   endfacet
   facet normal 1 -2.28644880362681E-15 -6.93889276653407E-15
      outer loop
         vertex -148.230000134112 21.6100000357256 -175.550000584126
         vertex -148.230000134112 25.1000001840294 -172.69999704361
         vertex -148.230000134112 21.6100000357256 -171.549999928475
      endloop
   endfacet
   facet normal 1 -2.48865292580219E-15 -7.55253988537641E-15
      outer loop
         vertex -148.230000134112 25.1000001840294 -172.69999704361
         vertex -148.230000134112 25.1000001840294 -165.349999284745
         vertex -148.230000134112 21.6100000357256 -171.549999928475
      endloop
   endfacet
   facet normal 1 0 -8.9534105593028E-15
      outer loop
         vertex -148.230000134112 21.6100000357256 -171.549999928475
         vertex -148.230000134112 25.1000001840294 -165.349999284745
         vertex -148.230000134112 21.5999999595807 -171.549999928475
      endloop
   endfacet
   facet normal 1 0 -8.9534105593028E-15
      outer loop
         vertex -148.230000134112 25.1000001840294 -165.349999284745
         vertex -148.230000134112 21.5999999595807 -165.349999284745
         vertex -148.230000134112 21.5999999595807 -171.549999928475
      endloop
   endfacet
   facet normal 2.18936624310743E-30 1 2.18892602468535E-16
      outer loop
         vertex -159.505000073017 25.1000001840294 -156.850000685454
         vertex -156.730000596048 25.1000001840294 -156.850000685454
         vertex -159.505000073017 25.1000001840294 -172.69999704361
      endloop
   endfacet
   facet normal 1.86279037894349E-16 1 1.86279078714559E-16
      outer loop
         vertex -156.730000596048 25.1000001840294 -156.850000685454
         vertex -148.230000134112 25.1000001840294 -165.349999284745
         vertex -159.505000073017 25.1000001840294 -172.69999704361
      endloop
   endfacet
   facet normal 3.0771148299363E-16 1 -2.32400324849771E-30
      outer loop
         vertex -159.505000073017 25.1000001840294 -172.69999704361
         vertex -148.230000134112 25.1000001840294 -165.349999284745
         vertex -148.230000134112 25.1000001840294 -172.69999704361
      endloop
   endfacet
   facet normal 0.707106703710719 0 0.707106858662368
      outer loop
         vertex -156.730000596048 21.5999999595807 -156.850000685454
         vertex -148.230000134112 21.5999999595807 -165.349999284745
         vertex -156.730000596048 25.1000001840294 -156.850000685454
      endloop
   endfacet
   facet normal 0.707106703710719 0 0.707106858662368
      outer loop
         vertex -148.230000134112 21.5999999595807 -165.349999284745
         vertex -148.230000134112 25.1000001840294 -165.349999284745
         vertex -156.730000596048 25.1000001840294 -156.850000685454
      endloop
   endfacet
   facet normal -8.25658425376948E-16 1 2.52323424600036E-16
      outer loop
         vertex -155.605000178815 21.5999999595807 -100.599999847263
         vertex -155.605000178815 21.5999999595806 -86.8500003874305
         vertex -146.605000566244 21.5999999595806 -16.1499994158748
      endloop
   endfacet
   facet normal 2.52323286368021E-16 1 2.52323341660821E-16
      outer loop
         vertex -162.480000141562 21.5999999595807 -137.349998420477
         vertex -148.230000134112 21.5999999595807 -165.349999284745
         vertex -156.730000596048 21.5999999595807 -156.850000685454
      endloop
   endfacet
   facet normal 6.57715076102204E-17 1 1.38845787524106E-16
      outer loop
         vertex -146.605000566244 21.5999999595806 -16.1499994158748
         vertex -155.605000178815 21.5999999595806 -86.8500003874305
         vertex -199.354999433756 21.5999999595806 -16.1499994158745
      endloop
   endfacet
   facet normal 0 1 0
      outer loop
         vertex -146.605000566245 21.5999999595807 -175.550000584126
         vertex -148.230000134112 21.5999999595807 -171.549999928475
         vertex -148.230000134112 21.5999999595807 -165.349999284745
      endloop
   endfacet
   facet normal 9.51837285674291E-16 1 -5.76410024600004E-30
      outer loop
         vertex -186.264999877215 21.5999999595807 -86.8500003874303
         vertex -186.264999877215 21.5999999595807 -100.599999847263
         vertex -193.554999973179 21.5999999595807 -122.600000193715
      endloop
   endfacet
   facet normal 2.62388807785231E-16 1 2.52323416054774E-16
      outer loop
         vertex -162.895000274778 21.5999999595807 -122.600000193715
         vertex -148.230000134112 21.5999999595807 -165.349999284745
         vertex -162.895000274778 21.5999999595807 -136.35000011921
      endloop
   endfacet
   facet normal -1.31919329882753E-15 1 -5.47466324750351E-16
      outer loop
         vertex -148.230000134112 21.5999999595807 -165.349999284745
         vertex -162.480000141562 21.5999999595807 -137.349998420477
         vertex -162.895000274778 21.5999999595807 -136.35000011921
      endloop
   endfacet
   facet normal 0 1 0
      outer loop
         vertex -162.895000274778 21.5999999595807 -136.35000011921
         vertex -162.480000141562 21.5999999595807 -137.349998420477
         vertex -193.554999973179 21.5999999595807 -136.350000119209
      endloop
   endfacet
   facet normal 0 1 0
      outer loop
         vertex -162.480000141562 21.5999999595807 -137.349998420477
         vertex -183.47999985844 21.5999999595807 -137.349998420477
         vertex -193.554999973179 21.5999999595807 -136.350000119209
      endloop
   endfacet
   facet normal 2.15225834373119E-17 1 2.1684039895419E-16
      outer loop
         vertex -193.554999973179 21.5999999595807 -136.350000119209
         vertex -183.47999985844 21.5999999595807 -137.349998420477
         vertex -183.47999985844 21.5999999595807 -153.350001043081
      endloop
   endfacet
   facet normal 1.13158740576722E-16 1 2.77907571725554E-16
      outer loop
         vertex -193.554999973179 21.5999999595807 -122.600000193715
         vertex -186.264999877215 21.5999999595807 -100.599999847263
         vertex -162.895000274778 21.5999999595807 -122.600000193715
      endloop
   endfacet
   facet normal 1.14210397497671E-30 1 1.57702131696245E-16
      outer loop
         vertex -186.264999877215 21.5999999595807 -100.599999847263
         vertex -155.605000178815 21.5999999595807 -100.599999847263
         vertex -162.895000274778 21.5999999595807 -122.600000193715
      endloop
   endfacet
   facet normal -6.83740824626425E-18 1 1.59967800150176E-16
      outer loop
         vertex -162.895000274778 21.5999999595807 -122.600000193715
         vertex -155.605000178815 21.5999999595807 -100.599999847263
         vertex -148.230000134112 21.5999999595807 -165.349999284745
      endloop
   endfacet
   facet normal 1.62598469469965E-17 1 1.6259856863763E-16
      outer loop
         vertex -155.605000178815 21.5999999595807 -100.599999847263
         vertex -146.605000566244 21.5999999595806 -16.1499994158748
         vertex -148.230000134112 21.5999999595807 -165.349999284745
      endloop
   endfacet
   facet normal 9.56350190083218E-16 1 1.52359651729485E-16
      outer loop
         vertex -148.230000134112 21.5999999595807 -165.349999284745
         vertex -146.605000566244 21.5999999595806 -16.1499994158748
         vertex -146.605000566245 21.5999999595807 -175.550000584126
      endloop
   endfacet
   facet normal 1.19636112918116E-15 1 -7.24487824680336E-30
      outer loop
         vertex -193.554999973179 21.5999999595807 -136.350000119209
         vertex -199.354999433757 21.5999999595807 -175.550000584126
         vertex -193.554999973179 21.5999999595807 -122.600000193715
      endloop
   endfacet
   facet normal -1.94577555105443E-16 1 1.52359651729493E-16
      outer loop
         vertex -199.354999433757 21.5999999595807 -175.550000584126
         vertex -199.354999433756 21.5999999595806 -16.1499994158745
         vertex -193.554999973179 21.5999999595807 -122.600000193715
      endloop
   endfacet
   facet normal 1.2048523187531E-16 1 1.69526058316469E-16
      outer loop
         vertex -193.554999973179 21.5999999595807 -122.600000193715
         vertex -199.354999433756 21.5999999595806 -16.1499994158745
         vertex -186.264999877215 21.5999999595807 -86.8500003874303
      endloop
   endfacet
   facet normal 1.13158740576721E-16 1 1.68169569398058E-16
      outer loop
         vertex -199.354999433756 21.5999999595806 -16.1499994158745
         vertex -155.605000178815 21.5999999595806 -86.8500003874305
         vertex -186.264999877215 21.5999999595807 -86.8500003874303
      endloop
   endfacet
   facet normal 7.00898377929936E-17 1 2.84739843641084E-17
      outer loop
         vertex -148.230000134112 21.5999999595807 -171.549999928475
         vertex -146.605000566245 21.5999999595807 -175.550000584126
         vertex -197.729999865891 21.5999999595807 -171.549999928474
      endloop
   endfacet
   facet normal 6.57715076102192E-17 1 -2.67196634814372E-17
      outer loop
         vertex -146.605000566245 21.5999999595807 -175.550000584126
         vertex -199.354999433757 21.5999999595807 -175.550000584126
         vertex -197.729999865891 21.5999999595807 -171.549999928474
      endloop
   endfacet
   facet normal 0 1 0
      outer loop
         vertex -197.729999865891 21.5999999595807 -171.549999928474
         vertex -199.354999433757 21.5999999595807 -175.550000584126
         vertex -197.729999865891 21.5999999595807 -165.349999284744
      endloop
   endfacet
   facet normal -1.55896499681685E-14 1 2.48364423865311E-15
      outer loop
         vertex -199.354999433757 21.5999999595807 -175.550000584126
         vertex -193.554999973179 21.5999999595807 -136.350000119209
         vertex -197.729999865891 21.5999999595807 -165.349999284744
      endloop
   endfacet
   facet normal 1.9730285016431E-16 1 2.10867403503482E-16
      outer loop
         vertex -197.729999865891 21.5999999595807 -165.349999284744
         vertex -193.554999973179 21.5999999595807 -136.350000119209
         vertex -189.229999403955 21.5999999595807 -156.850000685453
      endloop
   endfacet
   facet normal -9.12926499668887E-17 1 1.49980785558785E-16
      outer loop
         vertex -193.554999973179 21.5999999595807 -136.350000119209
         vertex -183.47999985844 21.5999999595807 -153.350001043081
         vertex -189.229999403955 21.5999999595807 -156.850000685453
      endloop
   endfacet
   facet normal 0 1 0
      outer loop
         vertex -189.229999403955 21.5999999595807 -156.850000685453
         vertex -183.47999985844 21.5999999595807 -153.350001043081
         vertex -156.730000596048 21.5999999595807 -156.850000685454
      endloop
   endfacet
   facet normal 0 1 0
      outer loop
         vertex -183.47999985844 21.5999999595807 -153.350001043081
         vertex -162.480000141562 21.5999999595807 -153.350001043082
         vertex -156.730000596048 21.5999999595807 -156.850000685454
      endloop
   endfacet
   facet normal 1.31989805005033E-16 1 2.16840398954189E-16
      outer loop
         vertex -156.730000596048 21.5999999595807 -156.850000685454
         vertex -162.480000141562 21.5999999595807 -153.350001043082
         vertex -162.480000141562 21.5999999595807 -137.349998420477
      endloop
   endfacet
   facet normal -7.36640885234457E-15 0 -1
      outer loop
         vertex -146.605000566245 21.5999999595807 -175.550000584126
         vertex -146.605000566245 20.0000000000001 -175.550000584126
         vertex -199.354999433757 21.5999999595807 -175.550000584126
      endloop
   endfacet
   facet normal -7.36640885234457E-15 0 -1
      outer loop
         vertex -146.605000566245 20.0000000000001 -175.550000584126
         vertex -199.354999433757 20.0000000000001 -175.550000584126
         vertex -199.354999433757 21.5999999595807 -175.550000584126
      endloop
   endfacet
   facet normal -1 0 6.96501265049105E-15
      outer loop
         vertex -199.354999433756 21.5999999595806 -16.1499994158745
         vertex -199.354999433757 21.5999999595807 -175.550000584126
         vertex -199.354999433756 20 -16.1499994158745
      endloop
   endfacet
   facet normal -1 0 6.96501265049105E-15
      outer loop
         vertex -199.354999433757 21.5999999595807 -175.550000584126
         vertex -199.354999433757 20.0000000000001 -175.550000584126
         vertex -199.354999433756 20 -16.1499994158745
      endloop
   endfacet
   facet normal 6.84023679146282E-15 0 1
      outer loop
         vertex -146.605000566244 21.5999999595806 -16.1499994158748
         vertex -199.354999433756 21.5999999595806 -16.1499994158745
         vertex -146.605000566244 20 -16.1499994158748
      endloop
   endfacet
   facet normal 6.84023679146282E-15 0 1
      outer loop
         vertex -199.354999433756 21.5999999595806 -16.1499994158745
         vertex -199.354999433756 20 -16.1499994158745
         vertex -146.605000566244 20 -16.1499994158748
      endloop
   endfacet
   facet normal 1 0 -6.96501265049105E-15
      outer loop
         vertex -146.605000566245 21.5999999595807 -175.550000584126
         vertex -146.605000566244 21.5999999595806 -16.1499994158748
         vertex -146.605000566245 20.0000000000001 -175.550000584126
      endloop
   endfacet
   facet normal 1 0 -6.96501265049105E-15
      outer loop
         vertex -146.605000566244 21.5999999595806 -16.1499994158748
         vertex -146.605000566244 20 -16.1499994158748
         vertex -146.605000566245 20.0000000000001 -175.550000584126
      endloop
   endfacet
   facet normal -6.57715076102205E-17 -1 -1.52359651729491E-16
      outer loop
         vertex -146.605000566245 20.0000000000001 -175.550000584126
         vertex -146.605000566244 20 -16.1499994158748
         vertex -199.354999433757 20.0000000000001 -175.550000584126
      endloop
   endfacet
   facet normal -6.57715076102205E-17 -1 -1.52359651729491E-16
      outer loop
         vertex -146.605000566244 20 -16.1499994158748
         vertex -199.354999433756 20 -16.1499994158745
         vertex -199.354999433757 20.0000000000001 -175.550000584126
      endloop
   endfacet
   facet normal -1 0 6.05576219040074E-15
      outer loop
         vertex -186.264999877215 50.6000001728535 -86.8500003874303
         vertex -186.264999877215 50.6000001728535 -100.599999847263
         vertex -186.264999877215 21.5999999595807 -86.8500003874303
      endloop
   endfacet
   facet normal -1 0 6.05576219040074E-15
      outer loop
         vertex -186.264999877215 50.6000001728535 -100.599999847263
         vertex -186.264999877215 21.5999999595807 -100.599999847263
         vertex -186.264999877215 21.5999999595807 -86.8500003874303
      endloop
   endfacet
   facet normal 6.7895244346032E-15 -4.78544403646687E-16 1
      outer loop
         vertex -155.605000178815 50.6000001728535 -86.8500003874305
         vertex -186.264999877215 50.6000001728535 -86.8500003874303
         vertex -155.605000178815 21.5999999595806 -86.8500003874305
      endloop
   endfacet
   facet normal 7.24215939691008E-15 0 1
      outer loop
         vertex -186.264999877215 50.6000001728535 -86.8500003874303
         vertex -186.264999877215 21.5999999595807 -86.8500003874303
         vertex -155.605000178815 21.5999999595806 -86.8500003874305
      endloop
   endfacet
   facet normal 1 2.89795110603148E-30 -6.05576219040074E-15
      outer loop
         vertex -155.605000178815 50.6000001728535 -100.599999847263
         vertex -155.605000178815 50.6000001728535 -86.8500003874305
         vertex -155.605000178815 21.5999999595807 -100.599999847263
      endloop
   endfacet
   facet normal 1 2.89795110603148E-30 -6.05576219040074E-15
      outer loop
         vertex -155.605000178815 50.6000001728535 -86.8500003874305
         vertex -155.605000178815 21.5999999595806 -86.8500003874305
         vertex -155.605000178815 21.5999999595807 -100.599999847263
      endloop
   endfacet
   facet normal -6.7895244346032E-15 0 -1
      outer loop
         vertex -186.264999877215 50.6000001728535 -100.599999847263
         vertex -155.605000178815 50.6000001728535 -100.599999847263
         vertex -186.264999877215 21.5999999595807 -100.599999847263
      endloop
   endfacet
   facet normal -7.24215939691008E-15 4.78544403646687E-16 -1
      outer loop
         vertex -155.605000178815 50.6000001728535 -100.599999847263
         vertex -155.605000178815 21.5999999595807 -100.599999847263
         vertex -186.264999877215 21.5999999595807 -100.599999847263
      endloop
   endfacet
   facet normal 0 1 0
      outer loop
         vertex -155.605000178815 50.6000001728535 -86.8500003874305
         vertex -155.605000178815 50.6000001728535 -100.599999847263
         vertex -186.264999877215 50.6000001728535 -86.8500003874303
      endloop
   endfacet
   facet normal 0 1 0
      outer loop
         vertex -155.605000178815 50.6000001728535 -100.599999847263
         vertex -186.264999877215 50.6000001728535 -100.599999847263
         vertex -186.264999877215 50.6000001728535 -86.8500003874303
      endloop
   endfacet
   facet normal -1 9.5708880729337E-16 8.07434931375283E-15
      outer loop
         vertex -193.554999973179 50.6000001728535 -122.600000193715
         vertex -193.554999973179 50.6000001728535 -136.350000119209
         vertex -193.554999973179 21.5999999595807 -122.600000193715
      endloop
   endfacet
   facet normal -1 0 6.05576198531463E-15
      outer loop
         vertex -193.554999973179 50.6000001728535 -136.350000119209
         vertex -193.554999973179 21.5999999595807 -136.350000119209
         vertex -193.554999973179 21.5999999595807 -122.600000193715
      endloop
   endfacet
   facet normal 7.24215939691008E-15 0 1
      outer loop
         vertex -162.895000274778 50.6000001728535 -122.600000193715
         vertex -193.554999973179 50.6000001728535 -122.600000193715
         vertex -162.895000274778 21.5999999595807 -122.600000193715
      endloop
   endfacet
   facet normal 6.7895244346032E-15 -4.78544403646693E-16 1
      outer loop
         vertex -193.554999973179 50.6000001728535 -122.600000193715
         vertex -193.554999973179 21.5999999595807 -122.600000193715
         vertex -162.895000274778 21.5999999595807 -122.600000193715
      endloop
   endfacet
   facet normal 1 5.79590201577734E-30 -6.05576198531464E-15
      outer loop
         vertex -162.895000274778 50.6000001728535 -136.35000011921
         vertex -162.895000274778 50.6000001728535 -122.600000193715
         vertex -162.895000274778 21.5999999595807 -136.35000011921
      endloop
   endfacet
   facet normal 1 0 -6.05576198531462E-15
      outer loop
         vertex -162.895000274778 50.6000001728535 -122.600000193715
         vertex -162.895000274778 21.5999999595807 -122.600000193715
         vertex -162.895000274778 21.5999999595807 -136.35000011921
      endloop
   endfacet
   facet normal -6.33688947229632E-15 0 -1
      outer loop
         vertex -193.554999973179 50.6000001728535 -136.350000119209
         vertex -162.895000274778 50.6000001728535 -136.35000011921
         vertex -193.554999973179 21.5999999595807 -136.350000119209
      endloop
   endfacet
   facet normal -7.24215939691008E-15 9.57088807293374E-16 -1
      outer loop
         vertex -162.895000274778 50.6000001728535 -136.35000011921
         vertex -162.895000274778 21.5999999595807 -136.35000011921
         vertex -193.554999973179 21.5999999595807 -136.350000119209
      endloop
   endfacet
   facet normal 0 1 0
      outer loop
         vertex -162.895000274778 50.6000001728535 -122.600000193715
         vertex -162.895000274778 50.6000001728535 -136.35000011921
         vertex -193.554999973179 50.6000001728535 -122.600000193715
      endloop
   endfacet
   facet normal 0 1 0
      outer loop
         vertex -162.895000274778 50.6000001728535 -136.35000011921
         vertex -193.554999973179 50.6000001728535 -136.350000119209
         vertex -193.554999973179 50.6000001728535 -122.600000193715
      endloop
   endfacet
   facet normal -1 0 6.93889276653407E-15
      outer loop
         vertex -183.47999985844 50.6000001728535 -137.349998420477
         vertex -183.47999985844 50.6000001728535 -153.350001043081
         vertex -183.47999985844 21.5999999595807 -137.349998420477
      endloop
   endfacet
   facet normal -1 0 6.93889276653407E-15
      outer loop
         vertex -183.47999985844 50.6000001728535 -153.350001043081
         vertex -183.47999985844 21.5999999595807 -153.350001043081
         vertex -183.47999985844 21.5999999595807 -137.349998420477
      endloop
   endfacet
   facet normal 7.93016456852276E-15 0 1
      outer loop
         vertex -162.480000141562 50.6000001728535 -137.349998420477
         vertex -183.47999985844 50.6000001728535 -137.349998420477
         vertex -162.480000141562 21.5999999595807 -137.349998420477
      endloop
   endfacet
   facet normal 7.93016456852276E-15 0 1
      outer loop
         vertex -183.47999985844 50.6000001728535 -137.349998420477
         vertex -183.47999985844 21.5999999595807 -137.349998420477
         vertex -162.480000141562 21.5999999595807 -137.349998420477
      endloop
   endfacet
   facet normal 1 0 -6.93889276653407E-15
      outer loop
         vertex -162.480000141562 50.6000001728535 -153.350001043082
         vertex -162.480000141562 50.6000001728535 -137.349998420477
         vertex -162.480000141562 21.5999999595807 -153.350001043082
      endloop
   endfacet
   facet normal 1 0 -6.93889276653407E-15
      outer loop
         vertex -162.480000141562 50.6000001728535 -137.349998420477
         vertex -162.480000141562 21.5999999595807 -137.349998420477
         vertex -162.480000141562 21.5999999595807 -153.350001043082
      endloop
   endfacet
   facet normal -7.93016456852276E-15 0 -1
      outer loop
         vertex -183.47999985844 50.6000001728535 -153.350001043081
         vertex -162.480000141562 50.6000001728535 -153.350001043082
         vertex -183.47999985844 21.5999999595807 -153.350001043081
      endloop
   endfacet
   facet normal -7.93016456852276E-15 0 -1
      outer loop
         vertex -162.480000141562 50.6000001728535 -153.350001043082
         vertex -162.480000141562 21.5999999595807 -153.350001043082
         vertex -183.47999985844 21.5999999595807 -153.350001043081
      endloop
   endfacet
   facet normal 0 1 0
      outer loop
         vertex -162.480000141562 50.6000001728535 -137.349998420477
         vertex -162.480000141562 50.6000001728535 -153.350001043082
         vertex -183.47999985844 50.6000001728535 -137.349998420477
      endloop
   endfacet
   facet normal 0 1 0
      outer loop
         vertex -162.480000141562 50.6000001728535 -153.350001043082
         vertex -183.47999985844 50.6000001728535 -153.350001043081
         vertex -183.47999985844 50.6000001728535 -137.349998420477
      endloop
   endfacet
endsolid MINI_BOARD
