solid Motherboard
   facet normal 0 1 0
      outer loop
         vertex 66.4999986076355 11.5999999595806 -109.839998185635
         vertex 66.4999986076355 11.5999999595806 109.839998185635
         vertex 196.330001392365 11.5999999595806 -109.839998185635
      endloop
   endfacet
   facet normal 0 1 0
      outer loop
         vertex 66.4999986076355 11.5999999595806 109.839998185635
         vertex 196.330001392365 11.5999999595806 109.839998185635
         vertex 196.330001392365 11.5999999595806 -109.839998185635
      endloop
   endfacet
   facet normal 0 0 1
      outer loop
         vertex 196.330001392365 11.5999999595806 109.839998185635
         vertex 66.4999986076355 11.5999999595806 109.839998185635
         vertex 196.330001392365 10 109.839998185635
      endloop
   endfacet
   facet normal 0 0 1
      outer loop
         vertex 66.4999986076355 11.5999999595806 109.839998185635
         vertex 66.4999986076355 10 109.839998185635
         vertex 196.330001392365 10 109.839998185635
      endloop
   endfacet
   facet normal 0 -1 0
      outer loop
         vertex 66.4999986076355 10 109.839998185635
         vertex 66.4999986076355 10 -109.839998185635
         vertex 196.330001392365 10 109.839998185635
      endloop
   endfacet
   facet normal 0 -1 0
      outer loop
         vertex 66.4999986076355 10 -109.839998185635
         vertex 196.330001392365 10 -109.839998185635
         vertex 196.330001392365 10 109.839998185635
      endloop
   endfacet
   facet normal -1 0 0
      outer loop
         vertex 66.4999986076355 11.5999999595806 109.839998185635
         vertex 66.4999986076355 11.5999999595806 -109.839998185635
         vertex 66.4999986076355 10 109.839998185635
      endloop
   endfacet
   facet normal -1 0 0
      outer loop
         vertex 66.4999986076355 11.5999999595806 -109.839998185635
         vertex 66.4999986076355 10 -109.839998185635
         vertex 66.4999986076355 10 109.839998185635
      endloop
   endfacet
   facet normal 0 0 -1
      outer loop
         vertex 66.4999986076355 11.5999999595806 -109.839998185635
         vertex 196.330001392365 11.5999999595806 -109.839998185635
         vertex 66.4999986076355 10 -109.839998185635
      endloop
   endfacet
   facet normal 0 0 -1
      outer loop
         vertex 196.330001392365 11.5999999595806 -109.839998185635
         vertex 196.330001392365 10 -109.839998185635
         vertex 66.4999986076355 10 -109.839998185635
      endloop
   endfacet
   facet normal 1 0 0
      outer loop
         vertex 196.330001392365 11.5999999595806 -109.839998185635
         vertex 196.330001392365 11.5999999595806 109.839998185635
         vertex 196.330001392365 10 -109.839998185635
      endloop
   endfacet
   facet normal 1 0 0
      outer loop
         vertex 196.330001392365 11.5999999595806 109.839998185635
         vertex 196.330001392365 10 109.839998185635
         vertex 196.330001392365 10 -109.839998185635
      endloop
   endfacet
endsolid Motherboard
