solid SMALL_chip3
   facet normal 0 1 0
      outer loop
         vertex -58.0699997735022 13.1999999191611 -96.040000575781
         vertex -58.0699997735022 13.1999999191611 -76.2400006830693
         vertex -42.3699999009071 13.1999999191611 -96.040000575781
      endloop
   endfacet
   facet normal 0 1 0
      outer loop
         vertex -58.0699997735022 13.1999999191611 -76.2400006830693
         vertex -42.3699999009071 13.1999999191611 -76.2400006830693
         vertex -42.3699999009071 13.1999999191611 -96.040000575781
      endloop
   endfacet
   facet normal -1 0 0
      outer loop
         vertex -58.0699997735022 13.1999999191611 -76.2400006830693
         vertex -58.0699997735022 13.1999999191611 -96.040000575781
         vertex -58.0699997735022 11.5999999595805 -76.2400006830693
      endloop
   endfacet
   facet normal -1 0 0
      outer loop
         vertex -58.0699997735022 13.1999999191611 -96.040000575781
         vertex -58.0699997735022 11.5999999595805 -96.040000575781
         vertex -58.0699997735022 11.5999999595805 -76.2400006830693
      endloop
   endfacet
   facet normal 0 0 1
      outer loop
         vertex -42.3699999009071 13.1999999191611 -76.2400006830693
         vertex -58.0699997735022 13.1999999191611 -76.2400006830693
         vertex -42.3699999009071 11.5999999595805 -76.2400006830693
      endloop
   endfacet
   facet normal 0 0 1
      outer loop
         vertex -58.0699997735022 13.1999999191611 -76.2400006830693
         vertex -58.0699997735022 11.5999999595805 -76.2400006830693
         vertex -42.3699999009071 11.5999999595805 -76.2400006830693
      endloop
   endfacet
   facet normal 1 0 0
      outer loop
         vertex -42.3699999009071 13.1999999191611 -96.040000575781
         vertex -42.3699999009071 13.1999999191611 -76.2400006830693
         vertex -42.3699999009071 11.5999999595805 -96.040000575781
      endloop
   endfacet
   facet normal 1 0 0
      outer loop
         vertex -42.3699999009071 13.1999999191611 -76.2400006830693
         vertex -42.3699999009071 11.5999999595805 -76.2400006830693
         vertex -42.3699999009071 11.5999999595805 -96.040000575781
      endloop
   endfacet
   facet normal 0 0 -1
      outer loop
         vertex -58.0699997735022 13.1999999191611 -96.040000575781
         vertex -42.3699999009071 13.1999999191611 -96.040000575781
         vertex -58.0699997735022 11.5999999595805 -96.040000575781
      endloop
   endfacet
   facet normal 0 0 -1
      outer loop
         vertex -42.3699999009071 13.1999999191611 -96.040000575781
         vertex -42.3699999009071 11.5999999595805 -96.040000575781
         vertex -58.0699997735022 11.5999999595805 -96.040000575781
      endloop
   endfacet
   facet normal 0 -1 0
      outer loop
         vertex -58.0699997735022 11.5999999595805 -76.2400006830693
         vertex -58.0699997735022 11.5999999595805 -96.040000575781
         vertex -42.3699999009071 11.5999999595805 -76.2400006830693
      endloop
   endfacet
   facet normal 0 -1 0
      outer loop
         vertex -58.0699997735022 11.5999999595805 -96.040000575781
         vertex -42.3699999009071 11.5999999595805 -96.040000575781
         vertex -42.3699999009071 11.5999999595805 -76.2400006830693
      endloop
   endfacet
endsolid SMALL_chip3
