solid SMALL_PCB
   facet normal 0 -1 0
      outer loop
         vertex -129.369999725818 9.99999999999991 36.4899994850158
         vertex -129.369999725818 9.99999999999991 -109.839999485016
         vertex 34.3299997258188 9.99999999999991 36.4899994850158
      endloop
   endfacet
   facet normal 0 -1 0
      outer loop
         vertex -129.369999725818 9.99999999999991 -109.839999485016
         vertex 34.3299997258188 9.99999999999991 -109.839999485016
         vertex 34.3299997258188 9.99999999999991 36.4899994850158
      endloop
   endfacet
   facet normal 0 0 1
      outer loop
         vertex 34.3299997258188 11.5999999595805 36.4899994850158
         vertex -129.369999725818 11.5999999595805 36.4899994850158
         vertex 34.3299997258188 9.99999999999991 36.4899994850158
      endloop
   endfacet
   facet normal 0 0 1
      outer loop
         vertex -129.369999725818 11.5999999595805 36.4899994850158
         vertex -129.369999725818 9.99999999999991 36.4899994850158
         vertex 34.3299997258188 9.99999999999991 36.4899994850158
      endloop
   endfacet
   facet normal -1 0 0
      outer loop
         vertex -129.369999725818 11.5999999595805 36.4899994850158
         vertex -129.369999725818 11.5999999595805 -109.839999485016
         vertex -129.369999725818 9.99999999999991 36.4899994850158
      endloop
   endfacet
   facet normal -1 0 0
      outer loop
         vertex -129.369999725818 11.5999999595805 -109.839999485016
         vertex -129.369999725818 9.99999999999991 -109.839999485016
         vertex -129.369999725818 9.99999999999991 36.4899994850158
      endloop
   endfacet
   facet normal 0 0 -1
      outer loop
         vertex -129.369999725818 11.5999999595805 -109.839999485016
         vertex 34.3299997258188 11.5999999595805 -109.839999485016
         vertex -129.369999725818 9.99999999999991 -109.839999485016
      endloop
   endfacet
   facet normal 0 0 -1
      outer loop
         vertex 34.3299997258188 11.5999999595805 -109.839999485016
         vertex 34.3299997258188 9.99999999999991 -109.839999485016
         vertex -129.369999725818 9.99999999999991 -109.839999485016
      endloop
   endfacet
   facet normal 1 0 0
      outer loop
         vertex 34.3299997258188 11.5999999595805 -109.839999485016
         vertex 34.3299997258188 11.5999999595805 36.4899994850158
         vertex 34.3299997258188 9.99999999999991 -109.839999485016
      endloop
   endfacet
   facet normal 1 0 0
      outer loop
         vertex 34.3299997258188 11.5999999595805 36.4899994850158
         vertex 34.3299997258188 9.99999999999991 36.4899994850158
         vertex 34.3299997258188 9.99999999999991 -109.839999485016
      endloop
   endfacet
   facet normal 0 1 0
      outer loop
         vertex -129.369999725818 11.5999999595805 -109.839999485016
         vertex -129.369999725818 11.5999999595805 36.4899994850158
         vertex 34.3299997258188 11.5999999595805 -109.839999485016
      endloop
   endfacet
   facet normal 0 1 0
      outer loop
         vertex -129.369999725818 11.5999999595805 36.4899994850158
         vertex 34.3299997258188 11.5999999595805 36.4899994850158
         vertex 34.3299997258188 11.5999999595805 -109.839999485016
      endloop
   endfacet
endsolid SMALL_PCB
