solid SMALL_chip1
   facet normal 0 1 0
      outer loop
         vertex -88.7700016391276 13.1999999191611 -62.3100003182889
         vertex -88.7700016391276 13.1999999191611 -44.5099998220802
         vertex -65.5700000715254 13.1999999191611 -62.3100003182889
      endloop
   endfacet
   facet normal 0 1 0
      outer loop
         vertex -88.7700016391276 13.1999999191611 -44.5099998220802
         vertex -65.5700000715254 13.1999999191611 -44.5099998220802
         vertex -65.5700000715254 13.1999999191611 -62.3100003182889
      endloop
   endfacet
   facet normal -1 0 0
      outer loop
         vertex -88.7700016391276 13.1999999191611 -44.5099998220802
         vertex -88.7700016391276 13.1999999191611 -62.3100003182889
         vertex -88.7700016391276 11.5999999595805 -44.5099998220802
      endloop
   endfacet
   facet normal -1 0 0
      outer loop
         vertex -88.7700016391276 13.1999999191611 -62.3100003182889
         vertex -88.7700016391276 11.5999999595805 -62.3100003182889
         vertex -88.7700016391276 11.5999999595805 -44.5099998220802
      endloop
   endfacet
   facet normal 0 0 1
      outer loop
         vertex -65.5700000715254 13.1999999191611 -44.5099998220802
         vertex -88.7700016391276 13.1999999191611 -44.5099998220802
         vertex -65.5700000715254 11.5999999595805 -44.5099998220802
      endloop
   endfacet
   facet normal 0 0 1
      outer loop
         vertex -88.7700016391276 13.1999999191611 -44.5099998220802
         vertex -88.7700016391276 11.5999999595805 -44.5099998220802
         vertex -65.5700000715254 11.5999999595805 -44.5099998220802
      endloop
   endfacet
   facet normal 1 0 0
      outer loop
         vertex -65.5700000715254 13.1999999191611 -62.3100003182889
         vertex -65.5700000715254 13.1999999191611 -44.5099998220802
         vertex -65.5700000715254 11.5999999595805 -62.3100003182889
      endloop
   endfacet
   facet normal 1 0 0
      outer loop
         vertex -65.5700000715254 13.1999999191611 -44.5099998220802
         vertex -65.5700000715254 11.5999999595805 -44.5099998220802
         vertex -65.5700000715254 11.5999999595805 -62.3100003182889
      endloop
   endfacet
   facet normal 0 0 -1
      outer loop
         vertex -88.7700016391276 13.1999999191611 -62.3100003182889
         vertex -65.5700000715254 13.1999999191611 -62.3100003182889
         vertex -88.7700016391276 11.5999999595805 -62.3100003182889
      endloop
   endfacet
   facet normal 0 0 -1
      outer loop
         vertex -65.5700000715254 13.1999999191611 -62.3100003182889
         vertex -65.5700000715254 11.5999999595805 -62.3100003182889
         vertex -88.7700016391276 11.5999999595805 -62.3100003182889
      endloop
   endfacet
   facet normal 0 -1 0
      outer loop
         vertex -88.7700016391276 11.5999999595805 -44.5099998220802
         vertex -88.7700016391276 11.5999999595805 -62.3100003182889
         vertex -65.5700000715254 11.5999999595805 -44.5099998220802
      endloop
   endfacet
   facet normal 0 -1 0
      outer loop
         vertex -88.7700016391276 11.5999999595805 -62.3100003182889
         vertex -65.5700000715254 11.5999999595805 -62.3100003182889
         vertex -65.5700000715254 11.5999999595805 -44.5099998220802
      endloop
   endfacet
endsolid SMALL_chip1
