solid SMALL_chip2
   facet normal 0 1 0
      outer loop
         vertex -32.3083293405174 13.1999999191611 24.723111283779
         vertex -28.1727774780987 13.1999999191611 27.1107764959334
         vertex -23.4700008076428 13.1999999191611 14.1899982511996
      endloop
   endfacet
   facet normal 0 1 0
      outer loop
         vertex -28.1727774780987 13.1999999191611 27.1107764959334
         vertex -23.4700008076428 13.1999999191611 27.9399963140487
         vertex -23.4700008076428 13.1999999191611 14.1899982511996
      endloop
   endfacet
   facet normal 0 1 0
      outer loop
         vertex -23.4700008076428 13.1999999191611 14.1899982511996
         vertex -23.4700008076428 13.1999999191611 27.9399963140487
         vertex -18.7672222745417 13.1999999191611 27.1107764959334
      endloop
   endfacet
   facet normal 0 1 0
      outer loop
         vertex -37.0111069422959 13.1999999191611 11.8023367643355
         vertex -37.0111069422959 13.1999999191611 16.577663463354
         vertex -23.4700008076428 13.1999999191611 14.1899982511996
      endloop
   endfacet
   facet normal 0 1 0
      outer loop
         vertex -37.0111069422959 13.1999999191611 16.577663463354
         vertex -35.3778493371604 13.1999999191611 21.0649991452693
         vertex -23.4700008076428 13.1999999191611 14.1899982511996
      endloop
   endfacet
   facet normal 0 1 0
      outer loop
         vertex -23.4700008076428 13.1999999191611 14.1899982511996
         vertex -35.3778493371604 13.1999999191611 21.0649991452693
         vertex -32.3083293405174 13.1999999191611 24.723111283779
      endloop
   endfacet
   facet normal 0 1 0
      outer loop
         vertex -28.1727774780987 13.1999999191611 1.26922745704641
         vertex -32.3083293405174 13.1999999191611 3.6568889439105
         vertex -23.4700008076428 13.1999999191611 14.1899982511996
      endloop
   endfacet
   facet normal 0 1 0
      outer loop
         vertex -32.3083293405174 13.1999999191611 3.6568889439105
         vertex -35.3778493371604 13.1999999191611 7.31500108242025
         vertex -23.4700008076428 13.1999999191611 14.1899982511996
      endloop
   endfacet
   facet normal 0 1 0
      outer loop
         vertex -23.4700008076428 13.1999999191611 14.1899982511996
         vertex -35.3778493371604 13.1999999191611 7.31500108242025
         vertex -37.0111069422959 13.1999999191611 11.8023367643355
      endloop
   endfacet
   facet normal 0 1 0
      outer loop
         vertex -14.6316694808005 13.1999999191611 3.6568889439105
         vertex -18.7672222745417 13.1999999191611 1.26922745704641
         vertex -23.4700008076428 13.1999999191611 14.1899982511996
      endloop
   endfacet
   facet normal 0 1 0
      outer loop
         vertex -18.7672222745417 13.1999999191611 1.26922745704641
         vertex -23.4700008076428 13.1999999191611 0.440000188350581
         vertex -23.4700008076428 13.1999999191611 14.1899982511996
      endloop
   endfacet
   facet normal 0 1 0
      outer loop
         vertex -23.4700008076428 13.1999999191611 14.1899982511996
         vertex -23.4700008076428 13.1999999191611 0.440000188350581
         vertex -28.1727774780987 13.1999999191611 1.26922745704641
      endloop
   endfacet
   facet normal 0 1 0
      outer loop
         vertex -9.92889281034454 13.1999999191611 16.577663463354
         vertex -9.92889281034454 13.1999999191611 11.8023367643355
         vertex -23.4700008076428 13.1999999191611 14.1899982511996
      endloop
   endfacet
   facet normal 0 1 0
      outer loop
         vertex -9.92889281034454 13.1999999191611 11.8023367643355
         vertex -11.5621494841574 13.1999999191611 7.31500108242025
         vertex -23.4700008076428 13.1999999191611 14.1899982511996
      endloop
   endfacet
   facet normal 0 1 0
      outer loop
         vertex -23.4700008076428 13.1999999191611 14.1899982511996
         vertex -11.5621494841574 13.1999999191611 7.31500108242025
         vertex -14.6316694808005 13.1999999191611 3.6568889439105
      endloop
   endfacet
   facet normal 0 1 0
      outer loop
         vertex -18.7672222745417 13.1999999191611 27.1107764959334
         vertex -14.6316694808005 13.1999999191611 24.723111283779
         vertex -23.4700008076428 13.1999999191611 14.1899982511996
      endloop
   endfacet
   facet normal 0 1 0
      outer loop
         vertex -14.6316694808005 13.1999999191611 24.723111283779
         vertex -11.5621494841574 13.1999999191611 21.0649991452693
         vertex -23.4700008076428 13.1999999191611 14.1899982511996
      endloop
   endfacet
   facet normal 0 1 0
      outer loop
         vertex -23.4700008076428 13.1999999191611 14.1899982511996
         vertex -11.5621494841574 13.1999999191611 21.0649991452693
         vertex -9.92889281034454 13.1999999191611 16.577663463354
      endloop
   endfacet
   facet normal 0.173648285107084 0 -0.984807734067604
      outer loop
         vertex -23.4700008076428 11.5999999595805 0.440000188350581
         vertex -23.4700008076428 13.1999999191611 0.440000188350581
         vertex -18.7672222745417 13.1999999191611 1.26922745704641
      endloop
   endfacet
   facet normal 0.173648285107084 0 -0.984807734067604
      outer loop
         vertex -23.4700008076428 11.5999999595805 0.440000188350581
         vertex -18.7672222745417 13.1999999191611 1.26922745704641
         vertex -18.7672222745417 11.5999999595805 1.26922745704641
      endloop
   endfacet
   facet normal 0.499999837940275 0 -0.866025497349644
      outer loop
         vertex -18.7672222745417 13.1999999191611 1.26922745704641
         vertex -14.6316694808005 13.1999999191611 3.6568889439105
         vertex -18.7672222745417 11.5999999595805 1.26922745704641
      endloop
   endfacet
   facet normal 0.499999837940275 0 -0.866025497349644
      outer loop
         vertex -18.7672222745417 11.5999999595805 1.26922745704641
         vertex -14.6316694808005 13.1999999191611 3.6568889439105
         vertex -14.6316694808005 11.5999999595805 3.6568889439105
      endloop
   endfacet
   facet normal 0.76604449978905 0 -0.642787542149771
      outer loop
         vertex -14.6316694808005 13.1999999191611 3.6568889439105
         vertex -11.5621494841574 13.1999999191611 7.31500108242025
         vertex -14.6316694808005 11.5999999595805 3.6568889439105
      endloop
   endfacet
   facet normal 0.76604449978905 0 -0.642787542149771
      outer loop
         vertex -14.6316694808005 11.5999999595805 3.6568889439105
         vertex -11.5621494841574 13.1999999191611 7.31500108242025
         vertex -11.5621494841574 11.5999999595805 7.31500108242025
      endloop
   endfacet
   facet normal 0.939692617122262 0 -0.342020153391455
      outer loop
         vertex -11.5621494841574 13.1999999191611 7.31500108242025
         vertex -9.92889281034454 13.1999999191611 11.8023367643355
         vertex -11.5621494841574 11.5999999595805 7.31500108242025
      endloop
   endfacet
   facet normal 0.939692617122262 0 -0.342020153391455
      outer loop
         vertex -11.5621494841574 11.5999999595805 7.31500108242025
         vertex -9.92889281034454 13.1999999191611 11.8023367643355
         vertex -9.92889281034454 11.5999999595805 11.8023367643355
      endloop
   endfacet
   facet normal 1 0 0
      outer loop
         vertex -9.92889281034454 13.1999999191611 11.8023367643355
         vertex -9.92889281034454 13.1999999191611 16.577663463354
         vertex -9.92889281034454 11.5999999595805 11.8023367643355
      endloop
   endfacet
   facet normal 1 0 0
      outer loop
         vertex -9.92889281034454 11.5999999595805 11.8023367643355
         vertex -9.92889281034454 13.1999999191611 16.577663463354
         vertex -9.92889281034454 11.5999999595805 16.577663463354
      endloop
   endfacet
   facet normal 0.939692617122262 0 0.342020153391455
      outer loop
         vertex -9.92889281034454 13.1999999191611 16.577663463354
         vertex -11.5621494841574 13.1999999191611 21.0649991452693
         vertex -9.92889281034454 11.5999999595805 16.577663463354
      endloop
   endfacet
   facet normal 0.939692617122262 0 0.342020153391455
      outer loop
         vertex -9.92889281034454 11.5999999595805 16.577663463354
         vertex -11.5621494841574 13.1999999191611 21.0649991452693
         vertex -11.5621494841574 11.5999999595805 21.0649991452693
      endloop
   endfacet
   facet normal 0.76604449978905 0 0.642787542149771
      outer loop
         vertex -11.5621494841574 13.1999999191611 21.0649991452693
         vertex -14.6316694808005 13.1999999191611 24.723111283779
         vertex -11.5621494841574 11.5999999595805 21.0649991452693
      endloop
   endfacet
   facet normal 0.76604449978905 0 0.642787542149771
      outer loop
         vertex -11.5621494841574 11.5999999595805 21.0649991452693
         vertex -14.6316694808005 13.1999999191611 24.723111283779
         vertex -14.6316694808005 11.5999999595805 24.723111283779
      endloop
   endfacet
   facet normal 0.500000423024426 0 0.866025159551035
      outer loop
         vertex -14.6316694808005 13.1999999191611 24.723111283779
         vertex -18.7672222745417 13.1999999191611 27.1107764959334
         vertex -14.6316694808005 11.5999999595805 24.723111283779
      endloop
   endfacet
   facet normal 0.500000423024426 0 0.866025159551035
      outer loop
         vertex -14.6316694808005 11.5999999595805 24.723111283779
         vertex -18.7672222745417 13.1999999191611 27.1107764959334
         vertex -18.7672222745417 11.5999999595805 27.1107764959334
      endloop
   endfacet
   facet normal 0.173646771928736 0 0.984808000880745
      outer loop
         vertex -18.7672222745417 13.1999999191611 27.1107764959334
         vertex -23.4700008076428 13.1999999191611 27.9399963140487
         vertex -18.7672222745417 11.5999999595805 27.1107764959334
      endloop
   endfacet
   facet normal 0.173646771928736 0 0.984808000880745
      outer loop
         vertex -18.7672222745417 11.5999999595805 27.1107764959334
         vertex -23.4700008076428 13.1999999191611 27.9399963140487
         vertex -23.4700008076428 11.5999999595805 27.9399963140487
      endloop
   endfacet
   facet normal -0.173646838631774 0 0.984807989119296
      outer loop
         vertex -23.4700008076428 13.1999999191611 27.9399963140487
         vertex -28.1727774780987 13.1999999191611 27.1107764959334
         vertex -23.4700008076428 11.5999999595805 27.9399963140487
      endloop
   endfacet
   facet normal -0.173646838631774 0 0.984807989119296
      outer loop
         vertex -23.4700008076428 11.5999999595805 27.9399963140487
         vertex -28.1727774780987 13.1999999191611 27.1107764959334
         vertex -28.1727774780987 11.5999999595805 27.1107764959334
      endloop
   endfacet
   facet normal -0.500000507474107 0 0.866025110793928
      outer loop
         vertex -28.1727774780987 13.1999999191611 27.1107764959334
         vertex -32.3083293405174 13.1999999191611 24.723111283779
         vertex -28.1727774780987 11.5999999595805 27.1107764959334
      endloop
   endfacet
   facet normal -0.500000507474107 0 0.866025110793928
      outer loop
         vertex -28.1727774780987 11.5999999595805 27.1107764959334
         vertex -32.3083293405174 13.1999999191611 24.723111283779
         vertex -32.3083293405174 11.5999999595805 24.723111283779
      endloop
   endfacet
   facet normal -0.76604449978905 0 0.642787542149771
      outer loop
         vertex -32.3083293405174 13.1999999191611 24.723111283779
         vertex -35.3778493371604 13.1999999191611 21.0649991452693
         vertex -32.3083293405174 11.5999999595805 24.723111283779
      endloop
   endfacet
   facet normal -0.76604449978905 0 0.642787542149771
      outer loop
         vertex -32.3083293405174 11.5999999595805 24.723111283779
         vertex -35.3778493371604 13.1999999191611 21.0649991452693
         vertex -35.3778493371604 11.5999999595805 21.0649991452693
      endloop
   endfacet
   facet normal -0.939692554441397 0 0.34202032560566
      outer loop
         vertex -35.3778493371604 13.1999999191611 21.0649991452693
         vertex -37.0111069422959 13.1999999191611 16.577663463354
         vertex -35.3778493371604 11.5999999595805 21.0649991452693
      endloop
   endfacet
   facet normal -0.939692554441397 0 0.34202032560566
      outer loop
         vertex -35.3778493371604 11.5999999595805 21.0649991452693
         vertex -37.0111069422959 13.1999999191611 16.577663463354
         vertex -37.0111069422959 11.5999999595805 16.577663463354
      endloop
   endfacet
   facet normal -1 0 0
      outer loop
         vertex -37.0111069422959 13.1999999191611 16.577663463354
         vertex -37.0111069422959 13.1999999191611 11.8023367643355
         vertex -37.0111069422959 11.5999999595805 16.577663463354
      endloop
   endfacet
   facet normal -1 0 0
      outer loop
         vertex -37.0111069422959 11.5999999595805 16.577663463354
         vertex -37.0111069422959 13.1999999191611 11.8023367643355
         vertex -37.0111069422959 11.5999999595805 11.8023367643355
      endloop
   endfacet
   facet normal -0.939692554441397 0 -0.34202032560566
      outer loop
         vertex -37.0111069422959 13.1999999191611 11.8023367643355
         vertex -35.3778493371604 13.1999999191611 7.31500108242025
         vertex -37.0111069422959 11.5999999595805 11.8023367643355
      endloop
   endfacet
   facet normal -0.939692554441397 0 -0.34202032560566
      outer loop
         vertex -37.0111069422959 11.5999999595805 11.8023367643355
         vertex -35.3778493371604 13.1999999191611 7.31500108242025
         vertex -35.3778493371604 11.5999999595805 7.31500108242025
      endloop
   endfacet
   facet normal -0.76604449978905 0 -0.642787542149771
      outer loop
         vertex -35.3778493371604 13.1999999191611 7.31500108242025
         vertex -32.3083293405174 13.1999999191611 3.6568889439105
         vertex -35.3778493371604 11.5999999595805 7.31500108242025
      endloop
   endfacet
   facet normal -0.76604449978905 0 -0.642787542149771
      outer loop
         vertex -35.3778493371604 11.5999999595805 7.31500108242025
         vertex -32.3083293405174 13.1999999191611 3.6568889439105
         vertex -32.3083293405174 11.5999999595805 3.6568889439105
      endloop
   endfacet
   facet normal -0.499999922389923 0 -0.866025448592633
      outer loop
         vertex -32.3083293405174 13.1999999191611 3.6568889439105
         vertex -28.1727774780987 13.1999999191611 1.26922745704641
         vertex -32.3083293405174 11.5999999595805 3.6568889439105
      endloop
   endfacet
   facet normal -0.499999922389923 0 -0.866025448592633
      outer loop
         vertex -32.3083293405174 11.5999999595805 3.6568889439105
         vertex -28.1727774780987 13.1999999191611 1.26922745704641
         vertex -28.1727774780987 11.5999999595805 1.26922745704641
      endloop
   endfacet
   facet normal -0.173648351810667 0 -0.984807722305953
      outer loop
         vertex -28.1727774780987 13.1999999191611 1.26922745704641
         vertex -23.4700008076428 13.1999999191611 0.440000188350581
         vertex -28.1727774780987 11.5999999595805 1.26922745704641
      endloop
   endfacet
   facet normal -0.173648351810667 0 -0.984807722305953
      outer loop
         vertex -28.1727774780987 11.5999999595805 1.26922745704641
         vertex -23.4700008076428 13.1999999191611 0.440000188350581
         vertex -23.4700008076428 11.5999999595805 0.440000188350581
      endloop
   endfacet
   facet normal 0 -1 0
      outer loop
         vertex -14.6316694808005 11.5999999595805 24.723111283779
         vertex -18.7672222745417 11.5999999595805 27.1107764959334
         vertex -23.4700008076428 11.5999999595805 14.1899982511996
      endloop
   endfacet
   facet normal 0 -1 0
      outer loop
         vertex -18.7672222745417 11.5999999595805 27.1107764959334
         vertex -23.4700008076428 11.5999999595805 27.9399963140487
         vertex -23.4700008076428 11.5999999595805 14.1899982511996
      endloop
   endfacet
   facet normal 0 -1 0
      outer loop
         vertex -23.4700008076428 11.5999999595805 14.1899982511996
         vertex -23.4700008076428 11.5999999595805 27.9399963140487
         vertex -28.1727774780987 11.5999999595805 27.1107764959334
      endloop
   endfacet
   facet normal 0 -1 0
      outer loop
         vertex -9.92889281034454 11.5999999595805 11.8023367643355
         vertex -9.92889281034454 11.5999999595805 16.577663463354
         vertex -23.4700008076428 11.5999999595805 14.1899982511996
      endloop
   endfacet
   facet normal 0 -1 0
      outer loop
         vertex -9.92889281034454 11.5999999595805 16.577663463354
         vertex -11.5621494841574 11.5999999595805 21.0649991452693
         vertex -23.4700008076428 11.5999999595805 14.1899982511996
      endloop
   endfacet
   facet normal 0 -1 0
      outer loop
         vertex -23.4700008076428 11.5999999595805 14.1899982511996
         vertex -11.5621494841574 11.5999999595805 21.0649991452693
         vertex -14.6316694808005 11.5999999595805 24.723111283779
      endloop
   endfacet
   facet normal 0 -1 0
      outer loop
         vertex -18.7672222745417 11.5999999595805 1.26922745704641
         vertex -14.6316694808005 11.5999999595805 3.6568889439105
         vertex -23.4700008076428 11.5999999595805 14.1899982511996
      endloop
   endfacet
   facet normal 0 -1 0
      outer loop
         vertex -14.6316694808005 11.5999999595805 3.6568889439105
         vertex -11.5621494841574 11.5999999595805 7.31500108242025
         vertex -23.4700008076428 11.5999999595805 14.1899982511996
      endloop
   endfacet
   facet normal 0 -1 0
      outer loop
         vertex -23.4700008076428 11.5999999595805 14.1899982511996
         vertex -11.5621494841574 11.5999999595805 7.31500108242025
         vertex -9.92889281034454 11.5999999595805 11.8023367643355
      endloop
   endfacet
   facet normal 0 -1 0
      outer loop
         vertex -32.3083293405174 11.5999999595805 3.6568889439105
         vertex -28.1727774780987 11.5999999595805 1.26922745704641
         vertex -23.4700008076428 11.5999999595805 14.1899982511996
      endloop
   endfacet
   facet normal 0 -1 0
      outer loop
         vertex -28.1727774780987 11.5999999595805 1.26922745704641
         vertex -23.4700008076428 11.5999999595805 0.440000188350581
         vertex -23.4700008076428 11.5999999595805 14.1899982511996
      endloop
   endfacet
   facet normal 0 -1 0
      outer loop
         vertex -23.4700008076428 11.5999999595805 14.1899982511996
         vertex -23.4700008076428 11.5999999595805 0.440000188350581
         vertex -18.7672222745417 11.5999999595805 1.26922745704641
      endloop
   endfacet
   facet normal 0 -1 0
      outer loop
         vertex -37.0111069422959 11.5999999595805 16.577663463354
         vertex -37.0111069422959 11.5999999595805 11.8023367643355
         vertex -23.4700008076428 11.5999999595805 14.1899982511996
      endloop
   endfacet
   facet normal 0 -1 0
      outer loop
         vertex -37.0111069422959 11.5999999595805 11.8023367643355
         vertex -35.3778493371604 11.5999999595805 7.31500108242025
         vertex -23.4700008076428 11.5999999595805 14.1899982511996
      endloop
   endfacet
   facet normal 0 -1 0
      outer loop
         vertex -23.4700008076428 11.5999999595805 14.1899982511996
         vertex -35.3778493371604 11.5999999595805 7.31500108242025
         vertex -32.3083293405174 11.5999999595805 3.6568889439105
      endloop
   endfacet
   facet normal 0 -1 0
      outer loop
         vertex -28.1727774780987 11.5999999595805 27.1107764959334
         vertex -32.3083293405174 11.5999999595805 24.723111283779
         vertex -23.4700008076428 11.5999999595805 14.1899982511996
      endloop
   endfacet
   facet normal 0 -1 0
      outer loop
         vertex -32.3083293405174 11.5999999595805 24.723111283779
         vertex -35.3778493371604 11.5999999595805 21.0649991452693
         vertex -23.4700008076428 11.5999999595805 14.1899982511996
      endloop
   endfacet
   facet normal 0 -1 0
      outer loop
         vertex -23.4700008076428 11.5999999595805 14.1899982511996
         vertex -35.3778493371604 11.5999999595805 21.0649991452693
         vertex -37.0111069422959 11.5999999595805 16.577663463354
      endloop
   endfacet
endsolid SMALL_chip2
